<svg width="348" height="664" viewBox="0 0 348 664" fill="none" xmlns="http://www.w3.org/2000/svg">
<g filter="url(#filter0_dddd_184_12653)">
<rect x="29.66" y="188.234" width="291.84" height="49" rx="24" fill="#F2F2F2" shape-rendering="crispEdges"/>
<rect x="31.9948" y="192.234" width="143.585" height="41" rx="20.5" fill="#5B4DFF"/>
<path d="M96.0669 212.274C97.2886 212.274 98.1472 211.366 98.1472 210.095C98.1472 208.84 97.2886 207.932 96.0504 207.932H93.5079V212.274H96.0669ZM96.1329 206.1C98.5599 206.1 100.277 207.751 100.277 210.095C100.277 212.456 98.5599 214.107 96.1329 214.107H93.5079V218.449H91.3781V206.1H96.1329ZM107.453 206.1L111.96 218.449H109.698L108.526 215.213H103.754L102.533 218.449H100.271L104.877 206.1H107.453ZM104.431 213.38H107.849L106.165 208.758L104.431 213.38ZM114.064 210.409H116.194V218.449H114.064V210.409ZM115.137 206.364C115.798 206.364 116.277 206.842 116.277 207.503C116.277 208.18 115.798 208.659 115.137 208.659C114.461 208.659 113.982 208.18 113.982 207.503C113.982 206.842 114.461 206.364 115.137 206.364Z" fill="white"/>
<path d="M243.342 206.1V207.932H237.431V211.333H242.467V213.166H237.431V218.449H235.302V206.1H243.342ZM250.683 206.1L255.19 218.449H252.929L251.756 215.213H246.985L245.763 218.449H243.501L248.108 206.1H250.683ZM247.662 213.38H251.079L249.395 208.758L247.662 213.38ZM257.295 210.409H259.425V218.449H257.295V210.409ZM258.368 206.364C259.028 206.364 259.507 206.842 259.507 207.503C259.507 208.18 259.028 208.659 258.368 208.659C257.691 208.659 257.212 208.18 257.212 207.503C257.212 206.842 257.691 206.364 258.368 206.364Z" fill="#A5A4A7"/>
</g>
<path fill-rule="evenodd" clip-rule="evenodd" d="M86.4518 204.35C86.4518 204.35 85.5074 203.993 84.9895 203.747C81.7645 202.214 77.407 198.853 72.1057 191.701C71.4162 190.771 71.6114 189.458 72.5417 188.768C73.472 188.079 74.7851 188.274 75.4746 189.204C80.5186 196.009 84.0434 198.649 86.4518 199.794L86.4518 204.35Z" fill="#211815"/>
<g filter="url(#filter1_i_184_12653)">
<path d="M64.9834 175.374C60.4063 177.096 58.0922 182.203 59.8146 186.78C61.5371 191.357 66.6438 193.671 71.2209 191.949C75.798 190.226 78.1121 185.12 76.3897 180.543C74.6672 175.965 69.5605 173.651 64.9834 175.374Z" fill="#B9B2FF" fill-opacity="0.6"/>
</g>
<g filter="url(#filter2_i_184_12653)">
<path fill-rule="evenodd" clip-rule="evenodd" d="M65.2295 176.028C61.0137 177.614 58.8822 182.318 60.4687 186.534C62.0552 190.75 66.7589 192.881 70.9747 191.295C75.1906 189.708 77.3221 185.005 75.7356 180.789C74.1491 176.573 69.4454 174.441 65.2295 176.028ZM59.8146 186.78C58.0922 182.203 60.4063 177.096 64.9834 175.374C69.5605 173.651 74.6672 175.965 76.3897 180.543C78.1121 185.12 75.798 190.226 71.2209 191.949C66.6438 193.671 61.5371 191.357 59.8146 186.78Z" fill="white"/>
</g>
<g filter="url(#filter3_i_184_12653)">
<path fill-rule="evenodd" clip-rule="evenodd" d="M69.862 157.781C71.823 163.973 68.4135 170.576 62.2466 172.529C56.0798 174.482 49.491 171.045 47.53 164.853C45.569 158.66 48.9785 152.057 55.1453 150.105C61.3121 148.152 67.901 151.588 69.862 157.781ZM73.0523 156.771C75.5735 164.732 71.1899 173.222 63.2611 175.733C55.3324 178.244 46.8609 173.825 44.3397 165.863C41.8184 157.901 46.2021 149.412 54.1308 146.901C62.0596 144.39 70.531 148.809 73.0523 156.771Z" fill="#5B4DFF"/>
<path fill-rule="evenodd" clip-rule="evenodd" d="M68.0204 189.376C68.9014 189.097 69.3894 188.157 69.1104 187.276L64.4308 172.498L61.2405 173.509L65.9201 188.286C66.1991 189.167 67.1395 189.655 68.0204 189.376Z" fill="#5B4DFF"/>
</g>
<g filter="url(#filter4_i_184_12653)">
<path d="M69.8619 157.781C71.8229 163.973 68.4134 170.576 62.2466 172.529C56.0798 174.482 49.4909 171.045 47.5299 164.853C45.5689 158.661 48.9784 152.058 55.1453 150.105C61.3121 148.152 67.9009 151.589 69.8619 157.781Z" fill="#D8EAFB" fill-opacity="0.4"/>
</g>
<path d="M68.4718 158.684C69.4443 161.628 69.4248 168.271 61.7477 171.369" stroke="white" stroke-opacity="0.8" stroke-width="0.87552" stroke-linecap="round"/>
<path d="M71.0419 176.263C71.3755 175.407 67.901 174.985 67.0156 176.681" stroke="#211815" stroke-width="4.20249" stroke-linecap="round"/>
<path d="M59.9929 180.339C58.4631 180.896 59.0044 182.509 67.4973 181.556" stroke="#211815" stroke-width="4.2025" stroke-linecap="round"/>
<path d="M60.5763 186.441C59.0464 186.997 59.5878 188.611 68.0807 187.658" stroke="#211815" stroke-width="4.2025" stroke-linecap="round"/>
<g filter="url(#filter5_dddd_184_12653)">
<rect x="27.7552" y="320.076" width="291.84" height="49" rx="24" fill="#F2F2F2" shape-rendering="crispEdges"/>
<path d="M94.1621 344.116C95.3839 344.116 96.2424 343.208 96.2424 341.937C96.2424 340.682 95.3839 339.774 94.1456 339.774H91.6031V344.116H94.1621ZM94.2282 337.941C96.6551 337.941 98.3722 339.592 98.3722 341.937C98.3722 344.298 96.6551 345.949 94.2282 345.949H91.6031V350.291H89.4733V337.941H94.2282ZM105.548 337.941L110.055 350.291H107.793L106.621 347.055H101.85L100.628 350.291H98.366L102.972 337.941H105.548ZM102.527 345.222H105.944L104.26 340.599L102.527 345.222ZM112.159 342.25H114.289V350.291H112.159V342.25ZM113.233 338.205C113.893 338.205 114.372 338.684 114.372 339.345C114.372 340.022 113.893 340.5 113.233 340.5C112.556 340.5 112.077 340.022 112.077 339.345C112.077 338.684 112.556 338.205 113.233 338.205Z" fill="#A5A4A7"/>
<rect x="173.675" y="324.076" width="143.585" height="41" rx="20.5" fill="#FF9524"/>
<path d="M241.437 337.941V339.774H235.527V343.175H240.562V345.008H235.527V350.291H233.397V337.941H241.437ZM248.778 337.941L253.286 350.291H251.024L249.852 347.055H245.08L243.858 350.291H241.597L246.203 337.941H248.778ZM245.757 345.222H249.175L247.491 340.599L245.757 345.222ZM255.39 342.25H257.52V350.291H255.39V342.25ZM256.463 338.205C257.124 338.205 257.602 338.684 257.602 339.345C257.602 340.022 257.124 340.5 256.463 340.5C255.786 340.5 255.308 340.022 255.308 339.345C255.308 338.684 255.786 338.205 256.463 338.205Z" fill="white"/>
</g>
<path d="M263.188 332.554C263.412 333.126 263.723 333.652 264.123 334.125C267.097 337.617 273.924 336.682 279.374 332.037C284.086 328.02 286.221 322.547 284.787 318.882C284.563 318.31 284.251 317.784 283.851 317.311C280.877 313.819 274.05 314.754 268.601 319.399C263.889 323.416 261.753 328.889 263.188 332.554Z" fill="#FFDFBD" fill-opacity="0.6"/>
<g filter="url(#filter6_b_184_12653)">
<path fill-rule="evenodd" clip-rule="evenodd" d="M264.659 333.671C265.937 335.171 268.108 335.795 270.724 335.436C273.332 335.079 276.28 333.751 278.918 331.502M264.659 333.671C264.309 333.258 264.038 332.799 263.841 332.298C263.21 330.685 263.339 328.594 264.24 326.372C265.137 324.159 266.777 321.877 269.056 319.934C271.694 317.685 274.642 316.357 277.25 315.999C279.866 315.641 282.037 316.265 283.315 317.765C283.665 318.178 283.937 318.637 284.133 319.138C284.764 320.751 284.635 322.842 283.734 325.064C282.838 327.277 281.197 329.559 278.918 331.502M283.851 317.311C284.251 317.784 284.563 318.31 284.787 318.882C286.221 322.547 284.086 328.02 279.374 332.037C273.924 336.682 267.097 337.617 264.123 334.125C263.723 333.652 263.412 333.126 263.188 332.554C261.753 328.889 263.889 323.416 268.601 319.399C274.05 314.754 280.877 313.819 283.851 317.311Z" fill="white"/>
</g>
<g filter="url(#filter7_i_184_12653)">
<path fill-rule="evenodd" clip-rule="evenodd" d="M273.517 293.103C271.926 299.401 275.721 305.79 281.993 307.374C288.265 308.957 294.638 305.136 296.229 298.838C297.819 292.54 294.024 286.151 287.752 284.567C281.48 282.983 275.107 286.805 273.517 293.103ZM270.272 292.283C268.227 300.381 273.107 308.595 281.17 310.632C289.234 312.668 297.429 307.754 299.473 299.657C301.518 291.56 296.639 283.345 288.575 281.309C280.511 279.273 272.317 284.186 270.272 292.283Z" fill="#5B4DFF"/>
<path fill-rule="evenodd" clip-rule="evenodd" d="M277.229 324.533C276.333 324.307 275.79 323.397 276.016 322.501L279.811 307.472L283.056 308.292L279.26 323.321C279.034 324.217 278.124 324.759 277.229 324.533Z" fill="#5B4DFF"/>
</g>
<g filter="url(#filter8_i_184_12653)">
<path d="M273.599 299.131C275.346 305.387 281.813 309.048 288.043 307.308C294.273 305.568 297.907 299.086 296.16 292.83C294.413 286.573 287.946 282.913 281.716 284.653C275.485 286.393 271.851 292.875 273.599 299.131Z" fill="#D8EAFB" fill-opacity="0.4"/>
</g>
<path d="M275.408 299.042C276.205 302.038 279.857 307.588 287.978 305.979" stroke="white" stroke-opacity="0.8" stroke-width="0.87552" stroke-linecap="round"/>
<path d="M75.0074 476.38C76.4874 476.38 77.5274 475.28 77.5274 473.74C77.5274 472.22 76.4874 471.12 74.9874 471.12H71.9074V476.38H75.0074ZM75.0874 468.9C78.0274 468.9 80.1074 470.9 80.1074 473.74C80.1074 476.6 78.0274 478.6 75.0874 478.6H71.9074V483.86H69.3274V468.9H75.0874ZM88.8423 468.9L94.3023 483.86H91.5623L90.1423 479.94H84.3623L82.8823 483.86H80.1423L85.7223 468.9H88.8423ZM85.1823 477.72H89.3223L87.2823 472.12L85.1823 477.72ZM96.8939 474.12H99.4739V483.86H96.8939V474.12ZM98.1939 469.22C98.9939 469.22 99.5739 469.8 99.5739 470.6C99.5739 471.42 98.9939 472 98.1939 472C97.3739 472 96.7939 471.42 96.7939 470.6C96.7939 469.8 97.3739 469.22 98.1939 469.22ZM122.482 483.84H118.782L117.682 482.66C116.582 483.6 115.202 484.28 113.462 484.28C108.602 484.28 108.302 480.3 108.302 479.7C108.302 479.18 108.542 476.94 110.682 475.42C110.022 474.72 109.362 473.86 109.362 472.54C109.362 470.88 110.762 468.68 113.462 468.68C116.142 468.68 117.642 470.78 117.642 472.54C117.642 474.04 116.742 475.12 115.162 476.08L117.562 478.66C117.922 478.08 118.262 477.44 118.582 476.86L120.922 478.16C120.542 478.86 120.082 479.76 119.462 480.64L122.482 483.84ZM110.982 479.7C110.982 480.12 111.102 481.6 113.462 481.6C114.382 481.6 115.162 481.26 115.822 480.74L112.642 477.36C111.142 478.16 110.982 479.38 110.982 479.7ZM112.042 472.54C112.042 473.1 112.582 473.48 113.242 474.12C114.542 473.5 114.962 473.1 114.962 472.54C114.962 471.88 114.482 471.36 113.462 471.36C112.342 471.36 112.042 471.92 112.042 472.54ZM140.137 468.9V471.12H132.977V475.24H139.077V477.46H132.977V483.86H130.397V468.9H140.137ZM149.072 468.9L154.532 483.86H151.792L150.372 479.94H144.592L143.112 483.86H140.372L145.952 468.9H149.072ZM145.412 477.72H149.552L147.512 472.12L145.412 477.72ZM157.124 474.12H159.704V483.86H157.124V474.12ZM158.424 469.22C159.224 469.22 159.804 469.8 159.804 470.6C159.804 471.42 159.224 472 158.424 472C157.604 472 157.024 471.42 157.024 470.6C157.024 469.8 157.604 469.22 158.424 469.22ZM180.472 467.32H182.992V478.38H180.472V474.02H179.232V478.2H176.752V467.54H179.232V471.88H180.472V467.32ZM167.532 469.02H170.592V467.44H173.212V469.02H176.252V471.06H167.532V469.02ZM171.912 471.58C174.192 471.58 175.812 472.88 175.812 474.74C175.812 476.6 174.192 477.88 171.912 477.88C169.672 477.88 168.052 476.6 168.052 474.74C168.052 472.88 169.672 471.58 171.912 471.58ZM171.912 473.5C171.032 473.5 170.392 473.92 170.392 474.74C170.392 475.54 171.032 476 171.912 476C172.812 476 173.452 475.54 173.452 474.74C173.452 473.92 172.812 473.5 171.912 473.5ZM171.932 478.96H174.532V479.3C174.532 480.56 175.092 481.9 176.452 482.78C177.832 481.84 178.432 480.48 178.432 479.3V478.96H181.052V479.3C181.052 480.96 182.032 482.52 184.392 483.14L183.132 485.08C181.432 484.58 180.312 483.56 179.692 482.28C179.112 483.58 178.092 484.68 176.472 485.26C174.852 484.7 173.832 483.62 173.232 482.36C172.592 483.58 171.492 484.58 169.852 485.08L168.632 483.14C170.952 482.46 171.932 480.84 171.932 479.3V478.96ZM186.781 468.5H194.941V470.62H189.441V475.92C191.961 475.9 193.741 475.78 195.721 475.4L195.941 477.52C193.621 477.96 191.521 478.04 188.241 478.04H186.781V468.5ZM198.121 467.3H200.801V480.4H198.121V474.06H193.921V471.96H198.121V467.3ZM188.881 479.32H191.541V482.92H201.201V485.04H188.881V479.32ZM221.947 467.3H224.487V485.3H221.947V476.36H220.407V484.44H217.947V467.62H220.407V474.2H221.947V467.3ZM209.527 469.38H216.147V471.52H212.147V479.08C213.767 479.06 215.287 478.94 216.947 478.64L217.167 480.8C214.967 481.22 213.067 481.28 210.787 481.28H209.527V469.38ZM238.795 467.32H241.455V474.58H243.675V476.78H241.455V485.32H238.795V467.32ZM226.915 480.2C228.195 480.2 229.675 480.2 231.235 480.16V478.68C229.375 478.28 228.155 477.08 228.155 475.42C228.155 473.4 229.975 472.04 232.555 472.04C235.135 472.04 236.975 473.4 236.975 475.42C236.975 477.06 235.755 478.28 233.895 478.66V480.06C235.255 479.98 236.615 479.86 237.895 479.7L238.095 481.6C234.315 482.34 230.255 482.34 227.255 482.34L226.915 480.2ZM227.255 469.26H231.235V467.4H233.895V469.26H237.835V471.34H227.255V469.26ZM232.555 474.04C231.435 474.04 230.675 474.52 230.675 475.42C230.675 476.32 231.435 476.82 232.555 476.82C233.715 476.82 234.455 476.32 234.455 475.42C234.455 474.52 233.715 474.04 232.555 474.04ZM245.224 474.24H261.504V476.34H245.224V474.24ZM247.224 467.62H259.424V469.74H249.864V471.24H259.584V473.32H247.224V467.62ZM247.044 477.3H259.504V482.12H249.684V483.14H259.984V485.16H247.084V480.24H256.884V479.3H247.044V477.3ZM271.432 467.56C275.532 467.56 277.972 468.64 277.972 470.62C277.972 472.62 275.532 473.7 271.432 473.7C267.312 473.7 264.892 472.62 264.892 470.62C264.892 468.64 267.312 467.56 271.432 467.56ZM271.432 469.5C268.852 469.5 267.652 469.86 267.652 470.62C267.652 471.42 268.852 471.76 271.432 471.76C273.992 471.76 275.192 471.42 275.192 470.62C275.192 469.86 273.992 469.5 271.432 469.5ZM263.292 474.5H279.552V476.6H263.292V474.5ZM265.132 477.56H277.592V482.24H267.772V483.2H278.072V485.2H265.172V480.4H274.972V479.54H265.132V477.56Z" fill="#727175"/>
<path d="M97.1799 505.3H99.8399V509.46H102.22V511.64H99.8399V515.74H97.1799V505.3ZM94.8199 506.3C94.8199 511.12 91.8399 514.38 86.4999 515.76L85.4199 513.7C89.3999 512.7 91.5599 510.74 91.9599 508.42H86.3399V506.3H94.8199ZM87.8199 516.5H99.8399V523.32H97.1799V518.58H87.8199V516.5ZM115.268 505.3H117.928V509.46H120.308V511.64H117.928V515.74H115.268V505.3ZM112.908 506.3C112.908 511.12 109.928 514.38 104.588 515.76L103.508 513.7C107.488 512.7 109.648 510.74 110.048 508.42H104.428V506.3H112.908ZM105.908 516.5H117.928V523.32H115.268V518.58H105.908V516.5ZM136.314 506.3C136.314 511.08 133.434 514.34 128.154 515.78L127.114 513.72C130.954 512.7 133.054 510.76 133.454 508.42H128.094V506.3H136.314ZM139.474 505.3H142.134V515.34H139.474V511.7H136.434V509.54H139.474V505.3ZM130.254 516.06H142.134V523.1H130.254V516.06ZM139.514 518.16H132.874V521.02H139.514V518.16ZM148.323 506.32H150.903V508.38C150.903 510.34 151.803 512.26 154.163 513.28V505.58H156.643V509.66H157.963V505.32H160.503V516.24H157.963V511.8H156.643V516.14H154.163V513.38L152.803 515.32C151.303 514.7 150.283 513.64 149.643 512.34C149.003 513.84 147.903 515.1 146.263 515.8L144.863 513.74C147.363 512.62 148.323 510.4 148.323 508.38V506.32ZM148.083 517H160.503V523.32H157.823V519.12H148.083V517ZM174.751 505.3H177.431V509.08H179.791V511.24H177.431V514.98H174.751V505.3ZM165.511 515.7H177.431V520.3H168.171V521.24H177.951V523.2H165.551V518.5H174.791V517.62H165.511V515.7ZM163.251 506.6H167.211V505.16H169.871V506.6H173.831V508.6H163.251V506.6ZM168.551 508.98C171.211 508.98 172.991 510.12 172.991 511.94C172.991 513.76 171.211 514.86 168.551 514.86C165.871 514.86 164.111 513.76 164.111 511.94C164.111 510.12 165.871 508.98 168.551 508.98ZM168.551 510.86C167.371 510.86 166.671 511.2 166.671 511.94C166.671 512.66 167.371 513 168.551 513C169.711 513 170.411 512.66 170.411 511.94C170.411 511.2 169.711 510.86 168.551 510.86ZM193.297 505.82H196.117V506.66C196.117 508.72 198.097 511.1 202.277 511.66L201.257 513.78C198.097 513.32 195.877 511.88 194.717 509.96C193.557 511.88 191.337 513.32 188.177 513.78L187.137 511.66C191.337 511.1 193.297 508.74 193.297 506.66V505.82ZM186.557 515.06H202.837V517.22H195.977V523.32H193.317V517.22H186.557V515.06ZM213.883 516.22H216.443V516.78C216.443 518.2 217.003 519.68 218.403 520.68C219.843 519.62 220.423 518.12 220.423 516.78V516.22H223.043V516.78C223.043 518.66 224.003 520.38 226.363 521.1L225.083 523.04C223.403 522.48 222.303 521.42 221.683 520.04C221.083 521.42 220.063 522.6 218.463 523.24C216.803 522.62 215.763 521.48 215.183 520.12C214.543 521.42 213.463 522.48 211.843 523.04L210.543 521.1C212.903 520.3 213.883 518.54 213.883 516.78V516.22ZM222.163 505.32H224.843V515.48H222.163V505.32ZM215.023 506.22C217.843 506.22 219.943 508.02 219.943 510.54C219.943 513.06 217.843 514.86 215.023 514.86C212.223 514.86 210.123 513.06 210.123 510.54C210.123 508.02 212.223 506.22 215.023 506.22ZM215.023 508.42C213.703 508.42 212.723 509.2 212.723 510.54C212.723 511.9 213.703 512.66 215.023 512.66C216.363 512.66 217.343 511.9 217.343 510.54C217.343 509.2 216.363 508.42 215.023 508.42ZM232.871 506.52C235.271 506.52 237.091 508.52 237.471 511.74H240.411V505.28H243.051V523.34H240.411V513.88H237.491C237.211 517.32 235.351 519.44 232.871 519.44C230.191 519.44 228.211 516.94 228.211 512.96C228.211 509.02 230.191 506.52 232.871 506.52ZM232.871 508.96C231.611 508.96 230.751 510.34 230.751 512.96C230.751 515.62 231.611 517.02 232.871 517.02C234.171 517.02 235.011 515.62 235.011 512.96C235.011 510.34 234.171 508.96 232.871 508.96ZM246.04 519.06H249.58V514.68C248.24 513.82 247.44 512.56 247.44 511C247.44 508.04 250.3 506.14 254.18 506.14C258.06 506.14 260.92 508.04 260.92 511C260.92 512.56 260.12 513.82 258.78 514.68V519.06H262.34V521.22H246.04V519.06ZM254.18 508.22C251.7 508.22 250.06 509.24 250.06 511C250.06 512.76 251.7 513.78 254.18 513.78C256.64 513.78 258.28 512.76 258.28 511C258.28 509.24 256.64 508.22 254.18 508.22ZM252.26 519.06H256.1V515.68C255.5 515.78 254.86 515.84 254.18 515.84C253.5 515.84 252.86 515.78 252.26 515.68V519.06Z" fill="#727175"/>
<path d="M288.682 16H329.539C330.479 16 331.242 16.7622 331.242 17.7024V58.56" stroke="url(#paint0_linear_184_12653)" stroke-width="10.64" stroke-linecap="round"/>
<path d="M330.39 17.7031L284 64.0935" stroke="url(#paint1_linear_184_12653)" stroke-width="10.64" stroke-linecap="round"/>
<defs>
<filter id="filter0_dddd_184_12653" x="22.6559" y="181.23" width="305.848" height="63.0083" filterUnits="userSpaceOnUse" color-interpolation-filters="sRGB">
<feFlood flood-opacity="0" result="BackgroundImageFix"/>
<feColorMatrix in="SourceAlpha" type="matrix" values="0 0 0 0 0 0 0 0 0 0 0 0 0 0 0 0 0 0 127 0" result="hardAlpha"/>
<feOffset dy="-2.33472"/>
<feGaussianBlur stdDeviation="2.33472"/>
<feComposite in2="hardAlpha" operator="out"/>
<feColorMatrix type="matrix" values="0 0 0 0 0 0 0 0 0 0 0 0 0 0 0 0 0 0 0.01 0"/>
<feBlend mode="normal" in2="BackgroundImageFix" result="effect1_dropShadow_184_12653"/>
<feColorMatrix in="SourceAlpha" type="matrix" values="0 0 0 0 0 0 0 0 0 0 0 0 0 0 0 0 0 0 127 0" result="hardAlpha"/>
<feOffset dy="2.33472"/>
<feGaussianBlur stdDeviation="2.33472"/>
<feComposite in2="hardAlpha" operator="out"/>
<feColorMatrix type="matrix" values="0 0 0 0 0 0 0 0 0 0 0 0 0 0 0 0 0 0 0.01 0"/>
<feBlend mode="normal" in2="effect1_dropShadow_184_12653" result="effect2_dropShadow_184_12653"/>
<feColorMatrix in="SourceAlpha" type="matrix" values="0 0 0 0 0 0 0 0 0 0 0 0 0 0 0 0 0 0 127 0" result="hardAlpha"/>
<feOffset dx="2.33472"/>
<feGaussianBlur stdDeviation="2.33472"/>
<feComposite in2="hardAlpha" operator="out"/>
<feColorMatrix type="matrix" values="0 0 0 0 0 0 0 0 0 0 0 0 0 0 0 0 0 0 0.01 0"/>
<feBlend mode="normal" in2="effect2_dropShadow_184_12653" result="effect3_dropShadow_184_12653"/>
<feColorMatrix in="SourceAlpha" type="matrix" values="0 0 0 0 0 0 0 0 0 0 0 0 0 0 0 0 0 0 127 0" result="hardAlpha"/>
<feOffset dx="-2.33472"/>
<feGaussianBlur stdDeviation="2.33472"/>
<feComposite in2="hardAlpha" operator="out"/>
<feColorMatrix type="matrix" values="0 0 0 0 0 0 0 0 0 0 0 0 0 0 0 0 0 0 0.01 0"/>
<feBlend mode="normal" in2="effect3_dropShadow_184_12653" result="effect4_dropShadow_184_12653"/>
<feBlend mode="normal" in="SourceGraphic" in2="effect4_dropShadow_184_12653" result="shape"/>
</filter>
<filter id="filter1_i_184_12653" x="57.844" y="174.805" width="19.1154" height="19.1157" filterUnits="userSpaceOnUse" color-interpolation-filters="sRGB">
<feFlood flood-opacity="0" result="BackgroundImageFix"/>
<feBlend mode="normal" in="SourceGraphic" in2="BackgroundImageFix" result="shape"/>
<feColorMatrix in="SourceAlpha" type="matrix" values="0 0 0 0 0 0 0 0 0 0 0 0 0 0 0 0 0 0 127 0" result="hardAlpha"/>
<feOffset dx="-1.40083" dy="1.40083"/>
<feGaussianBlur stdDeviation="1.40083"/>
<feComposite in2="hardAlpha" operator="arithmetic" k2="-1" k3="1"/>
<feColorMatrix type="matrix" values="0 0 0 0 0.94902 0 0 0 0 0.94902 0 0 0 0 0.94902 0 0 0 1 0"/>
<feBlend mode="normal" in2="shape" result="effect1_innerShadow_184_12653"/>
</filter>
<filter id="filter2_i_184_12653" x="57.844" y="174.805" width="19.1154" height="19.1157" filterUnits="userSpaceOnUse" color-interpolation-filters="sRGB">
<feFlood flood-opacity="0" result="BackgroundImageFix"/>
<feBlend mode="normal" in="SourceGraphic" in2="BackgroundImageFix" result="shape"/>
<feColorMatrix in="SourceAlpha" type="matrix" values="0 0 0 0 0 0 0 0 0 0 0 0 0 0 0 0 0 0 127 0" result="hardAlpha"/>
<feOffset dx="-1.40083" dy="1.40083"/>
<feGaussianBlur stdDeviation="1.40083"/>
<feComposite in2="hardAlpha" operator="arithmetic" k2="-1" k3="1"/>
<feColorMatrix type="matrix" values="0 0 0 0 0.94902 0 0 0 0 0.94902 0 0 0 0 0.94902 0 0 0 1 0"/>
<feBlend mode="normal" in2="shape" result="effect1_innerShadow_184_12653"/>
</filter>
<filter id="filter3_i_184_12653" x="42.7868" y="146.197" width="30.9778" height="44.0983" filterUnits="userSpaceOnUse" color-interpolation-filters="sRGB">
<feFlood flood-opacity="0" result="BackgroundImageFix"/>
<feBlend mode="normal" in="SourceGraphic" in2="BackgroundImageFix" result="shape"/>
<feColorMatrix in="SourceAlpha" type="matrix" values="0 0 0 0 0 0 0 0 0 0 0 0 0 0 0 0 0 0 127 0" result="hardAlpha"/>
<feOffset dx="-0.840499" dy="0.840499"/>
<feGaussianBlur stdDeviation="1.681"/>
<feComposite in2="hardAlpha" operator="arithmetic" k2="-1" k3="1"/>
<feColorMatrix type="matrix" values="0 0 0 0 0.941176 0 0 0 0 0.596078 0 0 0 0 0.258824 0 0 0 0.8 0"/>
<feBlend mode="normal" in2="shape" result="effect1_innerShadow_184_12653"/>
</filter>
<filter id="filter4_i_184_12653" x="46.1353" y="149.557" width="24.2807" height="24.36" filterUnits="userSpaceOnUse" color-interpolation-filters="sRGB">
<feFlood flood-opacity="0" result="BackgroundImageFix"/>
<feBlend mode="normal" in="SourceGraphic" in2="BackgroundImageFix" result="shape"/>
<feColorMatrix in="SourceAlpha" type="matrix" values="0 0 0 0 0 0 0 0 0 0 0 0 0 0 0 0 0 0 127 0" result="hardAlpha"/>
<feOffset dx="-0.840499" dy="0.840499"/>
<feGaussianBlur stdDeviation="1.681"/>
<feComposite in2="hardAlpha" operator="arithmetic" k2="-1" k3="1"/>
<feColorMatrix type="matrix" values="0 0 0 0 1 0 0 0 0 1 0 0 0 0 1 0 0 0 0.8 0"/>
<feBlend mode="normal" in2="shape" result="effect1_innerShadow_184_12653"/>
</filter>
<filter id="filter5_dddd_184_12653" x="20.7511" y="313.072" width="305.848" height="63.0083" filterUnits="userSpaceOnUse" color-interpolation-filters="sRGB">
<feFlood flood-opacity="0" result="BackgroundImageFix"/>
<feColorMatrix in="SourceAlpha" type="matrix" values="0 0 0 0 0 0 0 0 0 0 0 0 0 0 0 0 0 0 127 0" result="hardAlpha"/>
<feOffset dy="-2.33472"/>
<feGaussianBlur stdDeviation="2.33472"/>
<feComposite in2="hardAlpha" operator="out"/>
<feColorMatrix type="matrix" values="0 0 0 0 0 0 0 0 0 0 0 0 0 0 0 0 0 0 0.01 0"/>
<feBlend mode="normal" in2="BackgroundImageFix" result="effect1_dropShadow_184_12653"/>
<feColorMatrix in="SourceAlpha" type="matrix" values="0 0 0 0 0 0 0 0 0 0 0 0 0 0 0 0 0 0 127 0" result="hardAlpha"/>
<feOffset dy="2.33472"/>
<feGaussianBlur stdDeviation="2.33472"/>
<feComposite in2="hardAlpha" operator="out"/>
<feColorMatrix type="matrix" values="0 0 0 0 0 0 0 0 0 0 0 0 0 0 0 0 0 0 0.01 0"/>
<feBlend mode="normal" in2="effect1_dropShadow_184_12653" result="effect2_dropShadow_184_12653"/>
<feColorMatrix in="SourceAlpha" type="matrix" values="0 0 0 0 0 0 0 0 0 0 0 0 0 0 0 0 0 0 127 0" result="hardAlpha"/>
<feOffset dx="2.33472"/>
<feGaussianBlur stdDeviation="2.33472"/>
<feComposite in2="hardAlpha" operator="out"/>
<feColorMatrix type="matrix" values="0 0 0 0 0 0 0 0 0 0 0 0 0 0 0 0 0 0 0.01 0"/>
<feBlend mode="normal" in2="effect2_dropShadow_184_12653" result="effect3_dropShadow_184_12653"/>
<feColorMatrix in="SourceAlpha" type="matrix" values="0 0 0 0 0 0 0 0 0 0 0 0 0 0 0 0 0 0 127 0" result="hardAlpha"/>
<feOffset dx="-2.33472"/>
<feGaussianBlur stdDeviation="2.33472"/>
<feComposite in2="hardAlpha" operator="out"/>
<feColorMatrix type="matrix" values="0 0 0 0 0 0 0 0 0 0 0 0 0 0 0 0 0 0 0.01 0"/>
<feBlend mode="normal" in2="effect3_dropShadow_184_12653" result="effect4_dropShadow_184_12653"/>
<feBlend mode="normal" in="SourceGraphic" in2="effect4_dropShadow_184_12653" result="shape"/>
</filter>
<filter id="filter6_b_184_12653" x="259.945" y="312.398" width="28.084" height="26.6404" filterUnits="userSpaceOnUse" color-interpolation-filters="sRGB">
<feFlood flood-opacity="0" result="BackgroundImageFix"/>
<feGaussianBlur in="BackgroundImageFix" stdDeviation="1.40083"/>
<feComposite in2="SourceAlpha" operator="in" result="effect1_backgroundBlur_184_12653"/>
<feBlend mode="normal" in="SourceGraphic" in2="effect1_backgroundBlur_184_12653" result="shape"/>
</filter>
<filter id="filter7_i_184_12653" x="268.966" y="280.85" width="30.9731" height="44.5749" filterUnits="userSpaceOnUse" color-interpolation-filters="sRGB">
<feFlood flood-opacity="0" result="BackgroundImageFix"/>
<feBlend mode="normal" in="SourceGraphic" in2="BackgroundImageFix" result="shape"/>
<feColorMatrix in="SourceAlpha" type="matrix" values="0 0 0 0 0 0 0 0 0 0 0 0 0 0 0 0 0 0 127 0" result="hardAlpha"/>
<feOffset dx="-0.840498" dy="0.840498"/>
<feGaussianBlur stdDeviation="1.681"/>
<feComposite in2="hardAlpha" operator="arithmetic" k2="-1" k3="1"/>
<feColorMatrix type="matrix" values="0 0 0 0 0.941176 0 0 0 0 0.596078 0 0 0 0 0.258824 0 0 0 0.8 0"/>
<feBlend mode="normal" in2="shape" result="effect1_innerShadow_184_12653"/>
</filter>
<filter id="filter8_i_184_12653" x="272.32" y="284.219" width="24.2786" height="24.362" filterUnits="userSpaceOnUse" color-interpolation-filters="sRGB">
<feFlood flood-opacity="0" result="BackgroundImageFix"/>
<feBlend mode="normal" in="SourceGraphic" in2="BackgroundImageFix" result="shape"/>
<feColorMatrix in="SourceAlpha" type="matrix" values="0 0 0 0 0 0 0 0 0 0 0 0 0 0 0 0 0 0 127 0" result="hardAlpha"/>
<feOffset dx="-0.840499" dy="0.840499"/>
<feGaussianBlur stdDeviation="1.681"/>
<feComposite in2="hardAlpha" operator="arithmetic" k2="-1" k3="1"/>
<feColorMatrix type="matrix" values="0 0 0 0 1 0 0 0 0 1 0 0 0 0 1 0 0 0 0.8 0"/>
<feBlend mode="normal" in2="shape" result="effect1_innerShadow_184_12653"/>
</filter>
<linearGradient id="paint0_linear_184_12653" x1="295.528" y1="22.8847" x2="341.204" y2="85.2687" gradientUnits="userSpaceOnUse">
<stop stop-color="#5B4DFF"/>
<stop offset="0.845" stop-color="#FF9524"/>
</linearGradient>
<linearGradient id="paint1_linear_184_12653" x1="291.462" y1="25.2075" x2="341.25" y2="93.206" gradientUnits="userSpaceOnUse">
<stop stop-color="#5B4DFF"/>
<stop offset="0.845" stop-color="#FF9524"/>
</linearGradient>
</defs>
</svg>
