<svg width="348" height="664" viewBox="0 0 348 664" fill="none" xmlns="http://www.w3.org/2000/svg">
<g clip-path="url(#clip0_190_11789)">
<g clip-path="url(#clip1_190_11789)">
<path fill-rule="evenodd" clip-rule="evenodd" d="M103.105 576.184C102.061 577.471 102.259 579.36 103.547 580.403L105.435 578.072C103.547 580.403 103.55 580.406 103.553 580.408L103.559 580.413L103.571 580.423C103.58 580.43 103.589 580.437 103.599 580.445C103.619 580.46 103.64 580.477 103.664 580.494C103.711 580.529 103.766 580.569 103.829 580.612C103.955 580.698 104.115 580.799 104.309 580.908C104.698 581.127 105.222 581.376 105.895 581.607C107.246 582.071 109.155 582.448 111.719 582.389C116.827 582.271 124.482 580.426 135.584 574.179C137.028 573.366 137.54 571.537 136.728 570.093C135.915 568.649 134.086 568.137 132.642 568.95C122.078 574.893 115.395 576.302 111.58 576.39C109.683 576.434 108.485 576.153 107.845 575.933C107.521 575.821 107.328 575.722 107.249 575.678C107.237 575.671 107.227 575.665 107.22 575.661C105.937 574.71 104.12 574.931 103.105 576.184Z" fill="#211815"/>
<path fill-rule="evenodd" clip-rule="evenodd" d="M122.315 424.051C123.103 426.115 122.068 428.427 120.004 429.215L87.8602 441.483C86.7124 441.921 85.4271 441.807 84.374 441.175C83.3209 440.542 82.6169 439.461 82.4645 438.242L80.1006 419.334C79.8265 417.142 81.3814 415.143 83.5736 414.869C85.7658 414.595 87.7651 416.15 88.0392 418.342L89.7706 432.191L117.151 421.74C119.215 420.952 121.527 421.987 122.315 424.051Z" fill="#211815"/>
<path fill-rule="evenodd" clip-rule="evenodd" d="M45.2047 590.547C46.7173 591.223 47.3952 592.998 46.7189 594.51L40.1875 609.118C40.9271 609.626 41.7102 610.196 42.46 610.795C43.2661 611.44 44.0841 612.157 44.781 612.901C45.4347 613.599 46.1805 614.526 46.5908 615.599C47.1821 617.147 46.4068 618.881 44.8589 619.473C43.3111 620.064 41.577 619.289 40.9856 617.741C40.9863 617.743 40.9856 617.741 40.983 617.737C40.9622 617.7 40.825 617.455 40.4022 617.003C39.9698 616.542 39.3891 616.022 38.714 615.483C37.364 614.404 35.8379 613.405 34.8671 612.83C33.5552 612.053 33.0346 610.416 33.6569 609.024L41.2412 592.061C41.9176 590.548 43.692 589.871 45.2047 590.547Z" fill="#211815"/>
<path fill-rule="evenodd" clip-rule="evenodd" d="M-1.36629 569.727C-2.87891 569.05 -4.6534 569.728 -5.32973 571.241L-11.8612 585.849C-12.7327 585.636 -13.6799 585.433 -14.6265 585.273C-15.644 585.102 -16.7242 584.971 -17.7433 584.948C-18.6991 584.926 -19.8872 584.988 -20.961 585.398C-22.5089 585.99 -23.2842 587.724 -22.6929 589.272C-22.1015 590.819 -20.3674 591.595 -18.8196 591.003C-18.8214 591.004 -18.8199 591.004 -18.8147 591.003C-18.7732 590.993 -18.4991 590.932 -17.8809 590.946C-17.2486 590.961 -16.4742 591.047 -15.6219 591.191C-13.9177 591.477 -12.1555 591.948 -11.0798 592.289C-9.62606 592.748 -8.05869 592.045 -7.43635 590.653L0.147967 573.69C0.82429 572.177 0.146335 570.403 -1.36629 569.727Z" fill="#211815"/>
<path d="M0.709118 429.256C5.89426 417.659 19.4987 412.461 31.0955 417.646L136.541 464.793C148.138 469.978 153.335 483.583 148.15 495.179L103.045 596.06C97.8594 607.657 84.255 612.855 72.6582 607.67L-32.7874 560.523C-44.3842 555.338 -49.5818 541.733 -44.3967 530.137L0.709118 429.256Z" fill="#B9B2FF" fill-opacity="0.6"/>
<g filter="url(#filter0_b_190_11789)">
<path fill-rule="evenodd" clip-rule="evenodd" d="M136.133 465.706L30.6873 418.559C19.5947 413.6 6.58177 418.571 1.62207 429.664L-43.4837 530.545C-48.4434 541.637 -43.4718 554.65 -32.3792 559.61L73.0664 606.757C84.159 611.716 97.1719 606.745 102.132 595.652L147.237 494.771C152.197 483.679 147.225 470.666 136.133 465.706ZM31.0955 417.646C19.4987 412.461 5.89426 417.659 0.709118 429.256L-44.3967 530.137C-49.5818 541.733 -44.3842 555.338 -32.7874 560.523L72.6582 607.67C84.255 612.855 97.8594 607.657 103.045 596.06L148.15 495.179C153.335 483.583 148.138 469.978 136.541 464.793L31.0955 417.646Z" fill="white"/>
</g>
<g filter="url(#filter1_i_190_11789)">
<path d="M116.339 490.816C120.813 492.816 122.829 498.083 120.827 502.561L95.4306 559.36C93.4305 563.833 88.1636 565.849 83.6856 563.847L-7.35366 523.141C-11.8271 521.141 -13.8431 515.875 -11.8409 511.397L13.5551 454.597C15.5553 450.124 20.8221 448.108 25.3001 450.11L116.339 490.816ZM119.605 483.512L28.5657 442.807C20.0524 439 10.06 442.814 6.25154 451.332L-19.1444 508.131C-22.9509 516.644 -19.1371 526.637 -10.6192 530.445L80.4201 571.151C88.9333 574.957 98.9258 571.143 102.734 562.625L128.13 505.826C131.937 497.313 128.123 487.32 119.605 483.512Z" fill="#5B4DFF"/>
</g>
<g filter="url(#filter2_iiiiii_190_11789)">
<path d="M120.826 502.562C122.828 498.084 120.812 492.817 116.339 490.817L25.2997 450.111C20.8217 448.109 15.5549 450.125 13.5547 454.599L-11.8413 511.398C-13.8435 515.876 -11.8275 521.142 -7.35408 523.143L83.6852 563.848C88.1632 565.85 93.4301 563.834 95.4302 559.361L120.826 502.562Z" fill="#262627"/>
</g>
<g filter="url(#filter3_f_190_11789)">
<path d="M85.3678 499.975L84.9706 499.797C79.858 497.511 73.8602 499.803 71.5743 504.916L64.39 520.983C62.104 526.096 64.3955 532.094 69.5081 534.38L69.9053 534.557C75.0179 536.843 81.0157 534.552 83.3017 529.439L90.486 513.371C92.7719 508.259 90.4804 502.261 85.3678 499.975Z" fill="#8A80FF"/>
<path d="M28.415 480.562L35.4088 493.817C36.7528 496.364 35.2752 499.488 32.4535 500.065L17.9183 503.037" stroke="#8A80FF" stroke-width="17.28" stroke-linecap="round"/>
</g>
<g filter="url(#filter4_f_190_11789)">
<path d="M85.3678 499.975L84.9706 499.797C79.858 497.511 73.8602 499.803 71.5743 504.916L64.39 520.983C62.104 526.096 64.3955 532.094 69.5081 534.38L69.9053 534.557C75.0179 536.843 81.0157 534.552 83.3017 529.439L90.486 513.371C92.7719 508.259 90.4804 502.261 85.3678 499.975Z" fill="#8A80FF"/>
<path d="M28.415 480.562L35.4088 493.817C36.7528 496.364 35.2752 499.488 32.4535 500.065L17.9183 503.037" stroke="#8A80FF" stroke-width="17.28" stroke-linecap="round"/>
</g>
<path d="M84.7502 500.29L85.1474 500.468C89.9878 502.632 92.1572 508.31 89.993 513.151L82.8087 529.219C80.6445 534.059 74.9661 536.229 70.1257 534.064L69.7285 533.887C64.8881 531.723 62.7187 526.044 64.883 521.204L72.0672 505.136C74.2315 500.296 79.9098 498.126 84.7502 500.29Z" fill="#8A80FF" stroke="#8A80FF" stroke-width="1.08"/>
<path d="M28.2021 481.016L35.1959 494.27C36.54 496.817 35.0623 499.941 32.2406 500.518L17.7054 503.491" stroke="#8A80FF" stroke-width="17.28" stroke-linecap="round"/>
<g opacity="0.8" filter="url(#filter5_di_190_11789)">
<path d="M132.291 519.491L131.497 516.036C131.15 514.533 130.276 513.206 129.026 512.302C125.965 510.095 118.809 505.751 103.865 500.071C81.8162 491.686 63.4669 499.662 58.7196 497.539C53.9722 495.417 47.6811 476.424 26.7301 465.583C12.533 458.233 4.52435 455.797 0.838732 454.987C-0.668403 454.658 -2.24073 454.891 -3.59186 455.635L-6.69621 457.347C-8.01887 458.076 -9.0425 459.25 -9.57671 460.665C-12.2212 467.682 -18.0827 489.808 3.54431 509.354C23.6108 527.489 43.3941 515.302 51.4752 508.694C52.9451 507.489 55.1453 508.473 55.2274 510.372C55.6915 520.8 59.8001 543.67 86.6957 546.532C115.683 549.617 128.268 530.498 131.73 523.846C132.428 522.504 132.619 520.963 132.282 519.487L132.291 519.491ZM46.1553 503.112C40.0767 509.65 27.2194 519.786 11.8271 510.417C-6.18347 499.456 -5.38205 479.986 -3.77217 470.677C-3.22187 467.511 -0.342811 465.298 2.85504 465.594C7.78784 466.052 15.4524 467.518 23.0777 471.963C36.9924 480.08 43.7542 487.485 47.0037 492.394C49.221 495.741 48.8841 500.169 46.1507 503.11L46.1553 503.112ZM120.409 526.195C114.545 533.602 100.57 547.182 80.3916 541.068C63.146 535.844 62.1244 519.508 62.9464 510.614C63.3153 506.616 66.391 503.412 70.3635 502.833C76.1867 501.986 86.2141 502.088 101.543 507.041C109.942 509.756 116.145 514.49 119.774 517.865C122.127 520.051 122.397 523.672 120.405 526.193L120.409 526.195Z" fill="#FF001E"/>
</g>
<g filter="url(#filter6_i_190_11789)">
<path d="M148.484 515.907L155.336 518.971C158.732 520.49 160.257 524.479 158.738 527.876L140.31 569.091C138.791 572.487 134.802 574.011 131.405 572.493L124.554 569.429C121.158 567.911 119.633 563.921 121.152 560.525L139.58 519.31C141.098 515.913 145.088 514.389 148.484 515.907Z" fill="#5B4DFF"/>
</g>
<g filter="url(#filter7_i_190_11789)">
<path fill-rule="evenodd" clip-rule="evenodd" d="M155.132 519.427L148.28 516.364C145.136 514.958 141.442 516.37 140.036 519.514L121.608 560.729C120.202 563.873 121.614 567.567 124.758 568.973L131.61 572.036C134.754 573.442 138.448 572.031 139.853 568.887L158.282 527.671C159.687 524.527 158.276 520.833 155.132 519.427ZM155.336 518.971L148.484 515.907C145.088 514.389 141.098 515.913 139.58 519.31L121.152 560.525C119.633 563.921 121.158 567.911 124.554 569.429L131.405 572.493C134.802 574.011 138.791 572.487 140.31 569.091L158.738 527.876C160.257 524.479 158.732 520.49 155.336 518.971Z" fill="#8A80FF"/>
</g>
<path fill-rule="evenodd" clip-rule="evenodd" d="M109.457 582.325C109.457 582.325 110.899 582.409 111.719 582.39C116.827 582.272 124.482 580.427 135.585 574.18C137.029 573.368 137.541 571.538 136.728 570.094C135.916 568.65 134.086 568.138 132.642 568.951C122.079 574.894 115.932 576.284 112.118 576.372L109.457 582.325Z" fill="#211815"/>
<path fill-rule="evenodd" clip-rule="evenodd" d="M149.618 558.914L149.626 558.899L149.654 558.844C149.68 558.794 149.719 558.72 149.77 558.624C149.872 558.43 150.022 558.149 150.21 557.803C150.586 557.109 151.113 556.162 151.712 555.144C152.98 552.991 154.354 550.911 155.281 549.999C156.461 548.836 156.476 546.937 155.314 545.756C154.151 544.575 152.252 544.56 151.071 545.723C149.5 547.27 147.761 550.028 146.542 552.099C145.898 553.193 145.337 554.203 144.937 554.94C144.736 555.308 144.575 555.61 144.464 555.822C144.408 555.927 144.365 556.01 144.335 556.068L144.3 556.135L144.286 556.161C144.286 556.161 144.286 556.161 146.952 557.538L144.286 556.161C143.526 557.633 144.103 559.443 145.576 560.203C147.048 560.963 148.858 560.386 149.618 558.914Z" fill="#211815"/>
<g filter="url(#filter8_i_190_11789)">
<path d="M154.425 557.013C159.397 561.936 159.438 569.959 154.514 574.932C149.591 579.905 141.569 579.945 136.596 575.022C131.623 570.099 131.582 562.076 136.506 557.103C141.429 552.13 149.452 552.09 154.425 557.013Z" fill="#B9B2FF" fill-opacity="0.6"/>
</g>
<g filter="url(#filter9_i_190_11789)">
<path fill-rule="evenodd" clip-rule="evenodd" d="M153.721 557.724C158.301 562.259 158.338 569.648 153.804 574.228C149.269 578.809 141.88 578.846 137.299 574.311C132.719 569.776 132.682 562.387 137.216 557.807C141.751 553.226 149.14 553.189 153.721 557.724ZM154.514 574.932C159.438 569.959 159.397 561.936 154.425 557.013C149.452 552.09 141.429 552.13 136.506 557.103C131.582 562.076 131.623 570.099 136.596 575.022C141.569 579.945 149.591 579.905 154.514 574.932Z" fill="white"/>
</g>
<path fill-rule="evenodd" clip-rule="evenodd" d="M152.298 570.931C152.631 572.554 154.216 573.6 155.839 573.267L155.237 570.328C155.839 573.267 155.839 573.267 155.839 573.267L155.869 573.261L155.943 573.246C156.006 573.232 156.098 573.213 156.215 573.188C156.448 573.138 156.782 573.065 157.191 572.972C158.009 572.786 159.133 572.52 160.36 572.196C162.684 571.583 165.81 570.656 167.726 569.561C169.164 568.739 169.664 566.907 168.842 565.468C168.02 564.029 166.187 563.53 164.749 564.352C163.619 564.998 161.244 565.757 158.829 566.394C157.687 566.696 156.633 566.946 155.863 567.12C155.479 567.208 155.168 567.276 154.954 567.322C154.848 567.344 154.766 567.362 154.711 567.373L154.651 567.386L154.634 567.389C153.011 567.722 151.965 569.308 152.298 570.931Z" fill="#211815"/>
<path fill-rule="evenodd" clip-rule="evenodd" d="M149.997 563.277C150.33 564.9 151.915 565.946 153.539 565.613L152.936 562.674C153.539 565.613 153.538 565.613 153.539 565.613L153.568 565.607L153.642 565.592C153.705 565.578 153.797 565.559 153.914 565.534C154.147 565.484 154.481 565.411 154.891 565.318C155.708 565.132 156.832 564.866 158.06 564.542C160.383 563.928 163.509 563.002 165.425 561.907C166.864 561.085 167.363 559.252 166.541 557.814C165.719 556.375 163.887 555.875 162.448 556.697C161.318 557.343 158.944 558.103 156.528 558.74C155.386 559.042 154.332 559.291 153.562 559.466C153.178 559.553 152.867 559.621 152.654 559.667C152.547 559.69 152.465 559.707 152.41 559.719L152.35 559.732L152.333 559.735C150.71 560.068 149.664 561.654 149.997 563.277Z" fill="#211815"/>
</g>
<g clip-path="url(#clip2_190_11789)">
<g filter="url(#filter10_i_190_11789)">
<path d="M346.435 437.501C359.496 431.913 376.055 441.341 383.421 458.557C389.769 473.396 387.216 489.178 378.028 496.832C377.752 497.062 377.337 496.921 377.243 496.576C374.01 484.728 370.156 474.46 368.064 469.569C362.615 456.833 355.091 446.422 346.166 438.399C345.891 438.152 345.964 437.702 346.303 437.557L346.435 437.501Z" fill="#FF9524" fill-opacity="0.8"/>
<path fill-rule="evenodd" clip-rule="evenodd" d="M366.815 439.914C373.404 443.665 379.315 450.238 382.959 458.755C389.247 473.453 386.673 488.959 377.724 496.431C374.486 484.565 370.626 474.282 368.525 469.372C363.049 456.572 355.484 446.1 346.502 438.025C346.501 438.024 346.5 438.024 346.5 438.024C346.5 438.023 346.5 438.022 346.5 438.021C346.5 438.02 346.5 438.02 346.5 438.019C346.5 438.019 346.5 438.019 346.5 438.019L346.632 437.963C352.987 435.244 360.226 436.163 366.815 439.914ZM383.421 458.557C376.055 441.341 359.496 431.913 346.435 437.501L346.303 437.557C345.964 437.702 345.891 438.152 346.166 438.399C355.091 446.422 362.615 456.833 368.064 469.569C370.156 474.46 374.01 484.728 377.243 496.576C377.337 496.921 377.752 497.062 378.028 496.832C387.216 489.178 389.769 473.396 383.421 458.557Z" fill="#FFC68A"/>
</g>
<g filter="url(#filter11_i_190_11789)">
<path d="M206.654 497.301C193.593 502.888 188.976 521.375 196.341 538.592C202.69 553.431 215.867 562.483 227.748 561.123C228.104 561.083 228.29 560.686 228.105 560.379C221.768 549.858 217.004 539.981 214.911 535.09C209.462 522.353 207.129 509.722 207.489 497.726C207.5 497.357 207.125 497.099 206.786 497.244L206.654 497.301Z" fill="#FF9524" fill-opacity="0.8"/>
<path fill-rule="evenodd" clip-rule="evenodd" d="M194.325 513.707C192.488 521.063 193.16 529.877 196.803 538.394C203.091 553.092 216.083 561.939 227.668 560.627C221.322 550.09 216.55 540.197 214.449 535.287C208.973 522.487 206.624 509.783 206.987 497.711C206.987 497.71 206.987 497.709 206.987 497.709C206.987 497.708 206.986 497.707 206.985 497.707C206.984 497.706 206.984 497.706 206.984 497.706C206.984 497.706 206.984 497.706 206.984 497.706L206.852 497.762C200.497 500.481 196.162 506.351 194.325 513.707ZM196.341 538.592C188.976 521.375 193.593 502.888 206.654 497.301L206.786 497.244C207.125 497.099 207.5 497.357 207.489 497.726C207.129 509.722 209.462 522.353 214.911 535.09C217.004 539.981 221.768 549.858 228.105 560.379C228.29 560.686 228.104 561.083 227.748 561.123C215.867 562.483 202.69 553.431 196.341 538.592Z" fill="#FFC68A"/>
</g>
<g filter="url(#filter12_i_190_11789)">
<path d="M319.707 390.03C322.925 387.348 327.628 388.057 329.913 391.568C332.107 394.939 334.215 399.127 333.745 402.246L318.285 504.838C317.728 508.533 314.275 511.082 310.58 510.525L303.124 509.401C299.429 508.844 296.88 505.392 297.437 501.696L312.898 399.105C313.368 395.985 316.617 392.605 319.707 390.03Z" fill="url(#paint0_linear_190_11789)"/>
</g>
<path d="M320.052 390.445C323.022 387.97 327.352 388.622 329.46 391.863C330.547 393.532 331.602 395.389 332.327 397.202C333.055 399.026 333.425 400.746 333.211 402.166L317.751 504.757C317.238 508.158 314.061 510.503 310.66 509.991L303.205 508.867C299.804 508.355 297.459 505.177 297.971 501.777L313.432 399.185C313.646 397.765 314.506 396.23 315.74 394.702C316.967 393.183 318.522 391.72 320.052 390.445Z" stroke="#5B4DFF" stroke-width="1.08"/>
<path d="M321.827 389.035C323.124 388.049 324.255 387.697 325.243 387.839C326.229 387.981 327.206 388.634 328.153 389.955C328.153 389.955 328.153 389.955 328.154 389.955C328.155 389.958 328.166 389.977 328.182 390.018C328.2 390.062 328.217 390.12 328.234 390.189C328.251 390.262 328.264 390.339 328.274 390.416C327.397 390.008 326.358 389.599 325.378 389.401C324.232 389.17 322.773 389.273 321.577 389.436C321.608 389.367 321.643 389.299 321.68 389.236C321.716 389.175 321.75 389.125 321.78 389.088C321.809 389.052 321.825 389.037 321.827 389.035C321.828 389.035 321.828 389.035 321.827 389.035Z" fill="#3F3F41" stroke="#3F3F41" stroke-width="1.08"/>
<path d="M257.368 422.605C215.124 440.678 193.806 485.557 213.6 531.824C217.859 541.781 233.207 572.433 250.345 587.065C266.421 600.786 286.161 614.233 331.167 594.979C376.173 575.725 380.085 552.164 381.257 531.059C382.51 508.56 370.941 476.296 366.68 466.334C346.886 420.068 299.617 404.53 257.368 422.605Z" fill="#FFDFBD" fill-opacity="0.6"/>
<g filter="url(#filter13_b_190_11789)">
<path d="M331.167 594.979C376.173 575.725 380.086 552.164 381.257 531.059C382.51 508.559 370.942 476.296 366.68 466.334C346.886 420.067 299.617 404.53 257.368 422.605C215.12 440.679 193.714 485.596 213.507 531.863C217.769 541.825 233.115 572.472 250.253 587.104C266.326 600.831 286.069 614.272 331.075 595.018" stroke="white" stroke-width="2.16"/>
</g>
<g filter="url(#filter14_iiiiii_190_11789)">
<path d="M314.204 441.667C299.954 435.585 283.402 436.23 266.36 443.521C249.318 450.811 237.435 462.331 231.988 476.84C227.142 489.753 227.648 504.294 233.416 517.775C239.819 532.743 252.174 538.647 261.407 540.969C274.764 544.324 290.573 542.555 305.924 535.987C321.275 529.42 333.472 519.208 340.27 507.23C344.971 498.947 349.228 485.936 342.825 470.968C337.055 457.482 326.894 447.078 314.204 441.667Z" fill="#262627"/>
</g>
<g filter="url(#filter15_f_190_11789)">
<path opacity="0.7" d="M264.544 531.211C271.616 527.582 276.044 522.098 274.434 518.961C272.825 515.823 265.787 516.222 258.715 519.85C251.643 523.478 247.216 528.963 248.825 532.1C250.435 535.237 257.472 534.839 264.544 531.211Z" fill="#FF334B"/>
<path opacity="0.7" d="M331.753 502.457C339.261 499.848 344.409 495.033 343.252 491.702C342.094 488.371 335.07 487.786 327.562 490.395C320.054 493.004 314.906 497.819 316.063 501.15C317.221 504.481 324.245 505.066 331.753 502.457Z" fill="#FF334B"/>
</g>
<g filter="url(#filter16_f_190_11789)">
<path d="M249.745 492.619L264.287 496.241C267.082 496.937 268.426 500.121 266.975 502.609L259.502 515.425" stroke="#FFAE57" stroke-width="17.28" stroke-linecap="round"/>
<path d="M313.325 465.42L305.902 478.439C304.475 480.94 305.85 484.111 308.652 484.78L323.082 488.226" stroke="#FFAE57" stroke-width="17.28" stroke-linecap="round"/>
</g>
<g filter="url(#filter17_f_190_11789)">
<path d="M249.745 492.619L264.287 496.241C267.082 496.937 268.426 500.121 266.975 502.609L259.502 515.425" stroke="#FFAE57" stroke-width="17.28" stroke-linecap="round"/>
<path d="M313.325 465.42L305.902 478.439C304.475 480.94 305.85 484.111 308.652 484.78L323.082 488.226" stroke="#FFAE57" stroke-width="17.28" stroke-linecap="round"/>
</g>
<path d="M249.943 493.078L264.485 496.7C267.28 497.396 268.624 500.58 267.173 503.068L259.7 515.884" stroke="#FFAE57" stroke-width="17.28" stroke-linecap="round"/>
<path d="M313.523 465.879L306.1 478.898C304.673 481.399 306.048 484.57 308.849 485.239L323.28 488.685" stroke="#FFAE57" stroke-width="17.28" stroke-linecap="round"/>
<path d="M233.866 584.336C233.539 585.151 233.086 585.901 232.508 586.573C228.212 591.533 218.454 590.112 210.713 583.4C204.019 577.596 201.029 569.738 203.127 564.512C203.454 563.697 203.906 562.947 204.485 562.275C208.781 557.315 218.538 558.736 226.28 565.448C232.974 571.252 235.964 579.11 233.866 584.336Z" fill="#FFDFBD" fill-opacity="0.6"/>
<g filter="url(#filter18_b_190_11789)">
<path fill-rule="evenodd" clip-rule="evenodd" d="M231.748 585.916C229.9 588.048 226.786 588.914 223.047 588.369C219.32 587.827 215.119 585.89 211.371 582.641M231.748 585.916C232.252 585.329 232.647 584.676 232.934 583.961C233.857 581.661 233.697 578.669 232.436 575.478C231.179 572.3 228.86 569.015 225.622 566.207C221.874 562.958 217.673 561.021 213.946 560.479C210.207 559.934 207.093 560.8 205.245 562.932C204.741 563.518 204.346 564.172 204.059 564.887C203.136 567.187 203.296 570.179 204.557 573.37C205.814 576.548 208.133 579.833 211.371 582.641M204.485 562.275C203.906 562.947 203.454 563.697 203.127 564.512C201.029 569.738 204.019 577.596 210.713 583.4C218.454 590.112 228.212 591.533 232.508 586.573C233.086 585.901 233.539 585.151 233.866 584.336C235.964 579.11 232.974 571.252 226.28 565.448C218.538 558.736 208.781 557.315 204.485 562.275Z" fill="white"/>
</g>
<path d="M358.998 583.063C352.015 586.05 348.775 594.135 351.763 601.118C354.75 608.101 362.835 611.34 369.818 608.353C376.8 605.366 380.04 597.281 377.053 590.298C374.065 583.315 365.981 580.076 358.998 583.063Z" fill="#262627"/>
<path d="M302.918 607.057C295.935 610.044 292.695 618.129 295.682 625.112C298.67 632.095 306.754 635.335 313.737 632.347C320.72 629.36 323.96 621.275 320.972 614.292C317.985 607.309 309.9 604.07 302.918 607.057Z" fill="#262627"/>
<g filter="url(#filter19_i_190_11789)">
<path d="M266.36 443.52C283.402 436.23 299.954 435.585 314.204 441.666C326.894 447.077 337.055 457.482 342.825 470.968C349.228 485.936 344.971 498.947 340.27 507.23C333.472 519.208 321.275 529.419 305.924 535.987C290.573 542.555 274.764 544.324 261.407 540.969C252.174 538.646 239.819 532.742 233.416 517.774C227.648 504.293 227.143 489.752 231.988 476.84C237.435 462.331 249.318 450.811 266.36 443.52ZM263.208 436.127C222.146 453.694 213.36 491.316 226.031 520.934C238.702 550.551 274.794 558.047 309.09 543.374C343.386 528.702 362.889 497.422 350.219 467.804C337.548 438.187 304.27 418.56 263.208 436.127Z" fill="#FF9524"/>
</g>
<g filter="url(#filter20_i_190_11789)">
<path fill-rule="evenodd" clip-rule="evenodd" d="M261.38 537.266C275.663 531.156 282.289 514.623 276.178 500.339C270.067 486.055 253.534 479.43 239.251 485.541C224.967 491.651 218.342 508.184 224.452 522.468C230.563 536.751 247.096 543.377 261.38 537.266ZM264.541 544.656C282.906 536.799 291.424 515.542 283.567 497.178C275.711 478.813 254.454 470.295 236.09 478.151C217.725 486.008 209.206 507.264 217.063 525.629C224.92 543.994 246.176 552.512 264.541 544.656Z" fill="#5B4DFF"/>
<path fill-rule="evenodd" clip-rule="evenodd" d="M337.583 504.666C351.866 498.555 358.492 482.022 352.381 467.738C346.27 453.455 329.737 446.829 315.454 452.94C301.17 459.051 294.545 475.584 300.655 489.867C306.766 504.151 323.299 510.776 337.583 504.666ZM340.744 512.055C359.109 504.198 367.627 482.942 359.77 464.577C351.914 446.212 330.657 437.694 312.292 445.551C293.928 453.407 285.409 474.664 293.266 493.029C301.123 511.393 322.379 519.912 340.744 512.055Z" fill="#5B4DFF"/>
<path fill-rule="evenodd" clip-rule="evenodd" d="M302.169 494.683L279.539 504.365L276.378 496.975L299.008 487.294L302.169 494.683Z" fill="#5B4DFF"/>
</g>
</g>
<path d="M170.78 194.716V194.48C170.78 194.111 170.481 193.812 170.112 193.812H86.7472C86.3784 193.812 86.0796 194.111 86.0796 194.48V194.716C86.0796 195.084 86.3784 195.383 86.7472 195.383H170.112C170.481 195.383 170.78 195.084 170.78 194.716Z" fill="url(#paint1_linear_190_11789)"/>
<path d="M130.401 108.359H118.486C117.253 108.359 116.264 109.357 116.264 110.582V128.121C116.264 129.354 117.261 130.343 118.486 130.343H127.943C129.302 130.343 130.401 131.443 130.401 132.802V149.885C130.401 151.244 129.302 152.343 127.943 152.343H118.486C117.253 152.343 116.264 153.341 116.264 154.566V172.105C116.264 173.338 117.261 174.327 118.486 174.327H130.401C142.544 174.327 152.393 164.478 152.393 152.335V130.343C152.393 118.201 142.544 108.352 130.401 108.352V108.359Z" fill="url(#paint2_linear_190_11789)"/>
<path d="M110.899 130.351C112.132 130.351 113.122 129.354 113.122 128.128V110.59C113.122 109.357 112.124 108.367 110.899 108.367H81.4534C78.995 108.367 77 110.362 77 112.821V184.404C77 184.993 77.2356 185.559 77.6519 185.975L86.4251 194.748C87.2969 195.62 88.7028 195.62 89.5747 194.748L98.3479 185.975C98.7641 185.559 98.9998 184.993 98.9998 184.404V174.343H110.915C112.148 174.343 113.137 173.345 113.137 172.12V154.582C113.137 153.348 112.14 152.359 110.915 152.359H98.9998V130.367L110.899 130.351Z" fill="url(#paint3_linear_190_11789)"/>
<path d="M264.913 121.584C263.208 122.312 265.754 119.348 258.95 119.348C254.257 119.348 251.026 118.646 249.275 116.93C247.524 115.214 246.652 111.986 246.652 107.254C246.652 102.521 247.531 99.3014 249.275 97.5777C251.026 95.8619 254.249 95 258.95 95C263.652 95 266.836 95.8619 268.501 97.5777C270.167 99.3014 271 102.521 271 107.254C271 118.536 266.625 120.847 264.913 121.584Z" fill="url(#paint4_linear_190_11789)"/>
<path fill-rule="evenodd" clip-rule="evenodd" d="M264.533 103.958C264.819 104.327 264.765 104.869 264.41 105.168L257.137 111.301C256.961 111.449 256.735 111.516 256.511 111.486C256.287 111.456 256.085 111.331 255.951 111.141L253.095 107.081C252.825 106.698 252.905 106.159 253.273 105.878C253.64 105.598 254.157 105.68 254.427 106.064L256.771 109.396L263.371 103.83C263.726 103.531 264.246 103.588 264.533 103.958Z" fill="white"/>
<path d="M267.505 130.351L249.966 132.738C248.867 132.888 248.042 133.83 248.042 134.945V193.161C248.042 194.394 249.039 195.384 250.265 195.384H267.803C269.036 195.384 270.026 194.386 270.026 193.161V132.55C270.026 131.199 268.832 130.162 267.497 130.343L267.505 130.351Z" fill="#5656F5"/>
<path d="M211.213 108.359H189.221C177.079 108.359 167.229 118.209 167.229 130.351V193.091C167.229 194.324 168.29 195.377 169.515 195.377L187.077 195.392C188.31 195.392 189.3 194.395 189.3 193.17V174.398H211.205V193.17C211.205 194.403 212.203 195.392 213.428 195.392H230.967C232.2 195.392 233.189 194.395 233.189 193.17V130.351C233.189 118.209 223.34 108.359 211.198 108.359H211.213ZM211.213 152.288H189.221V132.802C189.221 131.443 190.321 130.343 191.68 130.343H208.763C210.122 130.343 211.221 131.443 211.221 132.802V152.288H211.213Z" fill="url(#paint5_linear_190_11789)"/>
<path d="M81.7411 263.472H84.7111V268.114H87.2411V270.512H84.7111V274.868H81.7411V263.472ZM78.1771 275.22C82.2471 275.22 84.8871 276.738 84.8871 279.268C84.8871 281.798 82.2471 283.294 78.1771 283.294C74.0851 283.294 71.4451 281.798 71.4451 279.268C71.4451 276.738 74.0851 275.22 78.1771 275.22ZM78.1771 277.552C75.7131 277.552 74.3491 278.08 74.3491 279.268C74.3491 280.412 75.7131 280.962 78.1771 280.962C80.6411 280.962 82.0051 280.412 82.0051 279.268C82.0051 278.08 80.6411 277.552 78.1771 277.552ZM69.7291 264.77H78.5951V267.124H72.6331V271.546C76.1971 271.524 78.1331 271.392 80.2671 270.952L80.5531 273.262C78.1331 273.79 75.8671 273.878 71.3791 273.878H69.7291V264.77ZM102.584 263.494H105.51V277.904H102.584V263.494ZM92.2876 276.518H95.2356V280.61H106.016V282.942H92.2876V276.518ZM93.6516 264.55H96.6436V266.486C96.6436 269.016 97.9416 271.568 101.22 272.602L99.7236 274.934C97.5236 274.208 96.0496 272.756 95.1916 270.93C94.3116 272.888 92.7496 274.472 90.4396 275.264L88.9656 272.954C92.3096 271.81 93.6516 269.06 93.6516 266.486V264.55ZM115.44 264.77C118.542 264.77 120.896 266.816 120.896 269.676C120.896 272.536 118.542 274.582 115.44 274.582C112.316 274.582 109.962 272.536 109.962 269.676C109.962 266.816 112.316 264.77 115.44 264.77ZM115.44 267.278C113.966 267.278 112.822 268.136 112.822 269.676C112.822 271.194 113.966 272.074 115.44 272.074C116.914 272.074 118.036 271.194 118.036 269.676C118.036 268.136 116.914 267.278 115.44 267.278ZM122.7 263.45H125.626V283.316H122.7V263.45ZM109.17 276.958C112.624 276.958 117.486 276.936 121.622 276.32L121.842 278.432C117.574 279.268 112.91 279.334 109.5 279.334L109.17 276.958ZM140.547 264.044C143.583 264.044 145.871 265.936 145.871 268.576C145.871 271.216 143.583 273.086 140.547 273.086C137.533 273.086 135.267 271.216 135.267 268.576C135.267 265.936 137.533 264.044 140.547 264.044ZM140.547 266.398C139.139 266.398 138.083 267.19 138.083 268.576C138.083 269.962 139.139 270.732 140.547 270.732C141.999 270.732 143.033 269.962 143.033 268.576C143.033 267.19 141.999 266.398 140.547 266.398ZM148.533 263.494H151.459V273.372H148.533V263.494ZM138.237 274.164H151.459V279.642H141.141V280.808H151.943V283.074H138.259V277.53H148.555V276.408H138.237V274.164ZM159.343 264.55H162.291V266.574C162.291 268.928 163.545 271.216 166.691 272.184L165.173 274.45C163.105 273.768 161.675 272.448 160.839 270.776C160.003 272.712 158.485 274.252 156.241 275.022L154.679 272.712C158.023 271.612 159.343 268.95 159.343 266.288V264.55ZM167.681 263.494H170.607V268.026H173.225V270.424H170.607V275.154H167.681V263.494ZM164.161 275.594C168.275 275.594 170.849 277.024 170.849 279.444C170.849 281.864 168.275 283.294 164.161 283.294C160.025 283.294 157.429 281.864 157.429 279.444C157.429 277.024 160.025 275.594 164.161 275.594ZM164.161 277.86C161.653 277.86 160.333 278.366 160.333 279.444C160.333 280.522 161.653 281.028 164.161 281.028C166.625 281.028 167.967 280.522 167.967 279.444C167.967 278.366 166.625 277.86 164.161 277.86ZM184.014 263.758C188.524 263.758 191.208 264.946 191.208 267.124C191.208 269.324 188.524 270.512 184.014 270.512C179.482 270.512 176.82 269.324 176.82 267.124C176.82 264.946 179.482 263.758 184.014 263.758ZM184.014 265.892C181.176 265.892 179.856 266.288 179.856 267.124C179.856 268.004 181.176 268.378 184.014 268.378C186.83 268.378 188.15 268.004 188.15 267.124C188.15 266.288 186.83 265.892 184.014 265.892ZM175.06 271.392H192.946V273.702H175.06V271.392ZM177.084 274.758H190.79V279.906H179.988V280.962H191.318V283.162H177.128V277.882H187.908V276.936H177.084V274.758ZM213.609 263.494H216.557V268.312H219.153V270.71H216.557V275.396H213.609V263.494ZM203.643 276.232H216.557V283.074H203.643V276.232ZM213.697 278.542H206.525V280.764H213.697V278.542ZM200.959 265.232H205.315V263.34H208.241V265.232H212.597V267.52H200.959V265.232ZM206.789 268.07C209.671 268.07 211.673 269.522 211.673 271.656C211.673 273.79 209.671 275.198 206.789 275.198C203.907 275.198 201.905 273.79 201.905 271.656C201.905 269.522 203.907 268.07 206.789 268.07ZM206.789 270.248C205.557 270.248 204.721 270.71 204.721 271.656C204.721 272.58 205.557 273.086 206.789 273.086C207.999 273.086 208.835 272.58 208.835 271.656C208.835 270.71 207.999 270.248 206.789 270.248ZM225.761 265.716C225.761 270.798 225.299 275.198 222.901 279.136L220.635 277.926C222.593 274.846 223.165 271.92 223.297 268.07H221.317V265.716H225.761ZM230.205 265.716C230.205 267.476 230.161 269.192 230.029 270.864H231.525V263.89H234.275V282.392H231.525V273.218H229.743C229.325 275.638 228.599 277.948 227.279 280.082L225.035 278.85C227.191 275.462 227.631 272.118 227.719 268.07H226.355V265.716H230.205ZM235.375 263.494H238.169V283.294H235.375V263.494ZM253.644 263.494H256.57V271.172H259.386V273.592H256.57V283.294H253.644V263.494ZM240.906 266.376H245.218V263.824H248.188V266.376H252.456V268.708H240.906V266.376ZM246.714 269.786C249.618 269.786 251.752 271.744 251.752 274.516C251.752 277.288 249.618 279.246 246.714 279.246C243.832 279.246 241.676 277.288 241.676 274.516C241.676 271.744 243.832 269.786 246.714 269.786ZM246.714 272.162C245.394 272.162 244.492 273.02 244.492 274.516C244.492 276.012 245.394 276.87 246.714 276.87C248.012 276.87 248.936 276.012 248.936 274.516C248.936 273.02 248.012 272.162 246.714 272.162ZM263.244 264.176H266.148V268.774H276.994V271.084H263.244V264.176ZM261.044 273.108H278.974V275.418H261.044V273.108ZM263.046 276.958H265.972V280.522H277.104V282.876H263.046V276.958Z" fill="url(#paint6_linear_190_11789)"/>
<path d="M119.398 305.232L125.404 321.688H122.39L120.828 317.376H114.47L112.842 321.688H109.828L115.966 305.232H119.398ZM115.372 314.934H119.926L117.682 308.774L115.372 314.934ZM128.942 305.232H131.78V321.688H128.942V305.232ZM135.424 305.584H138.372V303.714H141.122V305.584H144.092V307.894H141.122C141.144 309.83 142.222 311.678 144.686 312.536L143.388 314.714C141.672 314.12 140.506 313.02 139.824 311.656C139.142 313.174 137.976 314.384 136.194 315.044L134.874 312.888C137.316 311.942 138.35 309.94 138.372 307.894H135.424V305.584ZM148.998 303.494H151.77V316.892H148.998V310.512H147.612V315.132H144.884V303.802H147.612V308.158H148.998V303.494ZM143.476 315.946H146.38V316.232C146.38 318.234 148.316 320.412 152.65 320.94L151.594 323.228C148.382 322.766 146.138 321.446 144.928 319.664C143.718 321.446 141.474 322.766 138.262 323.228L137.206 320.94C141.562 320.412 143.476 318.234 143.476 316.232V315.946ZM157.19 304.044H160.094V305.672H167.64V304.044H170.544V311.568H165.33V313.086H172.81V315.396H154.924V313.086H162.382V311.568H157.19V304.044ZM160.094 307.85V309.302H167.64V307.85H160.094ZM162.36 316.364H165.352V316.694C165.352 318.542 167.2 320.5 171.622 320.984L170.61 323.228C167.332 322.81 165.066 321.6 163.856 319.906C162.646 321.6 160.38 322.81 157.124 323.228L156.09 320.984C160.512 320.5 162.36 318.542 162.36 316.694V316.364ZM181.373 305.474H189.205V310.644H191.009V303.78H193.737V322.392H191.009V312.998H189.205V318.366H181.373V305.474ZM186.477 307.762H184.079V316.078H186.477V307.762ZM195.057 303.472H197.829V323.272H195.057V303.472ZM214.337 303.45H217.285V323.316H214.337V303.45ZM206.593 304.814C209.607 304.814 211.807 307.564 211.807 311.898C211.807 316.276 209.607 319.026 206.593 319.026C203.579 319.026 201.379 316.276 201.379 311.898C201.379 307.564 203.579 304.814 206.593 304.814ZM206.593 307.498C205.163 307.498 204.195 309.016 204.195 311.898C204.195 314.824 205.163 316.364 206.593 316.364C208.023 316.364 208.991 314.824 208.991 311.898C208.991 309.016 208.023 307.498 206.593 307.498ZM222.97 304.88H236.764V307.212H225.94V309.236H236.302V311.502H225.94V313.614H236.918V315.924H222.97V304.88ZM220.88 318.652H238.81V321.028H220.88V318.652Z" fill="url(#paint7_linear_190_11789)"/>
</g>
<defs>
<filter id="filter0_b_190_11789" x="-55.0458" y="406.997" width="213.845" height="211.321" filterUnits="userSpaceOnUse" color-interpolation-filters="sRGB">
<feFlood flood-opacity="0" result="BackgroundImageFix"/>
<feGaussianBlur in="BackgroundImageFix" stdDeviation="4.32"/>
<feComposite in2="SourceAlpha" operator="in" result="effect1_backgroundBlur_190_11789"/>
<feBlend mode="normal" in="SourceGraphic" in2="effect1_backgroundBlur_190_11789" result="shape"/>
</filter>
<filter id="filter1_i_190_11789" x="-20.6196" y="441.332" width="154.545" height="135.613" filterUnits="userSpaceOnUse" color-interpolation-filters="sRGB">
<feFlood flood-opacity="0" result="BackgroundImageFix"/>
<feBlend mode="normal" in="SourceGraphic" in2="BackgroundImageFix" result="shape"/>
<feColorMatrix in="SourceAlpha" type="matrix" values="0 0 0 0 0 0 0 0 0 0 0 0 0 0 0 0 0 0 127 0" result="hardAlpha"/>
<feOffset dx="4.32" dy="4.32"/>
<feGaussianBlur stdDeviation="2.16"/>
<feComposite in2="hardAlpha" operator="arithmetic" k2="-1" k3="1"/>
<feColorMatrix type="matrix" values="0 0 0 0 0.541176 0 0 0 0 0.501961 0 0 0 0 1 0 0 0 1 0"/>
<feBlend mode="normal" in2="shape" result="effect1_innerShadow_190_11789"/>
</filter>
<filter id="filter2_iiiiii_190_11789" x="-23.4157" y="438.538" width="155.816" height="136.885" filterUnits="userSpaceOnUse" color-interpolation-filters="sRGB">
<feFlood flood-opacity="0" result="BackgroundImageFix"/>
<feBlend mode="normal" in="SourceGraphic" in2="BackgroundImageFix" result="shape"/>
<feColorMatrix in="SourceAlpha" type="matrix" values="0 0 0 0 0 0 0 0 0 0 0 0 0 0 0 0 0 0 127 0" result="hardAlpha"/>
<feOffset dx="-10.8" dy="-10.8"/>
<feGaussianBlur stdDeviation="21.6"/>
<feComposite in2="hardAlpha" operator="arithmetic" k2="-1" k3="1"/>
<feColorMatrix type="matrix" values="0 0 0 0 0 0 0 0 0 0 0 0 0 0 0 0 0 0 0.6 0"/>
<feBlend mode="normal" in2="shape" result="effect1_innerShadow_190_11789"/>
<feColorMatrix in="SourceAlpha" type="matrix" values="0 0 0 0 0 0 0 0 0 0 0 0 0 0 0 0 0 0 127 0" result="hardAlpha"/>
<feOffset dx="10.8" dy="10.8"/>
<feGaussianBlur stdDeviation="12.96"/>
<feComposite in2="hardAlpha" operator="arithmetic" k2="-1" k3="1"/>
<feColorMatrix type="matrix" values="0 0 0 0 1 0 0 0 0 1 0 0 0 0 1 0 0 0 0.2 0"/>
<feBlend mode="normal" in2="effect1_innerShadow_190_11789" result="effect2_innerShadow_190_11789"/>
<feColorMatrix in="SourceAlpha" type="matrix" values="0 0 0 0 0 0 0 0 0 0 0 0 0 0 0 0 0 0 127 0" result="hardAlpha"/>
<feOffset dx="-10.8" dy="-10.8"/>
<feGaussianBlur stdDeviation="12.96"/>
<feComposite in2="hardAlpha" operator="arithmetic" k2="-1" k3="1"/>
<feColorMatrix type="matrix" values="0 0 0 0 1 0 0 0 0 1 0 0 0 0 1 0 0 0 0.2 0"/>
<feBlend mode="normal" in2="effect2_innerShadow_190_11789" result="effect3_innerShadow_190_11789"/>
<feColorMatrix in="SourceAlpha" type="matrix" values="0 0 0 0 0 0 0 0 0 0 0 0 0 0 0 0 0 0 127 0" result="hardAlpha"/>
<feOffset dx="4.32" dy="4.32"/>
<feGaussianBlur stdDeviation="5.4"/>
<feComposite in2="hardAlpha" operator="arithmetic" k2="-1" k3="1"/>
<feColorMatrix type="matrix" values="0 0 0 0 0 0 0 0 0 0 0 0 0 0 0 0 0 0 0.8 0"/>
<feBlend mode="normal" in2="effect3_innerShadow_190_11789" result="effect4_innerShadow_190_11789"/>
<feColorMatrix in="SourceAlpha" type="matrix" values="0 0 0 0 0 0 0 0 0 0 0 0 0 0 0 0 0 0 127 0" result="hardAlpha"/>
<feOffset dx="-4.32" dy="-4.32"/>
<feGaussianBlur stdDeviation="5.4"/>
<feComposite in2="hardAlpha" operator="arithmetic" k2="-1" k3="1"/>
<feColorMatrix type="matrix" values="0 0 0 0 0 0 0 0 0 0 0 0 0 0 0 0 0 0 0.8 0"/>
<feBlend mode="normal" in2="effect4_innerShadow_190_11789" result="effect5_innerShadow_190_11789"/>
<feColorMatrix in="SourceAlpha" type="matrix" values="0 0 0 0 0 0 0 0 0 0 0 0 0 0 0 0 0 0 127 0" result="hardAlpha"/>
<feOffset dx="10.8" dy="10.8"/>
<feGaussianBlur stdDeviation="21.6"/>
<feComposite in2="hardAlpha" operator="arithmetic" k2="-1" k3="1"/>
<feColorMatrix type="matrix" values="0 0 0 0 0 0 0 0 0 0 0 0 0 0 0 0 0 0 0.6 0"/>
<feBlend mode="normal" in2="effect5_innerShadow_190_11789" result="effect6_innerShadow_190_11789"/>
</filter>
<filter id="filter3_f_190_11789" x="-11.2431" y="451.4" width="123.135" height="104.563" filterUnits="userSpaceOnUse" color-interpolation-filters="sRGB">
<feFlood flood-opacity="0" result="BackgroundImageFix"/>
<feBlend mode="normal" in="SourceGraphic" in2="BackgroundImageFix" result="shape"/>
<feGaussianBlur stdDeviation="10.26" result="effect1_foregroundBlur_190_11789"/>
</filter>
<filter id="filter4_f_190_11789" x="-11.2431" y="451.4" width="123.135" height="104.563" filterUnits="userSpaceOnUse" color-interpolation-filters="sRGB">
<feFlood flood-opacity="0" result="BackgroundImageFix"/>
<feBlend mode="normal" in="SourceGraphic" in2="BackgroundImageFix" result="shape"/>
<feGaussianBlur stdDeviation="10.26" result="effect1_foregroundBlur_190_11789"/>
</filter>
<filter id="filter5_di_190_11789" x="-25.2969" y="441.882" width="170.701" height="117.945" filterUnits="userSpaceOnUse" color-interpolation-filters="sRGB">
<feFlood flood-opacity="0" result="BackgroundImageFix"/>
<feColorMatrix in="SourceAlpha" type="matrix" values="0 0 0 0 0 0 0 0 0 0 0 0 0 0 0 0 0 0 127 0" result="hardAlpha"/>
<feOffset/>
<feGaussianBlur stdDeviation="6.48"/>
<feComposite in2="hardAlpha" operator="out"/>
<feColorMatrix type="matrix" values="0 0 0 0 0 0 0 0 0 0 0 0 0 0 0 0 0 0 0.4 0"/>
<feBlend mode="normal" in2="BackgroundImageFix" result="effect1_dropShadow_190_11789"/>
<feBlend mode="normal" in="SourceGraphic" in2="effect1_dropShadow_190_11789" result="shape"/>
<feColorMatrix in="SourceAlpha" type="matrix" values="0 0 0 0 0 0 0 0 0 0 0 0 0 0 0 0 0 0 127 0" result="hardAlpha"/>
<feOffset dy="4.32"/>
<feGaussianBlur stdDeviation="2.16"/>
<feComposite in2="hardAlpha" operator="arithmetic" k2="-1" k3="1"/>
<feColorMatrix type="matrix" values="0 0 0 0 1 0 0 0 0 0.2 0 0 0 0 0.294118 0 0 0 1 0"/>
<feBlend mode="normal" in2="shape" result="effect2_innerShadow_190_11789"/>
</filter>
<filter id="filter6_i_190_11789" x="120.564" y="515.32" width="43.0822" height="62.0798" filterUnits="userSpaceOnUse" color-interpolation-filters="sRGB">
<feFlood flood-opacity="0" result="BackgroundImageFix"/>
<feBlend mode="normal" in="SourceGraphic" in2="BackgroundImageFix" result="shape"/>
<feColorMatrix in="SourceAlpha" type="matrix" values="0 0 0 0 0 0 0 0 0 0 0 0 0 0 0 0 0 0 127 0" result="hardAlpha"/>
<feOffset dx="4.32" dy="4.32"/>
<feGaussianBlur stdDeviation="2.16"/>
<feComposite in2="hardAlpha" operator="arithmetic" k2="-1" k3="1"/>
<feColorMatrix type="matrix" values="0 0 0 0 0.541176 0 0 0 0 0.501961 0 0 0 0 1 0 0 0 1 0"/>
<feBlend mode="normal" in2="shape" result="effect1_innerShadow_190_11789"/>
</filter>
<filter id="filter7_i_190_11789" x="120.564" y="515.32" width="43.0822" height="62.0798" filterUnits="userSpaceOnUse" color-interpolation-filters="sRGB">
<feFlood flood-opacity="0" result="BackgroundImageFix"/>
<feBlend mode="normal" in="SourceGraphic" in2="BackgroundImageFix" result="shape"/>
<feColorMatrix in="SourceAlpha" type="matrix" values="0 0 0 0 0 0 0 0 0 0 0 0 0 0 0 0 0 0 127 0" result="hardAlpha"/>
<feOffset dx="4.32" dy="4.32"/>
<feGaussianBlur stdDeviation="2.16"/>
<feComposite in2="hardAlpha" operator="arithmetic" k2="-1" k3="1"/>
<feColorMatrix type="matrix" values="0 0 0 0 0.541176 0 0 0 0 0.501961 0 0 0 0 1 0 0 0 1 0"/>
<feBlend mode="normal" in2="shape" result="effect1_innerShadow_190_11789"/>
</filter>
<filter id="filter8_i_190_11789" x="128.519" y="553.348" width="29.6613" height="29.6598" filterUnits="userSpaceOnUse" color-interpolation-filters="sRGB">
<feFlood flood-opacity="0" result="BackgroundImageFix"/>
<feBlend mode="normal" in="SourceGraphic" in2="BackgroundImageFix" result="shape"/>
<feColorMatrix in="SourceAlpha" type="matrix" values="0 0 0 0 0 0 0 0 0 0 0 0 0 0 0 0 0 0 127 0" result="hardAlpha"/>
<feOffset dx="-4.32" dy="4.32"/>
<feGaussianBlur stdDeviation="4.32"/>
<feComposite in2="hardAlpha" operator="arithmetic" k2="-1" k3="1"/>
<feColorMatrix type="matrix" values="0 0 0 0 0.94902 0 0 0 0 0.94902 0 0 0 0 0.94902 0 0 0 1 0"/>
<feBlend mode="normal" in2="shape" result="effect1_innerShadow_190_11789"/>
</filter>
<filter id="filter9_i_190_11789" x="128.519" y="553.348" width="29.6613" height="29.6598" filterUnits="userSpaceOnUse" color-interpolation-filters="sRGB">
<feFlood flood-opacity="0" result="BackgroundImageFix"/>
<feBlend mode="normal" in="SourceGraphic" in2="BackgroundImageFix" result="shape"/>
<feColorMatrix in="SourceAlpha" type="matrix" values="0 0 0 0 0 0 0 0 0 0 0 0 0 0 0 0 0 0 127 0" result="hardAlpha"/>
<feOffset dx="-4.32" dy="4.32"/>
<feGaussianBlur stdDeviation="4.32"/>
<feComposite in2="hardAlpha" operator="arithmetic" k2="-1" k3="1"/>
<feColorMatrix type="matrix" values="0 0 0 0 0.94902 0 0 0 0 0.94902 0 0 0 0 0.94902 0 0 0 1 0"/>
<feBlend mode="normal" in2="shape" result="effect1_innerShadow_190_11789"/>
</filter>
<filter id="filter10_i_190_11789" x="341.678" y="431.571" width="45.2492" height="65.3747" filterUnits="userSpaceOnUse" color-interpolation-filters="sRGB">
<feFlood flood-opacity="0" result="BackgroundImageFix"/>
<feBlend mode="normal" in="SourceGraphic" in2="BackgroundImageFix" result="shape"/>
<feColorMatrix in="SourceAlpha" type="matrix" values="0 0 0 0 0 0 0 0 0 0 0 0 0 0 0 0 0 0 127 0" result="hardAlpha"/>
<feOffset dx="-4.32" dy="-4.32"/>
<feGaussianBlur stdDeviation="4.32"/>
<feComposite in2="hardAlpha" operator="arithmetic" k2="-1" k3="1"/>
<feColorMatrix type="matrix" values="0 0 0 0 1 0 0 0 0 0.776471 0 0 0 0 0.541176 0 0 0 1 0"/>
<feBlend mode="normal" in2="shape" result="effect1_innerShadow_190_11789"/>
</filter>
<filter id="filter11_i_190_11789" x="192.835" y="497.203" width="39.6618" height="68.3747" filterUnits="userSpaceOnUse" color-interpolation-filters="sRGB">
<feFlood flood-opacity="0" result="BackgroundImageFix"/>
<feBlend mode="normal" in="SourceGraphic" in2="BackgroundImageFix" result="shape"/>
<feColorMatrix in="SourceAlpha" type="matrix" values="0 0 0 0 0 0 0 0 0 0 0 0 0 0 0 0 0 0 127 0" result="hardAlpha"/>
<feOffset dx="4.32" dy="4.32"/>
<feGaussianBlur stdDeviation="4.32"/>
<feComposite in2="hardAlpha" operator="arithmetic" k2="-1" k3="1"/>
<feColorMatrix type="matrix" values="0 0 0 0 1 0 0 0 0 0.776471 0 0 0 0 0.541176 0 0 0 1 0"/>
<feBlend mode="normal" in2="shape" result="effect1_innerShadow_190_11789"/>
</filter>
<filter id="filter12_i_190_11789" x="293.041" y="388.4" width="40.7707" height="126.521" filterUnits="userSpaceOnUse" color-interpolation-filters="sRGB">
<feFlood flood-opacity="0" result="BackgroundImageFix"/>
<feBlend mode="normal" in="SourceGraphic" in2="BackgroundImageFix" result="shape"/>
<feColorMatrix in="SourceAlpha" type="matrix" values="0 0 0 0 0 0 0 0 0 0 0 0 0 0 0 0 0 0 127 0" result="hardAlpha"/>
<feOffset dx="-4.32" dy="4.32"/>
<feGaussianBlur stdDeviation="8.64"/>
<feComposite in2="hardAlpha" operator="arithmetic" k2="-1" k3="1"/>
<feColorMatrix type="matrix" values="0 0 0 0 0.941176 0 0 0 0 0.596078 0 0 0 0 0.258824 0 0 0 0.8 0"/>
<feBlend mode="normal" in2="shape" result="effect1_innerShadow_190_11789"/>
</filter>
<filter id="filter13_b_190_11789" x="196.343" y="405.54" width="194.729" height="208.794" filterUnits="userSpaceOnUse" color-interpolation-filters="sRGB">
<feFlood flood-opacity="0" result="BackgroundImageFix"/>
<feGaussianBlur in="BackgroundImageFix" stdDeviation="4.32"/>
<feComposite in2="SourceAlpha" operator="in" result="effect1_backgroundBlur_190_11789"/>
<feBlend mode="normal" in="SourceGraphic" in2="effect1_backgroundBlur_190_11789" result="shape"/>
</filter>
<filter id="filter14_iiiiii_190_11789" x="217.889" y="426.735" width="138.983" height="126.694" filterUnits="userSpaceOnUse" color-interpolation-filters="sRGB">
<feFlood flood-opacity="0" result="BackgroundImageFix"/>
<feBlend mode="normal" in="SourceGraphic" in2="BackgroundImageFix" result="shape"/>
<feColorMatrix in="SourceAlpha" type="matrix" values="0 0 0 0 0 0 0 0 0 0 0 0 0 0 0 0 0 0 127 0" result="hardAlpha"/>
<feOffset dx="-10.8" dy="-10.8"/>
<feGaussianBlur stdDeviation="21.6"/>
<feComposite in2="hardAlpha" operator="arithmetic" k2="-1" k3="1"/>
<feColorMatrix type="matrix" values="0 0 0 0 0 0 0 0 0 0 0 0 0 0 0 0 0 0 0.6 0"/>
<feBlend mode="normal" in2="shape" result="effect1_innerShadow_190_11789"/>
<feColorMatrix in="SourceAlpha" type="matrix" values="0 0 0 0 0 0 0 0 0 0 0 0 0 0 0 0 0 0 127 0" result="hardAlpha"/>
<feOffset dx="10.8" dy="10.8"/>
<feGaussianBlur stdDeviation="12.96"/>
<feComposite in2="hardAlpha" operator="arithmetic" k2="-1" k3="1"/>
<feColorMatrix type="matrix" values="0 0 0 0 1 0 0 0 0 1 0 0 0 0 1 0 0 0 0.2 0"/>
<feBlend mode="normal" in2="effect1_innerShadow_190_11789" result="effect2_innerShadow_190_11789"/>
<feColorMatrix in="SourceAlpha" type="matrix" values="0 0 0 0 0 0 0 0 0 0 0 0 0 0 0 0 0 0 127 0" result="hardAlpha"/>
<feOffset dx="-10.8" dy="-10.8"/>
<feGaussianBlur stdDeviation="12.96"/>
<feComposite in2="hardAlpha" operator="arithmetic" k2="-1" k3="1"/>
<feColorMatrix type="matrix" values="0 0 0 0 1 0 0 0 0 1 0 0 0 0 1 0 0 0 0.2 0"/>
<feBlend mode="normal" in2="effect2_innerShadow_190_11789" result="effect3_innerShadow_190_11789"/>
<feColorMatrix in="SourceAlpha" type="matrix" values="0 0 0 0 0 0 0 0 0 0 0 0 0 0 0 0 0 0 127 0" result="hardAlpha"/>
<feOffset dx="4.32" dy="4.32"/>
<feGaussianBlur stdDeviation="5.4"/>
<feComposite in2="hardAlpha" operator="arithmetic" k2="-1" k3="1"/>
<feColorMatrix type="matrix" values="0 0 0 0 0 0 0 0 0 0 0 0 0 0 0 0 0 0 0.8 0"/>
<feBlend mode="normal" in2="effect3_innerShadow_190_11789" result="effect4_innerShadow_190_11789"/>
<feColorMatrix in="SourceAlpha" type="matrix" values="0 0 0 0 0 0 0 0 0 0 0 0 0 0 0 0 0 0 127 0" result="hardAlpha"/>
<feOffset dx="-4.32" dy="-4.32"/>
<feGaussianBlur stdDeviation="5.4"/>
<feComposite in2="hardAlpha" operator="arithmetic" k2="-1" k3="1"/>
<feColorMatrix type="matrix" values="0 0 0 0 0 0 0 0 0 0 0 0 0 0 0 0 0 0 0.8 0"/>
<feBlend mode="normal" in2="effect4_innerShadow_190_11789" result="effect5_innerShadow_190_11789"/>
<feColorMatrix in="SourceAlpha" type="matrix" values="0 0 0 0 0 0 0 0 0 0 0 0 0 0 0 0 0 0 127 0" result="hardAlpha"/>
<feOffset dx="10.8" dy="10.8"/>
<feGaussianBlur stdDeviation="21.6"/>
<feComposite in2="hardAlpha" operator="arithmetic" k2="-1" k3="1"/>
<feColorMatrix type="matrix" values="0 0 0 0 0 0 0 0 0 0 0 0 0 0 0 0 0 0 0.6 0"/>
<feBlend mode="normal" in2="effect5_innerShadow_190_11789" result="effect6_innerShadow_190_11789"/>
</filter>
<filter id="filter15_f_190_11789" x="239.855" y="480.126" width="112.2" height="62.7292" filterUnits="userSpaceOnUse" color-interpolation-filters="sRGB">
<feFlood flood-opacity="0" result="BackgroundImageFix"/>
<feBlend mode="normal" in="SourceGraphic" in2="BackgroundImageFix" result="shape"/>
<feGaussianBlur stdDeviation="4.32" result="effect1_foregroundBlur_190_11789"/>
</filter>
<filter id="filter16_f_190_11789" x="219.503" y="435.179" width="133.821" height="110.487" filterUnits="userSpaceOnUse" color-interpolation-filters="sRGB">
<feFlood flood-opacity="0" result="BackgroundImageFix"/>
<feBlend mode="normal" in="SourceGraphic" in2="BackgroundImageFix" result="shape"/>
<feGaussianBlur stdDeviation="10.8" result="effect1_foregroundBlur_190_11789"/>
</filter>
<filter id="filter17_f_190_11789" x="219.503" y="435.179" width="133.821" height="110.487" filterUnits="userSpaceOnUse" color-interpolation-filters="sRGB">
<feFlood flood-opacity="0" result="BackgroundImageFix"/>
<feBlend mode="normal" in="SourceGraphic" in2="BackgroundImageFix" result="shape"/>
<feGaussianBlur stdDeviation="10.8" result="effect1_foregroundBlur_190_11789"/>
</filter>
<filter id="filter18_b_190_11789" x="193.825" y="550.676" width="49.342" height="47.4948" filterUnits="userSpaceOnUse" color-interpolation-filters="sRGB">
<feFlood flood-opacity="0" result="BackgroundImageFix"/>
<feGaussianBlur in="BackgroundImageFix" stdDeviation="4.32"/>
<feComposite in2="SourceAlpha" operator="in" result="effect1_backgroundBlur_190_11789"/>
<feBlend mode="normal" in="SourceGraphic" in2="effect1_backgroundBlur_190_11789" result="shape"/>
</filter>
<filter id="filter19_i_190_11789" x="220.67" y="429.49" width="137.755" height="125.49" filterUnits="userSpaceOnUse" color-interpolation-filters="sRGB">
<feFlood flood-opacity="0" result="BackgroundImageFix"/>
<feBlend mode="normal" in="SourceGraphic" in2="BackgroundImageFix" result="shape"/>
<feColorMatrix in="SourceAlpha" type="matrix" values="0 0 0 0 0 0 0 0 0 0 0 0 0 0 0 0 0 0 127 0" result="hardAlpha"/>
<feOffset dx="4.32" dy="4.32"/>
<feGaussianBlur stdDeviation="2.16"/>
<feComposite in2="hardAlpha" operator="arithmetic" k2="-1" k3="1"/>
<feColorMatrix type="matrix" values="0 0 0 0 1 0 0 0 0 0.776471 0 0 0 0 0.541176 0 0 0 1 0"/>
<feBlend mode="normal" in2="shape" result="effect1_innerShadow_190_11789"/>
</filter>
<filter id="filter20_i_190_11789" x="209.819" y="442.627" width="152.876" height="109.273" filterUnits="userSpaceOnUse" color-interpolation-filters="sRGB">
<feFlood flood-opacity="0" result="BackgroundImageFix"/>
<feBlend mode="normal" in="SourceGraphic" in2="BackgroundImageFix" result="shape"/>
<feColorMatrix in="SourceAlpha" type="matrix" values="0 0 0 0 0 0 0 0 0 0 0 0 0 0 0 0 0 0 127 0" result="hardAlpha"/>
<feOffset dx="-4.32" dy="4.32"/>
<feGaussianBlur stdDeviation="8.64"/>
<feComposite in2="hardAlpha" operator="arithmetic" k2="-1" k3="1"/>
<feColorMatrix type="matrix" values="0 0 0 0 0.941176 0 0 0 0 0.596078 0 0 0 0 0.258824 0 0 0 0.8 0"/>
<feBlend mode="normal" in2="shape" result="effect1_innerShadow_190_11789"/>
</filter>
<linearGradient id="paint0_linear_190_11789" x1="315.468" y1="404.806" x2="366.149" y2="422.548" gradientUnits="userSpaceOnUse">
<stop stop-color="#5B4DFF"/>
<stop offset="1" stop-color="#FF9524"/>
</linearGradient>
<linearGradient id="paint1_linear_190_11789" x1="86.0874" y1="-386.507" x2="170.78" y2="-386.507" gradientUnits="userSpaceOnUse">
<stop stop-color="#7A99A6" stop-opacity="0"/>
<stop offset="1" stop-color="#AEC0CF"/>
</linearGradient>
<linearGradient id="paint2_linear_190_11789" x1="116.264" y1="-386.506" x2="152.393" y2="-386.506" gradientUnits="userSpaceOnUse">
<stop stop-color="#9571AA"/>
<stop offset="0.15" stop-color="#7E67C5"/>
<stop offset="0.3" stop-color="#6C5FDA"/>
<stop offset="0.48" stop-color="#5F5AE9"/>
<stop offset="0.69" stop-color="#5857F2"/>
<stop offset="1" stop-color="#5656F5"/>
</linearGradient>
<linearGradient id="paint3_linear_190_11789" x1="76.9921" y1="-386.506" x2="113.122" y2="-386.506" gradientUnits="userSpaceOnUse">
<stop stop-color="#F09842"/>
<stop offset="0.25" stop-color="#ED9644"/>
<stop offset="0.44" stop-color="#E5934E"/>
<stop offset="0.6" stop-color="#D78D5D"/>
<stop offset="0.74" stop-color="#C48574"/>
<stop offset="0.88" stop-color="#AC7A90"/>
<stop offset="1" stop-color="#916FB0"/>
</linearGradient>
<linearGradient id="paint4_linear_190_11789" x1="258.826" y1="121.709" x2="258.826" y2="95.0078" gradientUnits="userSpaceOnUse">
<stop stop-color="#5656F5"/>
<stop offset="1" stop-color="#F09842"/>
</linearGradient>
<linearGradient id="paint5_linear_190_11789" x1="167.324" y1="193.57" x2="234.925" y2="122.96" gradientUnits="userSpaceOnUse">
<stop stop-color="#AEC0CF"/>
<stop offset="0.36" stop-color="#5656F5"/>
</linearGradient>
<linearGradient id="paint6_linear_190_11789" x1="-30.8442" y1="263.932" x2="-28.7068" y2="326.904" gradientUnits="userSpaceOnUse">
<stop stop-color="#5B4DFF"/>
<stop offset="1" stop-color="#FF9524"/>
</linearGradient>
<linearGradient id="paint7_linear_190_11789" x1="-30.8442" y1="303.932" x2="-28.7068" y2="366.904" gradientUnits="userSpaceOnUse">
<stop stop-color="#5B4DFF"/>
<stop offset="1" stop-color="#FF9524"/>
</linearGradient>
<clipPath id="clip0_190_11789">
<rect width="348" height="664" fill="white"/>
</clipPath>
<clipPath id="clip1_190_11789">
<rect width="250.558" height="250.558" fill="white" transform="translate(-51.896 365.855) rotate(9.09035)"/>
</clipPath>
<clipPath id="clip2_190_11789">
<rect width="250.558" height="250.558" fill="white" transform="translate(155.247 411.193) rotate(-9.10601)"/>
</clipPath>
</defs>
</svg>
