<svg width="348" height="664" viewBox="0 0 348 664" fill="none" xmlns="http://www.w3.org/2000/svg">
<g filter="url(#filter0_i_184_12753)">
<path d="M252.222 195.938C266.963 195.938 278.914 211.69 278.914 231.122C278.914 247.87 270.037 261.885 258.147 265.437C257.79 265.543 257.451 265.24 257.503 264.872C259.254 252.249 259.768 240.88 259.768 235.36C259.768 220.985 256.839 207.982 251.599 196.684C251.438 196.337 251.69 195.938 252.073 195.938H252.222Z" fill="#FF9524" fill-opacity="0.8"/>
<path fill-rule="evenodd" clip-rule="evenodd" d="M270.681 206.558C275.436 212.826 278.392 221.509 278.392 231.122C278.392 247.711 269.608 261.454 258.021 264.93C259.774 252.288 260.289 240.902 260.289 235.36C260.289 220.913 257.345 207.834 252.072 196.465C252.071 196.464 252.071 196.463 252.071 196.463C252.071 196.462 252.071 196.461 252.072 196.46C252.072 196.459 252.073 196.459 252.073 196.459C252.073 196.459 252.073 196.459 252.073 196.459L252.222 196.459C259.394 196.459 265.925 200.29 270.681 206.558ZM278.914 231.122C278.914 211.69 266.963 195.938 252.222 195.938H252.073C251.69 195.938 251.438 196.337 251.599 196.684C256.839 207.982 259.768 220.985 259.768 235.36C259.768 240.88 259.254 252.249 257.503 264.872C257.451 265.24 257.79 265.543 258.147 265.437C270.037 261.885 278.914 247.87 278.914 231.122Z" fill="#FFC68A"/>
</g>
<g filter="url(#filter1_i_184_12753)">
<path d="M94.4583 195.938C79.7169 195.938 67.7666 211.69 67.7666 231.122C67.7666 247.87 76.6436 261.885 88.5337 265.437C88.89 265.543 89.2289 265.24 89.1777 264.872C87.4262 252.249 86.9123 240.88 86.9123 235.36C86.9123 220.985 89.8413 207.982 95.0815 196.684C95.2427 196.337 94.99 195.938 94.6069 195.938H94.4583Z" fill="#FF9524" fill-opacity="0.8"/>
<path fill-rule="evenodd" clip-rule="evenodd" d="M75.9997 206.558C71.2443 212.826 68.2879 221.509 68.2879 231.122C68.2879 247.711 77.072 261.454 88.6597 264.93C86.9062 252.288 86.391 240.902 86.391 235.36C86.391 220.913 89.3349 207.834 94.6086 196.465C94.6091 196.464 94.6094 196.463 94.6095 196.463C94.6094 196.462 94.609 196.461 94.6082 196.46C94.6079 196.459 94.6077 196.459 94.6075 196.459C94.6073 196.459 94.6076 196.459 94.6075 196.459L94.4583 196.459C87.2859 196.459 80.7549 200.29 75.9997 206.558ZM67.7666 231.122C67.7666 211.69 79.7169 195.938 94.4583 195.938H94.6069C94.99 195.938 95.2427 196.337 95.0815 196.684C89.8413 207.982 86.9123 220.985 86.9123 235.36C86.9123 240.88 87.4262 252.249 89.1777 264.872C89.2289 265.24 88.89 265.543 88.5337 265.437C76.6436 261.885 67.7666 247.87 67.7666 231.122Z" fill="#FFC68A"/>
</g>
<g filter="url(#filter2_i_184_12753)">
<path d="M250.389 138.171C252.209 137.776 253.968 138.864 254.428 140.669C255.53 145.003 257.005 152.783 254.631 156.623L198.006 248.188C195.966 251.487 191.633 252.508 188.335 250.468L181.681 246.353C178.383 244.313 177.362 239.979 179.401 236.681L236.026 145.115C238.401 141.275 246.02 139.12 250.389 138.171Z" fill="url(#paint0_linear_184_12753)"/>
</g>
<path d="M250.44 138.406C252.134 138.038 253.768 139.049 254.195 140.728C254.745 142.889 255.385 145.902 255.594 148.848C255.803 151.807 255.571 154.645 254.427 156.497L197.802 248.062C195.832 251.248 191.646 252.234 188.461 250.264L181.807 246.149C178.622 244.178 177.635 239.993 179.605 236.807L236.23 145.242C237.375 143.39 239.811 141.915 242.552 140.781C245.281 139.651 248.262 138.879 250.44 138.406Z" stroke="#5B4DFF" stroke-width="0.48"/>
<path d="M250.436 138.405C252.129 138.038 253.768 139.051 254.195 140.73C254.469 141.809 254.766 143.101 255.021 144.491C255.019 144.493 255.017 144.495 255.012 144.496C255.004 144.5 254.998 144.5 254.996 144.5C254.996 144.499 254.995 144.498 254.994 144.497C254.274 143.582 253.016 142.113 251.709 141.213C251.007 140.729 250.073 140.341 249.161 140.04C248.246 139.737 247.338 139.518 246.678 139.377C246.677 139.377 246.676 139.376 246.675 139.376C246.674 139.374 246.672 139.37 246.671 139.362C246.671 139.359 246.672 139.356 246.672 139.354C248.041 138.957 249.341 138.643 250.436 138.405Z" fill="#3F3F41" stroke="#3F3F41" stroke-width="0.48"/>
<path d="M173.329 145.377C125.65 145.377 86.9934 179.493 86.9934 231.712C86.9934 242.95 89.1253 278.458 99.5035 299.412C109.24 319.064 122.585 339.95 173.381 339.95C224.177 339.95 237.526 319.069 247.258 299.412C257.636 278.458 259.768 242.956 259.768 231.712C259.768 179.493 221.013 145.377 173.329 145.377Z" fill="#FFDFBD" fill-opacity="0.6"/>
<g filter="url(#filter3_b_184_12753)">
<path d="M173.381 339.95C224.177 339.95 237.526 319.069 247.258 299.412C257.636 278.458 259.768 242.956 259.768 231.712C259.768 179.493 221.013 145.377 173.329 145.377C125.645 145.377 86.8895 179.493 86.8895 231.712C86.8895 242.956 89.0214 278.458 99.3995 299.412C109.131 319.069 122.481 339.95 173.277 339.95" stroke="white" stroke-width="0.96"/>
</g>
<g filter="url(#filter4_iiiiii_184_12753)">
<path d="M219.772 186.759C208.659 175.14 192.605 169 173.371 169C154.136 169 138.097 175.14 126.979 186.759C117.086 197.101 111.633 211.18 111.633 226.395C111.633 243.289 121.011 253.964 128.871 259.948C140.245 268.601 156.049 273.365 173.376 273.365C190.702 273.365 206.507 268.601 217.88 259.948C225.746 253.964 235.118 243.289 235.118 226.395C235.118 211.175 229.671 197.101 219.772 186.759Z" fill="#262627"/>
</g>
<path d="M203.78 239.478C195.595 239.478 188.96 231.33 188.96 221.278C188.96 211.227 195.595 203.078 203.78 203.078C211.965 203.078 218.6 211.227 218.6 221.278C218.6 231.33 211.965 239.478 203.78 239.478Z" fill="#FFAE57"/>
<path d="M130.4 204.078L144.199 214.532C145.22 215.305 145.212 216.841 144.184 217.604L130.4 227.838" stroke="#FFAE57" stroke-width="7.68" stroke-linecap="round"/>
<path d="M144.8 215.838H125.6" stroke="#FFAE57" stroke-width="6.72" stroke-linecap="round"/>
<g filter="url(#filter5_f_184_12753)">
<path opacity="0.7" d="M135.849 251.914C144.077 251.339 150.54 247.914 150.284 244.264C150.029 240.614 143.152 238.121 134.925 238.697C126.697 239.272 120.234 242.697 120.489 246.347C120.744 249.997 127.621 252.49 135.849 251.914Z" fill="#FF334B"/>
<path opacity="0.7" d="M211.705 251.914C219.933 252.489 226.81 249.997 227.065 246.347C227.32 242.697 220.857 239.271 212.629 238.696C204.402 238.121 197.525 240.613 197.27 244.263C197.015 247.913 203.477 251.338 211.705 251.914Z" fill="#FF334B"/>
</g>
<g filter="url(#filter6_f_184_12753)">
<path d="M130.4 203.598L144.199 214.052C145.22 214.825 145.212 216.361 144.184 217.124L130.4 227.358" stroke="#FFAE57" stroke-width="7.68" stroke-linecap="round"/>
<path d="M203.78 239.476C195.595 239.476 188.96 231.328 188.96 221.276C188.96 211.225 195.595 203.076 203.78 203.076C211.965 203.076 218.6 211.225 218.6 221.276C218.6 231.328 211.965 239.476 203.78 239.476Z" fill="#FFAE57"/>
</g>
<g filter="url(#filter7_f_184_12753)">
<path d="M130.4 203.598L144.199 214.052C145.22 214.825 145.212 216.361 144.184 217.124L130.4 227.358" stroke="#FFAE57" stroke-width="7.68" stroke-linecap="round"/>
<path d="M203.78 239.476C195.595 239.476 188.96 231.328 188.96 221.276C188.96 211.225 195.595 203.076 203.78 203.076C211.965 203.076 218.6 211.225 218.6 221.276C218.6 231.328 211.965 239.476 203.78 239.476Z" fill="#FFAE57"/>
</g>
<path d="M254.902 289.553C255.235 290.402 255.698 291.184 256.292 291.886C260.707 297.071 270.844 295.682 278.936 288.786C285.932 282.822 289.104 274.694 286.973 269.253C286.641 268.404 286.178 267.622 285.584 266.92C281.169 261.735 271.032 263.124 262.94 270.021C255.943 275.985 252.772 284.112 254.902 289.553Z" fill="#FFDFBD" fill-opacity="0.6"/>
<g filter="url(#filter8_b_184_12753)">
<path fill-rule="evenodd" clip-rule="evenodd" d="M257.087 291.212C258.985 293.44 262.209 294.366 266.093 293.834C269.965 293.303 274.342 291.331 278.26 287.992M257.087 291.212C256.568 290.598 256.164 289.917 255.873 289.173C254.935 286.778 255.127 283.674 256.465 280.375C257.796 277.088 260.231 273.699 263.616 270.814C267.533 267.475 271.91 265.503 275.782 264.973C279.667 264.441 282.89 265.366 284.789 267.594C285.307 268.208 285.711 268.89 286.002 269.634C286.94 272.028 286.748 275.132 285.411 278.432C284.079 281.718 281.644 285.107 278.26 287.992M285.584 266.92C286.178 267.622 286.641 268.404 286.973 269.253C289.104 274.694 285.932 282.822 278.936 288.786C270.844 295.682 260.707 297.071 256.292 291.886C255.698 291.184 255.235 290.402 254.902 289.553C252.772 284.112 255.943 275.985 262.94 270.021C271.032 263.124 281.169 261.735 285.584 266.92Z" fill="white"/>
</g>
<path d="M91.3422 296.354C90.9284 297.167 90.3917 297.9 89.732 298.541C84.8331 303.271 74.8795 300.901 67.4978 293.249C61.1158 286.631 58.7514 278.234 61.4019 273.026C61.8156 272.213 62.3524 271.481 63.012 270.84C67.911 266.11 77.8645 268.479 85.2462 276.132C91.6283 282.749 93.9926 291.147 91.3422 296.354Z" fill="#FFDFBD" fill-opacity="0.6"/>
<path fill-rule="evenodd" clip-rule="evenodd" d="M89.0067 297.792C86.9003 299.825 83.6018 300.432 79.7874 299.524C75.9855 298.619 71.8218 296.23 68.2482 292.525M89.0067 297.792C89.5824 297.232 90.0508 296.593 90.4131 295.881C91.5797 293.589 91.691 290.481 90.6817 287.067C89.6765 283.667 87.5831 280.057 84.4959 276.856C80.9223 273.151 76.7586 270.761 72.9567 269.856C69.1424 268.949 65.8441 269.556 63.7377 271.588C63.1618 272.148 62.6934 272.787 62.331 273.499C61.1644 275.791 61.0531 278.899 62.0624 282.313C63.0675 285.714 65.1609 289.324 68.2481 292.525M63.012 270.84C62.3524 271.481 61.8156 272.213 61.4019 273.026C58.7514 278.234 61.1158 286.631 67.4978 293.249C74.8795 300.901 84.8331 303.271 89.732 298.541C90.3917 297.9 90.9284 297.167 91.3422 296.354C93.9926 291.147 91.6283 282.749 85.2462 276.132C77.8645 268.479 67.911 266.11 63.012 270.84Z" fill="white"/>
<path d="M204.796 339.939C196.915 339.939 190.524 346.33 190.524 354.211C190.524 362.093 196.915 368.483 204.796 368.483C212.678 368.483 219.068 362.093 219.068 354.211C219.068 346.33 212.678 339.939 204.796 339.939Z" fill="#262627"/>
<path d="M141.501 339.939C133.62 339.939 127.229 346.33 127.229 354.211C127.229 362.093 133.62 368.483 141.501 368.483C149.382 368.483 155.773 362.093 155.773 354.211C155.773 346.33 149.382 339.939 141.501 339.939Z" fill="#262627"/>
<g filter="url(#filter9_i_184_12753)">
<path d="M173.37 169C192.605 169 208.659 175.141 219.772 186.759C229.671 197.101 235.118 211.175 235.118 226.395C235.118 243.289 225.746 253.964 217.88 259.948C206.506 268.601 190.702 273.366 173.376 273.366C156.049 273.366 140.245 268.601 128.871 259.948C121.011 253.964 111.633 243.289 111.633 226.395C111.633 211.18 117.085 197.101 126.979 186.759C138.097 175.141 154.136 169 173.37 169ZM173.381 160.66C127.036 160.66 103.298 192.967 103.298 226.395C103.298 259.823 134.673 281.706 173.381 281.706C212.089 281.706 243.463 259.823 243.463 226.395C243.463 192.967 219.725 160.66 173.381 160.66Z" fill="#FF9524"/>
</g>
<g filter="url(#filter10_i_184_12753)">
<path fill-rule="evenodd" clip-rule="evenodd" d="M240.14 195.281C253.353 209.335 252.718 231.394 238.723 244.552C224.727 257.711 202.67 256.985 189.458 242.931C176.245 228.877 176.879 206.818 190.875 193.66C204.87 180.502 226.927 181.227 240.14 195.281ZM247.38 188.474C264.368 206.543 263.552 234.905 245.558 251.823C227.564 268.74 199.205 267.807 182.217 249.738C165.229 231.669 166.045 203.307 184.039 186.389C202.034 169.472 230.392 170.405 247.38 188.474Z" fill="#5B4DFF"/>
<path fill-rule="evenodd" clip-rule="evenodd" d="M275.844 282.222C277.843 280.342 277.94 277.198 276.06 275.198L244.529 241.661L237.289 248.468L268.82 282.005C270.7 284.005 273.844 284.102 275.844 282.222Z" fill="#5B4DFF"/>
</g>
<g filter="url(#filter11_i_184_12753)">
<path d="M248.622 211.045C253.111 229.805 241.605 248.636 222.923 253.107C204.24 257.577 185.457 245.993 180.968 227.233C176.479 208.473 187.985 189.642 206.667 185.171C225.349 180.701 244.133 192.285 248.622 211.045Z" fill="#D8EAFB" fill-opacity="0.4"/>
</g>
<path d="M244.495 212.625C246.575 220.865 245.215 239.025 223.615 245.985" stroke="white" stroke-opacity="0.8" stroke-width="2.4" stroke-linecap="round"/>
<path d="M93.6611 463.83V466.272H85.7851V470.804H92.4951V473.246H85.7851V480.286H82.9471V463.83H93.6611ZM103.461 463.83L109.467 480.286H106.453L104.891 475.974H98.5334L96.9054 480.286H93.8914L100.029 463.83H103.461ZM99.4354 473.532H103.989L101.745 467.372L99.4354 473.532ZM112.289 469.572H115.127V480.286H112.289V469.572ZM113.719 464.182C114.599 464.182 115.237 464.82 115.237 465.7C115.237 466.602 114.599 467.24 113.719 467.24C112.817 467.24 112.179 466.602 112.179 465.7C112.179 464.82 112.817 464.182 113.719 464.182ZM123.911 463.236C126.969 463.236 129.301 465.282 129.301 468.098C129.301 470.474 127.695 472.3 125.385 472.828V475.468C126.881 475.402 128.399 475.292 129.807 475.094L130.027 477.206C125.935 477.976 121.535 477.976 118.235 477.954L117.861 475.6C119.247 475.6 120.831 475.6 122.481 475.578V472.85C120.127 472.322 118.499 470.496 118.499 468.098C118.499 465.282 120.831 463.236 123.911 463.236ZM123.911 465.7C122.437 465.7 121.359 466.58 121.359 468.098C121.359 469.616 122.437 470.518 123.911 470.518C125.363 470.518 126.441 469.616 126.441 468.098C126.441 466.58 125.363 465.7 123.911 465.7ZM130.819 462.07H133.723V469.792H136.297V472.212H133.723V481.87H130.819V462.07ZM157.784 462.092H160.556V474.258H157.784V469.462H156.42V474.06H153.692V462.334H156.42V467.108H157.784V462.092ZM143.55 463.962H146.916V462.224H149.798V463.962H153.142V466.206H143.55V463.962ZM148.368 466.778C150.876 466.778 152.658 468.208 152.658 470.254C152.658 472.3 150.876 473.708 148.368 473.708C145.904 473.708 144.122 472.3 144.122 470.254C144.122 468.208 145.904 466.778 148.368 466.778ZM148.368 468.89C147.4 468.89 146.696 469.352 146.696 470.254C146.696 471.134 147.4 471.64 148.368 471.64C149.358 471.64 150.062 471.134 150.062 470.254C150.062 469.352 149.358 468.89 148.368 468.89ZM148.39 474.896H151.25V475.27C151.25 476.656 151.866 478.13 153.362 479.098C154.88 478.064 155.54 476.568 155.54 475.27V474.896H158.422V475.27C158.422 477.096 159.5 478.812 162.096 479.494L160.71 481.628C158.84 481.078 157.608 479.956 156.926 478.548C156.288 479.978 155.166 481.188 153.384 481.826C151.602 481.21 150.48 480.022 149.82 478.636C149.116 479.978 147.906 481.078 146.102 481.628L144.76 479.494C147.312 478.746 148.39 476.964 148.39 475.27V474.896ZM164.694 463.39H173.67V465.722H167.62V471.552C170.392 471.53 172.35 471.398 174.528 470.98L174.77 473.312C172.218 473.796 169.908 473.884 166.3 473.884H164.694V463.39ZM177.168 462.07H180.116V476.48H177.168V469.506H172.548V467.196H177.168V462.07ZM167.004 475.292H169.93V479.252H180.556V481.584H167.004V475.292ZM203.319 462.07H206.113V481.87H203.319V472.036H201.625V480.924H198.919V462.422H201.625V469.66H203.319V462.07ZM189.657 464.358H196.939V466.712H192.539V475.028C194.321 475.006 195.993 474.874 197.819 474.544L198.061 476.92C195.641 477.382 193.551 477.448 191.043 477.448H189.657V464.358ZM221.823 462.092H224.749V470.078H227.191V472.498H224.749V481.892H221.823V462.092ZM208.755 476.26C210.163 476.26 211.791 476.26 213.507 476.216V474.588C211.461 474.148 210.119 472.828 210.119 471.002C210.119 468.78 212.121 467.284 214.959 467.284C217.797 467.284 219.821 468.78 219.821 471.002C219.821 472.806 218.479 474.148 216.433 474.566V476.106C217.929 476.018 219.425 475.886 220.833 475.71L221.053 477.8C216.895 478.614 212.429 478.614 209.129 478.614L208.755 476.26ZM209.129 464.226H213.507V462.18H216.433V464.226H220.767V466.514H209.129V464.226ZM214.959 469.484C213.727 469.484 212.891 470.012 212.891 471.002C212.891 471.992 213.727 472.542 214.959 472.542C216.235 472.542 217.049 471.992 217.049 471.002C217.049 470.012 216.235 469.484 214.959 469.484ZM228.866 469.704H246.774V472.014H228.866V469.704ZM231.066 462.422H244.486V464.754H233.97V466.404H244.662V468.692H231.066V462.422ZM230.868 473.07H244.574V478.372H233.772V479.494H245.102V481.716H230.912V476.304H241.692V475.27H230.868V473.07ZM257.666 462.356C262.176 462.356 264.86 463.544 264.86 465.722C264.86 467.922 262.176 469.11 257.666 469.11C253.134 469.11 250.472 467.922 250.472 465.722C250.472 463.544 253.134 462.356 257.666 462.356ZM257.666 464.49C254.828 464.49 253.508 464.886 253.508 465.722C253.508 466.602 254.828 466.976 257.666 466.976C260.482 466.976 261.802 466.602 261.802 465.722C261.802 464.886 260.482 464.49 257.666 464.49ZM248.712 469.99H266.598V472.3H248.712V469.99ZM250.736 473.356H264.442V478.504H253.64V479.56H264.97V481.76H250.78V476.48H261.56V475.534H250.736V473.356Z" fill="#727175"/>
<path d="M68.1297 502.94C68.1297 509.1 66.5457 514.27 59.0657 517.988L57.5477 515.722C60.7377 514.116 62.7177 512.334 63.8837 510.178L58.0757 510.706L57.7237 508.242L64.8077 507.846C65.0277 507.032 65.1597 506.174 65.2257 505.272H58.7357V502.94H68.1297ZM70.9897 501.07H73.9377V520.87H70.9897V501.07ZM91.1663 501.07H94.1143V520.87H91.1663V516.58H87.2503V514.358H91.1663V501.07ZM77.2183 511.102C80.8923 511.102 85.7323 511.08 89.9343 510.508L90.1103 512.62C88.4163 512.928 86.6783 513.126 84.9623 513.258V520.298H82.0143V513.39C80.4303 513.456 78.9343 513.456 77.5703 513.456L77.2183 511.102ZM83.6203 501.884C86.5463 501.884 88.6583 503.556 88.6583 505.954C88.6583 508.374 86.5463 510.024 83.6203 510.024C80.6723 510.024 78.5603 508.374 78.5603 505.954C78.5603 503.556 80.6723 501.884 83.6203 501.884ZM83.6203 504.062C82.2563 504.062 81.3103 504.766 81.3103 505.954C81.3103 507.164 82.2563 507.802 83.6203 507.802C84.9623 507.802 85.8863 507.164 85.8863 505.954C85.8863 504.766 84.9623 504.062 83.6203 504.062ZM99.2428 502.654H113.037V505.052H102.147V510.178H113.191V512.488H99.2428V502.654ZM97.1748 516.118H115.105V518.516H97.1748V516.118ZM117.043 516.338H124.523V513.434H119.089V506.68H130.067V504.634H119.067V502.324H132.971V508.968H121.993V511.102H133.411V513.434H127.449V516.338H134.973V518.692H117.043V516.338ZM152.786 502.17C152.786 507.428 149.618 511.014 143.81 512.598L142.666 510.332C146.89 509.21 149.2 507.076 149.64 504.502H143.744V502.17H152.786ZM156.262 501.07H159.188V512.114H156.262V508.11H152.918V505.734H156.262V501.07ZM146.12 512.906H159.188V520.65H146.12V512.906ZM156.306 515.216H149.002V518.362H156.306V515.216ZM165.967 502.192H168.805V504.458C168.805 506.614 169.795 508.726 172.391 509.848V501.378H175.119V505.866H176.571V501.092H179.365V513.104H176.571V508.22H175.119V512.994H172.391V509.958L170.895 512.092C169.245 511.41 168.123 510.244 167.419 508.814C166.715 510.464 165.505 511.85 163.701 512.62L162.161 510.354C164.911 509.122 165.967 506.68 165.967 504.458V502.192ZM165.703 513.94H179.365V520.892H176.417V516.272H165.703V513.94ZM195.009 501.07H197.957V505.228H200.553V507.604H197.957V511.718H195.009V501.07ZM184.845 512.51H197.957V517.57H187.771V518.604H198.529V520.76H184.889V515.59H195.053V514.622H184.845V512.51ZM182.359 502.5H186.715V500.916H189.641V502.5H193.997V504.7H182.359V502.5ZM188.189 505.118C191.115 505.118 193.073 506.372 193.073 508.374C193.073 510.376 191.115 511.586 188.189 511.586C185.241 511.586 183.305 510.376 183.305 508.374C183.305 506.372 185.241 505.118 188.189 505.118ZM188.189 507.186C186.891 507.186 186.121 507.56 186.121 508.374C186.121 509.166 186.891 509.54 188.189 509.54C189.465 509.54 190.235 509.166 190.235 508.374C190.235 507.56 189.465 507.186 188.189 507.186ZM215.352 501.642H218.454V502.566C218.454 504.832 220.632 507.45 225.23 508.066L224.108 510.398C220.632 509.892 218.19 508.308 216.914 506.196C215.638 508.308 213.196 509.892 209.72 510.398L208.576 508.066C213.196 507.45 215.352 504.854 215.352 502.566V501.642ZM207.938 511.806H225.846V514.182H218.3V520.892H215.374V514.182H207.938V511.806ZM237.939 513.082H240.755V513.698C240.755 515.26 241.371 516.888 242.911 517.988C244.495 516.822 245.133 515.172 245.133 513.698V513.082H248.015V513.698C248.015 515.766 249.071 517.658 251.667 518.45L250.259 520.584C248.411 519.968 247.201 518.802 246.519 517.284C245.859 518.802 244.737 520.1 242.977 520.804C241.151 520.122 240.007 518.868 239.369 517.372C238.665 518.802 237.477 519.968 235.695 520.584L234.265 518.45C236.861 517.57 237.939 515.634 237.939 513.698V513.082ZM247.047 501.092H249.995V512.268H247.047V501.092ZM239.193 502.082C242.295 502.082 244.605 504.062 244.605 506.834C244.605 509.606 242.295 511.586 239.193 511.586C236.113 511.586 233.803 509.606 233.803 506.834C233.803 504.062 236.113 502.082 239.193 502.082ZM239.193 504.502C237.741 504.502 236.663 505.36 236.663 506.834C236.663 508.33 237.741 509.166 239.193 509.166C240.667 509.166 241.745 508.33 241.745 506.834C241.745 505.36 240.667 504.502 239.193 504.502ZM258.797 502.412C261.437 502.412 263.439 504.612 263.857 508.154H267.091V501.048H269.995V520.914H267.091V510.508H263.879C263.571 514.292 261.525 516.624 258.797 516.624C255.849 516.624 253.671 513.874 253.671 509.496C253.671 505.162 255.849 502.412 258.797 502.412ZM258.797 505.096C257.411 505.096 256.465 506.614 256.465 509.496C256.465 512.422 257.411 513.962 258.797 513.962C260.227 513.962 261.151 512.422 261.151 509.496C261.151 506.614 260.227 505.096 258.797 505.096ZM273.254 516.206H277.148V511.388C275.674 510.442 274.794 509.056 274.794 507.34C274.794 504.084 277.94 501.994 282.208 501.994C286.476 501.994 289.622 504.084 289.622 507.34C289.622 509.056 288.742 510.442 287.268 511.388V516.206H291.184V518.582H273.254V516.206ZM282.208 504.282C279.48 504.282 277.676 505.404 277.676 507.34C277.676 509.276 279.48 510.398 282.208 510.398C284.914 510.398 286.718 509.276 286.718 507.34C286.718 505.404 284.914 504.282 282.208 504.282ZM280.096 516.206H284.32V512.488C283.66 512.598 282.956 512.664 282.208 512.664C281.46 512.664 280.756 512.598 280.096 512.488V516.206Z" fill="#727175"/>
<path d="M288.682 16H329.539C330.479 16 331.242 16.7622 331.242 17.7024V58.56" stroke="url(#paint1_linear_184_12753)" stroke-width="10.64" stroke-linecap="round"/>
<path d="M330.39 17.7031L284 64.0935" stroke="url(#paint2_linear_184_12753)" stroke-width="10.64" stroke-linecap="round"/>
<defs>
<filter id="filter0_i_184_12753" x="249.629" y="194.017" width="29.2843" height="71.4415" filterUnits="userSpaceOnUse" color-interpolation-filters="sRGB">
<feFlood flood-opacity="0" result="BackgroundImageFix"/>
<feBlend mode="normal" in="SourceGraphic" in2="BackgroundImageFix" result="shape"/>
<feColorMatrix in="SourceAlpha" type="matrix" values="0 0 0 0 0 0 0 0 0 0 0 0 0 0 0 0 0 0 127 0" result="hardAlpha"/>
<feOffset dx="-1.92" dy="-1.92"/>
<feGaussianBlur stdDeviation="1.92"/>
<feComposite in2="hardAlpha" operator="arithmetic" k2="-1" k3="1"/>
<feColorMatrix type="matrix" values="0 0 0 0 1 0 0 0 0 0.776471 0 0 0 0 0.541176 0 0 0 1 0"/>
<feBlend mode="normal" in2="shape" result="effect1_innerShadow_184_12753"/>
</filter>
<filter id="filter1_i_184_12753" x="67.7666" y="195.938" width="29.2843" height="71.4415" filterUnits="userSpaceOnUse" color-interpolation-filters="sRGB">
<feFlood flood-opacity="0" result="BackgroundImageFix"/>
<feBlend mode="normal" in="SourceGraphic" in2="BackgroundImageFix" result="shape"/>
<feColorMatrix in="SourceAlpha" type="matrix" values="0 0 0 0 0 0 0 0 0 0 0 0 0 0 0 0 0 0 127 0" result="hardAlpha"/>
<feOffset dx="1.92" dy="1.92"/>
<feGaussianBlur stdDeviation="1.92"/>
<feComposite in2="hardAlpha" operator="arithmetic" k2="-1" k3="1"/>
<feColorMatrix type="matrix" values="0 0 0 0 1 0 0 0 0 0.776471 0 0 0 0 0.541176 0 0 0 1 0"/>
<feBlend mode="normal" in2="shape" result="effect1_innerShadow_184_12753"/>
</filter>
<filter id="filter2_i_184_12753" x="176.431" y="138.09" width="79.4719" height="115.35" filterUnits="userSpaceOnUse" color-interpolation-filters="sRGB">
<feFlood flood-opacity="0" result="BackgroundImageFix"/>
<feBlend mode="normal" in="SourceGraphic" in2="BackgroundImageFix" result="shape"/>
<feColorMatrix in="SourceAlpha" type="matrix" values="0 0 0 0 0 0 0 0 0 0 0 0 0 0 0 0 0 0 127 0" result="hardAlpha"/>
<feOffset dx="-1.92" dy="1.92"/>
<feGaussianBlur stdDeviation="3.84"/>
<feComposite in2="hardAlpha" operator="arithmetic" k2="-1" k3="1"/>
<feColorMatrix type="matrix" values="0 0 0 0 0.941176 0 0 0 0 0.596078 0 0 0 0 0.258824 0 0 0 0.8 0"/>
<feBlend mode="normal" in2="shape" result="effect1_innerShadow_184_12753"/>
</filter>
<filter id="filter3_b_184_12753" x="82.5694" y="141.056" width="181.519" height="203.213" filterUnits="userSpaceOnUse" color-interpolation-filters="sRGB">
<feFlood flood-opacity="0" result="BackgroundImageFix"/>
<feGaussianBlur in="BackgroundImageFix" stdDeviation="1.92"/>
<feComposite in2="SourceAlpha" operator="in" result="effect1_backgroundBlur_184_12753"/>
<feBlend mode="normal" in="SourceGraphic" in2="effect1_backgroundBlur_184_12753" result="shape"/>
</filter>
<filter id="filter4_iiiiii_184_12753" x="106.833" y="164.2" width="133.085" height="113.965" filterUnits="userSpaceOnUse" color-interpolation-filters="sRGB">
<feFlood flood-opacity="0" result="BackgroundImageFix"/>
<feBlend mode="normal" in="SourceGraphic" in2="BackgroundImageFix" result="shape"/>
<feColorMatrix in="SourceAlpha" type="matrix" values="0 0 0 0 0 0 0 0 0 0 0 0 0 0 0 0 0 0 127 0" result="hardAlpha"/>
<feOffset dx="-4.8" dy="-4.8"/>
<feGaussianBlur stdDeviation="9.6"/>
<feComposite in2="hardAlpha" operator="arithmetic" k2="-1" k3="1"/>
<feColorMatrix type="matrix" values="0 0 0 0 0 0 0 0 0 0 0 0 0 0 0 0 0 0 0.6 0"/>
<feBlend mode="normal" in2="shape" result="effect1_innerShadow_184_12753"/>
<feColorMatrix in="SourceAlpha" type="matrix" values="0 0 0 0 0 0 0 0 0 0 0 0 0 0 0 0 0 0 127 0" result="hardAlpha"/>
<feOffset dx="4.8" dy="4.8"/>
<feGaussianBlur stdDeviation="5.76"/>
<feComposite in2="hardAlpha" operator="arithmetic" k2="-1" k3="1"/>
<feColorMatrix type="matrix" values="0 0 0 0 1 0 0 0 0 1 0 0 0 0 1 0 0 0 0.2 0"/>
<feBlend mode="normal" in2="effect1_innerShadow_184_12753" result="effect2_innerShadow_184_12753"/>
<feColorMatrix in="SourceAlpha" type="matrix" values="0 0 0 0 0 0 0 0 0 0 0 0 0 0 0 0 0 0 127 0" result="hardAlpha"/>
<feOffset dx="-4.8" dy="-4.8"/>
<feGaussianBlur stdDeviation="5.76"/>
<feComposite in2="hardAlpha" operator="arithmetic" k2="-1" k3="1"/>
<feColorMatrix type="matrix" values="0 0 0 0 1 0 0 0 0 1 0 0 0 0 1 0 0 0 0.2 0"/>
<feBlend mode="normal" in2="effect2_innerShadow_184_12753" result="effect3_innerShadow_184_12753"/>
<feColorMatrix in="SourceAlpha" type="matrix" values="0 0 0 0 0 0 0 0 0 0 0 0 0 0 0 0 0 0 127 0" result="hardAlpha"/>
<feOffset dx="1.92" dy="1.92"/>
<feGaussianBlur stdDeviation="2.4"/>
<feComposite in2="hardAlpha" operator="arithmetic" k2="-1" k3="1"/>
<feColorMatrix type="matrix" values="0 0 0 0 0 0 0 0 0 0 0 0 0 0 0 0 0 0 0.8 0"/>
<feBlend mode="normal" in2="effect3_innerShadow_184_12753" result="effect4_innerShadow_184_12753"/>
<feColorMatrix in="SourceAlpha" type="matrix" values="0 0 0 0 0 0 0 0 0 0 0 0 0 0 0 0 0 0 127 0" result="hardAlpha"/>
<feOffset dx="-1.92" dy="-1.92"/>
<feGaussianBlur stdDeviation="2.4"/>
<feComposite in2="hardAlpha" operator="arithmetic" k2="-1" k3="1"/>
<feColorMatrix type="matrix" values="0 0 0 0 0 0 0 0 0 0 0 0 0 0 0 0 0 0 0.8 0"/>
<feBlend mode="normal" in2="effect4_innerShadow_184_12753" result="effect5_innerShadow_184_12753"/>
<feColorMatrix in="SourceAlpha" type="matrix" values="0 0 0 0 0 0 0 0 0 0 0 0 0 0 0 0 0 0 127 0" result="hardAlpha"/>
<feOffset dx="4.8" dy="4.8"/>
<feGaussianBlur stdDeviation="9.6"/>
<feComposite in2="hardAlpha" operator="arithmetic" k2="-1" k3="1"/>
<feColorMatrix type="matrix" values="0 0 0 0 0 0 0 0 0 0 0 0 0 0 0 0 0 0 0.6 0"/>
<feBlend mode="normal" in2="effect5_innerShadow_184_12753" result="effect6_innerShadow_184_12753"/>
</filter>
<filter id="filter5_f_184_12753" x="116.642" y="234.773" width="114.27" height="21.0628" filterUnits="userSpaceOnUse" color-interpolation-filters="sRGB">
<feFlood flood-opacity="0" result="BackgroundImageFix"/>
<feBlend mode="normal" in="SourceGraphic" in2="BackgroundImageFix" result="shape"/>
<feGaussianBlur stdDeviation="1.92" result="effect1_foregroundBlur_184_12753"/>
</filter>
<filter id="filter6_f_184_12753" x="116.96" y="190.158" width="111.24" height="58.9188" filterUnits="userSpaceOnUse" color-interpolation-filters="sRGB">
<feFlood flood-opacity="0" result="BackgroundImageFix"/>
<feBlend mode="normal" in="SourceGraphic" in2="BackgroundImageFix" result="shape"/>
<feGaussianBlur stdDeviation="4.8" result="effect1_foregroundBlur_184_12753"/>
</filter>
<filter id="filter7_f_184_12753" x="116.96" y="190.158" width="111.24" height="58.9188" filterUnits="userSpaceOnUse" color-interpolation-filters="sRGB">
<feFlood flood-opacity="0" result="BackgroundImageFix"/>
<feBlend mode="normal" in="SourceGraphic" in2="BackgroundImageFix" result="shape"/>
<feGaussianBlur stdDeviation="4.8" result="effect1_foregroundBlur_184_12753"/>
</filter>
<filter id="filter8_b_184_12753" x="250.408" y="259.945" width="41.0599" height="38.9163" filterUnits="userSpaceOnUse" color-interpolation-filters="sRGB">
<feFlood flood-opacity="0" result="BackgroundImageFix"/>
<feGaussianBlur in="BackgroundImageFix" stdDeviation="1.92"/>
<feComposite in2="SourceAlpha" operator="in" result="effect1_backgroundBlur_184_12753"/>
<feBlend mode="normal" in="SourceGraphic" in2="effect1_backgroundBlur_184_12753" result="shape"/>
</filter>
<filter id="filter9_i_184_12753" x="103.298" y="160.66" width="142.085" height="122.965" filterUnits="userSpaceOnUse" color-interpolation-filters="sRGB">
<feFlood flood-opacity="0" result="BackgroundImageFix"/>
<feBlend mode="normal" in="SourceGraphic" in2="BackgroundImageFix" result="shape"/>
<feColorMatrix in="SourceAlpha" type="matrix" values="0 0 0 0 0 0 0 0 0 0 0 0 0 0 0 0 0 0 127 0" result="hardAlpha"/>
<feOffset dx="1.92" dy="1.92"/>
<feGaussianBlur stdDeviation="0.96"/>
<feComposite in2="hardAlpha" operator="arithmetic" k2="-1" k3="1"/>
<feColorMatrix type="matrix" values="0 0 0 0 1 0 0 0 0 0.776471 0 0 0 0 0.541176 0 0 0 1 0"/>
<feBlend mode="normal" in2="shape" result="effect1_innerShadow_184_12753"/>
</filter>
<filter id="filter10_i_184_12753" x="167.687" y="174.287" width="109.721" height="111.587" filterUnits="userSpaceOnUse" color-interpolation-filters="sRGB">
<feFlood flood-opacity="0" result="BackgroundImageFix"/>
<feBlend mode="normal" in="SourceGraphic" in2="BackgroundImageFix" result="shape"/>
<feColorMatrix in="SourceAlpha" type="matrix" values="0 0 0 0 0 0 0 0 0 0 0 0 0 0 0 0 0 0 127 0" result="hardAlpha"/>
<feOffset dx="-2.304" dy="2.304"/>
<feGaussianBlur stdDeviation="4.608"/>
<feComposite in2="hardAlpha" operator="arithmetic" k2="-1" k3="1"/>
<feColorMatrix type="matrix" values="0 0 0 0 0.941176 0 0 0 0 0.596078 0 0 0 0 0.258824 0 0 0 0.8 0"/>
<feBlend mode="normal" in2="shape" result="effect1_innerShadow_184_12753"/>
</filter>
<filter id="filter11_i_184_12753" x="177.693" y="184.213" width="71.9002" height="72.1575" filterUnits="userSpaceOnUse" color-interpolation-filters="sRGB">
<feFlood flood-opacity="0" result="BackgroundImageFix"/>
<feBlend mode="normal" in="SourceGraphic" in2="BackgroundImageFix" result="shape"/>
<feColorMatrix in="SourceAlpha" type="matrix" values="0 0 0 0 0 0 0 0 0 0 0 0 0 0 0 0 0 0 127 0" result="hardAlpha"/>
<feOffset dx="-2.304" dy="2.304"/>
<feGaussianBlur stdDeviation="4.608"/>
<feComposite in2="hardAlpha" operator="arithmetic" k2="-1" k3="1"/>
<feColorMatrix type="matrix" values="0 0 0 0 1 0 0 0 0 1 0 0 0 0 1 0 0 0 0.8 0"/>
<feBlend mode="normal" in2="shape" result="effect1_innerShadow_184_12753"/>
</filter>
<linearGradient id="paint0_linear_184_12753" x1="236.151" y1="151.604" x2="277.259" y2="189.216" gradientUnits="userSpaceOnUse">
<stop stop-color="#5B4DFF"/>
<stop offset="1" stop-color="#FF9524"/>
</linearGradient>
<linearGradient id="paint1_linear_184_12753" x1="295.528" y1="22.8847" x2="341.204" y2="85.2687" gradientUnits="userSpaceOnUse">
<stop stop-color="#5B4DFF"/>
<stop offset="0.845" stop-color="#FF9524"/>
</linearGradient>
<linearGradient id="paint2_linear_184_12753" x1="291.462" y1="25.2075" x2="341.25" y2="93.206" gradientUnits="userSpaceOnUse">
<stop stop-color="#5B4DFF"/>
<stop offset="0.845" stop-color="#FF9524"/>
</linearGradient>
</defs>
</svg>
