<svg width="348" height="664" viewBox="0 0 348 664" fill="none" xmlns="http://www.w3.org/2000/svg">
<g clip-path="url(#clip0_190_11887)">
<path d="M170.78 296.431V296.195C170.78 295.826 170.481 295.527 170.112 295.527H86.7472C86.3784 295.527 86.0796 295.826 86.0796 296.195V296.431C86.0796 296.799 86.3784 297.098 86.7472 297.098H170.112C170.481 297.098 170.78 296.799 170.78 296.431Z" fill="url(#paint0_linear_190_11887)"/>
<path d="M130.401 210.074H118.486C117.253 210.074 116.264 211.072 116.264 212.297V229.836C116.264 231.069 117.261 232.058 118.486 232.058H127.943C129.302 232.058 130.401 233.158 130.401 234.517V251.6C130.401 252.958 129.302 254.058 127.943 254.058H118.486C117.253 254.058 116.264 255.056 116.264 256.281V273.819C116.264 275.052 117.261 276.042 118.486 276.042H130.401C142.544 276.042 152.393 266.193 152.393 254.05V232.058C152.393 219.916 142.544 210.066 130.401 210.066V210.074Z" fill="url(#paint1_linear_190_11887)"/>
<path d="M110.899 232.066C112.132 232.066 113.122 231.069 113.122 229.843V212.305C113.122 211.072 112.124 210.082 110.899 210.082H81.4534C78.995 210.082 77 212.077 77 214.535V286.119C77 286.708 77.2356 287.274 77.6519 287.69L86.4251 296.463C87.2969 297.335 88.7028 297.335 89.5747 296.463L98.3479 287.69C98.7641 287.274 98.9998 286.708 98.9998 286.119V276.058H110.915C112.148 276.058 113.137 275.06 113.137 273.835V256.296C113.137 255.063 112.14 254.074 110.915 254.074H98.9998V232.082L110.899 232.066Z" fill="url(#paint2_linear_190_11887)"/>
<path d="M264.913 223.298C263.208 224.027 265.754 221.063 258.95 221.063C254.257 221.063 251.026 220.36 249.275 218.645C247.524 216.929 246.652 213.701 246.652 208.969C246.652 204.236 247.531 201.016 249.275 199.293C251.026 197.577 254.249 196.715 258.95 196.715C263.652 196.715 266.836 197.577 268.501 199.293C270.167 201.016 271 204.236 271 208.969C271 220.251 266.625 222.562 264.913 223.298Z" fill="url(#paint3_linear_190_11887)"/>
<path fill-rule="evenodd" clip-rule="evenodd" d="M264.533 205.675C264.819 206.044 264.765 206.586 264.41 206.884L257.137 213.018C256.961 213.166 256.735 213.233 256.511 213.203C256.287 213.172 256.085 213.048 255.951 212.858L253.095 208.798C252.825 208.414 252.905 207.876 253.273 207.595C253.64 207.314 254.157 207.397 254.427 207.78L256.771 211.113L263.371 205.547C263.726 205.248 264.246 205.305 264.533 205.675Z" fill="white"/>
<path d="M267.505 232.065L249.966 234.453C248.867 234.602 248.042 235.545 248.042 236.66V294.876C248.042 296.109 249.039 297.099 250.265 297.099H267.803C269.036 297.099 270.026 296.101 270.026 294.876V234.265C270.026 232.914 268.832 231.877 267.497 232.058L267.505 232.065Z" fill="#5656F5"/>
<path d="M211.213 210.074H189.221C177.079 210.074 167.229 219.923 167.229 232.066V294.806C167.229 296.039 168.29 297.091 169.515 297.091L187.077 297.107C188.31 297.107 189.3 296.11 189.3 294.884V276.113H211.205V294.884C211.205 296.118 212.203 297.107 213.428 297.107H230.967C232.2 297.107 233.189 296.11 233.189 294.884V232.066C233.189 219.923 223.34 210.074 211.198 210.074H211.213ZM211.213 254.003H189.221V234.517C189.221 233.158 190.321 232.058 191.68 232.058H208.763C210.122 232.058 211.221 233.158 211.221 234.517V254.003H211.213Z" fill="url(#paint4_linear_190_11887)"/>
<path d="M81.7411 363.187H84.7111V367.829H87.2411V370.227H84.7111V374.583H81.7411V363.187ZM78.1771 374.935C82.2471 374.935 84.8871 376.453 84.8871 378.983C84.8871 381.513 82.2471 383.009 78.1771 383.009C74.0851 383.009 71.4451 381.513 71.4451 378.983C71.4451 376.453 74.0851 374.935 78.1771 374.935ZM78.1771 377.267C75.7131 377.267 74.3491 377.795 74.3491 378.983C74.3491 380.127 75.7131 380.677 78.1771 380.677C80.6411 380.677 82.0051 380.127 82.0051 378.983C82.0051 377.795 80.6411 377.267 78.1771 377.267ZM69.7291 364.485H78.5951V366.839H72.6331V371.261C76.1971 371.239 78.1331 371.107 80.2671 370.667L80.5531 372.977C78.1331 373.505 75.8671 373.593 71.3791 373.593H69.7291V364.485ZM102.584 363.209H105.51V377.619H102.584V363.209ZM92.2876 376.233H95.2356V380.325H106.016V382.657H92.2876V376.233ZM93.6516 364.265H96.6436V366.201C96.6436 368.731 97.9416 371.283 101.22 372.317L99.7236 374.649C97.5236 373.923 96.0496 372.471 95.1916 370.645C94.3116 372.603 92.7496 374.187 90.4396 374.979L88.9656 372.669C92.3096 371.525 93.6516 368.775 93.6516 366.201V364.265ZM115.44 364.485C118.542 364.485 120.896 366.531 120.896 369.391C120.896 372.251 118.542 374.297 115.44 374.297C112.316 374.297 109.962 372.251 109.962 369.391C109.962 366.531 112.316 364.485 115.44 364.485ZM115.44 366.993C113.966 366.993 112.822 367.851 112.822 369.391C112.822 370.909 113.966 371.789 115.44 371.789C116.914 371.789 118.036 370.909 118.036 369.391C118.036 367.851 116.914 366.993 115.44 366.993ZM122.7 363.165H125.626V383.031H122.7V363.165ZM109.17 376.673C112.624 376.673 117.486 376.651 121.622 376.035L121.842 378.147C117.574 378.983 112.91 379.049 109.5 379.049L109.17 376.673ZM140.547 363.759C143.583 363.759 145.871 365.651 145.871 368.291C145.871 370.931 143.583 372.801 140.547 372.801C137.533 372.801 135.267 370.931 135.267 368.291C135.267 365.651 137.533 363.759 140.547 363.759ZM140.547 366.113C139.139 366.113 138.083 366.905 138.083 368.291C138.083 369.677 139.139 370.447 140.547 370.447C141.999 370.447 143.033 369.677 143.033 368.291C143.033 366.905 141.999 366.113 140.547 366.113ZM148.533 363.209H151.459V373.087H148.533V363.209ZM138.237 373.879H151.459V379.357H141.141V380.523H151.943V382.789H138.259V377.245H148.555V376.123H138.237V373.879ZM159.343 364.265H162.291V366.289C162.291 368.643 163.545 370.931 166.691 371.899L165.173 374.165C163.105 373.483 161.675 372.163 160.839 370.491C160.003 372.427 158.485 373.967 156.241 374.737L154.679 372.427C158.023 371.327 159.343 368.665 159.343 366.003V364.265ZM167.681 363.209H170.607V367.741H173.225V370.139H170.607V374.869H167.681V363.209ZM164.161 375.309C168.275 375.309 170.849 376.739 170.849 379.159C170.849 381.579 168.275 383.009 164.161 383.009C160.025 383.009 157.429 381.579 157.429 379.159C157.429 376.739 160.025 375.309 164.161 375.309ZM164.161 377.575C161.653 377.575 160.333 378.081 160.333 379.159C160.333 380.237 161.653 380.743 164.161 380.743C166.625 380.743 167.967 380.237 167.967 379.159C167.967 378.081 166.625 377.575 164.161 377.575ZM184.014 363.473C188.524 363.473 191.208 364.661 191.208 366.839C191.208 369.039 188.524 370.227 184.014 370.227C179.482 370.227 176.82 369.039 176.82 366.839C176.82 364.661 179.482 363.473 184.014 363.473ZM184.014 365.607C181.176 365.607 179.856 366.003 179.856 366.839C179.856 367.719 181.176 368.093 184.014 368.093C186.83 368.093 188.15 367.719 188.15 366.839C188.15 366.003 186.83 365.607 184.014 365.607ZM175.06 371.107H192.946V373.417H175.06V371.107ZM177.084 374.473H190.79V379.621H179.988V380.677H191.318V382.877H177.128V377.597H187.908V376.651H177.084V374.473ZM213.609 363.209H216.557V368.027H219.153V370.425H216.557V375.111H213.609V363.209ZM203.643 375.947H216.557V382.789H203.643V375.947ZM213.697 378.257H206.525V380.479H213.697V378.257ZM200.959 364.947H205.315V363.055H208.241V364.947H212.597V367.235H200.959V364.947ZM206.789 367.785C209.671 367.785 211.673 369.237 211.673 371.371C211.673 373.505 209.671 374.913 206.789 374.913C203.907 374.913 201.905 373.505 201.905 371.371C201.905 369.237 203.907 367.785 206.789 367.785ZM206.789 369.963C205.557 369.963 204.721 370.425 204.721 371.371C204.721 372.295 205.557 372.801 206.789 372.801C207.999 372.801 208.835 372.295 208.835 371.371C208.835 370.425 207.999 369.963 206.789 369.963ZM225.761 365.431C225.761 370.513 225.299 374.913 222.901 378.851L220.635 377.641C222.593 374.561 223.165 371.635 223.297 367.785H221.317V365.431H225.761ZM230.205 365.431C230.205 367.191 230.161 368.907 230.029 370.579H231.525V363.605H234.275V382.107H231.525V372.933H229.743C229.325 375.353 228.599 377.663 227.279 379.797L225.035 378.565C227.191 375.177 227.631 371.833 227.719 367.785H226.355V365.431H230.205ZM235.375 363.209H238.169V383.009H235.375V363.209ZM253.644 363.209H256.57V370.887H259.386V373.307H256.57V383.009H253.644V363.209ZM240.906 366.091H245.218V363.539H248.188V366.091H252.456V368.423H240.906V366.091ZM246.714 369.501C249.618 369.501 251.752 371.459 251.752 374.231C251.752 377.003 249.618 378.961 246.714 378.961C243.832 378.961 241.676 377.003 241.676 374.231C241.676 371.459 243.832 369.501 246.714 369.501ZM246.714 371.877C245.394 371.877 244.492 372.735 244.492 374.231C244.492 375.727 245.394 376.585 246.714 376.585C248.012 376.585 248.936 375.727 248.936 374.231C248.936 372.735 248.012 371.877 246.714 371.877ZM263.244 363.891H266.148V368.489H276.994V370.799H263.244V363.891ZM261.044 372.823H278.974V375.133H261.044V372.823ZM263.046 376.673H265.972V380.237H277.104V382.591H263.046V376.673Z" fill="url(#paint5_linear_190_11887)"/>
<path d="M119.398 404.947L125.404 421.403H122.39L120.828 417.091H114.47L112.842 421.403H109.828L115.966 404.947H119.398ZM115.372 414.649H119.926L117.682 408.489L115.372 414.649ZM128.942 404.947H131.78V421.403H128.942V404.947ZM135.424 405.299H138.372V403.429H141.122V405.299H144.092V407.609H141.122C141.144 409.545 142.222 411.393 144.686 412.251L143.388 414.429C141.672 413.835 140.506 412.735 139.824 411.371C139.142 412.889 137.976 414.099 136.194 414.759L134.874 412.603C137.316 411.657 138.35 409.655 138.372 407.609H135.424V405.299ZM148.998 403.209H151.77V416.607H148.998V410.227H147.612V414.847H144.884V403.517H147.612V407.873H148.998V403.209ZM143.476 415.661H146.38V415.947C146.38 417.949 148.316 420.127 152.65 420.655L151.594 422.943C148.382 422.481 146.138 421.161 144.928 419.379C143.718 421.161 141.474 422.481 138.262 422.943L137.206 420.655C141.562 420.127 143.476 417.949 143.476 415.947V415.661ZM157.19 403.759H160.094V405.387H167.64V403.759H170.544V411.283H165.33V412.801H172.81V415.111H154.924V412.801H162.382V411.283H157.19V403.759ZM160.094 407.565V409.017H167.64V407.565H160.094ZM162.36 416.079H165.352V416.409C165.352 418.257 167.2 420.215 171.622 420.699L170.61 422.943C167.332 422.525 165.066 421.315 163.856 419.621C162.646 421.315 160.38 422.525 157.124 422.943L156.09 420.699C160.512 420.215 162.36 418.257 162.36 416.409V416.079ZM181.373 405.189H189.205V410.359H191.009V403.495H193.737V422.107H191.009V412.713H189.205V418.081H181.373V405.189ZM186.477 407.477H184.079V415.793H186.477V407.477ZM195.057 403.187H197.829V422.987H195.057V403.187ZM214.337 403.165H217.285V423.031H214.337V403.165ZM206.593 404.529C209.607 404.529 211.807 407.279 211.807 411.613C211.807 415.991 209.607 418.741 206.593 418.741C203.579 418.741 201.379 415.991 201.379 411.613C201.379 407.279 203.579 404.529 206.593 404.529ZM206.593 407.213C205.163 407.213 204.195 408.731 204.195 411.613C204.195 414.539 205.163 416.079 206.593 416.079C208.023 416.079 208.991 414.539 208.991 411.613C208.991 408.731 208.023 407.213 206.593 407.213ZM222.97 404.595H236.764V406.927H225.94V408.951H236.302V411.217H225.94V413.329H236.918V415.639H222.97V404.595ZM220.88 418.367H238.81V420.743H220.88V418.367Z" fill="url(#paint6_linear_190_11887)"/>
</g>
<defs>
<linearGradient id="paint0_linear_190_11887" x1="86.0874" y1="-284.792" x2="170.78" y2="-284.792" gradientUnits="userSpaceOnUse">
<stop stop-color="#7A99A6" stop-opacity="0"/>
<stop offset="1" stop-color="#AEC0CF"/>
</linearGradient>
<linearGradient id="paint1_linear_190_11887" x1="116.264" y1="-284.791" x2="152.393" y2="-284.791" gradientUnits="userSpaceOnUse">
<stop stop-color="#9571AA"/>
<stop offset="0.15" stop-color="#7E67C5"/>
<stop offset="0.3" stop-color="#6C5FDA"/>
<stop offset="0.48" stop-color="#5F5AE9"/>
<stop offset="0.69" stop-color="#5857F2"/>
<stop offset="1" stop-color="#5656F5"/>
</linearGradient>
<linearGradient id="paint2_linear_190_11887" x1="76.9921" y1="-284.791" x2="113.122" y2="-284.791" gradientUnits="userSpaceOnUse">
<stop stop-color="#F09842"/>
<stop offset="0.25" stop-color="#ED9644"/>
<stop offset="0.44" stop-color="#E5934E"/>
<stop offset="0.6" stop-color="#D78D5D"/>
<stop offset="0.74" stop-color="#C48574"/>
<stop offset="0.88" stop-color="#AC7A90"/>
<stop offset="1" stop-color="#916FB0"/>
</linearGradient>
<linearGradient id="paint3_linear_190_11887" x1="258.826" y1="223.424" x2="258.826" y2="196.723" gradientUnits="userSpaceOnUse">
<stop stop-color="#5656F5"/>
<stop offset="1" stop-color="#F09842"/>
</linearGradient>
<linearGradient id="paint4_linear_190_11887" x1="167.324" y1="295.285" x2="234.925" y2="224.675" gradientUnits="userSpaceOnUse">
<stop stop-color="#AEC0CF"/>
<stop offset="0.36" stop-color="#5656F5"/>
</linearGradient>
<linearGradient id="paint5_linear_190_11887" x1="-30.8442" y1="363.647" x2="-28.7068" y2="426.619" gradientUnits="userSpaceOnUse">
<stop stop-color="#5B4DFF"/>
<stop offset="1" stop-color="#FF9524"/>
</linearGradient>
<linearGradient id="paint6_linear_190_11887" x1="-30.8442" y1="403.647" x2="-28.7068" y2="466.619" gradientUnits="userSpaceOnUse">
<stop stop-color="#5B4DFF"/>
<stop offset="1" stop-color="#FF9524"/>
</linearGradient>
<clipPath id="clip0_190_11887">
<rect width="348" height="664" fill="white"/>
</clipPath>
</defs>
</svg>
