<svg width="348" height="664" viewBox="0 0 348 664" fill="none" xmlns="http://www.w3.org/2000/svg">
<g filter="url(#filter0_biii_184_12544)">
<path d="M240.851 152H36.2387C30.0813 152 25.0898 156.992 25.0898 163.149V199.721C25.0898 205.01 29.3771 209.297 34.6658 209.297H187.087C187.932 209.297 188.726 209.684 189.26 210.339C191.247 212.774 196.258 218.639 198.452 218.639C200.642 218.639 205.594 212.817 207.567 210.385C208.102 209.727 208.898 209.337 209.746 209.337L240.851 209.337C247.008 209.337 252 204.346 252 198.188V163.149C252 156.992 247.008 152 240.851 152Z" fill="white" fill-opacity="0.3"/>
</g>
<path d="M36.2387 152.684H240.851C246.631 152.684 251.316 157.369 251.316 163.149V198.188C251.316 203.968 246.631 208.653 240.851 208.653L209.746 208.653C208.687 208.653 207.697 209.14 207.036 209.954C206.055 211.164 204.341 213.206 202.607 214.94C201.739 215.809 200.882 216.584 200.12 217.138C199.74 217.414 199.397 217.625 199.1 217.765C198.796 217.907 198.584 217.955 198.452 217.955C198.319 217.955 198.106 217.907 197.8 217.763C197.501 217.622 197.155 217.41 196.771 217.131C196.004 216.573 195.138 215.792 194.261 214.918C192.511 213.172 190.779 211.118 189.79 209.906C189.13 209.097 188.143 208.613 187.087 208.613H34.6658C29.7549 208.613 25.7738 204.632 25.7738 199.721V163.149C25.7738 157.369 30.4591 152.684 36.2387 152.684Z" stroke="url(#paint0_linear_184_12544)" stroke-width="1.368"/>
<path d="M36.2387 152.342H240.851C246.82 152.342 251.658 157.18 251.658 163.149V198.188C251.658 204.157 246.82 208.995 240.851 208.995L209.746 208.995C208.792 208.995 207.899 209.434 207.302 210.17C206.318 211.383 204.595 213.435 202.849 215.182C201.975 216.056 201.104 216.846 200.321 217.414C199.93 217.699 199.568 217.923 199.246 218.074C198.919 218.228 198.655 218.297 198.452 218.297C198.248 218.297 197.982 218.227 197.654 218.072C197.329 217.92 196.965 217.694 196.57 217.408C195.782 216.835 194.902 216.04 194.02 215.16C192.257 213.402 190.516 211.337 189.525 210.122C188.928 209.39 188.037 208.955 187.087 208.955H34.6658C29.566 208.955 25.4318 204.821 25.4318 199.721V163.149C25.4318 157.18 30.2702 152.342 36.2387 152.342Z" stroke="url(#paint1_linear_184_12544)" stroke-width="0.684"/>
<g filter="url(#filter1_bi_184_12544)">
<path d="M212.659 188.083C211.874 188.083 211.3 187.508 211.3 186.723C211.3 185.919 211.874 185.363 212.659 185.363C213.464 185.363 214.019 185.919 214.019 186.723C214.019 187.508 213.464 188.083 212.659 188.083ZM211.376 183.506C211.357 181.456 211.97 180.192 213.445 179.101C214.804 178.086 215.092 177.549 215.13 176.783C215.207 175.577 214.287 174.734 212.947 174.734C211.951 174.734 210.993 175.462 210.591 176.496L208.254 175.634C209.001 173.642 210.955 172.244 212.947 172.244C215.819 172.244 217.754 174.159 217.62 176.898C217.543 178.315 216.835 179.675 214.938 181.112C214.019 181.782 213.847 182.107 213.866 183.486L211.376 183.506Z" fill="#FF9524"/>
</g>
<g filter="url(#filter2_bi_184_12544)">
<path d="M195.583 173.047C197.882 173.047 199.625 174.962 199.988 178.045H202.804V171.859H205.332V189.154H202.804V180.095H200.008C199.739 183.389 197.958 185.419 195.583 185.419C193.017 185.419 191.121 183.025 191.121 179.214C191.121 175.441 193.017 173.047 195.583 173.047ZM195.583 175.383C194.377 175.383 193.553 176.705 193.553 179.214C193.553 181.761 194.377 183.102 195.583 183.102C196.828 183.102 197.633 181.761 197.633 179.214C197.633 176.705 196.828 175.383 195.583 175.383Z" fill="#FF9524"/>
</g>
<g filter="url(#filter3_bi_184_12544)">
<path d="M182.817 172.224H185.153V175.844H186.226V171.898H188.62V181.743H186.226V177.874H185.153V181.609H182.817V172.224ZM173.892 173.067H177.474V175.078H176.19V178.946C176.612 178.908 177.052 178.851 177.55 178.736L177.742 180.766C176.497 181.034 175.597 181.034 174.677 181.034H173.892V173.067ZM178.22 173.067H181.974V175.078H180.519V178.966C180.997 178.927 181.495 178.851 182.07 178.736L182.262 180.785C180.978 181.034 180.021 181.034 179.006 181.034H178.22V173.067ZM177.684 182.394H180.155V182.93C180.155 184.29 180.691 185.726 182.051 186.684C183.411 185.669 183.966 184.213 183.966 182.93V182.394H186.475V182.93C186.475 184.73 187.375 186.416 189.654 187.124L188.409 188.982C186.801 188.427 185.747 187.392 185.173 186.071C184.598 187.392 183.621 188.542 182.07 189.135C180.5 188.561 179.504 187.45 178.948 186.128C178.355 187.392 177.32 188.427 175.769 188.982L174.524 187.124C176.765 186.339 177.684 184.635 177.684 182.93V182.394Z" fill="#FF9524"/>
</g>
<g filter="url(#filter4_bi_184_12544)">
<path d="M161.011 173.047C163.309 173.047 165.052 174.962 165.416 178.045H168.231V171.859H170.759V189.154H168.231V180.095H165.435C165.167 183.389 163.386 185.419 161.011 185.419C158.444 185.419 156.548 183.025 156.548 179.214C156.548 175.441 158.444 173.047 161.011 173.047ZM161.011 175.383C159.804 175.383 158.981 176.705 158.981 179.214C158.981 181.761 159.804 183.102 161.011 183.102C162.256 183.102 163.06 181.761 163.06 179.214C163.06 176.705 162.256 175.383 161.011 175.383Z" fill="#FF9524"/>
</g>
<g filter="url(#filter5_bi_184_12544)">
<path d="M135.967 172.49H138.495V176.493H147.937V178.504H135.967V172.49ZM134.051 180.266H149.66V182.277H134.051V180.266ZM135.794 183.618H138.341V186.72H148.032V188.769H135.794V183.618Z" fill="#FF9524"/>
</g>
<g filter="url(#filter6_bi_184_12544)">
<path d="M118.546 172.434H130.574V177.624H121.17V178.964H130.995V180.975H118.565V175.709H127.988V174.445H118.546V172.434ZM116.765 182.201H132.374V184.231H125.805V189.153H123.258V184.231H116.765V182.201Z" fill="#FF9524"/>
</g>
<g filter="url(#filter7_bi_184_12544)">
<path d="M110.472 171.898H113.019V178.582H115.471V180.689H113.019V189.135H110.472V171.898ZM99.3829 174.407H103.137V172.186H105.722V174.407H109.438V176.437H99.3829V174.407ZM104.439 177.376C106.967 177.376 108.825 179.08 108.825 181.494C108.825 183.907 106.967 185.611 104.439 185.611C101.93 185.611 100.053 183.907 100.053 181.494C100.053 179.08 101.93 177.376 104.439 177.376ZM104.439 179.444C103.29 179.444 102.505 180.191 102.505 181.494C102.505 182.796 103.29 183.543 104.439 183.543C105.569 183.543 106.373 182.796 106.373 181.494C106.373 180.191 105.569 179.444 104.439 179.444Z" fill="#FF9524"/>
</g>
<g filter="url(#filter8_bi_184_12544)">
<path d="M79.1462 172.068H81.6743V175.267H91.0588V177.278H79.1462V172.068ZM77.231 178.35H92.8399V180.361H77.231V178.35ZM78.9739 181.357H91.0013V185.992H81.5594V187.007H91.4993V188.941H78.993V184.192H88.4541V183.272H78.9739V181.357Z" fill="#FF9524"/>
</g>
<g filter="url(#filter9_bi_184_12544)">
<path d="M67.7392 172.721C71.4355 172.721 74.1934 174.617 74.1934 177.49C74.1934 180.056 72.0484 181.818 69.0032 182.201V185.055H75.5532V187.123H59.9443V185.055H66.456V182.201C63.43 181.818 61.285 180.056 61.285 177.49C61.285 174.617 64.0429 172.721 67.7392 172.721ZM67.7392 174.732C65.4027 174.732 63.7939 175.766 63.7939 177.49C63.7939 179.232 65.4027 180.247 67.7392 180.247C70.0566 180.247 71.6654 179.232 71.6654 177.49C71.6654 175.766 70.0566 174.732 67.7392 174.732Z" fill="#FF9524"/>
</g>
<g filter="url(#filter10_bi_184_12544)">
<path d="M107.149 38H311.761C317.919 38 322.91 42.9915 322.91 49.1489V101.453C322.91 102.594 322.302 103.645 321.311 104.215C320.821 104.498 320.273 104.639 319.725 104.639C319.171 104.639 318.613 104.492 318.119 104.202L302.935 95.3372H107.149C100.992 95.3372 96 90.3457 96 84.1883V49.1489C96 42.9915 100.992 38 107.149 38Z" fill="url(#paint2_linear_184_12544)"/>
<path d="M320.921 103.54L320.922 103.539C321.672 103.108 322.13 102.314 322.13 101.453V49.1489C322.13 43.4222 317.488 38.7798 311.761 38.7798H107.149C101.422 38.7798 96.7798 43.4222 96.7798 49.1489V84.1883C96.7798 89.9151 101.422 94.5575 107.149 94.5575H302.935H303.145L303.328 94.6638L318.512 103.529L318.514 103.53C318.886 103.748 319.307 103.859 319.725 103.859C320.14 103.859 320.552 103.753 320.921 103.54Z" stroke="url(#paint3_linear_184_12544)" stroke-opacity="0.1" stroke-width="1.55952"/>
</g>
<g filter="url(#filter11_i_184_12544)">
<g filter="url(#filter12_bi_184_12544)">
<path d="M256.947 59.8682H265.949V61.5536H262.521V61.6302C262.521 63.0092 263.938 64.2924 266.485 64.7137L265.623 66.3033C263.67 65.9586 262.253 65.0776 261.486 63.8902C260.701 65.1734 259.227 66.131 257.139 66.514L256.315 64.9244C258.978 64.4456 260.395 63.0858 260.395 61.6302V61.5536H256.947V59.8682ZM268.151 58.7383H270.258V75.8027H268.151V71.9915H264.57V70.3635H268.151V58.7383ZM255.932 67.6823C259.035 67.6823 263.287 67.644 266.964 67.1077L267.079 68.6399C265.547 68.9271 263.957 69.0995 262.406 69.2144V75.2856H260.299V69.3293C258.824 69.3868 257.426 69.3868 256.181 69.3868L255.932 67.6823Z" fill="white" fill-opacity="0.4"/>
</g>
<g filter="url(#filter13_bi_184_12544)">
<path d="M238.684 61.4579H241.806V59.1979H243.874V61.4579H246.958V63.1241H238.684V61.4579ZM242.84 64.0434C245.004 64.0434 246.556 65.6905 246.556 68.027C246.556 70.3827 245.004 72.0298 242.84 72.0298C240.695 72.0298 239.144 70.3827 239.144 68.027C239.144 65.6905 240.695 64.0434 242.84 64.0434ZM242.84 65.7862C241.768 65.7862 241.002 66.6672 241.002 68.027C241.002 69.4059 241.768 70.2678 242.84 70.2678C243.913 70.2678 244.698 69.4059 244.698 68.027C244.698 66.6672 243.913 65.7862 242.84 65.7862ZM251.267 58.7383H253.259V75.7836H251.267V67.4716H249.62V75.0175H247.647V59.1022H249.62V65.7671H251.267V58.7383Z" fill="white" fill-opacity="0.4"/>
</g>
<g filter="url(#filter14_bi_184_12544)">
<path d="M225.515 59.6752H227.622V61.1882C227.622 63.5056 228.944 65.6314 231.567 66.4741L230.457 68.1212C228.637 67.4892 227.354 66.2443 226.626 64.6547C225.879 66.4933 224.462 67.9297 222.413 68.6383L221.321 66.9338C224.098 66.0145 225.515 63.7354 225.515 61.2648V59.6752ZM233.463 58.7559H235.57V68.7724H233.463V63.7737H230.131V62.0309H233.463V58.7559ZM229.882 69.232C233.444 69.232 235.647 70.4386 235.647 72.507C235.647 74.5946 233.444 75.782 229.882 75.782C226.301 75.782 224.079 74.5946 224.079 72.507C224.079 70.4386 226.301 69.232 229.882 69.232ZM229.882 70.8599C227.507 70.8599 226.205 71.4345 226.205 72.507C226.205 73.5795 227.507 74.1541 229.882 74.1541C232.219 74.1541 233.559 73.5795 233.559 72.507C233.559 71.4345 232.219 70.8599 229.882 70.8599Z" fill="white" fill-opacity="0.4"/>
</g>
<g filter="url(#filter15_bi_184_12544)">
<path d="M204.552 59.8284H213.725V61.5137H210.221V61.6861C210.221 63.7928 211.561 65.8613 214.223 66.7422L213.151 68.3893C211.274 67.7573 209.933 66.4741 209.186 64.8845C208.44 66.6273 207.061 68.0254 205.069 68.6957L203.958 67.0487C206.697 66.1485 208.114 63.9269 208.114 61.6861V61.5137H204.552V59.8284ZM215.373 58.7559H217.479V63.0076H219.854V64.7504H217.479V69.0022H215.373V58.7559ZM206.237 69.8257H217.479V75.8011H215.373V71.5111H206.237V69.8257Z" fill="white" fill-opacity="0.4"/>
</g>
<g filter="url(#filter16_bi_184_12544)">
<path d="M181.902 66.5157H197.338V68.0479H181.902V66.5157ZM183.664 69.1012H195.461V72.9891H185.79V74.1765H195.959V75.6321H183.702V71.6293H193.393V70.5568H183.664V69.1012ZM183.817 59.123H195.404V62.9726H185.905V64.0643H195.73V65.539H183.855V61.6128H193.336V60.5786H183.817V59.123Z" fill="white" fill-opacity="0.4"/>
</g>
<g filter="url(#filter17_bi_184_12544)">
<path d="M176.604 58.7383H178.711V75.7836H176.604V58.7383ZM173.674 60.5194C173.674 65.633 171.74 69.923 165.803 72.7958L164.711 71.1296C169.135 69.0038 171.146 66.1118 171.51 62.2239H165.554V60.5194H173.674Z" fill="white" fill-opacity="0.4"/>
</g>
<g filter="url(#filter18_bi_184_12544)">
<path d="M152.098 59.2921C154.683 59.2921 156.618 60.8817 156.618 63.1417C156.618 65.4016 154.683 66.9721 152.098 66.9721C149.531 66.9721 147.616 65.4016 147.616 63.1417C147.616 60.8817 149.531 59.2921 152.098 59.2921ZM152.098 60.9966C150.7 60.9966 149.646 61.8202 149.646 63.1417C149.646 64.4632 150.7 65.2675 152.098 65.2675C153.534 65.2675 154.568 64.4632 154.568 63.1417C154.568 61.8202 153.534 60.9966 152.098 60.9966ZM159.299 58.7559H161.406V67.3551H159.299V58.7559ZM150.183 68.102H161.406V72.5645H152.27V73.9434H161.884V75.5905H150.221V71.0323H159.318V69.73H150.183V68.102Z" fill="white" fill-opacity="0.4"/>
</g>
</g>
<g filter="url(#filter19_i_184_12544)">
<path d="M235.84 303.15C247.475 303.15 256.906 315.583 256.906 330.919C256.906 344.137 249.9 355.198 240.516 358.001C240.235 358.085 239.968 357.846 240.008 357.555C241.39 347.593 241.796 338.621 241.796 334.264C241.796 322.918 239.484 312.656 235.349 303.74C235.221 303.465 235.421 303.15 235.723 303.15H235.84Z" fill="#FF9524" fill-opacity="0.8"/>
<path fill-rule="evenodd" clip-rule="evenodd" d="M250.408 311.532C254.162 316.48 256.495 323.333 256.495 330.919C256.495 344.012 249.562 354.858 240.417 357.602C241.801 347.624 242.207 338.637 242.207 334.264C242.207 322.862 239.884 312.54 235.722 303.567C235.721 303.566 235.721 303.565 235.721 303.565C235.721 303.564 235.721 303.564 235.722 303.563C235.722 303.562 235.722 303.562 235.723 303.562C235.723 303.562 235.723 303.562 235.723 303.562L235.84 303.562C241.501 303.562 246.656 306.585 250.408 311.532ZM256.906 330.919C256.906 315.583 247.475 303.15 235.84 303.15H235.723C235.421 303.15 235.221 303.465 235.349 303.74C239.484 312.656 241.796 322.918 241.796 334.264C241.796 338.621 241.39 347.593 240.008 357.555C239.968 357.846 240.235 358.085 240.516 358.001C249.9 355.198 256.906 344.137 256.906 330.919Z" fill="#FFC68A"/>
</g>
<g filter="url(#filter20_i_184_12544)">
<path d="M111.329 303.15C99.6942 303.15 90.2626 315.583 90.2626 330.919C90.2626 344.137 97.2686 355.198 106.653 358.001C106.934 358.085 107.201 357.846 107.161 357.555C105.779 347.593 105.373 338.621 105.373 334.264C105.373 322.918 107.685 312.656 111.82 303.74C111.948 303.465 111.748 303.15 111.446 303.15H111.329Z" fill="#FF9524" fill-opacity="0.8"/>
<path fill-rule="evenodd" clip-rule="evenodd" d="M96.7604 311.532C93.0073 316.48 90.674 323.333 90.674 330.919C90.674 344.012 97.6067 354.858 106.752 357.602C105.368 347.624 104.962 338.637 104.962 334.264C104.962 322.862 107.285 312.54 111.447 303.567C111.448 303.566 111.448 303.565 111.448 303.565C111.448 303.564 111.447 303.564 111.447 303.563C111.447 303.562 111.446 303.562 111.446 303.562C111.446 303.562 111.446 303.562 111.446 303.562L111.329 303.562C105.668 303.562 100.513 306.585 96.7604 311.532ZM90.2626 330.919C90.2626 315.583 99.6942 303.15 111.329 303.15H111.446C111.748 303.15 111.948 303.465 111.82 303.74C107.685 312.656 105.373 322.918 105.373 334.264C105.373 338.621 105.779 347.593 107.161 357.555C107.201 357.846 106.934 358.085 106.653 358.001C97.2686 355.198 90.2626 344.137 90.2626 330.919Z" fill="#FFC68A"/>
</g>
<path d="M173.575 263.248C135.946 263.248 105.437 290.173 105.437 331.386C105.437 340.256 107.12 368.28 115.31 384.818C122.995 400.327 133.527 416.811 173.616 416.811C213.706 416.811 224.242 400.331 231.923 384.818C240.113 368.28 241.796 340.26 241.796 331.386C241.796 290.173 211.209 263.248 173.575 263.248Z" fill="#FFDFBD" fill-opacity="0.6"/>
<g filter="url(#filter21_b_184_12544)">
<path d="M173.617 416.811C213.706 416.811 224.242 400.331 231.923 384.818C240.113 368.28 241.796 340.26 241.796 331.386C241.796 290.173 211.209 263.248 173.575 263.248C135.942 263.248 105.355 290.173 105.355 331.386C105.355 340.26 107.037 368.28 115.228 384.818C122.909 400.331 133.445 416.811 173.534 416.811" stroke="white" stroke-width="1.368"/>
</g>
<g filter="url(#filter22_iiiiii_184_12544)">
<path d="M210.23 295.907C201.459 286.737 188.789 281.891 173.608 281.891C158.428 281.891 145.77 286.737 136.995 295.907C129.186 304.069 124.883 315.18 124.883 327.189C124.883 340.522 132.284 348.947 138.488 353.67C147.464 360.499 159.938 364.259 173.612 364.259C187.287 364.259 199.76 360.499 208.737 353.67C214.945 348.947 222.341 340.522 222.341 327.189C222.341 315.176 218.042 304.069 210.23 295.907Z" fill="#262627"/>
</g>
<path d="M194.955 324.684V331.496C194.955 333.013 193.824 333.62 192.638 333.62C191.342 333.62 190.183 332.958 190.183 331.496V314.811C190.183 313.349 191.397 312.715 192.638 312.715C193.824 312.715 194.955 313.404 194.955 314.811V320.74L202.484 313.349C203.339 312.494 204.855 312.577 205.628 313.211C206.483 313.956 206.483 315.225 205.683 315.997L198.816 322.588L206.372 330.062C207.475 331.138 207.475 332.572 206.455 333.316C205.435 334.061 204.193 333.895 203.339 333.04L194.955 324.684Z" fill="#FFAE57"/>
<path d="M149.003 333.347C144.149 333.347 140.674 331.582 140.591 326.811C140.564 325.487 140.536 324.164 140.536 322.84C140.536 321.544 140.564 320.192 140.591 318.813C140.674 314.042 144.259 312.305 149.003 312.305C153.609 312.305 157.166 314.235 157.387 318.813C157.497 321.461 157.47 324.302 157.387 326.811C157.304 331.417 153.664 333.347 149.003 333.347ZM152.809 318.813C152.726 316.69 151.292 315.697 149.003 315.697C146.604 315.697 145.28 316.717 145.197 318.841C145.142 321.516 145.142 324.164 145.197 326.811C145.28 328.99 146.604 329.928 149.003 329.928C151.237 329.928 152.671 328.88 152.809 326.784C153.002 324.164 152.892 321.599 152.809 318.813Z" fill="#FFAE57"/>
<g filter="url(#filter23_f_184_12544)">
<path opacity="0.7" d="M143.995 347.328C150.489 346.874 155.589 344.171 155.388 341.29C155.186 338.41 149.759 336.443 143.266 336.897C136.772 337.351 131.671 340.054 131.873 342.935C132.074 345.815 137.501 347.783 143.995 347.328Z" fill="#FF334B"/>
<path opacity="0.7" d="M203.863 347.328C210.357 347.782 215.784 345.815 215.985 342.934C216.187 340.054 211.086 337.35 204.593 336.896C198.099 336.442 192.672 338.409 192.47 341.29C192.269 344.171 197.37 346.874 203.863 347.328Z" fill="#FF334B"/>
</g>
<g filter="url(#filter24_f_184_12544)">
<path d="M194.955 324.684V331.496C194.955 333.013 193.824 333.62 192.638 333.62C191.342 333.62 190.183 332.958 190.183 331.496V314.811C190.183 313.349 191.397 312.715 192.638 312.715C193.824 312.715 194.955 313.404 194.955 314.811V320.74L202.484 313.349C203.339 312.494 204.855 312.577 205.628 313.211C206.483 313.956 206.483 315.225 205.683 315.997L198.816 322.588L206.372 330.062C207.475 331.138 207.475 332.572 206.455 333.316C205.435 334.061 204.193 333.895 203.339 333.04L194.955 324.684Z" fill="#FFAE57"/>
<path d="M149.003 333.347C144.149 333.347 140.674 331.582 140.591 326.811C140.564 325.487 140.536 324.164 140.536 322.84C140.536 321.544 140.564 320.192 140.591 318.813C140.674 314.042 144.259 312.305 149.003 312.305C153.609 312.305 157.166 314.235 157.387 318.813C157.497 321.461 157.47 324.302 157.387 326.811C157.304 331.417 153.664 333.347 149.003 333.347ZM152.809 318.813C152.726 316.69 151.292 315.697 149.003 315.697C146.604 315.697 145.28 316.717 145.197 318.841C145.142 321.516 145.142 324.164 145.197 326.811C145.28 328.99 146.604 329.928 149.003 329.928C151.237 329.928 152.671 328.88 152.809 326.784C153.002 324.164 152.892 321.599 152.809 318.813Z" fill="#FFAE57"/>
</g>
<g filter="url(#filter25_f_184_12544)">
<path d="M194.955 324.684V331.496C194.955 333.013 193.824 333.62 192.638 333.62C191.342 333.62 190.183 332.958 190.183 331.496V314.811C190.183 313.349 191.397 312.715 192.638 312.715C193.824 312.715 194.955 313.404 194.955 314.811V320.74L202.484 313.349C203.339 312.494 204.855 312.577 205.628 313.211C206.483 313.956 206.483 315.225 205.683 315.997L198.816 322.588L206.372 330.062C207.475 331.138 207.475 332.572 206.455 333.316C205.435 334.061 204.193 333.895 203.339 333.04L194.955 324.684Z" fill="#FFAE57"/>
<path d="M149.003 333.347C144.149 333.347 140.674 331.582 140.591 326.811C140.564 325.487 140.536 324.164 140.536 322.84C140.536 321.544 140.564 320.192 140.591 318.813C140.674 314.042 144.259 312.305 149.003 312.305C153.609 312.305 157.166 314.235 157.387 318.813C157.497 321.461 157.47 324.302 157.387 326.811C157.304 331.417 153.664 333.347 149.003 333.347ZM152.809 318.813C152.726 316.69 151.292 315.697 149.003 315.697C146.604 315.697 145.28 316.717 145.197 318.841C145.142 321.516 145.142 324.164 145.197 326.811C145.28 328.99 146.604 329.928 149.003 329.928C151.237 329.928 152.671 328.88 152.809 326.784C153.002 324.164 152.892 321.599 152.809 318.813Z" fill="#FFAE57"/>
</g>
<path d="M198.411 416.801C192.19 416.801 187.147 421.844 187.147 428.065C187.147 434.285 192.19 439.328 198.411 439.328C204.631 439.328 209.674 434.285 209.674 428.065C209.674 421.844 204.631 416.801 198.411 416.801Z" fill="#262627"/>
<path d="M148.456 416.801C142.236 416.801 137.192 421.844 137.192 428.065C137.192 434.285 142.236 439.328 148.456 439.328C154.676 439.328 159.72 434.285 159.72 428.065C159.72 421.844 154.676 416.801 148.456 416.801Z" fill="#262627"/>
<g filter="url(#filter26_i_184_12544)">
<path d="M173.608 281.889C188.788 281.889 201.459 286.735 210.23 295.905C218.042 304.067 222.341 315.174 222.341 327.187C222.341 340.52 214.944 348.945 208.737 353.668C199.76 360.497 187.287 364.257 173.612 364.257C159.938 364.257 147.464 360.497 138.488 353.668C132.284 348.945 124.883 340.52 124.883 327.187C124.883 315.178 129.186 304.067 136.995 295.905C145.769 286.735 158.428 281.889 173.608 281.889ZM173.616 275.307C137.04 275.307 118.305 300.805 118.305 327.187C118.305 353.569 143.067 370.839 173.616 370.839C204.166 370.839 228.928 353.569 228.928 327.187C228.928 300.805 210.193 275.307 173.616 275.307Z" fill="#FF9524"/>
</g>
<g filter="url(#filter27_i_184_12544)">
<path fill-rule="evenodd" clip-rule="evenodd" d="M139.66 350.871C152.384 350.871 162.698 340.556 162.698 327.833C162.698 315.109 152.384 304.795 139.66 304.795C126.937 304.795 116.623 315.109 116.623 327.833C116.623 340.556 126.937 350.871 139.66 350.871ZM139.66 357.453C156.019 357.453 169.28 344.192 169.28 327.833C169.28 311.474 156.019 298.213 139.66 298.213C123.302 298.213 110.04 311.474 110.04 327.833C110.04 344.192 123.302 357.453 139.66 357.453Z" fill="#5B4DFF"/>
<path fill-rule="evenodd" clip-rule="evenodd" d="M207.54 350.871C220.263 350.871 230.577 340.556 230.577 327.833C230.577 315.109 220.263 304.795 207.54 304.795C194.816 304.795 184.502 315.109 184.502 327.833C184.502 340.556 194.816 350.871 207.54 350.871ZM207.54 357.453C223.898 357.453 237.16 344.192 237.16 327.833C237.16 311.474 223.898 298.213 207.54 298.213C191.181 298.213 177.92 311.474 177.92 327.833C177.92 344.192 191.181 357.453 207.54 357.453Z" fill="#5B4DFF"/>
<path fill-rule="evenodd" clip-rule="evenodd" d="M184.09 331.947H163.932V325.365H184.09V331.947Z" fill="#5B4DFF"/>
</g>
<g filter="url(#filter28_i_184_12544)">
<path d="M166.597 442.382C164.506 444.015 161.559 443.573 160.039 441.399C158.012 438.501 155.703 434.454 156.14 431.542L168.738 347.512C169.192 344.486 172.018 342.397 175.045 342.85L181.152 343.766C184.178 344.22 186.267 347.046 185.814 350.073L173.215 434.102C172.778 437.014 169.385 440.207 166.597 442.382Z" fill="url(#paint4_linear_184_12544)"/>
</g>
<path d="M166.387 442.113C164.45 443.625 161.727 443.217 160.319 441.203C159.312 439.763 158.241 438.047 157.478 436.337C156.71 434.616 156.275 432.95 156.478 431.592L169.077 347.563C169.502 344.723 172.154 342.763 174.994 343.189L181.101 344.104C183.941 344.53 185.901 347.182 185.475 350.022L172.877 434.051C172.673 435.409 171.769 436.874 170.53 438.293C169.299 439.705 167.772 441.032 166.387 442.113Z" stroke="#5B4DFF" stroke-width="0.684"/>
<path d="M166.389 442.111C164.451 443.623 161.726 443.215 160.318 441.201C160.255 441.111 160.192 441.021 160.129 440.929C160.131 440.926 160.134 440.921 160.139 440.915C160.15 440.904 160.162 440.898 160.168 440.897C160.17 440.896 160.172 440.896 160.172 440.896L160.173 440.897C160.173 440.897 160.175 440.897 160.177 440.898C160.975 441.298 162.038 441.761 163.021 441.959C164.124 442.18 165.599 442.018 166.651 441.844C166.654 441.843 166.655 441.843 166.656 441.843L166.657 441.843L166.658 441.843L166.659 441.844C166.664 441.847 166.672 441.854 166.678 441.867C166.681 441.872 166.682 441.876 166.682 441.88C166.584 441.958 166.486 442.035 166.389 442.111Z" fill="#3F3F41" stroke="#3F3F41" stroke-width="0.684"/>
<path d="M146.616 370.717C147.133 370.216 147.721 369.806 148.377 369.495C153.244 367.215 160.071 371.527 163.629 379.128C166.704 385.699 166.324 392.574 163.014 395.786C162.498 396.287 161.91 396.697 161.253 397.007C156.387 399.288 149.559 394.975 146.002 387.375C142.927 380.803 143.307 373.929 146.616 370.717Z" fill="#FFDFBD" fill-opacity="0.6"/>
<g filter="url(#filter29_b_184_12544)">
<path fill-rule="evenodd" clip-rule="evenodd" d="M148.728 370.24C150.82 369.26 153.438 369.649 156.055 371.302C158.662 372.949 161.161 375.797 162.883 379.476M148.728 370.24C148.155 370.511 147.642 370.868 147.189 371.307C145.733 372.721 144.856 375.013 144.737 377.821C144.619 380.617 145.26 383.847 146.747 387.026C148.47 390.706 150.968 393.554 153.576 395.201C156.192 396.853 158.81 397.243 160.903 396.263C161.476 395.992 161.989 395.634 162.441 395.195C163.898 393.782 164.775 391.49 164.894 388.682C165.012 385.886 164.371 382.655 162.883 379.476M161.253 397.007C161.91 396.697 162.498 396.287 163.014 395.786C166.324 392.574 166.704 385.699 163.629 379.128C160.071 371.527 153.244 367.215 148.377 369.495C147.721 369.806 147.133 370.216 146.616 370.717C143.307 373.929 142.927 380.803 146.002 387.375C149.559 394.975 156.387 399.288 161.253 397.007Z" fill="white"/>
</g>
<path d="M203.771 377.848C203.51 377.177 203.147 376.558 202.68 376.003C199.209 371.899 191.205 372.969 184.801 378.392C179.264 383.08 176.74 389.486 178.407 393.786C178.668 394.457 179.031 395.075 179.498 395.631C182.969 399.734 190.973 398.665 197.377 393.242C202.914 388.553 205.438 382.147 203.771 377.848Z" fill="#FFDFBD" fill-opacity="0.6"/>
<g filter="url(#filter30_b_184_12544)">
<path fill-rule="evenodd" clip-rule="evenodd" d="M202.051 376.533C200.559 374.77 198.017 374.031 194.95 374.441C191.892 374.849 188.433 376.394 185.333 379.019M202.051 376.533C202.459 377.018 202.776 377.557 203.004 378.145C203.738 380.038 203.578 382.487 202.514 385.088C201.455 387.678 199.524 390.346 196.846 392.614C193.745 395.239 190.286 396.785 187.229 397.193C184.161 397.603 181.62 396.864 180.127 395.101C179.72 394.616 179.403 394.077 179.175 393.489C178.441 391.596 178.6 389.147 179.664 386.546C180.723 383.956 182.654 381.288 185.333 379.02M179.498 395.631C179.031 395.075 178.668 394.457 178.407 393.786C176.74 389.486 179.264 383.08 184.801 378.392C191.205 372.969 199.209 371.899 202.68 376.003C203.147 376.558 203.51 377.177 203.771 377.848C205.438 382.147 202.914 388.553 197.377 393.242C190.973 398.665 182.969 399.734 179.498 395.631Z" fill="white"/>
</g>
<path d="M29.828 509.86V511.534H23.33V515.656H28.838V517.312H23.33V523.144H21.422V509.86H29.828ZM37.5497 509.86L42.4817 523.144H40.4477L39.1157 519.526H33.6617L32.2757 523.144H30.2417L35.2637 509.86H37.5497ZM34.2737 517.87H38.4857L36.4157 512.272L34.2737 517.87ZM44.8942 514.558H46.8022V523.144H44.8942V514.558ZM45.8482 510.274C46.4782 510.274 46.9282 510.724 46.9282 511.354C46.9282 511.984 46.4782 512.434 45.8482 512.434C45.2182 512.434 44.7682 511.984 44.7682 511.354C44.7682 510.724 45.2182 510.274 45.8482 510.274ZM51.1603 508.996H53.1223V512.938H62.1763V514.522H51.1603V508.996ZM49.3063 516.376H63.8143V517.96H49.3063V516.376ZM51.0343 519.346H52.9963V522.496H62.2663V524.098H51.0343V519.346ZM81.4956 508.402H83.4936V524.476H81.4956V508.402ZM74.9256 509.572C77.3376 509.572 79.0836 511.768 79.0836 515.242C79.0836 518.734 77.3376 520.93 74.9256 520.93C72.5136 520.93 70.7676 518.734 70.7676 515.242C70.7676 511.768 72.5136 509.572 74.9256 509.572ZM74.9256 511.372C73.5936 511.372 72.6756 512.794 72.6756 515.242C72.6756 517.708 73.5936 519.148 74.9256 519.148C76.2576 519.148 77.1756 517.708 77.1756 515.242C77.1756 512.794 76.2576 511.372 74.9256 511.372ZM90.8452 509.572C93.2392 509.572 94.9672 511.768 94.9672 515.242C94.9672 518.734 93.2392 520.93 90.8452 520.93C88.4332 520.93 86.7052 518.734 86.7052 515.242C86.7052 511.768 88.4332 509.572 90.8452 509.572ZM90.8452 511.372C89.5132 511.372 88.5952 512.794 88.5952 515.242C88.5952 517.708 89.5132 519.148 90.8452 519.148C92.1772 519.148 93.0772 517.708 93.0772 515.242C93.0772 512.794 92.1772 511.372 90.8452 511.372ZM97.0192 508.438H99.0352V512.272H101.357V513.91H99.0352V517.006H101.357V518.626H99.0352V524.458H97.0192V508.438ZM114.109 508.42H116.089V524.44H114.109V508.42ZM111.355 510.094C111.355 514.9 109.537 518.932 103.957 521.632L102.931 520.066C107.089 518.068 108.979 515.35 109.321 511.696H103.723V510.094H111.355ZM119.12 515.728H133.628V517.168H119.12V515.728ZM120.776 518.158H131.864V521.812H122.774V522.928H132.332V524.296H120.812V520.534H129.92V519.526H120.776V518.158ZM120.92 508.78H131.81V512.398H122.882V513.424H132.116V514.81H120.956V511.12H129.866V510.148H120.92V508.78ZM140.114 515.746H154.586V517.348H140.114V515.746ZM141.914 508.888H152.804V510.472H143.876V512.83H152.966V514.414H141.914V508.888ZM141.842 518.716H152.858V520.282H143.822V522.658H153.02V524.242H141.842V518.716ZM157.869 509.878H169.335V511.426C169.335 513.424 169.335 515.656 168.741 519.004L166.743 518.788C167.355 515.674 167.355 513.388 167.355 511.48H157.869V509.878ZM156.375 520.768H161.703V515.188H163.665V520.768H170.865V522.388H156.375V520.768ZM181.833 508.942C184.263 508.942 186.081 510.436 186.081 512.56C186.081 514.684 184.263 516.16 181.833 516.16C179.421 516.16 177.621 514.684 177.621 512.56C177.621 510.436 179.421 508.942 181.833 508.942ZM181.833 510.544C180.519 510.544 179.529 511.318 179.529 512.56C179.529 513.802 180.519 514.558 181.833 514.558C183.183 514.558 184.155 513.802 184.155 512.56C184.155 511.318 183.183 510.544 181.833 510.544ZM188.601 508.438H190.581V516.52H188.601V508.438ZM180.033 517.222H190.581V521.416H181.995V522.712H191.031V524.26H180.069V519.976H188.619V518.752H180.033V517.222ZM204.898 508.42H206.878V524.44H204.898V508.42ZM202.144 510.094C202.144 514.9 200.326 518.932 194.746 521.632L193.72 520.066C197.878 518.068 199.768 515.35 200.11 511.696H194.512V510.094H202.144ZM209.91 515.728H224.418V517.168H209.91V515.728ZM211.566 518.158H222.654V521.812H213.564V522.928H223.122V524.296H211.602V520.534H220.71V519.526H211.566V518.158ZM211.71 508.78H222.6V512.398H213.672V513.424H222.906V514.81H211.746V511.12H220.656V510.148H211.71V508.78ZM231.263 509.446H239.885V511.03H236.591V511.192C236.591 513.172 237.851 515.116 240.353 515.944L239.345 517.492C237.581 516.898 236.321 515.692 235.619 514.198C234.917 515.836 233.621 517.15 231.749 517.78L230.705 516.232C233.279 515.386 234.611 513.298 234.611 511.192V511.03H231.263V509.446ZM241.433 508.438H243.413V512.434H245.645V514.072H243.413V518.068H241.433V508.438ZM232.847 518.842H243.413V524.458H241.433V520.426H232.847V518.842ZM250.999 509.302H252.979V510.724C252.979 512.902 254.221 514.9 256.687 515.692L255.643 517.24C253.933 516.646 252.727 515.476 252.043 513.982C251.341 515.71 250.009 517.06 248.083 517.726L247.057 516.124C249.667 515.26 250.999 513.118 250.999 510.796V509.302ZM258.469 508.438H260.449V517.852H258.469V513.154H255.337V511.516H258.469V508.438ZM255.103 518.284C258.451 518.284 260.521 519.418 260.521 521.362C260.521 523.324 258.451 524.44 255.103 524.44C251.737 524.44 249.649 523.324 249.649 521.362C249.649 519.418 251.737 518.284 255.103 518.284ZM255.103 519.814C252.871 519.814 251.647 520.354 251.647 521.362C251.647 522.37 252.871 522.91 255.103 522.91C257.299 522.91 258.559 522.37 258.559 521.362C258.559 520.354 257.299 519.814 255.103 519.814ZM263.408 510.976H266.342V508.852H268.286V510.976H271.184V512.542H263.408V510.976ZM267.314 513.406C269.348 513.406 270.806 514.954 270.806 517.15C270.806 519.364 269.348 520.912 267.314 520.912C265.298 520.912 263.84 519.364 263.84 517.15C263.84 514.954 265.298 513.406 267.314 513.406ZM267.314 515.044C266.306 515.044 265.586 515.872 265.586 517.15C265.586 518.446 266.306 519.256 267.314 519.256C268.322 519.256 269.06 518.446 269.06 517.15C269.06 515.872 268.322 515.044 267.314 515.044ZM275.234 508.42H277.106V524.44H275.234V516.628H273.686V523.72H271.832V508.762H273.686V515.026H275.234V508.42ZM280.606 509.482H289.066V511.066H285.844V511.138C285.844 512.434 287.176 513.64 289.57 514.036L288.76 515.53C286.924 515.206 285.592 514.378 284.872 513.262C284.134 514.468 282.748 515.368 280.786 515.728L280.012 514.234C282.514 513.784 283.846 512.506 283.846 511.138V511.066H280.606V509.482ZM291.136 508.42H293.116V524.458H291.136V520.876H287.77V519.346H291.136V508.42ZM279.652 516.826C282.568 516.826 286.564 516.79 290.02 516.286L290.128 517.726C288.688 517.996 287.194 518.158 285.736 518.266V523.972H283.756V518.374C282.37 518.428 281.056 518.428 279.886 518.428L279.652 516.826ZM296.004 520.894H299.334V516.808C298.074 516.07 297.318 514.936 297.318 513.514C297.318 510.94 299.82 509.284 303.24 509.284C306.678 509.284 309.162 510.94 309.162 513.514C309.162 514.936 308.406 516.07 307.164 516.808V520.894H310.512V522.496H296.004V520.894ZM303.24 510.832C300.882 510.832 299.262 511.858 299.262 513.514C299.262 515.188 300.882 516.196 303.24 516.196C305.598 516.196 307.218 515.188 307.218 513.514C307.218 511.858 305.598 510.832 303.24 510.832ZM301.314 520.894H305.184V517.546C304.59 517.672 303.924 517.744 303.24 517.744C302.556 517.744 301.908 517.672 301.314 517.546V520.894Z" fill="#727175"/>
<path d="M28.736 542.32V543.808H22.96V547.472H27.856V548.944H22.96V554.128H21.264V542.32H28.736ZM35.6606 542.32L40.0446 554.128H38.2366L37.0526 550.912H32.2046L30.9726 554.128H29.1646L33.6286 542.32H35.6606ZM32.7486 549.44H36.4926L34.6526 544.464L32.7486 549.44ZM42.2498 546.496H43.9458V554.128H42.2498V546.496ZM43.0978 542.688C43.6578 542.688 44.0578 543.088 44.0578 543.648C44.0578 544.208 43.6578 544.608 43.0978 544.608C42.5378 544.608 42.1378 544.208 42.1378 543.648C42.1378 543.088 42.5378 542.688 43.0978 542.688ZM56.7285 541.04H58.3925V555.28H56.7285V541.04ZM53.8485 541.312H55.4965V554.608H53.8485V547.824H52.4885C52.3445 550.624 51.1605 552.304 49.4165 552.304C47.5605 552.304 46.3605 550.368 46.3605 547.2C46.3605 544.048 47.5605 542.112 49.4165 542.112C51.1285 542.112 52.2805 543.728 52.4725 546.4H53.8485V541.312ZM49.4165 543.776C48.5045 543.776 47.9605 544.976 47.9605 547.2C47.9605 549.44 48.5045 550.656 49.4165 550.656C50.3445 550.656 50.8885 549.44 50.8885 547.2C50.8885 544.976 50.3445 543.776 49.4165 543.776ZM71.2761 541.04H72.9561V555.28H71.2761V541.04ZM68.2841 541.376H69.9321V554.608H68.2841V548.048H65.7881C64.9721 549.68 63.6441 551.12 61.6441 552.288L60.6361 551.04C63.5641 549.296 64.8921 547.072 65.1481 544.192H61.3561V542.768H66.9081C66.9081 544.144 66.7481 545.44 66.3641 546.64H68.2841V541.376ZM83.5143 541.504C85.6743 541.504 87.2903 542.832 87.2903 544.72C87.2903 546.608 85.6743 547.92 83.5143 547.92C81.3703 547.92 79.7703 546.608 79.7703 544.72C79.7703 542.832 81.3703 541.504 83.5143 541.504ZM83.5143 542.928C82.3463 542.928 81.4663 543.616 81.4663 544.72C81.4663 545.824 82.3463 546.496 83.5143 546.496C84.7143 546.496 85.5783 545.824 85.5783 544.72C85.5783 543.616 84.7143 542.928 83.5143 542.928ZM89.5303 541.056H91.2903V548.24H89.5303V541.056ZM81.9143 548.864H91.2903V552.592H83.6583V553.744H91.6903V555.12H81.9463V551.312H89.5463V550.224H81.9143V548.864ZM104.078 541.04H105.838V555.28H104.078V541.04ZM101.63 542.528C101.63 546.8 100.014 550.384 95.0539 552.784L94.1419 551.392C97.8379 549.616 99.5179 547.2 99.8219 543.952H94.8459V542.528H101.63ZM115.564 542.096H117.308V543.792C117.308 545.136 117.884 546.752 119.26 547.76C120.62 546.768 121.196 545.184 121.196 543.792V542.096H122.956V543.792C122.956 545.504 123.804 547.296 125.708 548.096L124.764 549.408C123.436 548.832 122.556 547.76 122.076 546.48C121.596 547.824 120.7 548.992 119.244 549.6C117.804 548.976 116.908 547.792 116.428 546.464C115.932 547.728 115.052 548.816 113.74 549.408L112.828 548.096C114.7 547.248 115.564 545.424 115.564 543.792V542.096ZM112.828 552.016H125.708V553.472H112.828V552.016ZM137.376 541.04H139.136V555.28H137.376V541.04ZM134.928 542.528C134.928 546.8 133.312 550.384 128.352 552.784L127.44 551.392C131.136 549.616 132.816 547.2 133.12 543.952H128.144V542.528H134.928ZM141.891 547.536H154.787V548.816H141.891V547.536ZM143.363 549.696H153.219V552.944H145.139V553.936H153.635V555.152H143.395V551.808H151.491V550.912H143.363V549.696ZM143.491 541.36H153.171V544.576H145.235V545.488H153.443V546.72H143.523V543.44H151.443V542.576H143.491V541.36ZM161.154 542.016H167.842V548.016H161.154V542.016ZM166.114 543.408H162.882V546.624H166.114V543.408ZM170.05 541.056H171.81V544.128H173.778V545.584H171.81V548.672H170.05V541.056ZM162.69 549.328H171.89V550.576H164.434V551.584H171.746V552.8H164.434V553.872H172.194V555.12H162.69V549.328ZM182.373 542.528C182.373 543.296 182.325 544.048 182.197 544.784H185.237V541.04H186.997V555.28H185.237V550.064H181.669V548.64H185.237V546.192H181.877C181.093 548.832 179.301 551.088 175.989 552.752L175.077 551.376C178.565 549.6 180.293 547.184 180.597 543.952H175.733V542.528H182.373ZM189.721 552.128H195.273V549.344H191.145V541.984H192.889V544.304H199.417V541.984H201.161V549.344H197.017V552.128H202.617V553.568H189.721V552.128ZM192.889 545.696V547.936H199.417V545.696H192.889ZM207.804 542.208H209.58V544.448C209.58 547.072 210.924 549.696 213.212 550.704L212.188 552.128C210.54 551.36 209.356 549.84 208.716 547.984C208.076 549.984 206.86 551.616 205.148 552.432L204.092 550.976C206.428 549.936 207.804 547.2 207.804 544.448V542.208ZM214.22 541.024H215.98V555.312H214.22V541.024ZM225.04 542.048C225.04 543.088 224.896 544.032 224.592 544.88H226.32V541.328H227.968V549.008H226.32V546.288H223.904C223.024 547.664 221.632 548.736 219.696 549.552L218.832 548.272C221.536 547.184 222.928 545.6 223.2 543.472H219.52V542.048H225.04ZM229.184 541.04H230.864V549.184H229.184V541.04ZM222.24 549.648H223.92V550.4C223.92 551.6 224.448 552.832 225.648 553.632C226.88 552.768 227.44 551.472 227.44 550.4V549.648H229.152V550.4C229.152 551.888 230.032 553.328 231.872 553.92L231.024 555.2C229.648 554.72 228.752 553.808 228.256 552.656C227.808 553.776 226.976 554.8 225.68 555.328C224.352 554.816 223.52 553.856 223.072 552.704C222.56 553.808 221.664 554.72 220.352 555.2L219.488 553.92C221.328 553.264 222.24 551.792 222.24 550.4V549.648ZM237.155 542.064C239.075 542.064 240.499 543.68 240.755 546.288H243.411V541.024H245.155V555.312H243.411V547.696H240.771C240.579 550.448 239.123 552.16 237.155 552.16C235.059 552.16 233.539 550.208 233.539 547.104C233.539 544.016 235.059 542.064 237.155 542.064ZM237.155 543.664C236.003 543.664 235.203 544.928 235.203 547.104C235.203 549.296 236.003 550.576 237.155 550.576C238.339 550.576 239.123 549.296 239.123 547.104C239.123 544.928 238.339 543.664 237.155 543.664ZM247.847 552.128H250.807V548.496C249.687 547.84 249.015 546.832 249.015 545.568C249.015 543.28 251.239 541.808 254.279 541.808C257.335 541.808 259.543 543.28 259.543 545.568C259.543 546.832 258.871 547.84 257.767 548.496V552.128H260.743V553.552H247.847V552.128ZM254.279 543.184C252.183 543.184 250.743 544.096 250.743 545.568C250.743 547.056 252.183 547.952 254.279 547.952C256.375 547.952 257.815 547.056 257.815 545.568C257.815 544.096 256.375 543.184 254.279 543.184ZM252.567 552.128H256.007V549.152C255.479 549.264 254.887 549.328 254.279 549.328C253.671 549.328 253.095 549.264 252.567 549.152V552.128ZM265.995 554.384C265.403 554.384 264.987 553.968 264.987 553.376C264.987 552.784 265.403 552.384 265.995 552.384C266.587 552.384 266.987 552.784 266.987 553.376C266.987 553.968 266.587 554.384 265.995 554.384ZM265.115 550.896C265.099 549.248 265.579 548.24 266.779 547.36C267.947 546.496 268.219 545.968 268.251 545.296C268.315 544.176 267.483 543.392 266.251 543.392C265.339 543.392 264.475 544.048 264.107 544.976L262.507 544.384C263.099 542.8 264.651 541.68 266.251 541.68C268.539 541.68 270.075 543.2 269.979 545.376C269.915 546.496 269.339 547.6 267.803 548.752C267.003 549.344 266.827 549.696 266.843 550.88L265.115 550.896Z" fill="#727175"/>
<defs>
<filter id="filter0_biii_184_12544" x="11.4098" y="138.32" width="254.27" height="93.9987" filterUnits="userSpaceOnUse" color-interpolation-filters="sRGB">
<feFlood flood-opacity="0" result="BackgroundImageFix"/>
<feGaussianBlur in="BackgroundImageFix" stdDeviation="6.84"/>
<feComposite in2="SourceAlpha" operator="in" result="effect1_backgroundBlur_184_12544"/>
<feBlend mode="normal" in="SourceGraphic" in2="effect1_backgroundBlur_184_12544" result="shape"/>
<feColorMatrix in="SourceAlpha" type="matrix" values="0 0 0 0 0 0 0 0 0 0 0 0 0 0 0 0 0 0 127 0" result="hardAlpha"/>
<feOffset/>
<feGaussianBlur stdDeviation="2.736"/>
<feComposite in2="hardAlpha" operator="arithmetic" k2="-1" k3="1"/>
<feColorMatrix type="matrix" values="0 0 0 0 0.647059 0 0 0 0 0.643137 0 0 0 0 0.654902 0 0 0 0.3 0"/>
<feBlend mode="normal" in2="shape" result="effect2_innerShadow_184_12544"/>
<feColorMatrix in="SourceAlpha" type="matrix" values="0 0 0 0 0 0 0 0 0 0 0 0 0 0 0 0 0 0 127 0" result="hardAlpha"/>
<feOffset/>
<feGaussianBlur stdDeviation="1.026"/>
<feComposite in2="hardAlpha" operator="arithmetic" k2="-1" k3="1"/>
<feColorMatrix type="matrix" values="0 0 0 0 1 0 0 0 0 1 0 0 0 0 1 0 0 0 1 0"/>
<feBlend mode="normal" in2="effect2_innerShadow_184_12544" result="effect3_innerShadow_184_12544"/>
<feColorMatrix in="SourceAlpha" type="matrix" values="0 0 0 0 0 0 0 0 0 0 0 0 0 0 0 0 0 0 127 0" result="hardAlpha"/>
<feOffset dx="1.368" dy="-1.368"/>
<feGaussianBlur stdDeviation="1.368"/>
<feComposite in2="hardAlpha" operator="arithmetic" k2="-1" k3="1"/>
<feColorMatrix type="matrix" values="0 0 0 0 0.658824 0 0 0 0 0.654902 0 0 0 0 0.670588 0 0 0 0.4 0"/>
<feBlend mode="normal" in2="effect3_innerShadow_184_12544" result="effect4_innerShadow_184_12544"/>
</filter>
<filter id="filter1_bi_184_12544" x="200.046" y="164.036" width="25.7879" height="32.2539" filterUnits="userSpaceOnUse" color-interpolation-filters="sRGB">
<feFlood flood-opacity="0" result="BackgroundImageFix"/>
<feGaussianBlur in="BackgroundImageFix" stdDeviation="4.104"/>
<feComposite in2="SourceAlpha" operator="in" result="effect1_backgroundBlur_184_12544"/>
<feBlend mode="normal" in="SourceGraphic" in2="effect1_backgroundBlur_184_12544" result="shape"/>
<feColorMatrix in="SourceAlpha" type="matrix" values="0 0 0 0 0 0 0 0 0 0 0 0 0 0 0 0 0 0 127 0" result="hardAlpha"/>
<feOffset dy="1.368"/>
<feGaussianBlur stdDeviation="2.736"/>
<feComposite in2="hardAlpha" operator="arithmetic" k2="-1" k3="1"/>
<feColorMatrix type="matrix" values="0 0 0 0 1 0 0 0 0 0.682353 0 0 0 0 0.341176 0 0 0 1 0"/>
<feBlend mode="normal" in2="shape" result="effect2_innerShadow_184_12544"/>
</filter>
<filter id="filter2_bi_184_12544" x="182.913" y="163.651" width="30.6268" height="33.7109" filterUnits="userSpaceOnUse" color-interpolation-filters="sRGB">
<feFlood flood-opacity="0" result="BackgroundImageFix"/>
<feGaussianBlur in="BackgroundImageFix" stdDeviation="4.104"/>
<feComposite in2="SourceAlpha" operator="in" result="effect1_backgroundBlur_184_12544"/>
<feBlend mode="normal" in="SourceGraphic" in2="effect1_backgroundBlur_184_12544" result="shape"/>
<feColorMatrix in="SourceAlpha" type="matrix" values="0 0 0 0 0 0 0 0 0 0 0 0 0 0 0 0 0 0 127 0" result="hardAlpha"/>
<feOffset dy="1.368"/>
<feGaussianBlur stdDeviation="2.736"/>
<feComposite in2="hardAlpha" operator="arithmetic" k2="-1" k3="1"/>
<feColorMatrix type="matrix" values="0 0 0 0 1 0 0 0 0 0.682353 0 0 0 0 0.341176 0 0 0 1 0"/>
<feBlend mode="normal" in2="shape" result="effect2_innerShadow_184_12544"/>
</filter>
<filter id="filter3_bi_184_12544" x="165.684" y="163.69" width="32.1781" height="33.6523" filterUnits="userSpaceOnUse" color-interpolation-filters="sRGB">
<feFlood flood-opacity="0" result="BackgroundImageFix"/>
<feGaussianBlur in="BackgroundImageFix" stdDeviation="4.104"/>
<feComposite in2="SourceAlpha" operator="in" result="effect1_backgroundBlur_184_12544"/>
<feBlend mode="normal" in="SourceGraphic" in2="effect1_backgroundBlur_184_12544" result="shape"/>
<feColorMatrix in="SourceAlpha" type="matrix" values="0 0 0 0 0 0 0 0 0 0 0 0 0 0 0 0 0 0 127 0" result="hardAlpha"/>
<feOffset dy="1.368"/>
<feGaussianBlur stdDeviation="2.736"/>
<feComposite in2="hardAlpha" operator="arithmetic" k2="-1" k3="1"/>
<feColorMatrix type="matrix" values="0 0 0 0 1 0 0 0 0 0.682353 0 0 0 0 0.341176 0 0 0 1 0"/>
<feBlend mode="normal" in2="shape" result="effect2_innerShadow_184_12544"/>
</filter>
<filter id="filter4_bi_184_12544" x="148.34" y="163.651" width="30.6268" height="33.7109" filterUnits="userSpaceOnUse" color-interpolation-filters="sRGB">
<feFlood flood-opacity="0" result="BackgroundImageFix"/>
<feGaussianBlur in="BackgroundImageFix" stdDeviation="4.104"/>
<feComposite in2="SourceAlpha" operator="in" result="effect1_backgroundBlur_184_12544"/>
<feBlend mode="normal" in="SourceGraphic" in2="effect1_backgroundBlur_184_12544" result="shape"/>
<feColorMatrix in="SourceAlpha" type="matrix" values="0 0 0 0 0 0 0 0 0 0 0 0 0 0 0 0 0 0 127 0" result="hardAlpha"/>
<feOffset dy="1.368"/>
<feGaussianBlur stdDeviation="2.736"/>
<feComposite in2="hardAlpha" operator="arithmetic" k2="-1" k3="1"/>
<feColorMatrix type="matrix" values="0 0 0 0 1 0 0 0 0 0.682353 0 0 0 0 0.341176 0 0 0 1 0"/>
<feBlend mode="normal" in2="shape" result="effect2_innerShadow_184_12544"/>
</filter>
<filter id="filter5_bi_184_12544" x="125.843" y="164.282" width="32.0249" height="32.6953" filterUnits="userSpaceOnUse" color-interpolation-filters="sRGB">
<feFlood flood-opacity="0" result="BackgroundImageFix"/>
<feGaussianBlur in="BackgroundImageFix" stdDeviation="4.104"/>
<feComposite in2="SourceAlpha" operator="in" result="effect1_backgroundBlur_184_12544"/>
<feBlend mode="normal" in="SourceGraphic" in2="effect1_backgroundBlur_184_12544" result="shape"/>
<feColorMatrix in="SourceAlpha" type="matrix" values="0 0 0 0 0 0 0 0 0 0 0 0 0 0 0 0 0 0 127 0" result="hardAlpha"/>
<feOffset dy="1.368"/>
<feGaussianBlur stdDeviation="2.736"/>
<feComposite in2="hardAlpha" operator="arithmetic" k2="-1" k3="1"/>
<feColorMatrix type="matrix" values="0 0 0 0 1 0 0 0 0 0.682353 0 0 0 0 0.341176 0 0 0 1 0"/>
<feBlend mode="normal" in2="shape" result="effect2_innerShadow_184_12544"/>
</filter>
<filter id="filter6_bi_184_12544" x="108.557" y="164.226" width="32.0249" height="33.1348" filterUnits="userSpaceOnUse" color-interpolation-filters="sRGB">
<feFlood flood-opacity="0" result="BackgroundImageFix"/>
<feGaussianBlur in="BackgroundImageFix" stdDeviation="4.104"/>
<feComposite in2="SourceAlpha" operator="in" result="effect1_backgroundBlur_184_12544"/>
<feBlend mode="normal" in="SourceGraphic" in2="effect1_backgroundBlur_184_12544" result="shape"/>
<feColorMatrix in="SourceAlpha" type="matrix" values="0 0 0 0 0 0 0 0 0 0 0 0 0 0 0 0 0 0 127 0" result="hardAlpha"/>
<feOffset dy="1.368"/>
<feGaussianBlur stdDeviation="2.736"/>
<feComposite in2="hardAlpha" operator="arithmetic" k2="-1" k3="1"/>
<feColorMatrix type="matrix" values="0 0 0 0 1 0 0 0 0 0.682353 0 0 0 0 0.341176 0 0 0 1 0"/>
<feBlend mode="normal" in2="shape" result="effect2_innerShadow_184_12544"/>
</filter>
<filter id="filter7_bi_184_12544" x="91.1749" y="163.69" width="32.5037" height="33.6523" filterUnits="userSpaceOnUse" color-interpolation-filters="sRGB">
<feFlood flood-opacity="0" result="BackgroundImageFix"/>
<feGaussianBlur in="BackgroundImageFix" stdDeviation="4.104"/>
<feComposite in2="SourceAlpha" operator="in" result="effect1_backgroundBlur_184_12544"/>
<feBlend mode="normal" in="SourceGraphic" in2="effect1_backgroundBlur_184_12544" result="shape"/>
<feColorMatrix in="SourceAlpha" type="matrix" values="0 0 0 0 0 0 0 0 0 0 0 0 0 0 0 0 0 0 127 0" result="hardAlpha"/>
<feOffset dy="1.368"/>
<feGaussianBlur stdDeviation="2.736"/>
<feComposite in2="hardAlpha" operator="arithmetic" k2="-1" k3="1"/>
<feColorMatrix type="matrix" values="0 0 0 0 1 0 0 0 0 0.682353 0 0 0 0 0.341176 0 0 0 1 0"/>
<feBlend mode="normal" in2="shape" result="effect2_innerShadow_184_12544"/>
</filter>
<filter id="filter8_bi_184_12544" x="69.023" y="163.86" width="32.0249" height="33.289" filterUnits="userSpaceOnUse" color-interpolation-filters="sRGB">
<feFlood flood-opacity="0" result="BackgroundImageFix"/>
<feGaussianBlur in="BackgroundImageFix" stdDeviation="4.104"/>
<feComposite in2="SourceAlpha" operator="in" result="effect1_backgroundBlur_184_12544"/>
<feBlend mode="normal" in="SourceGraphic" in2="effect1_backgroundBlur_184_12544" result="shape"/>
<feColorMatrix in="SourceAlpha" type="matrix" values="0 0 0 0 0 0 0 0 0 0 0 0 0 0 0 0 0 0 127 0" result="hardAlpha"/>
<feOffset dy="1.368"/>
<feGaussianBlur stdDeviation="2.736"/>
<feComposite in2="hardAlpha" operator="arithmetic" k2="-1" k3="1"/>
<feColorMatrix type="matrix" values="0 0 0 0 1 0 0 0 0 0.682353 0 0 0 0 0.341176 0 0 0 1 0"/>
<feBlend mode="normal" in2="shape" result="effect2_innerShadow_184_12544"/>
</filter>
<filter id="filter9_bi_184_12544" x="51.7363" y="164.513" width="32.0249" height="30.8183" filterUnits="userSpaceOnUse" color-interpolation-filters="sRGB">
<feFlood flood-opacity="0" result="BackgroundImageFix"/>
<feGaussianBlur in="BackgroundImageFix" stdDeviation="4.104"/>
<feComposite in2="SourceAlpha" operator="in" result="effect1_backgroundBlur_184_12544"/>
<feBlend mode="normal" in="SourceGraphic" in2="effect1_backgroundBlur_184_12544" result="shape"/>
<feColorMatrix in="SourceAlpha" type="matrix" values="0 0 0 0 0 0 0 0 0 0 0 0 0 0 0 0 0 0 127 0" result="hardAlpha"/>
<feOffset dy="1.368"/>
<feGaussianBlur stdDeviation="2.736"/>
<feComposite in2="hardAlpha" operator="arithmetic" k2="-1" k3="1"/>
<feColorMatrix type="matrix" values="0 0 0 0 1 0 0 0 0 0.682353 0 0 0 0 0.341176 0 0 0 1 0"/>
<feBlend mode="normal" in2="shape" result="effect2_innerShadow_184_12544"/>
</filter>
<filter id="filter10_bi_184_12544" x="58.5715" y="0.571522" width="301.767" height="141.496" filterUnits="userSpaceOnUse" color-interpolation-filters="sRGB">
<feFlood flood-opacity="0" result="BackgroundImageFix"/>
<feGaussianBlur in="BackgroundImageFix" stdDeviation="18.7142"/>
<feComposite in2="SourceAlpha" operator="in" result="effect1_backgroundBlur_184_12544"/>
<feBlend mode="normal" in="SourceGraphic" in2="effect1_backgroundBlur_184_12544" result="shape"/>
<feColorMatrix in="SourceAlpha" type="matrix" values="0 0 0 0 0 0 0 0 0 0 0 0 0 0 0 0 0 0 127 0" result="hardAlpha"/>
<feOffset dy="3.11904"/>
<feGaussianBlur stdDeviation="3.11904"/>
<feComposite in2="hardAlpha" operator="arithmetic" k2="-1" k3="1"/>
<feColorMatrix type="matrix" values="0 0 0 0 1 0 0 0 0 1 0 0 0 0 1 0 0 0 0.2 0"/>
<feBlend mode="normal" in2="shape" result="effect2_innerShadow_184_12544"/>
</filter>
<filter id="filter11_i_184_12544" x="147.616" y="58.7383" width="122.642" height="20.1835" filterUnits="userSpaceOnUse" color-interpolation-filters="sRGB">
<feFlood flood-opacity="0" result="BackgroundImageFix"/>
<feBlend mode="normal" in="SourceGraphic" in2="BackgroundImageFix" result="shape"/>
<feColorMatrix in="SourceAlpha" type="matrix" values="0 0 0 0 0 0 0 0 0 0 0 0 0 0 0 0 0 0 127 0" result="hardAlpha"/>
<feOffset dy="3.11904"/>
<feGaussianBlur stdDeviation="1.55952"/>
<feComposite in2="hardAlpha" operator="arithmetic" k2="-1" k3="1"/>
<feColorMatrix type="matrix" values="0 0 0 0 1 0 0 0 0 1 0 0 0 0 1 0 0 0 0.4 0"/>
<feBlend mode="normal" in2="shape" result="effect1_innerShadow_184_12544"/>
</filter>
<filter id="filter12_bi_184_12544" x="247.724" y="50.5303" width="30.7417" height="33.4805" filterUnits="userSpaceOnUse" color-interpolation-filters="sRGB">
<feFlood flood-opacity="0" result="BackgroundImageFix"/>
<feGaussianBlur in="BackgroundImageFix" stdDeviation="4.104"/>
<feComposite in2="SourceAlpha" operator="in" result="effect1_backgroundBlur_184_12544"/>
<feBlend mode="normal" in="SourceGraphic" in2="effect1_backgroundBlur_184_12544" result="shape"/>
<feColorMatrix in="SourceAlpha" type="matrix" values="0 0 0 0 0 0 0 0 0 0 0 0 0 0 0 0 0 0 127 0" result="hardAlpha"/>
<feOffset dy="1.368"/>
<feGaussianBlur stdDeviation="2.736"/>
<feComposite in2="hardAlpha" operator="arithmetic" k2="-1" k3="1"/>
<feColorMatrix type="matrix" values="0 0 0 0 1 0 0 0 0 1 0 0 0 0 1 0 0 0 0.4 0"/>
<feBlend mode="normal" in2="shape" result="effect2_innerShadow_184_12544"/>
</filter>
<filter id="filter13_bi_184_12544" x="230.476" y="50.5303" width="30.9907" height="33.4609" filterUnits="userSpaceOnUse" color-interpolation-filters="sRGB">
<feFlood flood-opacity="0" result="BackgroundImageFix"/>
<feGaussianBlur in="BackgroundImageFix" stdDeviation="4.104"/>
<feComposite in2="SourceAlpha" operator="in" result="effect1_backgroundBlur_184_12544"/>
<feBlend mode="normal" in="SourceGraphic" in2="effect1_backgroundBlur_184_12544" result="shape"/>
<feColorMatrix in="SourceAlpha" type="matrix" values="0 0 0 0 0 0 0 0 0 0 0 0 0 0 0 0 0 0 127 0" result="hardAlpha"/>
<feOffset dy="1.368"/>
<feGaussianBlur stdDeviation="2.736"/>
<feComposite in2="hardAlpha" operator="arithmetic" k2="-1" k3="1"/>
<feColorMatrix type="matrix" values="0 0 0 0 1 0 0 0 0 1 0 0 0 0 1 0 0 0 0.4 0"/>
<feBlend mode="normal" in2="shape" result="effect2_innerShadow_184_12544"/>
</filter>
<filter id="filter14_bi_184_12544" x="213.113" y="50.5479" width="30.7417" height="33.4414" filterUnits="userSpaceOnUse" color-interpolation-filters="sRGB">
<feFlood flood-opacity="0" result="BackgroundImageFix"/>
<feGaussianBlur in="BackgroundImageFix" stdDeviation="4.104"/>
<feComposite in2="SourceAlpha" operator="in" result="effect1_backgroundBlur_184_12544"/>
<feBlend mode="normal" in="SourceGraphic" in2="effect1_backgroundBlur_184_12544" result="shape"/>
<feColorMatrix in="SourceAlpha" type="matrix" values="0 0 0 0 0 0 0 0 0 0 0 0 0 0 0 0 0 0 127 0" result="hardAlpha"/>
<feOffset dy="1.368"/>
<feGaussianBlur stdDeviation="2.736"/>
<feComposite in2="hardAlpha" operator="arithmetic" k2="-1" k3="1"/>
<feColorMatrix type="matrix" values="0 0 0 0 1 0 0 0 0 1 0 0 0 0 1 0 0 0 0.4 0"/>
<feBlend mode="normal" in2="shape" result="effect2_innerShadow_184_12544"/>
</filter>
<filter id="filter15_bi_184_12544" x="195.75" y="50.5479" width="32.3122" height="33.4609" filterUnits="userSpaceOnUse" color-interpolation-filters="sRGB">
<feFlood flood-opacity="0" result="BackgroundImageFix"/>
<feGaussianBlur in="BackgroundImageFix" stdDeviation="4.104"/>
<feComposite in2="SourceAlpha" operator="in" result="effect1_backgroundBlur_184_12544"/>
<feBlend mode="normal" in="SourceGraphic" in2="effect1_backgroundBlur_184_12544" result="shape"/>
<feColorMatrix in="SourceAlpha" type="matrix" values="0 0 0 0 0 0 0 0 0 0 0 0 0 0 0 0 0 0 127 0" result="hardAlpha"/>
<feOffset dy="1.368"/>
<feGaussianBlur stdDeviation="2.736"/>
<feComposite in2="hardAlpha" operator="arithmetic" k2="-1" k3="1"/>
<feColorMatrix type="matrix" values="0 0 0 0 1 0 0 0 0 1 0 0 0 0 1 0 0 0 0.4 0"/>
<feBlend mode="normal" in2="shape" result="effect2_innerShadow_184_12544"/>
</filter>
<filter id="filter16_bi_184_12544" x="173.694" y="50.915" width="31.8525" height="32.9258" filterUnits="userSpaceOnUse" color-interpolation-filters="sRGB">
<feFlood flood-opacity="0" result="BackgroundImageFix"/>
<feGaussianBlur in="BackgroundImageFix" stdDeviation="4.104"/>
<feComposite in2="SourceAlpha" operator="in" result="effect1_backgroundBlur_184_12544"/>
<feBlend mode="normal" in="SourceGraphic" in2="effect1_backgroundBlur_184_12544" result="shape"/>
<feColorMatrix in="SourceAlpha" type="matrix" values="0 0 0 0 0 0 0 0 0 0 0 0 0 0 0 0 0 0 127 0" result="hardAlpha"/>
<feOffset dy="1.368"/>
<feGaussianBlur stdDeviation="2.736"/>
<feComposite in2="hardAlpha" operator="arithmetic" k2="-1" k3="1"/>
<feColorMatrix type="matrix" values="0 0 0 0 1 0 0 0 0 1 0 0 0 0 1 0 0 0 0.4 0"/>
<feBlend mode="normal" in2="shape" result="effect2_innerShadow_184_12544"/>
</filter>
<filter id="filter17_bi_184_12544" x="156.503" y="50.5303" width="30.4161" height="33.4609" filterUnits="userSpaceOnUse" color-interpolation-filters="sRGB">
<feFlood flood-opacity="0" result="BackgroundImageFix"/>
<feGaussianBlur in="BackgroundImageFix" stdDeviation="4.104"/>
<feComposite in2="SourceAlpha" operator="in" result="effect1_backgroundBlur_184_12544"/>
<feBlend mode="normal" in="SourceGraphic" in2="effect1_backgroundBlur_184_12544" result="shape"/>
<feColorMatrix in="SourceAlpha" type="matrix" values="0 0 0 0 0 0 0 0 0 0 0 0 0 0 0 0 0 0 127 0" result="hardAlpha"/>
<feOffset dy="1.368"/>
<feGaussianBlur stdDeviation="2.736"/>
<feComposite in2="hardAlpha" operator="arithmetic" k2="-1" k3="1"/>
<feColorMatrix type="matrix" values="0 0 0 0 1 0 0 0 0 1 0 0 0 0 1 0 0 0 0.4 0"/>
<feBlend mode="normal" in2="shape" result="effect2_innerShadow_184_12544"/>
</filter>
<filter id="filter18_bi_184_12544" x="139.408" y="50.5479" width="30.6842" height="33.25" filterUnits="userSpaceOnUse" color-interpolation-filters="sRGB">
<feFlood flood-opacity="0" result="BackgroundImageFix"/>
<feGaussianBlur in="BackgroundImageFix" stdDeviation="4.104"/>
<feComposite in2="SourceAlpha" operator="in" result="effect1_backgroundBlur_184_12544"/>
<feBlend mode="normal" in="SourceGraphic" in2="effect1_backgroundBlur_184_12544" result="shape"/>
<feColorMatrix in="SourceAlpha" type="matrix" values="0 0 0 0 0 0 0 0 0 0 0 0 0 0 0 0 0 0 127 0" result="hardAlpha"/>
<feOffset dy="1.368"/>
<feGaussianBlur stdDeviation="2.736"/>
<feComposite in2="hardAlpha" operator="arithmetic" k2="-1" k3="1"/>
<feColorMatrix type="matrix" values="0 0 0 0 1 0 0 0 0 1 0 0 0 0 1 0 0 0 0.4 0"/>
<feBlend mode="normal" in2="shape" result="effect2_innerShadow_184_12544"/>
</filter>
<filter id="filter19_i_184_12544" x="232.574" y="300.414" width="24.3327" height="57.6032" filterUnits="userSpaceOnUse" color-interpolation-filters="sRGB">
<feFlood flood-opacity="0" result="BackgroundImageFix"/>
<feBlend mode="normal" in="SourceGraphic" in2="BackgroundImageFix" result="shape"/>
<feColorMatrix in="SourceAlpha" type="matrix" values="0 0 0 0 0 0 0 0 0 0 0 0 0 0 0 0 0 0 127 0" result="hardAlpha"/>
<feOffset dx="-2.736" dy="-2.736"/>
<feGaussianBlur stdDeviation="2.736"/>
<feComposite in2="hardAlpha" operator="arithmetic" k2="-1" k3="1"/>
<feColorMatrix type="matrix" values="0 0 0 0 1 0 0 0 0 0.776471 0 0 0 0 0.541176 0 0 0 1 0"/>
<feBlend mode="normal" in2="shape" result="effect1_innerShadow_184_12544"/>
</filter>
<filter id="filter20_i_184_12544" x="90.2626" y="303.15" width="24.3328" height="57.6032" filterUnits="userSpaceOnUse" color-interpolation-filters="sRGB">
<feFlood flood-opacity="0" result="BackgroundImageFix"/>
<feBlend mode="normal" in="SourceGraphic" in2="BackgroundImageFix" result="shape"/>
<feColorMatrix in="SourceAlpha" type="matrix" values="0 0 0 0 0 0 0 0 0 0 0 0 0 0 0 0 0 0 127 0" result="hardAlpha"/>
<feOffset dx="2.736" dy="2.736"/>
<feGaussianBlur stdDeviation="2.736"/>
<feComposite in2="hardAlpha" operator="arithmetic" k2="-1" k3="1"/>
<feColorMatrix type="matrix" values="0 0 0 0 1 0 0 0 0 0.776471 0 0 0 0 0.541176 0 0 0 1 0"/>
<feBlend mode="normal" in2="shape" result="effect1_innerShadow_184_12544"/>
</filter>
<filter id="filter21_b_184_12544" x="99.1989" y="257.092" width="148.753" height="165.876" filterUnits="userSpaceOnUse" color-interpolation-filters="sRGB">
<feFlood flood-opacity="0" result="BackgroundImageFix"/>
<feGaussianBlur in="BackgroundImageFix" stdDeviation="2.736"/>
<feComposite in2="SourceAlpha" operator="in" result="effect1_backgroundBlur_184_12544"/>
<feBlend mode="normal" in="SourceGraphic" in2="effect1_backgroundBlur_184_12544" result="shape"/>
</filter>
<filter id="filter22_iiiiii_184_12544" x="118.043" y="275.051" width="111.138" height="96.0491" filterUnits="userSpaceOnUse" color-interpolation-filters="sRGB">
<feFlood flood-opacity="0" result="BackgroundImageFix"/>
<feBlend mode="normal" in="SourceGraphic" in2="BackgroundImageFix" result="shape"/>
<feColorMatrix in="SourceAlpha" type="matrix" values="0 0 0 0 0 0 0 0 0 0 0 0 0 0 0 0 0 0 127 0" result="hardAlpha"/>
<feOffset dx="-6.84" dy="-6.84"/>
<feGaussianBlur stdDeviation="13.68"/>
<feComposite in2="hardAlpha" operator="arithmetic" k2="-1" k3="1"/>
<feColorMatrix type="matrix" values="0 0 0 0 0 0 0 0 0 0 0 0 0 0 0 0 0 0 0.6 0"/>
<feBlend mode="normal" in2="shape" result="effect1_innerShadow_184_12544"/>
<feColorMatrix in="SourceAlpha" type="matrix" values="0 0 0 0 0 0 0 0 0 0 0 0 0 0 0 0 0 0 127 0" result="hardAlpha"/>
<feOffset dx="6.84" dy="6.84"/>
<feGaussianBlur stdDeviation="8.208"/>
<feComposite in2="hardAlpha" operator="arithmetic" k2="-1" k3="1"/>
<feColorMatrix type="matrix" values="0 0 0 0 1 0 0 0 0 1 0 0 0 0 1 0 0 0 0.2 0"/>
<feBlend mode="normal" in2="effect1_innerShadow_184_12544" result="effect2_innerShadow_184_12544"/>
<feColorMatrix in="SourceAlpha" type="matrix" values="0 0 0 0 0 0 0 0 0 0 0 0 0 0 0 0 0 0 127 0" result="hardAlpha"/>
<feOffset dx="-6.84" dy="-6.84"/>
<feGaussianBlur stdDeviation="8.208"/>
<feComposite in2="hardAlpha" operator="arithmetic" k2="-1" k3="1"/>
<feColorMatrix type="matrix" values="0 0 0 0 1 0 0 0 0 1 0 0 0 0 1 0 0 0 0.2 0"/>
<feBlend mode="normal" in2="effect2_innerShadow_184_12544" result="effect3_innerShadow_184_12544"/>
<feColorMatrix in="SourceAlpha" type="matrix" values="0 0 0 0 0 0 0 0 0 0 0 0 0 0 0 0 0 0 127 0" result="hardAlpha"/>
<feOffset dx="2.736" dy="2.736"/>
<feGaussianBlur stdDeviation="3.42"/>
<feComposite in2="hardAlpha" operator="arithmetic" k2="-1" k3="1"/>
<feColorMatrix type="matrix" values="0 0 0 0 0 0 0 0 0 0 0 0 0 0 0 0 0 0 0.8 0"/>
<feBlend mode="normal" in2="effect3_innerShadow_184_12544" result="effect4_innerShadow_184_12544"/>
<feColorMatrix in="SourceAlpha" type="matrix" values="0 0 0 0 0 0 0 0 0 0 0 0 0 0 0 0 0 0 127 0" result="hardAlpha"/>
<feOffset dx="-2.736" dy="-2.736"/>
<feGaussianBlur stdDeviation="3.42"/>
<feComposite in2="hardAlpha" operator="arithmetic" k2="-1" k3="1"/>
<feColorMatrix type="matrix" values="0 0 0 0 0 0 0 0 0 0 0 0 0 0 0 0 0 0 0.8 0"/>
<feBlend mode="normal" in2="effect4_innerShadow_184_12544" result="effect5_innerShadow_184_12544"/>
<feColorMatrix in="SourceAlpha" type="matrix" values="0 0 0 0 0 0 0 0 0 0 0 0 0 0 0 0 0 0 127 0" result="hardAlpha"/>
<feOffset dx="6.84" dy="6.84"/>
<feGaussianBlur stdDeviation="13.68"/>
<feComposite in2="hardAlpha" operator="arithmetic" k2="-1" k3="1"/>
<feColorMatrix type="matrix" values="0 0 0 0 0 0 0 0 0 0 0 0 0 0 0 0 0 0 0.6 0"/>
<feBlend mode="normal" in2="effect5_innerShadow_184_12544" result="effect6_innerShadow_184_12544"/>
</filter>
<filter id="filter23_f_184_12544" x="126.395" y="331.36" width="95.0682" height="21.5065" filterUnits="userSpaceOnUse" color-interpolation-filters="sRGB">
<feFlood flood-opacity="0" result="BackgroundImageFix"/>
<feBlend mode="normal" in="SourceGraphic" in2="BackgroundImageFix" result="shape"/>
<feGaussianBlur stdDeviation="2.736" result="effect1_foregroundBlur_184_12544"/>
</filter>
<filter id="filter24_f_184_12544" x="135.064" y="306.833" width="77.618" height="32.4284" filterUnits="userSpaceOnUse" color-interpolation-filters="sRGB">
<feFlood flood-opacity="0" result="BackgroundImageFix"/>
<feBlend mode="normal" in="SourceGraphic" in2="BackgroundImageFix" result="shape"/>
<feGaussianBlur stdDeviation="2.736" result="effect1_foregroundBlur_184_12544"/>
</filter>
<filter id="filter25_f_184_12544" x="135.064" y="306.833" width="77.618" height="32.4284" filterUnits="userSpaceOnUse" color-interpolation-filters="sRGB">
<feFlood flood-opacity="0" result="BackgroundImageFix"/>
<feBlend mode="normal" in="SourceGraphic" in2="BackgroundImageFix" result="shape"/>
<feGaussianBlur stdDeviation="2.736" result="effect1_foregroundBlur_184_12544"/>
</filter>
<filter id="filter26_i_184_12544" x="118.305" y="275.307" width="113.358" height="98.2692" filterUnits="userSpaceOnUse" color-interpolation-filters="sRGB">
<feFlood flood-opacity="0" result="BackgroundImageFix"/>
<feBlend mode="normal" in="SourceGraphic" in2="BackgroundImageFix" result="shape"/>
<feColorMatrix in="SourceAlpha" type="matrix" values="0 0 0 0 0 0 0 0 0 0 0 0 0 0 0 0 0 0 127 0" result="hardAlpha"/>
<feOffset dx="2.736" dy="2.736"/>
<feGaussianBlur stdDeviation="1.368"/>
<feComposite in2="hardAlpha" operator="arithmetic" k2="-1" k3="1"/>
<feColorMatrix type="matrix" values="0 0 0 0 1 0 0 0 0 0.776471 0 0 0 0 0.541176 0 0 0 1 0"/>
<feBlend mode="normal" in2="shape" result="effect1_innerShadow_184_12544"/>
</filter>
<filter id="filter27_i_184_12544" x="107.304" y="298.213" width="129.855" height="61.9762" filterUnits="userSpaceOnUse" color-interpolation-filters="sRGB">
<feFlood flood-opacity="0" result="BackgroundImageFix"/>
<feBlend mode="normal" in="SourceGraphic" in2="BackgroundImageFix" result="shape"/>
<feColorMatrix in="SourceAlpha" type="matrix" values="0 0 0 0 0 0 0 0 0 0 0 0 0 0 0 0 0 0 127 0" result="hardAlpha"/>
<feOffset dx="-2.736" dy="2.736"/>
<feGaussianBlur stdDeviation="5.472"/>
<feComposite in2="hardAlpha" operator="arithmetic" k2="-1" k3="1"/>
<feColorMatrix type="matrix" values="0 0 0 0 0.941176 0 0 0 0 0.596078 0 0 0 0 0.258824 0 0 0 0.8 0"/>
<feBlend mode="normal" in2="shape" result="effect1_innerShadow_184_12544"/>
</filter>
<filter id="filter28_i_184_12544" x="153.35" y="342.789" width="32.5252" height="103.314" filterUnits="userSpaceOnUse" color-interpolation-filters="sRGB">
<feFlood flood-opacity="0" result="BackgroundImageFix"/>
<feBlend mode="normal" in="SourceGraphic" in2="BackgroundImageFix" result="shape"/>
<feColorMatrix in="SourceAlpha" type="matrix" values="0 0 0 0 0 0 0 0 0 0 0 0 0 0 0 0 0 0 127 0" result="hardAlpha"/>
<feOffset dx="-2.736" dy="2.736"/>
<feGaussianBlur stdDeviation="5.472"/>
<feComposite in2="hardAlpha" operator="arithmetic" k2="-1" k3="1"/>
<feColorMatrix type="matrix" values="0 0 0 0 0.941176 0 0 0 0 0.596078 0 0 0 0 0.258824 0 0 0 0.8 0"/>
<feBlend mode="normal" in2="shape" result="effect1_innerShadow_184_12544"/>
</filter>
<filter id="filter29_b_184_12544" x="138.429" y="363.413" width="32.7736" height="39.6764" filterUnits="userSpaceOnUse" color-interpolation-filters="sRGB">
<feFlood flood-opacity="0" result="BackgroundImageFix"/>
<feGaussianBlur in="BackgroundImageFix" stdDeviation="2.736"/>
<feComposite in2="SourceAlpha" operator="in" result="effect1_backgroundBlur_184_12544"/>
<feBlend mode="normal" in="SourceGraphic" in2="effect1_backgroundBlur_184_12544" result="shape"/>
</filter>
<filter id="filter30_b_184_12544" x="172.428" y="368.036" width="37.3217" height="35.5612" filterUnits="userSpaceOnUse" color-interpolation-filters="sRGB">
<feFlood flood-opacity="0" result="BackgroundImageFix"/>
<feGaussianBlur in="BackgroundImageFix" stdDeviation="2.736"/>
<feComposite in2="SourceAlpha" operator="in" result="effect1_backgroundBlur_184_12544"/>
<feBlend mode="normal" in="SourceGraphic" in2="effect1_backgroundBlur_184_12544" result="shape"/>
</filter>
<linearGradient id="paint0_linear_184_12544" x1="270.304" y1="92.7525" x2="75.0218" y2="226.817" gradientUnits="userSpaceOnUse">
<stop stop-color="white"/>
<stop offset="1" stop-color="white" stop-opacity="0"/>
</linearGradient>
<linearGradient id="paint1_linear_184_12544" x1="-8.4262" y1="218.951" x2="228.507" y2="264.929" gradientUnits="userSpaceOnUse">
<stop offset="0.296875" stop-color="#FF9524"/>
<stop offset="1" stop-color="#FFC68A"/>
</linearGradient>
<linearGradient id="paint2_linear_184_12544" x1="322.91" y1="38" x2="160.096" y2="178.771" gradientUnits="userSpaceOnUse">
<stop stop-color="#FFC68A"/>
<stop offset="0.703125" stop-color="#FF9524"/>
</linearGradient>
<linearGradient id="paint3_linear_184_12544" x1="315.819" y1="41.029" x2="96" y2="41.029" gradientUnits="userSpaceOnUse">
<stop stop-color="#E0A667"/>
<stop offset="0.65625" stop-color="#364AFF"/>
</linearGradient>
<linearGradient id="paint4_linear_184_12544" x1="171.107" y1="429.434" x2="129.59" y2="414.935" gradientUnits="userSpaceOnUse">
<stop stop-color="#5B4DFF"/>
<stop offset="1" stop-color="#FF9524"/>
</linearGradient>
</defs>
</svg>
