<svg width="348" height="664" viewBox="0 0 348 664" fill="none" xmlns="http://www.w3.org/2000/svg">
<path fill-rule="evenodd" clip-rule="evenodd" d="M125.637 295.121C126.08 296.782 125.093 298.488 123.432 298.931L122.629 295.923C123.432 298.931 123.428 298.932 123.424 298.933L123.416 298.935L123.4 298.939C123.388 298.942 123.377 298.945 123.364 298.948C123.339 298.954 123.312 298.961 123.282 298.967C123.223 298.981 123.154 298.995 123.076 299.009C122.919 299.037 122.726 299.065 122.496 299.086C122.035 299.129 121.433 299.143 120.697 299.077C119.221 298.944 117.253 298.493 114.849 297.351C110.06 295.075 103.59 290.085 95.7184 279.465C94.6946 278.083 94.9844 276.134 96.3658 275.11C97.7471 274.086 99.6968 274.376 100.721 275.757C108.21 285.862 113.945 290.028 117.521 291.727C119.299 292.572 120.554 292.813 121.254 292.875C121.607 292.907 121.832 292.895 121.926 292.886C121.94 292.885 121.952 292.883 121.961 292.882C123.579 292.525 125.206 293.504 125.637 295.121Z" fill="#211815"/>
<path fill-rule="evenodd" clip-rule="evenodd" d="M231.083 142.87C232.703 144.491 232.703 147.12 231.081 148.74L205.827 173.977C204.925 174.878 203.66 175.315 202.394 175.161C201.129 175.008 200.004 174.282 199.343 173.192L189.095 156.282C187.907 154.321 188.533 151.769 190.494 150.581C192.454 149.392 195.007 150.019 196.195 151.979L203.701 164.365L225.213 142.868C226.834 141.247 229.462 141.248 231.083 142.87Z" fill="#211815"/>
<path fill-rule="evenodd" clip-rule="evenodd" d="M280.131 281.195C280.651 279.556 282.402 278.649 284.04 279.17L283.098 282.137C284.04 279.17 284.044 279.171 284.048 279.172L284.056 279.175L284.072 279.18C284.083 279.183 284.094 279.187 284.107 279.191C284.131 279.2 284.157 279.209 284.186 279.219C284.243 279.24 284.309 279.265 284.382 279.295C284.529 279.356 284.708 279.436 284.913 279.542C285.324 279.755 285.839 280.067 286.424 280.518C287.597 281.424 289.013 282.863 290.425 285.119C293.237 289.614 296.007 297.301 296.929 310.488C297.048 312.203 295.755 313.691 294.04 313.811C292.325 313.931 290.837 312.637 290.717 310.922C289.84 298.375 287.247 291.778 285.147 288.422C284.103 286.753 283.175 285.875 282.618 285.446C282.338 285.229 282.141 285.119 282.058 285.075C282.044 285.069 282.034 285.063 282.026 285.06C280.47 284.49 279.625 282.79 280.131 281.195Z" fill="#211815"/>
<path fill-rule="evenodd" clip-rule="evenodd" d="M291.707 331.361L291.698 331.377L291.667 331.433C291.639 331.483 291.596 331.56 291.542 331.659C291.433 331.857 291.274 332.148 291.082 332.508C290.695 333.231 290.175 334.227 289.634 335.328C288.492 337.656 287.473 340.033 287.212 341.357C286.878 343.043 285.24 344.14 283.553 343.807C281.867 343.473 280.77 341.835 281.104 340.148C281.548 337.904 282.946 334.823 284.045 332.585C284.625 331.402 285.181 330.339 285.591 329.572C285.796 329.188 285.966 328.876 286.086 328.659C286.145 328.551 286.192 328.466 286.225 328.407L286.263 328.338L286.278 328.312C286.278 328.311 286.278 328.311 288.992 329.836L286.278 328.312C287.121 326.813 289.019 326.28 290.518 327.122C292.016 327.965 292.549 329.863 291.707 331.361Z" fill="#211815"/>
<g filter="url(#filter0_i_184_12694)">
<path d="M292.801 336.613C299.906 338.114 306.882 333.571 308.382 326.466C309.883 319.361 305.339 312.385 298.235 310.885C291.13 309.384 284.154 313.928 282.654 321.032C281.153 328.137 285.696 335.113 292.801 336.613Z" fill="#B9B2FF" fill-opacity="0.6"/>
</g>
<g filter="url(#filter1_i_184_12694)">
<path fill-rule="evenodd" clip-rule="evenodd" d="M293.016 335.598C299.56 336.98 305.985 332.795 307.367 326.251C308.749 319.707 304.564 313.282 298.02 311.9C291.476 310.518 285.051 314.703 283.669 321.247C282.287 327.791 286.472 334.216 293.016 335.598ZM308.382 326.466C306.882 333.571 299.906 338.114 292.801 336.613C285.696 335.113 281.153 328.137 282.654 321.032C284.154 313.928 291.13 309.384 298.235 310.885C305.339 312.385 309.883 319.361 308.382 326.466Z" fill="white"/>
</g>
<path fill-rule="evenodd" clip-rule="evenodd" d="M303.65 326.828C305.247 326.19 307.058 326.967 307.696 328.564L304.805 329.719C307.696 328.564 307.696 328.564 307.696 328.564L307.707 328.593L307.736 328.666C307.761 328.728 307.796 328.819 307.841 328.934C307.931 329.165 308.058 329.497 308.211 329.904C308.517 330.718 308.928 331.845 309.347 333.094C310.142 335.457 311.123 338.695 311.267 340.981C311.376 342.697 310.072 344.175 308.357 344.284C306.641 344.392 305.162 343.089 305.053 341.373C304.968 340.025 304.271 337.534 303.445 335.077C303.055 333.915 302.67 332.859 302.382 332.092C302.238 331.71 302.12 331.401 302.038 331.19C301.997 331.085 301.965 331.003 301.944 330.95L301.92 330.89L301.914 330.874C301.276 329.277 302.053 327.466 303.65 326.828Z" fill="#211815"/>
<path fill-rule="evenodd" clip-rule="evenodd" d="M295.703 329.201C297.3 328.563 299.111 329.34 299.749 330.937L296.858 332.092C299.749 330.937 299.749 330.937 299.749 330.937L299.76 330.966L299.789 331.039C299.814 331.101 299.85 331.192 299.894 331.307C299.984 331.538 300.112 331.87 300.265 332.277C300.57 333.091 300.981 334.218 301.401 335.467C302.195 337.83 303.176 341.068 303.32 343.354C303.429 345.07 302.126 346.549 300.41 346.657C298.694 346.765 297.215 345.462 297.106 343.746C297.021 342.398 296.324 339.907 295.499 337.45C295.108 336.288 294.723 335.232 294.435 334.465C294.292 334.083 294.173 333.774 294.091 333.563C294.05 333.458 294.018 333.377 293.997 333.323L293.973 333.263L293.967 333.247C293.329 331.65 294.106 329.839 295.703 329.201Z" fill="#211815"/>
<path fill-rule="evenodd" clip-rule="evenodd" d="M174.402 333.252C172.683 333.252 171.289 334.646 171.289 336.365V352.97C170.373 353.137 169.39 353.346 168.426 353.596C167.389 353.865 166.31 354.198 165.335 354.608C164.42 354.992 163.321 355.554 162.478 356.397C161.262 357.613 161.262 359.584 162.478 360.8C163.694 362.016 165.665 362.016 166.881 360.8C166.879 360.802 166.88 360.801 166.885 360.797C166.92 360.771 167.154 360.597 167.746 360.348C168.351 360.094 169.121 359.848 169.989 359.623C171.725 359.173 173.594 358.873 174.757 358.739C176.329 358.559 177.515 357.228 177.515 355.646V336.365C177.515 334.646 176.122 333.252 174.402 333.252Z" fill="#211815"/>
<path fill-rule="evenodd" clip-rule="evenodd" d="M227.339 333.252C229.058 333.252 230.452 334.646 230.452 336.365V352.97C231.368 353.137 232.351 353.346 233.315 353.596C234.352 353.865 235.43 354.198 236.406 354.608C237.32 354.992 238.42 355.554 239.263 356.397C240.479 357.613 240.479 359.584 239.263 360.8C238.047 362.016 236.076 362.016 234.86 360.8C234.862 360.802 234.861 360.801 234.856 360.797C234.821 360.771 234.587 360.597 233.995 360.348C233.39 360.094 232.62 359.848 231.752 359.623C230.016 359.173 228.147 358.873 226.984 358.739C225.412 358.559 224.226 357.228 224.226 355.646V336.365C224.226 334.646 225.619 333.252 227.339 333.252Z" fill="#211815"/>
<g filter="url(#filter2_b_184_12694)">
<path d="M284.869 199.305C284.869 186.124 274.183 175.438 261.001 175.438H141.143C127.961 175.438 117.275 186.124 117.275 199.305V313.975C117.275 327.157 127.961 337.843 141.143 337.843H261.001C274.183 337.843 284.869 327.157 284.869 313.975V199.305Z" fill="#B9B2FF" fill-opacity="0.6"/>
</g>
<g filter="url(#filter3_b_184_12694)">
<path fill-rule="evenodd" clip-rule="evenodd" d="M141.143 176.475H261.001C273.61 176.475 283.831 186.697 283.831 199.305V313.975C283.831 326.584 273.61 336.805 261.001 336.805H141.143C128.534 336.805 118.313 326.584 118.313 313.975V199.305C118.313 186.697 128.534 176.475 141.143 176.475ZM261.001 175.438C274.183 175.438 284.869 186.124 284.869 199.305V313.975C284.869 327.157 274.183 337.843 261.001 337.843H141.143C127.961 337.843 117.275 327.157 117.275 313.975V199.305C117.275 186.124 127.961 175.438 141.143 175.438H261.001Z" fill="white"/>
</g>
<g filter="url(#filter4_i_184_12694)">
<path d="M149.258 208.646C144.173 208.646 140.033 212.781 140.033 217.871V282.434C140.033 287.519 144.168 291.659 149.258 291.659H252.741C257.826 291.659 261.967 287.524 261.967 282.434V217.871C261.967 212.786 257.831 208.646 252.741 208.646H149.258ZM149.258 200.344H252.741C262.418 200.344 270.269 208.189 270.269 217.871V282.434C270.269 292.111 262.423 299.961 252.741 299.961H149.258C139.581 299.961 131.731 292.116 131.731 282.434V217.871C131.731 208.194 139.576 200.344 149.258 200.344Z" fill="#5B4DFF"/>
</g>
<g filter="url(#filter5_iiiiii_184_12694)">
<path d="M140.033 217.872C140.033 212.782 144.174 208.646 149.259 208.646H252.741C257.831 208.646 261.967 212.787 261.967 217.872V282.435C261.967 287.525 257.826 291.66 252.741 291.66H149.259C144.168 291.66 140.033 287.519 140.033 282.435V217.872Z" fill="#262627"/>
</g>
<g filter="url(#filter6_f_184_12694)">
<path d="M236.893 236.172L222.468 247.479C221.209 248.466 221.25 250.385 222.55 251.318L237.317 261.908" stroke="#5B4DFF" stroke-width="9.6" stroke-linecap="round"/>
<path d="M165.143 237.354L179.932 248.179C181.224 249.124 181.246 251.044 179.977 252.019L165.567 263.09" stroke="#5B4DFF" stroke-width="9.6" stroke-linecap="round"/>
</g>
<g filter="url(#filter7_f_184_12694)">
<path d="M236.893 236.172L222.468 247.479C221.209 248.466 221.25 250.385 222.55 251.318L237.317 261.908" stroke="#5B4DFF" stroke-width="9.6" stroke-linecap="round"/>
<path d="M165.143 237.354L179.932 248.179C181.224 249.124 181.246 251.044 179.977 252.019L165.567 263.09" stroke="#5B4DFF" stroke-width="9.6" stroke-linecap="round"/>
</g>
<path d="M236.902 236.693L222.477 248C221.218 248.987 221.259 250.907 222.559 251.839L237.326 262.43" stroke="#5B4DFF" stroke-width="9.6" stroke-linecap="round"/>
<path d="M165.152 237.875L179.941 248.7C181.233 249.645 181.255 251.565 179.986 252.54L165.576 263.612" stroke="#5B4DFF" stroke-width="9.6" stroke-linecap="round"/>
<g filter="url(#filter8_i_184_12694)">
<path d="M108.179 218.801H100.391C96.5305 218.801 93.3965 221.935 93.3965 225.795V272.644C93.3965 276.504 96.5305 279.638 100.391 279.638H108.179C112.039 279.638 115.173 276.504 115.173 272.644V225.795C115.173 221.935 112.039 218.801 108.179 218.801Z" fill="#5B4DFF"/>
</g>
<g filter="url(#filter9_i_184_12694)">
<path fill-rule="evenodd" clip-rule="evenodd" d="M100.391 219.32H108.179C111.753 219.32 114.654 222.221 114.654 225.795V272.644C114.654 276.217 111.753 279.119 108.179 279.119H100.391C96.817 279.119 93.9154 276.217 93.9154 272.644V225.795C93.9154 222.221 96.817 219.32 100.391 219.32ZM100.391 218.801H108.179C112.039 218.801 115.173 221.935 115.173 225.795V272.644C115.173 276.504 112.039 279.638 108.179 279.638H100.391C96.5305 279.638 93.3965 276.504 93.3965 272.644V225.795C93.3965 221.935 96.5305 218.801 100.391 218.801Z" fill="#8A80FF"/>
</g>
<g filter="url(#filter10_i_184_12694)">
<path d="M301.592 218.801H293.804C289.944 218.801 286.81 221.935 286.81 225.795V272.644C286.81 276.504 289.944 279.638 293.804 279.638H301.592C305.452 279.638 308.586 276.504 308.586 272.644V225.795C308.586 221.935 305.452 218.801 301.592 218.801Z" fill="#5B4DFF" fill-opacity="0.8"/>
</g>
<g filter="url(#filter11_i_184_12694)">
<path fill-rule="evenodd" clip-rule="evenodd" d="M293.804 219.32H301.592C305.166 219.32 308.068 222.221 308.068 225.795V272.644C308.068 276.217 305.166 279.119 301.592 279.119H293.804C290.23 279.119 287.328 276.217 287.328 272.644V225.795C287.328 222.221 290.23 219.32 293.804 219.32ZM293.804 218.801H301.592C305.452 218.801 308.586 221.935 308.586 225.795V272.644C308.586 276.504 305.452 279.638 301.592 279.638H293.804C289.944 279.638 286.81 276.504 286.81 272.644V225.795C286.81 221.935 289.944 218.801 293.804 218.801Z" fill="#B9B2FF"/>
</g>
<path fill-rule="evenodd" clip-rule="evenodd" d="M117.02 298.246C117.02 298.246 115.618 297.715 114.849 297.349C110.06 295.074 103.59 290.084 95.7184 279.463C94.6946 278.082 94.9844 276.132 96.3658 275.109C97.7471 274.085 99.6968 274.375 100.721 275.756C108.21 285.861 113.444 289.78 117.02 291.48L117.02 298.246Z" fill="#211815"/>
<g filter="url(#filter12_i_184_12694)">
<path d="M85.1427 255.221C78.3465 257.778 74.9104 265.361 77.468 272.157C80.0255 278.953 87.6082 282.39 94.4044 279.832C101.201 277.274 104.637 269.692 102.079 262.896C99.5216 256.099 91.9389 252.663 85.1427 255.221Z" fill="#B9B2FF" fill-opacity="0.6"/>
</g>
<g filter="url(#filter13_i_184_12694)">
<path fill-rule="evenodd" clip-rule="evenodd" d="M85.5082 256.192C79.2484 258.548 76.0835 265.532 78.4392 271.792C80.7949 278.052 87.7791 281.216 94.0389 278.861C100.299 276.505 103.464 269.521 101.108 263.261C98.7522 257.001 91.768 253.836 85.5082 256.192ZM77.468 272.157C74.9104 265.361 78.3465 257.778 85.1427 255.221C91.9389 252.663 99.5216 256.099 102.079 262.896C104.637 269.692 101.201 277.274 94.4044 279.832C87.6082 282.39 80.0255 278.953 77.468 272.157Z" fill="white"/>
</g>
<g filter="url(#filter14_i_184_12694)">
<path fill-rule="evenodd" clip-rule="evenodd" d="M103.13 185.105C107.619 203.865 96.1125 222.697 77.4302 227.167C58.7479 231.638 39.964 220.054 35.4751 201.294C30.9862 182.534 42.4923 163.702 61.1746 159.232C79.8569 154.761 98.6408 166.345 103.13 185.105ZM112.795 182.793C118.566 206.912 103.773 231.125 79.7525 236.872C55.7324 242.62 31.5816 227.726 25.8102 203.606C20.0388 179.487 34.8322 155.274 58.8524 149.527C82.8725 143.779 107.023 158.673 112.795 182.793Z" fill="#5B4DFF"/>
<path fill-rule="evenodd" clip-rule="evenodd" d="M90.9422 278.298C93.6111 277.66 95.257 274.978 94.6184 272.31L83.9062 227.542L74.2413 229.854L84.9534 274.622C85.592 277.291 88.2733 278.937 90.9422 278.298Z" fill="#5B4DFF"/>
</g>
<g filter="url(#filter15_i_184_12694)">
<path d="M103.13 185.105C107.618 203.865 96.1124 222.697 77.4301 227.167C58.7478 231.638 39.9639 220.054 35.475 201.294C30.9861 182.534 42.4922 163.702 61.1745 159.232C79.8568 154.762 98.6407 166.346 103.13 185.105Z" fill="#D8EAFB" fill-opacity="0.4"/>
</g>
<path d="M98.7802 183.08C101.38 193.38 99.6802 216.08 72.6802 224.78" stroke="white" stroke-opacity="0.8" stroke-width="3" stroke-linecap="round"/>
<path d="M77.7325 262.597C75.4608 263.423 76.2646 265.819 88.8752 264.404" stroke="#211815" stroke-width="7.2" stroke-linecap="round"/>
<path d="M94.1384 256.54C94.6338 255.269 89.4746 254.643 88.16 257.16" stroke="#211815" stroke-width="7.2" stroke-linecap="round"/>
<path d="M78.5989 271.655C76.3273 272.482 77.1311 274.878 89.7417 273.462" stroke="#211815" stroke-width="7.2" stroke-linecap="round"/>
<path d="M87.5644 471.058C89.1924 471.058 90.3364 469.848 90.3364 468.154C90.3364 466.482 89.1924 465.272 87.5424 465.272H84.1544V471.058H87.5644ZM87.6524 462.83C90.8864 462.83 93.1744 465.03 93.1744 468.154C93.1744 471.3 90.8864 473.5 87.6524 473.5H84.1544V479.286H81.3164V462.83H87.6524ZM102.914 462.83L108.92 479.286H105.906L104.344 474.974H97.986L96.358 479.286H93.344L99.482 462.83H102.914ZM98.888 472.532H103.442L101.198 466.372L98.888 472.532ZM111.902 468.572H114.74V479.286H111.902V468.572ZM113.332 463.182C114.212 463.182 114.85 463.82 114.85 464.7C114.85 465.602 114.212 466.24 113.332 466.24C112.43 466.24 111.792 465.602 111.792 464.7C111.792 463.82 112.43 463.182 113.332 463.182ZM123.683 462.236C126.741 462.236 129.073 464.282 129.073 467.098C129.073 469.474 127.467 471.3 125.157 471.828V474.468C126.653 474.402 128.171 474.292 129.579 474.094L129.799 476.206C125.707 476.976 121.307 476.976 118.007 476.954L117.633 474.6C119.019 474.6 120.603 474.6 122.253 474.578V471.85C119.899 471.322 118.271 469.496 118.271 467.098C118.271 464.282 120.603 462.236 123.683 462.236ZM123.683 464.7C122.209 464.7 121.131 465.58 121.131 467.098C121.131 468.616 122.209 469.518 123.683 469.518C125.135 469.518 126.213 468.616 126.213 467.098C126.213 465.58 125.135 464.7 123.683 464.7ZM130.591 461.07H133.495V468.792H136.069V471.212H133.495V480.87H130.591V461.07ZM157.876 461.092H160.648V473.258H157.876V468.462H156.512V473.06H153.784V461.334H156.512V466.108H157.876V461.092ZM143.642 462.962H147.008V461.224H149.89V462.962H153.234V465.206H143.642V462.962ZM148.46 465.778C150.968 465.778 152.75 467.208 152.75 469.254C152.75 471.3 150.968 472.708 148.46 472.708C145.996 472.708 144.214 471.3 144.214 469.254C144.214 467.208 145.996 465.778 148.46 465.778ZM148.46 467.89C147.492 467.89 146.788 468.352 146.788 469.254C146.788 470.134 147.492 470.64 148.46 470.64C149.45 470.64 150.154 470.134 150.154 469.254C150.154 468.352 149.45 467.89 148.46 467.89ZM148.482 473.896H151.342V474.27C151.342 475.656 151.958 477.13 153.454 478.098C154.972 477.064 155.632 475.568 155.632 474.27V473.896H158.514V474.27C158.514 476.096 159.592 477.812 162.188 478.494L160.802 480.628C158.932 480.078 157.7 478.956 157.018 477.548C156.38 478.978 155.258 480.188 153.476 480.826C151.694 480.21 150.572 479.022 149.912 477.636C149.208 478.978 147.998 480.078 146.194 480.628L144.852 478.494C147.404 477.746 148.482 475.964 148.482 474.27V473.896ZM164.947 462.39H173.923V464.722H167.873V470.552C170.645 470.53 172.603 470.398 174.781 469.98L175.023 472.312C172.471 472.796 170.161 472.884 166.553 472.884H164.947V462.39ZM177.421 461.07H180.369V475.48H177.421V468.506H172.801V466.196H177.421V461.07ZM167.257 474.292H170.183V478.252H180.809V480.584H167.257V474.292ZM203.892 461.07H206.686V480.87H203.892V471.036H202.198V479.924H199.492V461.422H202.198V468.66H203.892V461.07ZM190.23 463.358H197.512V465.712H193.112V474.028C194.894 474.006 196.566 473.874 198.392 473.544L198.634 475.92C196.214 476.382 194.124 476.448 191.616 476.448H190.23V463.358ZM222.556 461.092H225.482V469.078H227.924V471.498H225.482V480.892H222.556V461.092ZM209.488 475.26C210.896 475.26 212.524 475.26 214.24 475.216V473.588C212.194 473.148 210.852 471.828 210.852 470.002C210.852 467.78 212.854 466.284 215.692 466.284C218.53 466.284 220.554 467.78 220.554 470.002C220.554 471.806 219.212 473.148 217.166 473.566V475.106C218.662 475.018 220.158 474.886 221.566 474.71L221.786 476.8C217.628 477.614 213.162 477.614 209.862 477.614L209.488 475.26ZM209.862 463.226H214.24V461.18H217.166V463.226H221.5V465.514H209.862V463.226ZM215.692 468.484C214.46 468.484 213.624 469.012 213.624 470.002C213.624 470.992 214.46 471.542 215.692 471.542C216.968 471.542 217.782 470.992 217.782 470.002C217.782 469.012 216.968 468.484 215.692 468.484ZM229.759 468.704H247.667V471.014H229.759V468.704ZM231.959 461.422H245.379V463.754H234.863V465.404H245.555V467.692H231.959V461.422ZM231.761 472.07H245.467V477.372H234.665V478.494H245.995V480.716H231.805V475.304H242.585V474.27H231.761V472.07ZM258.719 461.356C263.229 461.356 265.913 462.544 265.913 464.722C265.913 466.922 263.229 468.11 258.719 468.11C254.187 468.11 251.525 466.922 251.525 464.722C251.525 462.544 254.187 461.356 258.719 461.356ZM258.719 463.49C255.881 463.49 254.561 463.886 254.561 464.722C254.561 465.602 255.881 465.976 258.719 465.976C261.535 465.976 262.855 465.602 262.855 464.722C262.855 463.886 261.535 463.49 258.719 463.49ZM249.765 468.99H267.651V471.3H249.765V468.99ZM251.789 472.356H265.495V477.504H254.693V478.56H266.023V480.76H251.833V475.48H262.613V474.534H251.789V472.356Z" fill="#727175"/>
<path d="M66.7897 502.94C66.7897 509.1 65.2057 514.27 57.7257 517.988L56.2077 515.722C59.3977 514.116 61.3777 512.334 62.5437 510.178L56.7357 510.706L56.3837 508.242L63.4677 507.846C63.6877 507.032 63.8197 506.174 63.8857 505.272H57.3957V502.94H66.7897ZM69.6497 501.07H72.5977V520.87H69.6497V501.07ZM89.9862 501.07H92.9342V520.87H89.9862V516.58H86.0702V514.358H89.9862V501.07ZM76.0382 511.102C79.7122 511.102 84.5522 511.08 88.7542 510.508L88.9302 512.62C87.2362 512.928 85.4982 513.126 83.7822 513.258V520.298H80.8342V513.39C79.2502 513.456 77.7542 513.456 76.3902 513.456L76.0382 511.102ZM82.4402 501.884C85.3662 501.884 87.4782 503.556 87.4782 505.954C87.4782 508.374 85.3662 510.024 82.4402 510.024C79.4922 510.024 77.3802 508.374 77.3802 505.954C77.3802 503.556 79.4922 501.884 82.4402 501.884ZM82.4402 504.062C81.0762 504.062 80.1302 504.766 80.1302 505.954C80.1302 507.164 81.0762 507.802 82.4402 507.802C83.7822 507.802 84.7062 507.164 84.7062 505.954C84.7062 504.766 83.7822 504.062 82.4402 504.062ZM98.2227 502.654H112.017V505.052H101.127V510.178H112.171V512.488H98.2227V502.654ZM96.1547 516.118H114.085V518.516H96.1547V516.118ZM116.183 516.338H123.663V513.434H118.229V506.68H129.207V504.634H118.207V502.324H132.111V508.968H121.133V511.102H132.551V513.434H126.589V516.338H134.113V518.692H116.183V516.338ZM152.246 502.17C152.246 507.428 149.078 511.014 143.27 512.598L142.126 510.332C146.35 509.21 148.66 507.076 149.1 504.502H143.204V502.17H152.246ZM155.722 501.07H158.648V512.114H155.722V508.11H152.378V505.734H155.722V501.07ZM145.58 512.906H158.648V520.65H145.58V512.906ZM155.766 515.216H148.462V518.362H155.766V515.216ZM165.587 502.192H168.425V504.458C168.425 506.614 169.415 508.726 172.011 509.848V501.378H174.739V505.866H176.191V501.092H178.985V513.104H176.191V508.22H174.739V512.994H172.011V509.958L170.515 512.092C168.865 511.41 167.743 510.244 167.039 508.814C166.335 510.464 165.125 511.85 163.321 512.62L161.781 510.354C164.531 509.122 165.587 506.68 165.587 504.458V502.192ZM165.323 513.94H178.985V520.892H176.037V516.272H165.323V513.94ZM194.789 501.07H197.737V505.228H200.333V507.604H197.737V511.718H194.789V501.07ZM184.625 512.51H197.737V517.57H187.551V518.604H198.309V520.76H184.669V515.59H194.833V514.622H184.625V512.51ZM182.139 502.5H186.495V500.916H189.421V502.5H193.777V504.7H182.139V502.5ZM187.969 505.118C190.895 505.118 192.853 506.372 192.853 508.374C192.853 510.376 190.895 511.586 187.969 511.586C185.021 511.586 183.085 510.376 183.085 508.374C183.085 506.372 185.021 505.118 187.969 505.118ZM187.969 507.186C186.671 507.186 185.901 507.56 185.901 508.374C185.901 509.166 186.671 509.54 187.969 509.54C189.245 509.54 190.015 509.166 190.015 508.374C190.015 507.56 189.245 507.186 187.969 507.186ZM215.452 501.642H218.554V502.566C218.554 504.832 220.732 507.45 225.33 508.066L224.208 510.398C220.732 509.892 218.29 508.308 217.014 506.196C215.738 508.308 213.296 509.892 209.82 510.398L208.676 508.066C213.296 507.45 215.452 504.854 215.452 502.566V501.642ZM208.038 511.806H225.946V514.182H218.4V520.892H215.474V514.182H208.038V511.806ZM238.359 513.082H241.175V513.698C241.175 515.26 241.791 516.888 243.331 517.988C244.915 516.822 245.553 515.172 245.553 513.698V513.082H248.435V513.698C248.435 515.766 249.491 517.658 252.087 518.45L250.679 520.584C248.831 519.968 247.621 518.802 246.939 517.284C246.279 518.802 245.157 520.1 243.397 520.804C241.571 520.122 240.427 518.868 239.789 517.372C239.085 518.802 237.897 519.968 236.115 520.584L234.685 518.45C237.281 517.57 238.359 515.634 238.359 513.698V513.082ZM247.467 501.092H250.415V512.268H247.467V501.092ZM239.613 502.082C242.715 502.082 245.025 504.062 245.025 506.834C245.025 509.606 242.715 511.586 239.613 511.586C236.533 511.586 234.223 509.606 234.223 506.834C234.223 504.062 236.533 502.082 239.613 502.082ZM239.613 504.502C238.161 504.502 237.083 505.36 237.083 506.834C237.083 508.33 238.161 509.166 239.613 509.166C241.087 509.166 242.165 508.33 242.165 506.834C242.165 505.36 241.087 504.502 239.613 504.502ZM259.377 502.412C262.017 502.412 264.019 504.612 264.437 508.154H267.671V501.048H270.575V520.914H267.671V510.508H264.459C264.151 514.292 262.105 516.624 259.377 516.624C256.429 516.624 254.251 513.874 254.251 509.496C254.251 505.162 256.429 502.412 259.377 502.412ZM259.377 505.096C257.991 505.096 257.045 506.614 257.045 509.496C257.045 512.422 257.991 513.962 259.377 513.962C260.807 513.962 261.731 512.422 261.731 509.496C261.731 506.614 260.807 505.096 259.377 505.096ZM273.994 516.206H277.888V511.388C276.414 510.442 275.534 509.056 275.534 507.34C275.534 504.084 278.68 501.994 282.948 501.994C287.216 501.994 290.362 504.084 290.362 507.34C290.362 509.056 289.482 510.442 288.008 511.388V516.206H291.924V518.582H273.994V516.206ZM282.948 504.282C280.22 504.282 278.416 505.404 278.416 507.34C278.416 509.276 280.22 510.398 282.948 510.398C285.654 510.398 287.458 509.276 287.458 507.34C287.458 505.404 285.654 504.282 282.948 504.282ZM280.836 516.206H285.06V512.488C284.4 512.598 283.696 512.664 282.948 512.664C282.2 512.664 281.496 512.598 280.836 512.488V516.206Z" fill="#727175"/>
<path d="M288.682 16H329.539C330.479 16 331.242 16.7622 331.242 17.7024V58.56" stroke="url(#paint0_linear_184_12694)" stroke-width="10.64" stroke-linecap="round"/>
<path d="M330.39 17.7031L284 64.0935" stroke="url(#paint1_linear_184_12694)" stroke-width="10.64" stroke-linecap="round"/>
<defs>
<filter id="filter0_i_184_12694" x="282.367" y="310.598" width="28.7015" height="28.7027" filterUnits="userSpaceOnUse" color-interpolation-filters="sRGB">
<feFlood flood-opacity="0" result="BackgroundImageFix"/>
<feBlend mode="normal" in="SourceGraphic" in2="BackgroundImageFix" result="shape"/>
<feColorMatrix in="SourceAlpha" type="matrix" values="0 0 0 0 0 0 0 0 0 0 0 0 0 0 0 0 0 0 127 0" result="hardAlpha"/>
<feOffset dx="2.4" dy="2.4"/>
<feGaussianBlur stdDeviation="2.4"/>
<feComposite in2="hardAlpha" operator="arithmetic" k2="-1" k3="1"/>
<feColorMatrix type="matrix" values="0 0 0 0 0.94902 0 0 0 0 0.94902 0 0 0 0 0.94902 0 0 0 1 0"/>
<feBlend mode="normal" in2="shape" result="effect1_innerShadow_184_12694"/>
</filter>
<filter id="filter1_i_184_12694" x="282.367" y="310.598" width="28.7015" height="28.7027" filterUnits="userSpaceOnUse" color-interpolation-filters="sRGB">
<feFlood flood-opacity="0" result="BackgroundImageFix"/>
<feBlend mode="normal" in="SourceGraphic" in2="BackgroundImageFix" result="shape"/>
<feColorMatrix in="SourceAlpha" type="matrix" values="0 0 0 0 0 0 0 0 0 0 0 0 0 0 0 0 0 0 127 0" result="hardAlpha"/>
<feOffset dx="2.4" dy="2.4"/>
<feGaussianBlur stdDeviation="2.4"/>
<feComposite in2="hardAlpha" operator="arithmetic" k2="-1" k3="1"/>
<feColorMatrix type="matrix" values="0 0 0 0 0.94902 0 0 0 0 0.94902 0 0 0 0 0.94902 0 0 0 1 0"/>
<feBlend mode="normal" in2="shape" result="effect1_innerShadow_184_12694"/>
</filter>
<filter id="filter2_b_184_12694" x="112.475" y="170.637" width="177.194" height="172.006" filterUnits="userSpaceOnUse" color-interpolation-filters="sRGB">
<feFlood flood-opacity="0" result="BackgroundImageFix"/>
<feGaussianBlur in="BackgroundImageFix" stdDeviation="2.4"/>
<feComposite in2="SourceAlpha" operator="in" result="effect1_backgroundBlur_184_12694"/>
<feBlend mode="normal" in="SourceGraphic" in2="effect1_backgroundBlur_184_12694" result="shape"/>
</filter>
<filter id="filter3_b_184_12694" x="112.475" y="170.637" width="177.194" height="172.006" filterUnits="userSpaceOnUse" color-interpolation-filters="sRGB">
<feFlood flood-opacity="0" result="BackgroundImageFix"/>
<feGaussianBlur in="BackgroundImageFix" stdDeviation="2.4"/>
<feComposite in2="SourceAlpha" operator="in" result="effect1_backgroundBlur_184_12694"/>
<feBlend mode="normal" in="SourceGraphic" in2="effect1_backgroundBlur_184_12694" result="shape"/>
</filter>
<filter id="filter4_i_184_12694" x="131.731" y="200.344" width="140.938" height="102.017" filterUnits="userSpaceOnUse" color-interpolation-filters="sRGB">
<feFlood flood-opacity="0" result="BackgroundImageFix"/>
<feBlend mode="normal" in="SourceGraphic" in2="BackgroundImageFix" result="shape"/>
<feColorMatrix in="SourceAlpha" type="matrix" values="0 0 0 0 0 0 0 0 0 0 0 0 0 0 0 0 0 0 127 0" result="hardAlpha"/>
<feOffset dx="2.4" dy="2.4"/>
<feGaussianBlur stdDeviation="1.2"/>
<feComposite in2="hardAlpha" operator="arithmetic" k2="-1" k3="1"/>
<feColorMatrix type="matrix" values="0 0 0 0 0.541176 0 0 0 0 0.501961 0 0 0 0 1 0 0 0 1 0"/>
<feBlend mode="normal" in2="shape" result="effect1_innerShadow_184_12694"/>
</filter>
<filter id="filter5_iiiiii_184_12694" x="134.033" y="202.646" width="133.934" height="95.0137" filterUnits="userSpaceOnUse" color-interpolation-filters="sRGB">
<feFlood flood-opacity="0" result="BackgroundImageFix"/>
<feBlend mode="normal" in="SourceGraphic" in2="BackgroundImageFix" result="shape"/>
<feColorMatrix in="SourceAlpha" type="matrix" values="0 0 0 0 0 0 0 0 0 0 0 0 0 0 0 0 0 0 127 0" result="hardAlpha"/>
<feOffset dx="-6" dy="-6"/>
<feGaussianBlur stdDeviation="12"/>
<feComposite in2="hardAlpha" operator="arithmetic" k2="-1" k3="1"/>
<feColorMatrix type="matrix" values="0 0 0 0 0 0 0 0 0 0 0 0 0 0 0 0 0 0 0.6 0"/>
<feBlend mode="normal" in2="shape" result="effect1_innerShadow_184_12694"/>
<feColorMatrix in="SourceAlpha" type="matrix" values="0 0 0 0 0 0 0 0 0 0 0 0 0 0 0 0 0 0 127 0" result="hardAlpha"/>
<feOffset dx="6" dy="6"/>
<feGaussianBlur stdDeviation="7.2"/>
<feComposite in2="hardAlpha" operator="arithmetic" k2="-1" k3="1"/>
<feColorMatrix type="matrix" values="0 0 0 0 1 0 0 0 0 1 0 0 0 0 1 0 0 0 0.2 0"/>
<feBlend mode="normal" in2="effect1_innerShadow_184_12694" result="effect2_innerShadow_184_12694"/>
<feColorMatrix in="SourceAlpha" type="matrix" values="0 0 0 0 0 0 0 0 0 0 0 0 0 0 0 0 0 0 127 0" result="hardAlpha"/>
<feOffset dx="-6" dy="-6"/>
<feGaussianBlur stdDeviation="7.2"/>
<feComposite in2="hardAlpha" operator="arithmetic" k2="-1" k3="1"/>
<feColorMatrix type="matrix" values="0 0 0 0 1 0 0 0 0 1 0 0 0 0 1 0 0 0 0.2 0"/>
<feBlend mode="normal" in2="effect2_innerShadow_184_12694" result="effect3_innerShadow_184_12694"/>
<feColorMatrix in="SourceAlpha" type="matrix" values="0 0 0 0 0 0 0 0 0 0 0 0 0 0 0 0 0 0 127 0" result="hardAlpha"/>
<feOffset dx="2.4" dy="2.4"/>
<feGaussianBlur stdDeviation="3"/>
<feComposite in2="hardAlpha" operator="arithmetic" k2="-1" k3="1"/>
<feColorMatrix type="matrix" values="0 0 0 0 0 0 0 0 0 0 0 0 0 0 0 0 0 0 0.8 0"/>
<feBlend mode="normal" in2="effect3_innerShadow_184_12694" result="effect4_innerShadow_184_12694"/>
<feColorMatrix in="SourceAlpha" type="matrix" values="0 0 0 0 0 0 0 0 0 0 0 0 0 0 0 0 0 0 127 0" result="hardAlpha"/>
<feOffset dx="-2.4" dy="-2.4"/>
<feGaussianBlur stdDeviation="3"/>
<feComposite in2="hardAlpha" operator="arithmetic" k2="-1" k3="1"/>
<feColorMatrix type="matrix" values="0 0 0 0 0 0 0 0 0 0 0 0 0 0 0 0 0 0 0.8 0"/>
<feBlend mode="normal" in2="effect4_innerShadow_184_12694" result="effect5_innerShadow_184_12694"/>
<feColorMatrix in="SourceAlpha" type="matrix" values="0 0 0 0 0 0 0 0 0 0 0 0 0 0 0 0 0 0 127 0" result="hardAlpha"/>
<feOffset dx="6" dy="6"/>
<feGaussianBlur stdDeviation="12"/>
<feComposite in2="hardAlpha" operator="arithmetic" k2="-1" k3="1"/>
<feColorMatrix type="matrix" values="0 0 0 0 0 0 0 0 0 0 0 0 0 0 0 0 0 0 0.6 0"/>
<feBlend mode="normal" in2="effect5_innerShadow_184_12694" result="effect6_innerShadow_184_12694"/>
</filter>
<filter id="filter6_f_184_12694" x="148.943" y="219.971" width="104.575" height="59.3195" filterUnits="userSpaceOnUse" color-interpolation-filters="sRGB">
<feFlood flood-opacity="0" result="BackgroundImageFix"/>
<feBlend mode="normal" in="SourceGraphic" in2="BackgroundImageFix" result="shape"/>
<feGaussianBlur stdDeviation="5.7" result="effect1_foregroundBlur_184_12694"/>
</filter>
<filter id="filter7_f_184_12694" x="148.943" y="219.971" width="104.575" height="59.3195" filterUnits="userSpaceOnUse" color-interpolation-filters="sRGB">
<feFlood flood-opacity="0" result="BackgroundImageFix"/>
<feBlend mode="normal" in="SourceGraphic" in2="BackgroundImageFix" result="shape"/>
<feGaussianBlur stdDeviation="5.7" result="effect1_foregroundBlur_184_12694"/>
</filter>
<filter id="filter8_i_184_12694" x="93.3965" y="218.801" width="24.1769" height="63.2379" filterUnits="userSpaceOnUse" color-interpolation-filters="sRGB">
<feFlood flood-opacity="0" result="BackgroundImageFix"/>
<feBlend mode="normal" in="SourceGraphic" in2="BackgroundImageFix" result="shape"/>
<feColorMatrix in="SourceAlpha" type="matrix" values="0 0 0 0 0 0 0 0 0 0 0 0 0 0 0 0 0 0 127 0" result="hardAlpha"/>
<feOffset dx="2.4" dy="2.4"/>
<feGaussianBlur stdDeviation="1.2"/>
<feComposite in2="hardAlpha" operator="arithmetic" k2="-1" k3="1"/>
<feColorMatrix type="matrix" values="0 0 0 0 0.541176 0 0 0 0 0.501961 0 0 0 0 1 0 0 0 1 0"/>
<feBlend mode="normal" in2="shape" result="effect1_innerShadow_184_12694"/>
</filter>
<filter id="filter9_i_184_12694" x="93.3965" y="218.801" width="24.1769" height="63.2379" filterUnits="userSpaceOnUse" color-interpolation-filters="sRGB">
<feFlood flood-opacity="0" result="BackgroundImageFix"/>
<feBlend mode="normal" in="SourceGraphic" in2="BackgroundImageFix" result="shape"/>
<feColorMatrix in="SourceAlpha" type="matrix" values="0 0 0 0 0 0 0 0 0 0 0 0 0 0 0 0 0 0 127 0" result="hardAlpha"/>
<feOffset dx="2.4" dy="2.4"/>
<feGaussianBlur stdDeviation="1.2"/>
<feComposite in2="hardAlpha" operator="arithmetic" k2="-1" k3="1"/>
<feColorMatrix type="matrix" values="0 0 0 0 0.541176 0 0 0 0 0.501961 0 0 0 0 1 0 0 0 1 0"/>
<feBlend mode="normal" in2="shape" result="effect1_innerShadow_184_12694"/>
</filter>
<filter id="filter10_i_184_12694" x="286.81" y="218.801" width="24.1769" height="63.2379" filterUnits="userSpaceOnUse" color-interpolation-filters="sRGB">
<feFlood flood-opacity="0" result="BackgroundImageFix"/>
<feBlend mode="normal" in="SourceGraphic" in2="BackgroundImageFix" result="shape"/>
<feColorMatrix in="SourceAlpha" type="matrix" values="0 0 0 0 0 0 0 0 0 0 0 0 0 0 0 0 0 0 127 0" result="hardAlpha"/>
<feOffset dx="2.4" dy="2.4"/>
<feGaussianBlur stdDeviation="1.2"/>
<feComposite in2="hardAlpha" operator="arithmetic" k2="-1" k3="1"/>
<feColorMatrix type="matrix" values="0 0 0 0 0.72549 0 0 0 0 0.698039 0 0 0 0 1 0 0 0 1 0"/>
<feBlend mode="normal" in2="shape" result="effect1_innerShadow_184_12694"/>
</filter>
<filter id="filter11_i_184_12694" x="286.81" y="218.801" width="24.1769" height="63.2379" filterUnits="userSpaceOnUse" color-interpolation-filters="sRGB">
<feFlood flood-opacity="0" result="BackgroundImageFix"/>
<feBlend mode="normal" in="SourceGraphic" in2="BackgroundImageFix" result="shape"/>
<feColorMatrix in="SourceAlpha" type="matrix" values="0 0 0 0 0 0 0 0 0 0 0 0 0 0 0 0 0 0 127 0" result="hardAlpha"/>
<feOffset dx="2.4" dy="2.4"/>
<feGaussianBlur stdDeviation="1.2"/>
<feComposite in2="hardAlpha" operator="arithmetic" k2="-1" k3="1"/>
<feColorMatrix type="matrix" values="0 0 0 0 0.72549 0 0 0 0 0.698039 0 0 0 0 1 0 0 0 1 0"/>
<feBlend mode="normal" in2="shape" result="effect1_innerShadow_184_12694"/>
</filter>
<filter id="filter12_i_184_12694" x="74.2218" y="254.375" width="28.7035" height="28.7027" filterUnits="userSpaceOnUse" color-interpolation-filters="sRGB">
<feFlood flood-opacity="0" result="BackgroundImageFix"/>
<feBlend mode="normal" in="SourceGraphic" in2="BackgroundImageFix" result="shape"/>
<feColorMatrix in="SourceAlpha" type="matrix" values="0 0 0 0 0 0 0 0 0 0 0 0 0 0 0 0 0 0 127 0" result="hardAlpha"/>
<feOffset dx="-2.4" dy="2.4"/>
<feGaussianBlur stdDeviation="2.4"/>
<feComposite in2="hardAlpha" operator="arithmetic" k2="-1" k3="1"/>
<feColorMatrix type="matrix" values="0 0 0 0 0.94902 0 0 0 0 0.94902 0 0 0 0 0.94902 0 0 0 1 0"/>
<feBlend mode="normal" in2="shape" result="effect1_innerShadow_184_12694"/>
</filter>
<filter id="filter13_i_184_12694" x="74.2218" y="254.375" width="28.7035" height="28.7027" filterUnits="userSpaceOnUse" color-interpolation-filters="sRGB">
<feFlood flood-opacity="0" result="BackgroundImageFix"/>
<feBlend mode="normal" in="SourceGraphic" in2="BackgroundImageFix" result="shape"/>
<feColorMatrix in="SourceAlpha" type="matrix" values="0 0 0 0 0 0 0 0 0 0 0 0 0 0 0 0 0 0 127 0" result="hardAlpha"/>
<feOffset dx="-2.4" dy="2.4"/>
<feGaussianBlur stdDeviation="2.4"/>
<feComposite in2="hardAlpha" operator="arithmetic" k2="-1" k3="1"/>
<feColorMatrix type="matrix" values="0 0 0 0 0.94902 0 0 0 0 0.94902 0 0 0 0 0.94902 0 0 0 1 0"/>
<feBlend mode="normal" in2="shape" result="effect1_innerShadow_184_12694"/>
</filter>
<filter id="filter14_i_184_12694" x="21.682" y="148.293" width="92.3607" height="133.023" filterUnits="userSpaceOnUse" color-interpolation-filters="sRGB">
<feFlood flood-opacity="0" result="BackgroundImageFix"/>
<feBlend mode="normal" in="SourceGraphic" in2="BackgroundImageFix" result="shape"/>
<feColorMatrix in="SourceAlpha" type="matrix" values="0 0 0 0 0 0 0 0 0 0 0 0 0 0 0 0 0 0 127 0" result="hardAlpha"/>
<feOffset dx="-2.88" dy="2.88"/>
<feGaussianBlur stdDeviation="5.76"/>
<feComposite in2="hardAlpha" operator="arithmetic" k2="-1" k3="1"/>
<feColorMatrix type="matrix" values="0 0 0 0 0.941176 0 0 0 0 0.596078 0 0 0 0 0.258824 0 0 0 0.8 0"/>
<feBlend mode="normal" in2="shape" result="effect1_innerShadow_184_12694"/>
</filter>
<filter id="filter15_i_184_12694" x="31.6242" y="158.273" width="72.4762" height="72.7335" filterUnits="userSpaceOnUse" color-interpolation-filters="sRGB">
<feFlood flood-opacity="0" result="BackgroundImageFix"/>
<feBlend mode="normal" in="SourceGraphic" in2="BackgroundImageFix" result="shape"/>
<feColorMatrix in="SourceAlpha" type="matrix" values="0 0 0 0 0 0 0 0 0 0 0 0 0 0 0 0 0 0 127 0" result="hardAlpha"/>
<feOffset dx="-2.88" dy="2.88"/>
<feGaussianBlur stdDeviation="5.76"/>
<feComposite in2="hardAlpha" operator="arithmetic" k2="-1" k3="1"/>
<feColorMatrix type="matrix" values="0 0 0 0 1 0 0 0 0 1 0 0 0 0 1 0 0 0 0.8 0"/>
<feBlend mode="normal" in2="shape" result="effect1_innerShadow_184_12694"/>
</filter>
<linearGradient id="paint0_linear_184_12694" x1="295.528" y1="22.8847" x2="341.204" y2="85.2687" gradientUnits="userSpaceOnUse">
<stop stop-color="#5B4DFF"/>
<stop offset="0.845" stop-color="#FF9524"/>
</linearGradient>
<linearGradient id="paint1_linear_184_12694" x1="291.462" y1="25.2075" x2="341.25" y2="93.206" gradientUnits="userSpaceOnUse">
<stop stop-color="#5B4DFF"/>
<stop offset="0.845" stop-color="#FF9524"/>
</linearGradient>
</defs>
</svg>
