<svg width="348" height="664" viewBox="0 0 348 664" fill="none" xmlns="http://www.w3.org/2000/svg">
<g filter="url(#filter0_i_184_12642)">
<path fill-rule="evenodd" clip-rule="evenodd" d="M198.98 188.061C220.73 211.194 219.686 247.507 196.647 269.167C173.609 290.826 137.301 289.632 115.552 266.498C93.8019 243.364 94.8464 207.051 117.885 185.392C140.923 163.732 177.231 164.927 198.98 188.061ZM210.899 176.855C238.863 206.599 237.52 253.286 207.899 281.134C178.279 308.983 131.597 307.447 103.633 277.703C75.6693 247.96 77.0122 201.272 106.633 173.424C136.253 145.575 182.935 147.112 210.899 176.855Z" fill="#5B4DFF"/>
<path fill-rule="evenodd" clip-rule="evenodd" d="M257.753 331.175C261.044 328.081 261.203 322.905 258.109 319.613L206.206 264.407L194.288 275.613L246.191 330.819C249.285 334.11 254.461 334.269 257.753 331.175Z" fill="#5B4DFF"/>
</g>
<g filter="url(#filter1_i_184_12642)">
<path d="M212.931 213.978C220.321 244.858 201.38 275.858 170.627 283.216C139.874 290.575 108.954 271.506 101.564 240.626C94.1752 209.745 113.115 178.746 143.869 171.387C174.622 164.028 205.542 183.097 212.931 213.978Z" fill="#D8EAFB" fill-opacity="0.4"/>
</g>
<path d="M204.979 217.826C208.688 232.52 206.263 264.905 167.744 277.317" stroke="white" stroke-opacity="0.8" stroke-width="5" stroke-linecap="round"/>
<path d="M288.682 16H329.539C330.479 16 331.242 16.7622 331.242 17.7024V58.56" stroke="url(#paint0_linear_184_12642)" stroke-width="10.64" stroke-linecap="round"/>
<path d="M330.39 17.7031L284 64.0935" stroke="url(#paint1_linear_184_12642)" stroke-width="10.64" stroke-linecap="round"/>
<path d="M93.6474 462.048H96.5954V481.914H93.6474V462.048ZM85.9034 463.412C88.9174 463.412 91.1174 466.162 91.1174 470.496C91.1174 474.874 88.9174 477.624 85.9034 477.624C82.8894 477.624 80.6894 474.874 80.6894 470.496C80.6894 466.162 82.8894 463.412 85.9034 463.412ZM85.9034 466.096C84.4734 466.096 83.5054 467.614 83.5054 470.496C83.5054 473.422 84.4734 474.962 85.9034 474.962C87.3334 474.962 88.3014 473.422 88.3014 470.496C88.3014 467.614 87.3334 466.096 85.9034 466.096ZM110.634 467.152H113.67V462.092H116.596V476.502H113.67V469.506H110.634V467.152ZM103.484 475.292H106.432V479.208H117.058V481.54H103.484V475.292ZM100.668 463.39H111.338V465.7H107.51V465.898C107.51 468.186 108.83 470.65 111.976 471.684L110.546 473.972C108.368 473.268 106.916 471.86 106.08 470.1C105.222 472.036 103.66 473.598 101.35 474.368L99.8759 472.036C103.176 470.958 104.54 468.384 104.54 465.898V465.7H100.668V463.39ZM134.132 462.07H136.904V481.87H134.132V462.07ZM130.062 462.378H132.812V480.99H130.062V471.684H128.632C128.39 475.578 126.762 477.888 124.32 477.888C121.724 477.888 120.03 475.16 120.03 470.65C120.03 466.162 121.724 463.434 124.32 463.434C126.696 463.434 128.302 465.634 128.61 469.33H130.062V462.378ZM124.32 466.206C123.286 466.206 122.692 467.636 122.692 470.65C122.692 473.686 123.286 475.116 124.32 475.116C125.398 475.116 125.97 473.686 125.97 470.65C125.97 467.636 125.398 466.206 124.32 466.206ZM159.601 462.092H162.373V474.258H159.601V469.462H158.237V474.06H155.509V462.334H158.237V467.108H159.601V462.092ZM145.367 463.962H148.733V462.224H151.615V463.962H154.959V466.206H145.367V463.962ZM150.185 466.778C152.693 466.778 154.475 468.208 154.475 470.254C154.475 472.3 152.693 473.708 150.185 473.708C147.721 473.708 145.939 472.3 145.939 470.254C145.939 468.208 147.721 466.778 150.185 466.778ZM150.185 468.89C149.217 468.89 148.513 469.352 148.513 470.254C148.513 471.134 149.217 471.64 150.185 471.64C151.175 471.64 151.879 471.134 151.879 470.254C151.879 469.352 151.175 468.89 150.185 468.89ZM150.207 474.896H153.067V475.27C153.067 476.656 153.683 478.13 155.179 479.098C156.697 478.064 157.357 476.568 157.357 475.27V474.896H160.239V475.27C160.239 477.096 161.317 478.812 163.913 479.494L162.527 481.628C160.657 481.078 159.425 479.956 158.743 478.548C158.105 479.978 156.983 481.188 155.201 481.826C153.419 481.21 152.297 480.022 151.637 478.636C150.933 479.978 149.723 481.078 147.919 481.628L146.577 479.494C149.129 478.746 150.207 476.964 150.207 475.27V474.896ZM166.512 463.39H175.488V465.722H169.438V471.552C172.21 471.53 174.168 471.398 176.346 470.98L176.588 473.312C174.036 473.796 171.726 473.884 168.118 473.884H166.512V463.39ZM178.986 462.07H181.934V476.48H178.986V469.506H174.366V467.196H178.986V462.07ZM168.822 475.292H171.748V479.252H182.374V481.584H168.822V475.292ZM205.137 462.07H207.931V481.87H205.137V472.036H203.443V480.924H200.737V462.422H203.443V469.66H205.137V462.07ZM191.475 464.358H198.757V466.712H194.357V475.028C196.139 475.006 197.811 474.874 199.637 474.544L199.879 476.92C197.459 477.382 195.369 477.448 192.861 477.448H191.475V464.358ZM223.641 462.092H226.567V470.078H229.009V472.498H226.567V481.892H223.641V462.092ZM210.573 476.26C211.981 476.26 213.609 476.26 215.325 476.216V474.588C213.279 474.148 211.937 472.828 211.937 471.002C211.937 468.78 213.939 467.284 216.777 467.284C219.615 467.284 221.639 468.78 221.639 471.002C221.639 472.806 220.297 474.148 218.251 474.566V476.106C219.747 476.018 221.243 475.886 222.651 475.71L222.871 477.8C218.713 478.614 214.247 478.614 210.947 478.614L210.573 476.26ZM210.947 464.226H215.325V462.18H218.251V464.226H222.585V466.514H210.947V464.226ZM216.777 469.484C215.545 469.484 214.709 470.012 214.709 471.002C214.709 471.992 215.545 472.542 216.777 472.542C218.053 472.542 218.867 471.992 218.867 471.002C218.867 470.012 218.053 469.484 216.777 469.484ZM230.684 469.704H248.592V472.014H230.684V469.704ZM232.884 462.422H246.304V464.754H235.788V466.404H246.48V468.692H232.884V462.422ZM232.686 473.07H246.392V478.372H235.59V479.494H246.92V481.716H232.73V476.304H243.51V475.27H232.686V473.07ZM259.484 462.356C263.994 462.356 266.678 463.544 266.678 465.722C266.678 467.922 263.994 469.11 259.484 469.11C254.952 469.11 252.29 467.922 252.29 465.722C252.29 463.544 254.952 462.356 259.484 462.356ZM259.484 464.49C256.646 464.49 255.326 464.886 255.326 465.722C255.326 466.602 256.646 466.976 259.484 466.976C262.3 466.976 263.62 466.602 263.62 465.722C263.62 464.886 262.3 464.49 259.484 464.49ZM250.53 469.99H268.416V472.3H250.53V469.99ZM252.554 473.356H266.26V478.504H255.458V479.56H266.788V481.76H252.598V476.48H263.378V475.534H252.554V473.356Z" fill="#727175"/>
<path d="M68.1297 502.94C68.1297 509.1 66.5457 514.27 59.0657 517.988L57.5477 515.722C60.7377 514.116 62.7177 512.334 63.8837 510.178L58.0757 510.706L57.7237 508.242L64.8077 507.846C65.0277 507.032 65.1597 506.174 65.2257 505.272H58.7357V502.94H68.1297ZM70.9897 501.07H73.9377V520.87H70.9897V501.07ZM91.1663 501.07H94.1143V520.87H91.1663V516.58H87.2503V514.358H91.1663V501.07ZM77.2183 511.102C80.8923 511.102 85.7323 511.08 89.9343 510.508L90.1103 512.62C88.4163 512.928 86.6783 513.126 84.9623 513.258V520.298H82.0143V513.39C80.4303 513.456 78.9343 513.456 77.5703 513.456L77.2183 511.102ZM83.6203 501.884C86.5463 501.884 88.6583 503.556 88.6583 505.954C88.6583 508.374 86.5463 510.024 83.6203 510.024C80.6723 510.024 78.5603 508.374 78.5603 505.954C78.5603 503.556 80.6723 501.884 83.6203 501.884ZM83.6203 504.062C82.2563 504.062 81.3103 504.766 81.3103 505.954C81.3103 507.164 82.2563 507.802 83.6203 507.802C84.9623 507.802 85.8863 507.164 85.8863 505.954C85.8863 504.766 84.9623 504.062 83.6203 504.062ZM99.2428 502.654H113.037V505.052H102.147V510.178H113.191V512.488H99.2428V502.654ZM97.1748 516.118H115.105V518.516H97.1748V516.118ZM117.043 516.338H124.523V513.434H119.089V506.68H130.067V504.634H119.067V502.324H132.971V508.968H121.993V511.102H133.411V513.434H127.449V516.338H134.973V518.692H117.043V516.338ZM152.786 502.17C152.786 507.428 149.618 511.014 143.81 512.598L142.666 510.332C146.89 509.21 149.2 507.076 149.64 504.502H143.744V502.17H152.786ZM156.262 501.07H159.188V512.114H156.262V508.11H152.918V505.734H156.262V501.07ZM146.12 512.906H159.188V520.65H146.12V512.906ZM156.306 515.216H149.002V518.362H156.306V515.216ZM165.967 502.192H168.805V504.458C168.805 506.614 169.795 508.726 172.391 509.848V501.378H175.119V505.866H176.571V501.092H179.365V513.104H176.571V508.22H175.119V512.994H172.391V509.958L170.895 512.092C169.245 511.41 168.123 510.244 167.419 508.814C166.715 510.464 165.505 511.85 163.701 512.62L162.161 510.354C164.911 509.122 165.967 506.68 165.967 504.458V502.192ZM165.703 513.94H179.365V520.892H176.417V516.272H165.703V513.94ZM195.009 501.07H197.957V505.228H200.553V507.604H197.957V511.718H195.009V501.07ZM184.845 512.51H197.957V517.57H187.771V518.604H198.529V520.76H184.889V515.59H195.053V514.622H184.845V512.51ZM182.359 502.5H186.715V500.916H189.641V502.5H193.997V504.7H182.359V502.5ZM188.189 505.118C191.115 505.118 193.073 506.372 193.073 508.374C193.073 510.376 191.115 511.586 188.189 511.586C185.241 511.586 183.305 510.376 183.305 508.374C183.305 506.372 185.241 505.118 188.189 505.118ZM188.189 507.186C186.891 507.186 186.121 507.56 186.121 508.374C186.121 509.166 186.891 509.54 188.189 509.54C189.465 509.54 190.235 509.166 190.235 508.374C190.235 507.56 189.465 507.186 188.189 507.186ZM215.352 501.642H218.454V502.566C218.454 504.832 220.632 507.45 225.23 508.066L224.108 510.398C220.632 509.892 218.19 508.308 216.914 506.196C215.638 508.308 213.196 509.892 209.72 510.398L208.576 508.066C213.196 507.45 215.352 504.854 215.352 502.566V501.642ZM207.938 511.806H225.846V514.182H218.3V520.892H215.374V514.182H207.938V511.806ZM237.939 513.082H240.755V513.698C240.755 515.26 241.371 516.888 242.911 517.988C244.495 516.822 245.133 515.172 245.133 513.698V513.082H248.015V513.698C248.015 515.766 249.071 517.658 251.667 518.45L250.259 520.584C248.411 519.968 247.201 518.802 246.519 517.284C245.859 518.802 244.737 520.1 242.977 520.804C241.151 520.122 240.007 518.868 239.369 517.372C238.665 518.802 237.477 519.968 235.695 520.584L234.265 518.45C236.861 517.57 237.939 515.634 237.939 513.698V513.082ZM247.047 501.092H249.995V512.268H247.047V501.092ZM239.193 502.082C242.295 502.082 244.605 504.062 244.605 506.834C244.605 509.606 242.295 511.586 239.193 511.586C236.113 511.586 233.803 509.606 233.803 506.834C233.803 504.062 236.113 502.082 239.193 502.082ZM239.193 504.502C237.741 504.502 236.663 505.36 236.663 506.834C236.663 508.33 237.741 509.166 239.193 509.166C240.667 509.166 241.745 508.33 241.745 506.834C241.745 505.36 240.667 504.502 239.193 504.502ZM258.797 502.412C261.437 502.412 263.439 504.612 263.857 508.154H267.091V501.048H269.995V520.914H267.091V510.508H263.879C263.571 514.292 261.525 516.624 258.797 516.624C255.849 516.624 253.671 513.874 253.671 509.496C253.671 505.162 255.849 502.412 258.797 502.412ZM258.797 505.096C257.411 505.096 256.465 506.614 256.465 509.496C256.465 512.422 257.411 513.962 258.797 513.962C260.227 513.962 261.151 512.422 261.151 509.496C261.151 506.614 260.227 505.096 258.797 505.096ZM273.254 516.206H277.148V511.388C275.674 510.442 274.794 509.056 274.794 507.34C274.794 504.084 277.94 501.994 282.208 501.994C286.476 501.994 289.622 504.084 289.622 507.34C289.622 509.056 288.742 510.442 287.268 511.388V516.206H291.184V518.582H273.254V516.206ZM282.208 504.282C279.48 504.282 277.676 505.404 277.676 507.34C277.676 509.276 279.48 510.398 282.208 510.398C284.914 510.398 286.718 509.276 286.718 507.34C286.718 505.404 284.914 504.282 282.208 504.282ZM280.096 516.206H284.32V512.488C283.66 512.598 282.956 512.664 282.208 512.664C281.46 512.664 280.756 512.598 280.096 512.488V516.206Z" fill="#727175"/>
<defs>
<filter id="filter0_i_184_12642" x="78.7081" y="153.502" width="181.621" height="184.693" filterUnits="userSpaceOnUse" color-interpolation-filters="sRGB">
<feFlood flood-opacity="0" result="BackgroundImageFix"/>
<feBlend mode="normal" in="SourceGraphic" in2="BackgroundImageFix" result="shape"/>
<feColorMatrix in="SourceAlpha" type="matrix" values="0 0 0 0 0 0 0 0 0 0 0 0 0 0 0 0 0 0 127 0" result="hardAlpha"/>
<feOffset dx="-4.8" dy="4.8"/>
<feGaussianBlur stdDeviation="9.6"/>
<feComposite in2="hardAlpha" operator="arithmetic" k2="-1" k3="1"/>
<feColorMatrix type="matrix" values="0 0 0 0 0.941176 0 0 0 0 0.596078 0 0 0 0 0.258824 0 0 0 0.8 0"/>
<feBlend mode="normal" in2="shape" result="effect1_innerShadow_184_12642"/>
</filter>
<filter id="filter1_i_184_12642" x="95.1666" y="169.809" width="119.363" height="119.786" filterUnits="userSpaceOnUse" color-interpolation-filters="sRGB">
<feFlood flood-opacity="0" result="BackgroundImageFix"/>
<feBlend mode="normal" in="SourceGraphic" in2="BackgroundImageFix" result="shape"/>
<feColorMatrix in="SourceAlpha" type="matrix" values="0 0 0 0 0 0 0 0 0 0 0 0 0 0 0 0 0 0 127 0" result="hardAlpha"/>
<feOffset dx="-4.8" dy="4.8"/>
<feGaussianBlur stdDeviation="9.6"/>
<feComposite in2="hardAlpha" operator="arithmetic" k2="-1" k3="1"/>
<feColorMatrix type="matrix" values="0 0 0 0 1 0 0 0 0 1 0 0 0 0 1 0 0 0 0.8 0"/>
<feBlend mode="normal" in2="shape" result="effect1_innerShadow_184_12642"/>
</filter>
<linearGradient id="paint0_linear_184_12642" x1="295.528" y1="22.8847" x2="341.204" y2="85.2687" gradientUnits="userSpaceOnUse">
<stop stop-color="#5B4DFF"/>
<stop offset="0.845" stop-color="#FF9524"/>
</linearGradient>
<linearGradient id="paint1_linear_184_12642" x1="291.462" y1="25.2075" x2="341.25" y2="93.206" gradientUnits="userSpaceOnUse">
<stop stop-color="#5B4DFF"/>
<stop offset="0.845" stop-color="#FF9524"/>
</linearGradient>
</defs>
</svg>
