<?xml version="1.0" encoding="UTF-8"?>
<svg id="Layer_1" xmlns="http://www.w3.org/2000/svg" xmlns:xlink="http://www.w3.org/1999/xlink" version="1.1" viewBox="0 0 1024 1024">
  <!-- Generator: Adobe Illustrator 29.1.0, SVG Export Plug-In . SVG Version: 2.1.0 Build 142)  -->
  <defs>
    <style>
      .st0 {
        fill: none;
      }

      .st1 {
        fill: #fff;
        fill-rule: evenodd;
      }

      .st2 {
        fill: url(#linear-gradient2);
      }

      .st3 {
        fill: url(#linear-gradient1);
      }

      .st4 {
        fill: url(#linear-gradient3);
      }

      .st5 {
        fill: url(#linear-gradient6);
      }

      .st6 {
        fill: url(#linear-gradient5);
      }

      .st7 {
        fill: url(#linear-gradient4);
      }

      .st8 {
        fill: url(#linear-gradient);
      }

      .st9 {
        fill: #5656f5;
      }

      .st10 {
        clip-path: url(#clippath);
      }
    </style>
    <clipPath id="clippath">
      <rect class="st0" x="0" y="-391.9" width="1024" height="1953.8"/>
    </clipPath>
    <linearGradient id="linear-gradient" x1="253.3" y1="544" x2="502.5" y2="544" gradientTransform="translate(0 1024) scale(1 -1)" gradientUnits="userSpaceOnUse">
      <stop offset="0" stop-color="#7a99a6" stop-opacity="0"/>
      <stop offset="1" stop-color="#aec0cf"/>
    </linearGradient>
    <linearGradient id="linear-gradient1" x1="342.1" y1="700.7" x2="448.4" y2="700.7" gradientTransform="translate(0 1024) scale(1 -1)" gradientUnits="userSpaceOnUse">
      <stop offset="0" stop-color="#9571aa"/>
      <stop offset=".2" stop-color="#7e67c5"/>
      <stop offset=".3" stop-color="#6c5fda"/>
      <stop offset=".5" stop-color="#5f5ae9"/>
      <stop offset=".7" stop-color="#5857f2"/>
      <stop offset="1" stop-color="#5656f5"/>
    </linearGradient>
    <linearGradient id="linear-gradient2" x1="226.6" y1="669.7" x2="332.9" y2="669.7" gradientTransform="translate(0 1024) scale(1 -1)" gradientUnits="userSpaceOnUse">
      <stop offset="0" stop-color="#f09842"/>
      <stop offset=".2" stop-color="#ed9644"/>
      <stop offset=".4" stop-color="#e5934e"/>
      <stop offset=".6" stop-color="#d78d5d"/>
      <stop offset=".7" stop-color="#c48574"/>
      <stop offset=".9" stop-color="#ac7a90"/>
      <stop offset="1" stop-color="#916fb0"/>
    </linearGradient>
    <linearGradient id="linear-gradient3" x1="761.6" y1="758.5" x2="761.6" y2="837.1" gradientTransform="translate(0 1024) scale(1 -1)" gradientUnits="userSpaceOnUse">
      <stop offset="0" stop-color="#5656f5"/>
      <stop offset="1" stop-color="#f09842"/>
    </linearGradient>
    <linearGradient id="linear-gradient4" x1="490.3" y1="549.1" x2="689.2" y2="756.8" gradientTransform="translate(0 1024) scale(1 -1)" gradientUnits="userSpaceOnUse">
      <stop offset="0" stop-color="#aec0cf"/>
      <stop offset=".4" stop-color="#5656f5"/>
    </linearGradient>
    <linearGradient id="linear-gradient5" x1="511.4" y1="366.3" x2="517.7" y2="181" gradientTransform="translate(0 1024) scale(1 -1)" gradientUnits="userSpaceOnUse">
      <stop offset="0" stop-color="#5b4dff"/>
      <stop offset="1" stop-color="#ff9524"/>
    </linearGradient>
    <linearGradient id="linear-gradient6" x1="510.6" y1="248.6" x2="516.9" y2="63.3" gradientTransform="translate(0 1024) scale(1 -1)" gradientUnits="userSpaceOnUse">
      <stop offset="0" stop-color="#5b4dff"/>
      <stop offset="1" stop-color="#ff9524"/>
    </linearGradient>
  </defs>
  <g class="st10">
    <g>
      <path class="st8" d="M502.5,480.3v-.7c0-1.1-.9-2-2-2h-245.3c-1.1,0-2,.9-2,2v.7c0,1.1.9,2,2,2h245.3c1.1,0,2-.9,2-2Z"/>
      <path class="st3" d="M383.7,226.2h-35.1c-3.6,0-6.5,2.9-6.5,6.5v51.6c0,3.6,2.9,6.5,6.5,6.5h27.8c4,0,7.2,3.2,7.2,7.2v50.3c0,4-3.2,7.2-7.2,7.2h-27.8c-3.6,0-6.5,2.9-6.5,6.5v51.6c0,3.6,2.9,6.5,6.5,6.5h35.1c35.7,0,64.7-29,64.7-64.7v-64.7c0-35.7-29-64.7-64.7-64.7h0Z"/>
      <path class="st2" d="M326.3,290.9c3.6,0,6.5-2.9,6.5-6.5v-51.6c0-3.6-2.9-6.5-6.5-6.5h-86.6c-7.2,0-13.1,5.9-13.1,13.1v210.6c0,1.7.7,3.4,1.9,4.6l25.8,25.8c2.6,2.6,6.7,2.6,9.3,0l25.8-25.8c1.2-1.2,1.9-2.9,1.9-4.6v-29.6h35.1c3.6,0,6.5-2.9,6.5-6.5v-51.6c0-3.6-2.9-6.5-6.5-6.5h-35.1v-64.7h35Z"/>
      <path class="st4" d="M779.5,265.1c-5,2.1,2.5-6.6-17.5-6.6s-23.3-2.1-28.5-7.1c-5.2-5-7.7-14.5-7.7-28.5s2.6-23.4,7.7-28.5c5.2-5,14.6-7.6,28.5-7.6s23.2,2.5,28.1,7.6c4.9,5.1,7.4,14.5,7.4,28.5,0,33.2-12.9,40-17.9,42.2Z"/>
      <path class="st1" d="M778.4,213.3c.8,1.1.7,2.7-.4,3.6l-21.4,18c-.5.4-1.2.6-1.8.5-.7,0-1.3-.5-1.6-1l-8.4-11.9c-.8-1.1-.6-2.7.5-3.5,1.1-.8,2.6-.6,3.4.5l6.9,9.8,19.4-16.4c1-.9,2.6-.7,3.4.4Z"/>
      <path class="st9" d="M787.1,290.9l-51.6,7c-3.2.4-5.7,3.2-5.7,6.5v171.3c0,3.6,2.9,6.5,6.5,6.5h51.6c3.6,0,6.5-2.9,6.5-6.5v-178.3c0-4-3.5-7-7.4-6.5h0Z"/>
      <path class="st7" d="M621.5,226.2h-64.7c-35.7,0-64.7,29-64.7,64.7v184.6c0,3.6,3.1,6.7,6.7,6.7h51.7c3.6,0,6.5-2.9,6.5-6.5v-55.2h64.5v55.2c0,3.6,2.9,6.5,6.5,6.5h51.6c3.6,0,6.5-2.9,6.5-6.5v-184.8c0-35.7-29-64.7-64.7-64.7h0ZM621.5,355.5h-64.7v-57.3c0-4,3.2-7.2,7.2-7.2h50.3c4,0,7.2,3.2,7.2,7.2v57.3h0Z"/>
      <path class="st6" d="M240.5,676.7h8.7v13.7h7.4v7.1h-7.4v12.8h-8.7v-33.5ZM230,711.3c12,0,19.7,4.5,19.7,11.9s-7.8,11.8-19.7,11.8-19.8-4.4-19.8-11.8,7.8-11.9,19.8-11.9ZM230,718.2c-7.3,0-11.3,1.6-11.3,5s4,5,11.3,5,11.3-1.6,11.3-5-4-5-11.3-5ZM205.2,680.6h26.1v6.9h-17.5v13c10.5,0,16.2-.5,22.5-1.7l.8,6.8c-7.1,1.6-13.8,1.8-27,1.8h-4.9v-26.8ZM301.9,676.8h8.6v42.4h-8.6v-42.4ZM271.6,715.1h8.7v12h31.7v6.9h-40.4v-18.9ZM275.6,679.9h8.8v5.7c0,7.4,3.8,15,13.5,18l-4.4,6.9c-6.5-2.1-10.8-6.4-13.3-11.8-2.6,5.8-7.2,10.4-14,12.8l-4.3-6.8c9.8-3.4,13.8-11.5,13.8-19v-5.7ZM339.7,680.6c9.1,0,16.1,6,16.1,14.4s-6.9,14.4-16.1,14.4-16.1-6-16.1-14.4,6.9-14.4,16.1-14.4ZM339.7,687.9c-4.3,0-7.7,2.5-7.7,7.1s3.4,7.1,7.7,7.1,7.6-2.6,7.6-7.1-3.3-7.1-7.6-7.1ZM361,676.7h8.6v58.5h-8.6v-58.5ZM321.2,716.4c10.2,0,24.5,0,36.6-1.9l.6,6.2c-12.6,2.5-26.3,2.7-36.3,2.7l-1-7ZM413.6,678.4c8.9,0,15.7,5.6,15.7,13.3s-6.7,13.3-15.7,13.3-15.5-5.5-15.5-13.3,6.7-13.3,15.5-13.3ZM413.6,685.4c-4.1,0-7.3,2.3-7.3,6.4s3.1,6.3,7.3,6.3,7.3-2.3,7.3-6.3-3-6.4-7.3-6.4ZM437.1,676.8h8.6v29.1h-8.6v-29.1ZM406.8,708.2h38.9v16.1h-30.4v3.4h31.8v6.7h-40.3v-16.3h30.3v-3.3h-30.4v-6.6ZM468.9,679.9h8.7v6c0,6.9,3.7,13.7,12.9,16.5l-4.5,6.7c-6.1-2-10.3-5.9-12.8-10.8-2.5,5.7-6.9,10.2-13.5,12.5l-4.6-6.8c9.8-3.2,13.7-11.1,13.7-18.9v-5.1ZM493.4,676.8h8.6v13.3h7.7v7.1h-7.7v13.9h-8.6v-34.3ZM483,712.4c12.1,0,19.7,4.2,19.7,11.3s-7.6,11.3-19.7,11.3-19.8-4.2-19.8-11.3,7.6-11.3,19.8-11.3ZM483,719.1c-7.4,0-11.3,1.5-11.3,4.7s3.9,4.7,11.3,4.7,11.2-1.5,11.2-4.7-3.9-4.7-11.2-4.7ZM541.5,677.6c13.3,0,21.2,3.5,21.2,9.9s-7.9,10-21.2,10-21.2-3.5-21.2-10,7.8-9.9,21.2-9.9ZM541.5,683.9c-8.4,0-12.2,1.2-12.2,3.6s3.9,3.7,12.2,3.7,12.2-1.1,12.2-3.7-3.9-3.6-12.2-3.6ZM515.1,700.1h52.6v6.8h-52.6v-6.8ZM521.1,710h40.3v15.1h-31.8v3.1h33.3v6.5h-41.8v-15.5h31.7v-2.8h-31.8v-6.4ZM628.6,676.8h8.7v14.2h7.6v7.1h-7.6v13.8h-8.7v-35ZM599.2,714.3h38v20.1h-38v-20.1ZM628.8,721.1h-21.1v6.5h21.1v-6.5ZM591.3,681.9h12.8v-5.6h8.6v5.6h12.8v6.7h-34.2v-6.7ZM608.5,690.3c8.5,0,14.4,4.3,14.4,10.6s-5.9,10.4-14.4,10.4-14.4-4.1-14.4-10.4,5.9-10.6,14.4-10.6ZM608.5,696.7c-3.6,0-6.1,1.4-6.1,4.1s2.5,4.2,6.1,4.2,6-1.5,6-4.2-2.5-4.1-6-4.1ZM664.3,683.3c0,15-1.4,27.9-8.4,39.5l-6.7-3.6c5.8-9.1,7.4-17.7,7.8-29h-5.8v-6.9h13.1ZM677.4,683.3c0,5.2-.1,10.2-.5,15.1h4.4v-20.5h8.1v54.4h-8.1v-27h-5.2c-1.2,7.1-3.4,13.9-7.3,20.2l-6.6-3.6c6.3-10,7.6-19.8,7.9-31.7h-4v-6.9h11.3ZM692.6,676.8h8.2v58.3h-8.2v-58.3ZM746.4,676.8h8.6v22.6h8.3v7.1h-8.3v28.5h-8.6v-58.3ZM708.9,685.3h12.7v-7.5h8.7v7.5h12.6v6.9h-34v-6.9ZM726,695.3c8.5,0,14.8,5.8,14.8,13.9s-6.3,13.9-14.8,13.9-14.8-5.8-14.8-13.9,6.3-13.9,14.8-13.9ZM726,702.3c-3.9,0-6.5,2.5-6.5,6.9s2.7,6.9,6.5,6.9,6.5-2.5,6.5-6.9-2.7-6.9-6.5-6.9ZM774.6,678.8h8.5v13.5h31.9v6.8h-40.5v-20.3ZM768.1,705.1h52.8v6.8h-52.8v-6.8ZM774,716.4h8.6v10.5h32.8v6.9h-41.4v-17.4Z"/>
      <path class="st5" d="M351.3,799.6l17.7,48.4h-8.9l-4.6-12.7h-18.7l-4.8,12.7h-8.9l18.1-48.4h10.1ZM339.5,828.2h13.4l-6.6-18.1-6.8,18.1ZM379.4,799.6h8.4v48.4h-8.4v-48.4ZM398.5,800.7h8.7v-5.5h8.1v5.5h8.7v6.8h-8.7c0,5.7,3.2,11.1,10.5,13.7l-3.8,6.4c-5-1.7-8.5-5-10.5-9-2,4.5-5.4,8-10.7,10l-3.9-6.3c7.2-2.8,10.2-8.7,10.3-14.7h-8.7v-6.8ZM438.4,794.5h8.2v39.4h-8.2v-18.8h-4.1v13.6h-8v-33.3h8v12.8h4.1v-13.7ZM422.2,831.2h8.5v.8c0,5.9,5.7,12.3,18.4,13.9l-3.1,6.7c-9.5-1.4-16.1-5.2-19.6-10.5-3.6,5.2-10.2,9.1-19.6,10.5l-3.1-6.7c12.8-1.6,18.4-8,18.4-13.9v-.8ZM462.5,796.1h8.5v4.8h22.2v-4.8h8.5v22.1h-15.3v4.5h22v6.8h-52.6v-6.8h21.9v-4.5h-15.3v-22.1ZM471.1,807.3v4.3h22.2v-4.3h-22.2ZM477.7,832.4h8.8v1c0,5.4,5.4,11.2,18.4,12.6l-3,6.6c-9.6-1.2-16.3-4.8-19.9-9.8-3.6,5-10.2,8.5-19.8,9.8l-3-6.6c13-1.4,18.4-7.2,18.4-12.6v-1ZM533.7,800.3h23v15.2h5.3v-20.2h8v54.8h-8v-27.6h-5.3v15.8h-23v-37.9ZM548.7,807.1h-7.1v24.5h7.1v-24.5ZM574,794.4h8.2v58.3h-8.2v-58.3ZM630.7,794.4h8.7v58.5h-8.7v-58.5ZM607.9,798.4c8.9,0,15.3,8.1,15.3,20.8s-6.5,21-15.3,21-15.3-8.1-15.3-21,6.5-20.8,15.3-20.8ZM607.9,806.3c-4.2,0-7.1,4.5-7.1,12.9s2.8,13.1,7.1,13.1,7.1-4.5,7.1-13.1-2.8-12.9-7.1-12.9ZM656.1,798.6h40.6v6.9h-31.8v6h30.5v6.7h-30.5v6.2h32.3v6.8h-41v-32.5ZM649.9,839.1h52.8v7h-52.8v-7Z"/>
    </g>
  </g>
</svg>