<svg width="62" height="32" viewBox="0 0 62 32" fill="none" xmlns="http://www.w3.org/2000/svg">
<path d="M20.5523 11.2683C20.9759 11.2683 21.316 10.9504 21.316 10.5599V4.97014C21.316 4.57713 20.9732 4.26172 20.5523 4.26172H1.53009C0.685438 4.26172 0 4.89754 0 5.68106V28.4957C0 28.6835 0.0809615 28.8637 0.223985 28.9964L3.23828 31.7925C3.53782 32.0704 4.02086 32.0704 4.3204 31.7925L7.3347 28.9964C7.47772 28.8637 7.55868 28.6835 7.55868 28.4957V25.2891H20.5577C20.9813 25.2891 21.3213 24.9712 21.3213 24.5807V18.9909C21.3213 18.5979 20.9786 18.2825 20.5577 18.2825H7.55868V11.2733L20.5523 11.2683Z" fill="#FF9524"/>
<path d="M59.7375 8.47256C59.1518 8.70479 60.0264 7.7601 57.6889 7.7601C56.0763 7.7601 54.9664 7.53616 54.3647 6.9893C53.7629 6.44244 53.4634 5.41366 53.4634 3.90542C53.4634 2.39719 53.7656 1.3709 54.3647 0.821546C54.9664 0.274688 56.0736 0 57.6889 0C59.3043 0 60.3981 0.274688 60.9704 0.821546C61.5428 1.3709 61.8289 2.39719 61.8289 3.90542C61.8289 7.50121 60.3259 8.23784 59.7375 8.47256Z" fill="url(#paint0_linear_1712_48534)"/>
<path fill-rule="evenodd" clip-rule="evenodd" d="M59.6077 2.85561C59.7063 2.97332 59.6874 3.14596 59.5657 3.24122L57.0666 5.19611C57.0063 5.24329 56.9286 5.26453 56.8517 5.25489C56.7748 5.24524 56.7053 5.20556 56.6594 5.14508L55.6779 3.85097C55.5853 3.72884 55.6127 3.55727 55.739 3.46774C55.8654 3.37822 56.0429 3.40465 56.1355 3.52677L56.941 4.58892L59.2088 2.81497C59.3306 2.71971 59.5092 2.7379 59.6077 2.85561Z" fill="white"/>
<path d="M60.6282 11.2668L54.6023 12.0278C54.2245 12.0754 53.9412 12.3758 53.9412 12.7312V31.2854C53.9412 31.6784 54.2839 31.9938 54.7049 31.9938H60.7308C61.1544 31.9938 61.4944 31.6759 61.4944 31.2854V11.9678C61.4944 11.5372 61.0843 11.2068 60.6255 11.2643L60.6282 11.2668Z" fill="#FF9524"/>
<path d="M41.288 4.25781H33.732C29.56 4.25781 26.176 7.3969 26.176 11.2669V31.2629C26.176 31.656 26.5403 31.9914 26.9613 31.9914L32.9953 31.9964C33.419 31.9964 33.759 31.6785 33.759 31.288V25.3052H41.2853V31.288C41.2853 31.681 41.628 31.9964 42.049 31.9964H48.0749C48.4985 31.9964 48.8386 31.6785 48.8386 31.288V11.2669C48.8386 7.3969 45.4546 4.25781 41.2826 4.25781H41.288ZM41.288 18.2585H33.732V12.0479C33.732 11.6149 34.1098 11.2644 34.5766 11.2644H40.446C40.9129 11.2644 41.2907 11.6149 41.2907 12.0479V18.2585H41.288Z" fill="#FF9524"/>
<defs>
<linearGradient id="paint0_linear_1712_48534" x1="57.6462" y1="8.51252" x2="57.6462" y2="0.00249662" gradientUnits="userSpaceOnUse">
<stop stop-color="#F09842"/>
<stop offset="1" stop-color="#5656F5"/>
</linearGradient>
</defs>
</svg>
