<svg width="62" height="32" viewBox="0 0 62 32" fill="none" xmlns="http://www.w3.org/2000/svg">
<path d="M29.8882 31.7801V31.705C29.8882 31.5875 29.7929 31.4922 29.6754 31.4922H3.10642C2.98891 31.4922 2.89366 31.5875 2.89366 31.705V31.7801C2.89366 31.8976 2.98891 31.9928 3.10642 31.9928H29.6754C29.7929 31.9928 29.8882 31.8976 29.8882 31.7801Z" fill="white"/>
<path d="M17.0194 4.26032H13.2221C12.8291 4.26032 12.5137 4.57823 12.5137 4.96873V10.5584C12.5137 10.9514 12.8316 11.2668 13.2221 11.2668H16.2359C16.669 11.2668 17.0194 11.6172 17.0194 12.0503V17.4947C17.0194 17.9278 16.669 18.2783 16.2359 18.2783H13.2221C12.8291 18.2783 12.5137 18.5962 12.5137 18.9867V24.5763C12.5137 24.9693 12.8316 25.2847 13.2221 25.2847H17.0194C20.8894 25.2847 24.0284 22.1457 24.0284 18.2757V11.2668C24.0284 7.39683 20.8894 4.25781 17.0194 4.25781V4.26032Z" fill="white"/>
<path d="M10.8038 11.2682C11.1968 11.2682 11.5122 10.9503 11.5122 10.5598V4.97013C11.5122 4.57713 11.1943 4.26172 10.8038 4.26172H1.41932C0.635817 4.26172 0 4.89753 0 5.68103V28.4952C0 28.683 0.0751004 28.8632 0.20777 28.9959L3.00384 31.7919C3.2817 32.0698 3.72977 32.0698 4.00763 31.7919L6.80371 28.9959C6.93638 28.8632 7.01147 28.683 7.01147 28.4952V25.2886H10.8088C11.2018 25.2886 11.5172 24.9707 11.5172 24.5802V18.9906C11.5172 18.5975 11.1993 18.2822 10.8088 18.2822H7.01147V11.2732L10.8038 11.2682Z" fill="white"/>
<path d="M59.8893 8.47238C59.346 8.7046 60.1572 7.75993 57.989 7.75993C56.4931 7.75993 55.4635 7.536 54.9054 6.98915C54.3472 6.4423 54.0693 5.41354 54.0693 3.90534C54.0693 2.39714 54.3497 1.37087 54.9054 0.821529C55.4635 0.274682 56.4906 0 57.989 0C59.4874 0 60.502 0.274682 61.0329 0.821529C61.5638 1.37087 61.8293 2.39714 61.8293 3.90534C61.8293 7.50105 60.4351 8.23766 59.8893 8.47238Z" fill="white"/>
<path fill-rule="evenodd" clip-rule="evenodd" d="M59.7675 2.85365C59.8589 2.97136 59.8415 3.144 59.7285 3.23926L57.4104 5.1941C57.3544 5.24128 57.2824 5.26252 57.211 5.25288C57.1396 5.24324 57.0752 5.20356 57.0326 5.14308L56.1222 3.84899C56.0363 3.72687 56.0617 3.5553 56.1789 3.46577C56.2961 3.37625 56.4607 3.40268 56.5466 3.5248L57.2939 4.58693L59.3974 2.81301C59.5104 2.71775 59.6761 2.73595 59.7675 2.85365Z" fill="url(#paint0_linear_2606_52986)"/>
<path d="M60.7152 11.2649L55.1255 12.0259C54.775 12.0734 54.5122 12.3738 54.5122 12.7293V31.283C54.5122 31.676 54.8301 31.9914 55.2206 31.9914H60.8103C61.2033 31.9914 61.5187 31.6735 61.5187 31.283V11.9658C61.5187 11.5352 61.1382 11.2048 60.7126 11.2624L60.7152 11.2649Z" fill="white"/>
<path d="M42.7748 4.25781H35.7658C31.8959 4.25781 28.7568 7.39683 28.7568 11.2668V31.2624C28.7568 31.6554 29.0948 31.9908 29.4853 31.9908L35.0824 31.9958C35.4754 31.9958 35.7908 31.6779 35.7908 31.2874V25.3047H42.7723V31.2874C42.7723 31.6804 43.0902 31.9958 43.4807 31.9958H49.0703C49.4633 31.9958 49.7787 31.6779 49.7787 31.2874V11.2668C49.7787 7.39683 46.6397 4.25781 42.7698 4.25781H42.7748ZM42.7748 18.2582H35.7658V12.0478C35.7658 11.6147 36.1162 11.2643 36.5493 11.2643H41.9938C42.4268 11.2643 42.7773 11.6147 42.7773 12.0478V18.2582H42.7748Z" fill="white"/>
<defs>
<linearGradient id="paint0_linear_2606_52986" x1="56.6753" y1="3.15688" x2="58.8971" y2="7.70857" gradientUnits="userSpaceOnUse">
<stop stop-color="#5B4DFF"/>
<stop offset="1" stop-color="#FF9524"/>
</linearGradient>
</defs>
</svg>
