<svg width="92" height="48" viewBox="0 0 92 48" fill="none" xmlns="http://www.w3.org/2000/svg">
<path fill-rule="evenodd" clip-rule="evenodd" d="M9.17157 11.1716C9.92172 10.4214 10.9391 10 12 10H36C37.0609 10 38.0783 10.4214 38.8284 11.1716C39.5786 11.9217 40 12.9391 40 14V30C40 31.0609 39.5786 32.0783 38.8284 32.8284C38.0783 33.5786 37.0609 34 36 34H26C25.6375 34 25.2818 34.0985 24.971 34.285L18 38.4676V36C18 34.8954 17.1046 34 16 34H12C10.9391 34 9.92172 33.5786 9.17157 32.8284C8.42143 32.0783 8 31.0609 8 30V14C8 12.9391 8.42143 11.9217 9.17157 11.1716ZM12 6C9.87827 6 7.84344 6.84285 6.34315 8.34315C4.84285 9.84344 4 11.8783 4 14V30C4 32.1217 4.84285 34.1566 6.34315 35.6569C7.84344 37.1571 9.87827 38 12 38H14V42C14 42.7205 14.3876 43.3854 15.0146 43.7404C15.6416 44.0954 16.4111 44.0857 17.029 43.715L26.554 38H36C38.1217 38 40.1566 37.1571 41.6569 35.6569C43.1571 34.1566 44 32.1217 44 30V14C44 11.8783 43.1571 9.84344 41.6569 8.34315C40.1566 6.84285 38.1217 6 36 6H12ZM36.114 19.3739L32.67 19.8044V27.984H36.114V19.3739ZM32.9455 18.2718C33.2095 18.5244 33.6917 18.6507 34.392 18.6507C35.1038 18.6507 35.5802 18.5244 35.8213 18.2718C36.0738 18.0193 36.2001 17.5428 36.2001 16.8426C36.2001 16.1308 36.0681 15.6486 35.804 15.3961C35.5515 15.132 35.0808 15 34.392 15C33.6917 15 33.2095 15.132 32.9455 15.3961C32.6929 15.6486 32.5667 16.1308 32.5667 16.8426C32.5667 17.5428 32.6929 18.0193 32.9455 18.2718ZM20.8623 27.9824L23.6176 17.2198H28.973L31.7283 27.9824H28.2842L27.8472 26.2776H24.7434L24.3064 27.9824H20.8623ZM26.3728 20.5261L27.2071 23.7807H25.3835L26.2178 20.5261H26.3728ZM15.444 27.9824V25.3821H17.1661C18.4863 25.3821 19.4621 25.0435 20.0935 24.3662C20.7249 23.6773 21.0406 22.6212 21.0406 21.1976C21.0406 20.2563 20.8971 19.4928 20.6101 18.9074C20.3346 18.3219 19.8926 17.8971 19.2841 17.6331C18.6757 17.3575 17.8836 17.2198 16.9077 17.2198H12V27.9824H15.444ZM16.7528 22.8852H15.444V20.0611H16.7528C17.0053 20.0611 17.1775 20.1128 17.2694 20.2161C17.3727 20.3194 17.4244 20.5088 17.4244 20.7844V22.162C17.4244 22.4375 17.3727 22.6269 17.2694 22.7302C17.1775 22.8336 17.0053 22.8852 16.7528 22.8852Z" fill="#262627"/>
<path d="M86.1052 19.65L91.3052 19V32H86.1052V19.65ZM88.7052 17.908C87.6479 17.908 86.9199 17.7173 86.5212 17.336C86.1399 16.9547 85.9492 16.2353 85.9492 15.178C85.9492 14.1033 86.1399 13.3753 86.5212 12.994C86.9199 12.5953 87.6479 12.396 88.7052 12.396C89.7452 12.396 90.4559 12.5953 90.8372 12.994C91.2359 13.3753 91.4352 14.1033 91.4352 15.178C91.4352 16.2353 91.2445 16.9547 90.8632 17.336C90.4992 17.7173 89.7799 17.908 88.7052 17.908Z" fill="url(#paint0_linear_1322_27897)"/>
<path d="M67.4785 32L71.6385 15.75H79.7245L83.8845 32H78.6845L75.7985 20.742H75.5645L72.6785 32H67.4785ZM70.5205 29.426V25.656H80.8425V29.426H70.5205Z" fill="url(#paint1_linear_1322_27897)"/>
<path d="M58.4998 28.074V32H53.2998V15.75H60.7098C62.1831 15.75 63.3791 15.958 64.2978 16.374C65.2165 16.7727 65.8838 17.414 66.2998 18.298C66.7331 19.182 66.9498 20.3347 66.9498 21.756C66.9498 23.9053 66.4731 25.5 65.5198 26.54C64.5665 27.5627 63.0931 28.074 61.0998 28.074H58.4998ZM58.4998 24.304H60.4758C60.8571 24.304 61.1171 24.226 61.2558 24.07C61.4118 23.914 61.4898 23.628 61.4898 23.212V21.132C61.4898 20.716 61.4118 20.43 61.2558 20.274C61.1171 20.118 60.8571 20.04 60.4758 20.04H58.4998V24.304Z" fill="url(#paint2_linear_1322_27897)"/>
<defs>
<linearGradient id="paint0_linear_1322_27897" x1="86.8317" y1="15.5672" x2="99.7639" y2="19.6499" gradientUnits="userSpaceOnUse">
<stop stop-color="#5B4DFF"/>
<stop offset="1" stop-color="#FF9524"/>
</linearGradient>
<linearGradient id="paint1_linear_1322_27897" x1="70.1175" y1="18.3787" x2="88.6304" y2="39.4642" gradientUnits="userSpaceOnUse">
<stop stop-color="#5B4DFF"/>
<stop offset="1" stop-color="#FF9524"/>
</linearGradient>
<linearGradient id="paint2_linear_1322_27897" x1="55.4955" y1="18.3787" x2="74.1384" y2="36.0453" gradientUnits="userSpaceOnUse">
<stop stop-color="#5B4DFF"/>
<stop offset="1" stop-color="#FF9524"/>
</linearGradient>
</defs>
</svg>
