<svg width="59" height="31" viewBox="0 0 59 31" fill="none" xmlns="http://www.w3.org/2000/svg">
<path d="M28.5205 30.3255V30.2538C28.5205 30.1417 28.4296 30.0508 28.3175 30.0508H2.96419C2.85206 30.0508 2.76116 30.1417 2.76116 30.2538V30.3255C2.76116 30.4376 2.85206 30.5285 2.96419 30.5285H28.3175C28.4296 30.5285 28.5205 30.4376 28.5205 30.3255Z" fill="url(#paint0_linear_1654_18336)"/>
<path d="M16.241 4.06294H12.6174C12.2424 4.06294 11.9414 4.3663 11.9414 4.73893V10.0728C11.9414 10.4478 12.2448 10.7488 12.6174 10.7488H15.4933C15.9066 10.7488 16.241 11.0832 16.241 11.4965V16.6918C16.241 17.105 15.9066 17.4395 15.4933 17.4395H12.6174C12.2424 17.4395 11.9414 17.7428 11.9414 18.1155V23.4493C11.9414 23.8243 12.2448 24.1253 12.6174 24.1253H16.241C19.9339 24.1253 22.9293 21.1299 22.9293 17.4371V10.7488C22.9293 7.05593 19.9339 4.06055 16.241 4.06055V4.06294Z" fill="url(#paint1_linear_1654_18336)"/>
<path d="M10.3095 10.7523C10.6845 10.7523 10.9855 10.4489 10.9855 10.0763V4.7424C10.9855 4.36738 10.6821 4.06641 10.3095 4.06641H1.35438C0.606724 4.06641 0 4.67312 0 5.42077V27.1911C0 27.3702 0.071664 27.5422 0.198263 27.6688L2.8664 30.3369C3.13154 30.6021 3.55911 30.6021 3.82425 30.3369L6.49239 27.6688C6.61899 27.5422 6.69065 27.3702 6.69065 27.1911V24.1312H10.3143C10.6893 24.1312 10.9902 23.8278 10.9902 23.4552V18.1213C10.9902 17.7463 10.6869 17.4453 10.3143 17.4453H6.69065V10.7571H10.3143L10.3095 10.7523Z" fill="url(#paint2_linear_1654_18336)"/>
<path d="M57.1479 8.08471C56.6294 8.30631 57.4036 7.40486 55.3345 7.40486C53.9071 7.40486 52.9247 7.19117 52.392 6.66935C51.8594 6.14752 51.5942 5.16583 51.5942 3.72664C51.5942 2.28746 51.8617 1.30815 52.392 0.783938C52.9247 0.262113 53.9047 0 55.3345 0C56.7644 0 57.7326 0.262113 58.2392 0.783938C58.7458 1.30815 58.9991 2.28746 58.9991 3.72664C58.9991 7.15782 57.6687 7.86073 57.1479 8.08471Z" fill="url(#paint3_linear_1654_18336)"/>
<path fill-rule="evenodd" clip-rule="evenodd" d="M57.0329 2.724C57.1202 2.83632 57.1035 3.00106 56.9957 3.09196L54.7837 4.95736C54.7303 5.00238 54.6615 5.02264 54.5934 5.01344C54.5253 5.00424 54.4638 4.96638 54.4232 4.90867L53.5545 3.6738C53.4725 3.55726 53.4967 3.39354 53.6085 3.30811C53.7204 3.22269 53.8775 3.24791 53.9595 3.36444L54.6725 4.37797L56.6798 2.68522C56.7876 2.59432 56.9457 2.61168 57.0329 2.724Z" fill="white"/>
<path d="M57.9372 10.7508L52.6033 11.477C52.2689 11.5223 52.0181 11.809 52.0181 12.1482V29.853C52.0181 30.228 52.3214 30.5289 52.6941 30.5289H58.028C58.403 30.5289 58.7039 30.2256 58.7039 29.853V11.4196C58.7039 11.0088 58.3409 10.6935 57.9348 10.7484L57.9372 10.7508Z" fill="#5656F5"/>
<path d="M40.817 4.06445H34.1287C30.4358 4.06445 27.4404 7.05984 27.4404 10.7527V29.8334C27.4404 30.2084 27.7629 30.5285 28.1355 30.5285L33.4766 30.5332C33.8516 30.5332 34.1526 30.2299 34.1526 29.8572V24.1483H40.8146V29.8572C40.8146 30.2323 41.1179 30.5332 41.4905 30.5332H46.8244C47.1995 30.5332 47.5004 30.2299 47.5004 29.8572V10.7527C47.5004 7.05984 44.505 4.06445 40.8122 4.06445H40.817ZM40.817 17.4242H34.1287V11.498C34.1287 11.0847 34.4631 10.7503 34.8763 10.7503H40.0717C40.4849 10.7503 40.8193 11.0847 40.8193 11.498V17.4242H40.817Z" fill="url(#paint4_linear_1654_18336)"/>
<defs>
<linearGradient id="paint0_linear_1654_18336" x1="2.76355" y1="-146.438" x2="28.5205" y2="-146.438" gradientUnits="userSpaceOnUse">
<stop stop-color="#7A99A6" stop-opacity="0"/>
<stop offset="1" stop-color="#AEC0CF"/>
</linearGradient>
<linearGradient id="paint1_linear_1654_18336" x1="11.9414" y1="-146.437" x2="22.9293" y2="-146.437" gradientUnits="userSpaceOnUse">
<stop stop-color="#9571AA"/>
<stop offset="0.15" stop-color="#7E67C5"/>
<stop offset="0.3" stop-color="#6C5FDA"/>
<stop offset="0.48" stop-color="#5F5AE9"/>
<stop offset="0.69" stop-color="#5857F2"/>
<stop offset="1" stop-color="#5656F5"/>
</linearGradient>
<linearGradient id="paint2_linear_1654_18336" x1="-0.00238866" y1="-146.436" x2="10.9855" y2="-146.436" gradientUnits="userSpaceOnUse">
<stop stop-color="#F09842"/>
<stop offset="0.25" stop-color="#ED9644"/>
<stop offset="0.44" stop-color="#E5934E"/>
<stop offset="0.6" stop-color="#D78D5D"/>
<stop offset="0.74" stop-color="#C48574"/>
<stop offset="0.88" stop-color="#AC7A90"/>
<stop offset="1" stop-color="#916FB0"/>
</linearGradient>
<linearGradient id="paint3_linear_1654_18336" x1="55.2967" y1="8.12283" x2="55.2967" y2="0.00238233" gradientUnits="userSpaceOnUse">
<stop stop-color="#5656F5"/>
<stop offset="1" stop-color="#F09842"/>
</linearGradient>
<linearGradient id="paint4_linear_1654_18336" x1="27.4691" y1="29.9791" x2="48.0283" y2="8.50498" gradientUnits="userSpaceOnUse">
<stop stop-color="#AEC0CF"/>
<stop offset="0.36" stop-color="#5656F5"/>
</linearGradient>
</defs>
</svg>
