<svg width="343" height="106" viewBox="0 0 343 106" fill="none" xmlns="http://www.w3.org/2000/svg">
<mask id="path-1-inside-1_163_13985" fill="white">
<path d="M0 32C0 14.3269 14.3269 0 32 0H311C328.673 0 343 14.3269 343 32V74C343 91.6731 328.673 106 311 106H32C14.3269 106 0 91.6731 0 74V32Z"/>
</mask>
<path d="M0 32C0 14.3269 14.3269 0 32 0H311C328.673 0 343 14.3269 343 32V74C343 91.6731 328.673 106 311 106H32C14.3269 106 0 91.6731 0 74V32Z" fill="white"/>
<path d="M32 1H311V-1H32V1ZM342 32V74H344V32H342ZM311 105H32V107H311V105ZM1 74V32H-1V74H1ZM32 105C14.8792 105 1 91.1208 1 74H-1C-1 92.2254 13.7746 107 32 107V105ZM342 74C342 91.1208 328.121 105 311 105V107C329.225 107 344 92.2254 344 74H342ZM311 1C328.121 1 342 14.8792 342 32H344C344 13.7746 329.225 -1 311 -1V1ZM32 -1C13.7746 -1 -1 13.7746 -1 32H1C1 14.8792 14.8792 1 32 1V-1Z" fill="#D8D8D9" mask="url(#path-1-inside-1_163_13985)"/>
<g clip-path="url(#clip0_163_13985)">
<rect x="20" y="16" width="74" height="74" rx="16" fill="#FFDFBD"/>
<g filter="url(#filter0_b_163_13985)">
<path d="M36.5 53.4C36.5 42.1334 45.6334 33 56.9 33C68.1666 33 77.3 42.1334 77.3 53.4C77.3 64.6666 68.1666 73.8 56.9 73.8C45.6334 73.8 36.5 64.6666 36.5 53.4Z" fill="url(#paint0_linear_163_13985)"/>
<path fill-rule="evenodd" clip-rule="evenodd" d="M58.0998 45.0008C58.0998 44.338 57.5625 43.8008 56.8998 43.8008C56.2371 43.8008 55.6998 44.338 55.6998 45.0008V52.2008H48.4998C47.8371 52.2008 47.2998 52.738 47.2998 53.4008C47.2998 54.0635 47.8371 54.6008 48.4998 54.6008H55.6998V61.8008C55.6998 62.4635 56.2371 63.0008 56.8998 63.0008C57.5625 63.0008 58.0998 62.4635 58.0998 61.8008V54.6008H65.2998C65.9625 54.6008 66.4998 54.0635 66.4998 53.4008C66.4998 52.738 65.9625 52.2008 65.2998 52.2008H58.0998V45.0008Z" fill="white"/>
</g>
<path d="M41.2564 66.392C40.5264 66.7036 39.9183 67.0299 39.4158 67.3465" stroke="#211815" stroke-width="3.83174" stroke-miterlimit="10" stroke-linecap="round"/>
<path d="M29.2175 66.6665C29.1852 66.6646 28.3097 65.1091 31.3946 63.7923" stroke="#211815" stroke-width="3.83174" stroke-miterlimit="10" stroke-linecap="round"/>
<path d="M28.69 74.9193C28.7223 74.9212 24.6867 79.7321 19.6964 79.4287" stroke="#211815" stroke-width="3.83174" stroke-miterlimit="10" stroke-linecap="round"/>
<g filter="url(#filter1_i_163_13985)">
<path d="M40.2119 75.3545C37.7177 79.0507 32.6995 80.0252 29.0033 77.531C25.3071 75.0369 24.3326 70.0186 26.8267 66.3224C29.3209 62.6262 34.3391 61.6518 38.0353 64.1459C41.7315 66.6401 42.706 71.6583 40.2119 75.3545Z" fill="#B9B2FF" fill-opacity="0.6"/>
</g>
<g filter="url(#filter2_i_163_13985)">
<path fill-rule="evenodd" clip-rule="evenodd" d="M39.6825 74.9973C37.3856 78.4012 32.7643 79.2985 29.3605 77.0017C25.9566 74.7048 25.0592 70.0835 27.3561 66.6797C29.653 63.2758 34.2743 62.3784 37.6781 64.6753C41.082 66.9722 41.9794 71.5935 39.6825 74.9973ZM29.0033 77.531C32.6995 80.0252 37.7177 79.0507 40.2119 75.3545C42.706 71.6583 41.7315 66.6401 38.0353 64.1459C34.3391 61.6518 29.3209 62.6262 26.8267 66.3224C24.3326 70.0186 25.3071 75.0369 29.0033 77.531Z" fill="white"/>
</g>
<path fill-rule="evenodd" clip-rule="evenodd" d="M32.675 66.0082C33.2408 66.9023 34.4243 67.1684 35.3184 66.6025L34.2938 64.9837C35.3184 66.6025 35.3183 66.6026 35.3184 66.6025L35.3345 66.5923L35.375 66.5665C35.4099 66.5442 35.4602 66.5119 35.5241 66.4706C35.652 66.3881 35.8346 66.2691 36.0575 66.1214C36.5026 65.8265 37.1127 65.4138 37.7709 64.9438C39.017 64.0541 40.6712 62.7962 41.5662 61.7109C42.2395 60.8946 42.1235 59.6871 41.3071 59.0139C40.4908 58.3407 39.2833 58.4567 38.6101 59.273C38.0827 59.9125 36.8398 60.9004 35.5443 61.8254C34.9318 62.2627 34.36 62.6496 33.9408 62.9274C33.7317 63.066 33.5616 63.1767 33.4448 63.2522C33.3864 63.2899 33.3414 63.3187 33.3116 63.3378L33.2784 63.359L33.2693 63.3648C33.2692 63.3648 33.2693 63.3647 33.2693 63.3648C32.3753 63.9307 32.1091 65.1142 32.675 66.0082Z" fill="#211815"/>
<path d="M41.2549 66.3916C41.2872 66.3935 40.3796 67.9725 37.2946 69.2894" stroke="#211815" stroke-width="3.83174" stroke-miterlimit="10" stroke-linecap="round"/>
<path d="M29.4936 34.3353L28.3403 29.7171L29.1556 28.3591L32.202 27.5983L33.5115 28.3845L33.7029 29.151L32.7715 29.3836L32.6625 28.947L31.9593 28.5248L29.8054 29.0627L29.3541 29.8144L30.3427 33.7728L31.0944 34.2241L33.2483 33.6863L33.6704 32.983L33.5614 32.5464L34.4928 32.3138L34.6842 33.0803L33.8981 34.3898L30.8516 35.1506L29.4936 34.3353ZM35.1046 26.7292L36.0069 26.5038L37.7369 33.4311L36.8346 33.6564L35.1046 26.7292ZM38.3974 26.9891L38.2762 26.504L38.5286 26.0699L39.0428 25.9415L39.4696 26.206L39.5907 26.6911L39.3384 27.1252L38.8242 27.2536L38.3974 26.9891ZM38.8119 28.0297L39.7141 27.8044L40.9208 32.636L40.0185 32.8613L38.8119 28.0297ZM42.8243 31.1814L42.0781 28.1932L42.7696 27.0413L45.2048 26.4332L46.3688 27.132L46.5408 27.8208L45.6385 28.0461L45.5392 27.6484L44.9936 27.3208L43.383 27.723L43.0555 28.2686L43.6515 30.6553L44.1971 30.9829L45.8077 30.5807L46.1352 30.0351L46.0359 29.6373L46.9382 29.4119L47.1102 30.1008L46.4114 31.2648L43.9762 31.8729L42.8243 31.1814ZM47.4562 23.6446L48.3585 23.4193L49.3615 27.4359L50.3997 27.1767L51.2782 24.9164L52.2775 24.6669L51.2388 27.4L53.5811 29.4743L52.5818 29.7238L50.5886 27.9746L49.5602 28.2315L50.0884 30.3465L49.1861 30.5718L47.4562 23.6446ZM53.8988 23.5611L53.5741 22.261L54.5055 22.0284L54.8302 23.3285L55.632 27.1584L54.9917 27.3183L53.8988 23.5611ZM55.1053 28.7638L54.9914 28.3078L55.2243 27.9198L55.7094 27.7987L56.0974 28.0316L56.2113 28.4876L55.9784 28.8756L55.4933 28.9967L55.1053 28.7638Z" fill="#262627"/>
</g>
<path d="M111.89 38.368H120.304V41.896H111.89V38.368ZM119.114 39.278H113.08V40.972H119.114V39.278ZM111.106 30.724H115.488V29.562H116.706V30.724H121.018V31.676H111.106V30.724ZM116.09 32.124C118.652 32.124 120.08 32.74 120.08 33.874C120.08 34.924 118.876 35.526 116.706 35.61V36.52H121.662V37.472H110.532V36.52H115.488V35.61C113.304 35.526 112.1 34.924 112.1 33.874C112.1 32.74 113.528 32.124 116.09 32.124ZM116.09 32.978C114.34 32.978 113.388 33.3 113.388 33.874C113.388 34.462 114.34 34.784 116.09 34.784C117.854 34.784 118.806 34.462 118.806 33.874C118.806 33.3 117.854 32.978 116.09 32.978ZM132.878 29.73H134.04V42.05H132.878V29.73ZM130.428 29.996H131.576V41.434H130.428V35.484H128.958C128.86 37.906 127.852 39.376 126.326 39.376C124.744 39.376 123.708 37.724 123.708 35.05C123.708 32.39 124.744 30.738 126.326 30.738C127.824 30.738 128.818 32.166 128.958 34.49H130.428V29.996ZM126.326 31.872C125.402 31.872 124.814 33.062 124.814 35.05C124.814 37.038 125.402 38.242 126.326 38.242C127.278 38.242 127.852 37.038 127.852 35.05C127.852 33.062 127.278 31.872 126.326 31.872ZM142.751 33.874H145.551V29.716H146.755V42.078H145.551V34.868H142.751V33.874ZM139.741 30.78H140.945V32.936C140.945 35.176 142.261 37.43 144.081 38.284L143.367 39.264C141.981 38.55 140.903 37.122 140.357 35.414C139.811 37.22 138.705 38.732 137.319 39.474L136.563 38.494C138.397 37.598 139.741 35.218 139.741 32.936V30.78ZM151.041 30.696H159.399V31.676H152.259V35.442H159.525V36.436H155.801V39.516H160.799V40.524H149.641V39.516H154.597V36.436H151.041V30.696ZM174.978 29.716H176.21V34.686H178.128V35.708H176.21V42.05H174.978V29.716ZM173.018 31.046C173.018 34.574 171.436 37.738 167.432 39.74L166.746 38.816C169.854 37.248 171.52 34.938 171.786 32.04H167.348V31.046H173.018ZM181.252 29.982H182.442V33.118H189.624V34.098H181.252V29.982ZM179.754 35.47H190.884V36.464H179.754V35.47ZM185.298 37.528C187.93 37.528 189.526 38.34 189.526 39.768C189.526 41.196 187.93 42.022 185.298 42.022C182.652 42.022 181.07 41.196 181.07 39.768C181.07 38.34 182.652 37.528 185.298 37.528ZM185.298 38.48C183.408 38.48 182.288 38.942 182.288 39.768C182.288 40.594 183.408 41.056 185.298 41.056C187.188 41.056 188.294 40.594 188.294 39.768C188.294 38.942 187.188 38.48 185.298 38.48ZM201.135 29.744H202.353V33.748H204.159V34.756H202.353V38.984H201.135V29.744ZM192.805 31.2H195.843V29.744H197.047V31.2H200.085V32.18H192.805V31.2ZM196.445 32.824C198.195 32.824 199.399 33.748 199.399 35.134C199.399 36.534 198.195 37.444 196.445 37.444C194.695 37.444 193.491 36.534 193.491 35.134C193.491 33.748 194.695 32.824 196.445 32.824ZM196.445 33.776C195.367 33.776 194.639 34.294 194.639 35.134C194.639 35.974 195.367 36.492 196.445 36.492C197.509 36.492 198.237 35.974 198.237 35.134C198.237 34.294 197.509 33.776 196.445 33.776ZM194.653 38.242H195.857V40.804H202.899V41.784H194.653V38.242Z" fill="#58585B"/>
<g filter="url(#filter3_b_163_13985)">
<path d="M110 67C110 58.7157 116.716 52 125 52C133.284 52 140 58.7157 140 67C140 75.2843 133.284 82 125 82C116.716 82 110 75.2843 110 67Z" fill="#E7E5FF"/>
<path fill-rule="evenodd" clip-rule="evenodd" d="M130.109 61.7896C130.109 61.1356 129.579 60.6054 128.925 60.6054H119.79C119.136 60.6054 118.605 61.1356 118.605 61.7896V70.925C118.605 71.579 119.136 72.1092 119.79 72.1092H128.925C129.579 72.1092 130.109 71.579 130.109 70.925V61.7896ZM119.62 59.9287C118.686 59.9287 117.929 60.6861 117.929 61.6204V71.0941C117.929 72.0284 118.686 72.7859 119.62 72.7859H129.094C130.028 72.7859 130.786 72.0284 130.786 71.0941V61.6204C130.786 60.6861 130.028 59.9287 129.094 59.9287H119.62Z" fill="white"/>
<path fill-rule="evenodd" clip-rule="evenodd" d="M118.943 61.9584C118.943 61.3978 119.398 60.9434 119.958 60.9434H128.755C129.316 60.9434 129.77 61.3978 129.77 61.9584V70.7554C129.77 71.316 129.316 71.7704 128.755 71.7704H119.958C119.398 71.7704 118.943 71.316 118.943 70.7554V61.9584ZM123.68 68.8945C123.68 68.6142 123.907 68.387 124.188 68.387H127.571C127.851 68.387 128.079 68.6142 128.079 68.8945C128.079 69.1748 127.851 69.402 127.571 69.402H124.188C123.907 69.402 123.68 69.1748 123.68 68.8945ZM121.481 69.402C121.761 69.402 121.988 69.1748 121.988 68.8945C121.988 68.6142 121.761 68.387 121.481 68.387C121.201 68.387 120.973 68.6142 120.973 68.8945C120.973 69.1748 121.201 69.402 121.481 69.402ZM124.695 65.511C124.695 65.2307 124.905 65.0035 125.164 65.0035H128.287C128.546 65.0035 128.755 65.2307 128.755 65.511C128.755 65.7913 128.546 66.0185 128.287 66.0185H125.164C124.905 66.0185 124.695 65.7913 124.695 65.511ZM125.174 63.4519C125.438 63.1877 125.438 62.7592 125.174 62.4949C124.909 62.2307 124.481 62.2307 124.217 62.4949L121.65 65.0616L120.775 64.1867C120.511 63.9224 120.083 63.9224 119.818 64.1867C119.554 64.4509 119.554 64.8794 119.818 65.1437L120.932 66.2578C121.329 66.6542 121.971 66.6542 122.368 66.2578L125.174 63.4519Z" fill="white"/>
<path fill-rule="evenodd" clip-rule="evenodd" d="M123.681 68.8942C123.681 68.6139 123.908 68.3867 124.188 68.3867H127.572C127.852 68.3867 128.079 68.6139 128.079 68.8942C128.079 69.1745 127.852 69.4018 127.572 69.4018H124.188C123.908 69.4018 123.681 69.1745 123.681 68.8942Z" fill="url(#paint1_linear_163_13985)"/>
<ellipse cx="121.481" cy="68.8942" rx="0.507519" ry="0.507518" fill="url(#paint2_linear_163_13985)"/>
<path fill-rule="evenodd" clip-rule="evenodd" d="M124.695 65.5114C124.695 65.2311 124.905 65.0039 125.164 65.0039H128.287C128.546 65.0039 128.755 65.2311 128.755 65.5114C128.755 65.7917 128.546 66.0189 128.287 66.0189H125.164C124.905 66.0189 124.695 65.7917 124.695 65.5114Z" fill="url(#paint3_linear_163_13985)"/>
<path fill-rule="evenodd" clip-rule="evenodd" d="M125.174 62.4951C125.438 62.7593 125.438 63.1878 125.174 63.4521L122.368 66.2579C121.972 66.6543 121.329 66.6543 120.932 66.2579L119.818 65.1438C119.554 64.8795 119.554 64.4511 119.818 64.1868C120.083 63.9225 120.511 63.9225 120.775 64.1868L121.65 65.0617L124.217 62.4951C124.481 62.2308 124.91 62.2308 125.174 62.4951Z" fill="url(#paint4_linear_163_13985)"/>
<path fill-rule="evenodd" clip-rule="evenodd" d="M126.285 71.5005C126.285 71.0567 126.645 70.6969 127.089 70.6969H131.91C132.354 70.6969 132.714 71.0567 132.714 71.5005C132.714 71.9443 132.354 72.3041 131.91 72.3041H127.089C126.645 72.3041 126.285 71.9443 126.285 71.5005Z" fill="#0E00B2"/>
<path fill-rule="evenodd" clip-rule="evenodd" d="M129.5 68.2861C129.943 68.2861 130.303 68.6459 130.303 69.0897V73.9113C130.303 74.3551 129.943 74.7149 129.5 74.7149C129.056 74.7149 128.696 74.3551 128.696 73.9113V69.0897C128.696 68.6459 129.056 68.2861 129.5 68.2861Z" fill="#0E00B2"/>
</g>
<path d="M144.518 68.178H155.676V69.186H150.706V73.078H149.488V69.186H144.518V68.178ZM146.016 61.304H154.304V62.284H147.192V63.614H154.038V64.58H147.192V65.994H154.444V66.974H146.016V61.304ZM159.08 61.458H167.172V62.438H160.312V65.294H167.34V66.288H159.08V61.458ZM157.568 67.828H168.726V68.836H163.714V73.036H162.51V68.836H157.568V67.828ZM174.287 61.528C176.177 61.528 177.549 62.718 177.549 64.44C177.549 65.98 176.457 67.086 174.889 67.31V69.34C175.995 69.284 177.101 69.2 178.137 69.06L178.235 69.956C175.645 70.404 172.775 70.418 170.647 70.418L170.465 69.41C171.431 69.41 172.537 69.41 173.685 69.382V67.31C172.103 67.086 171.011 65.98 171.011 64.44C171.011 62.718 172.383 61.528 174.287 61.528ZM174.287 62.55C173.069 62.55 172.187 63.32 172.187 64.44C172.187 65.56 173.069 66.33 174.287 66.33C175.491 66.33 176.359 65.56 176.359 64.44C176.359 63.32 175.491 62.55 174.287 62.55ZM178.893 60.73H180.083V65.784H182.001V66.792H180.083V73.05H178.893V60.73Z" fill="#58585B"/>
<g filter="url(#filter4_b_163_13985)">
<path d="M187 67C187 58.7157 193.716 52 202 52C210.284 52 217 58.7157 217 67C217 75.2843 210.284 82 202 82C193.716 82 187 75.2843 187 67Z" fill="#FFDFBD"/>
<path fill-rule="evenodd" clip-rule="evenodd" d="M194.929 61.6204C194.929 60.6861 195.728 59.9287 196.714 59.9287H206C206.986 59.9287 207.786 60.6861 207.786 61.6204V71.0941C207.786 72.0284 206.986 72.7859 206 72.7859H196.714C195.728 72.7859 194.929 72.0284 194.929 71.0941V61.6204ZM196.536 70.4174C196.043 70.4174 195.643 70.7961 195.643 71.2633C195.643 71.7305 196.043 72.1092 196.536 72.1092H205.643C206.432 72.1092 207.072 71.5032 207.072 70.7558V70.4174H196.536ZM195.286 71.2633C195.286 70.6093 195.845 70.0791 196.536 70.0791H207.072C207.269 70.0791 207.429 70.2306 207.429 70.4174V70.7558C207.429 71.6901 206.629 72.4475 205.643 72.4475H196.536C195.845 72.4475 195.286 71.9173 195.286 71.2633ZM198.679 64.6656C198.383 64.6656 198.143 64.8928 198.143 65.1731C198.143 65.4534 198.383 65.6806 198.679 65.6806H205.464C205.76 65.6806 206 65.4534 206 65.1731C206 64.8928 205.76 64.6656 205.464 64.6656H198.679ZM198.143 62.8047C198.143 62.5244 198.383 62.2971 198.679 62.2971H205.464C205.76 62.2971 206 62.5244 206 62.8047C206 63.0849 205.76 63.3122 205.464 63.3122H198.679C198.383 63.3122 198.143 63.0849 198.143 62.8047ZM196.714 60.7746C196.714 60.6811 196.634 60.6054 196.536 60.6054C196.437 60.6054 196.357 60.6811 196.357 60.7746V69.5716C196.357 69.665 196.437 69.7407 196.536 69.7407C196.634 69.7407 196.714 69.665 196.714 69.5716V60.7746Z" fill="white"/>
<path d="M198.143 62.8044C198.143 62.5241 198.382 62.2969 198.678 62.2969H205.464C205.76 62.2969 206 62.5241 206 62.8044C206 63.0847 205.76 63.3119 205.464 63.3119H198.678C198.382 63.3119 198.143 63.0847 198.143 62.8044Z" fill="url(#paint5_linear_163_13985)"/>
<path d="M198.143 65.1735C198.143 64.8932 198.382 64.666 198.678 64.666H205.464C205.76 64.666 206 64.8932 206 65.1735C206 65.4538 205.76 65.6811 205.464 65.6811H198.678C198.382 65.6811 198.143 65.4538 198.143 65.1735Z" fill="url(#paint6_linear_163_13985)"/>
<path fill-rule="evenodd" clip-rule="evenodd" d="M203.285 71.5005C203.285 71.0567 203.645 70.6969 204.089 70.6969H208.91C209.354 70.6969 209.714 71.0567 209.714 71.5005C209.714 71.9443 209.354 72.3041 208.91 72.3041H204.089C203.645 72.3041 203.285 71.9443 203.285 71.5005Z" fill="#572D00"/>
<path fill-rule="evenodd" clip-rule="evenodd" d="M206.5 68.2861C206.943 68.2861 207.303 68.6459 207.303 69.0897V73.9113C207.303 74.3551 206.943 74.7149 206.5 74.7149C206.056 74.7149 205.696 74.3551 205.696 73.9113V69.0897C205.696 68.6459 206.056 68.2861 206.5 68.2861Z" fill="#572D00"/>
</g>
<path d="M229.82 60.716H231.038V65.546H233.026V66.554H231.038V73.078H229.82V60.716ZM222.064 61.934H227.79V62.914H223.268V68.99C225.41 68.99 226.95 68.906 228.714 68.57L228.854 69.606C226.964 69.956 225.34 70.012 223.044 70.012H222.064V61.934ZM243.444 60.716H244.662V73.078H243.444V60.716ZM238.138 61.668C239.972 61.668 241.288 63.334 241.288 65.98C241.288 68.612 239.972 70.292 238.138 70.292C236.304 70.292 234.988 68.612 234.988 65.98C234.988 63.334 236.304 61.668 238.138 61.668ZM238.138 62.76C236.976 62.76 236.164 64.006 236.164 65.98C236.164 67.954 236.976 69.214 238.138 69.214C239.3 69.214 240.112 67.954 240.112 65.98C240.112 64.006 239.3 62.76 238.138 62.76ZM250.895 61.668C252.547 61.668 253.779 63.096 253.947 65.406H256.565V60.716H257.755V73.078H256.565V66.372H253.961C253.849 68.78 252.603 70.292 250.895 70.292C249.089 70.292 247.815 68.612 247.815 65.98C247.815 63.334 249.089 61.668 250.895 61.668ZM250.895 62.76C249.747 62.76 248.963 64.006 248.963 65.98C248.963 67.954 249.747 69.214 250.895 69.214C252.043 69.214 252.827 67.954 252.827 65.98C252.827 64.006 252.043 62.76 250.895 62.76ZM269.545 60.716H270.763V73.078H269.545V60.716ZM261.313 61.878H267.025V66.316H262.559V69.102C264.575 69.102 266.325 69.004 268.425 68.668L268.551 69.662C266.353 70.026 264.505 70.096 262.377 70.096H261.341V65.336H265.807V62.858H261.313V61.878ZM277.998 61.584H284.606V62.564H281.918V62.97C281.918 64.58 283.052 66.078 284.886 66.694L284.27 67.66C282.884 67.17 281.862 66.176 281.33 64.944C280.798 66.302 279.72 67.38 278.278 67.898L277.634 66.946C279.524 66.288 280.714 64.692 280.714 62.97V62.564H277.998V61.584ZM286.062 60.744H287.28V63.95H289.086V64.958H287.28V68.15H286.062V60.744ZM279.258 68.808H287.28V73.064H286.062V69.788H279.258V68.808ZM293.806 61.43H295.01V62.62C295.01 64.356 296.158 65.896 297.978 66.512L297.32 67.464C295.99 66.96 294.982 65.994 294.45 64.748C293.918 66.176 292.826 67.282 291.342 67.828L290.712 66.848C292.616 66.176 293.806 64.538 293.806 62.662V61.43ZM299.658 60.744H300.876V68.01H299.658V64.3H297.04V63.292H299.658V60.744ZM296.816 68.374C299.364 68.374 300.932 69.228 300.932 70.712C300.932 72.196 299.364 73.036 296.816 73.036C294.254 73.036 292.686 72.196 292.686 70.712C292.686 69.228 294.254 68.374 296.816 68.374ZM296.816 69.326C294.982 69.326 293.904 69.83 293.904 70.712C293.904 71.58 294.982 72.084 296.816 72.084C298.636 72.084 299.728 71.58 299.728 70.712C299.728 69.83 298.636 69.326 296.816 69.326ZM306.255 61.738L306.073 69.48H304.981L304.771 61.738H306.255ZM305.541 70.712C305.975 70.712 306.283 71.02 306.283 71.468C306.283 71.916 305.975 72.238 305.541 72.238C305.093 72.238 304.771 71.916 304.771 71.468C304.771 71.02 305.093 70.712 305.541 70.712Z" fill="#58585B"/>
<defs>
<filter id="filter0_b_163_13985" x="-23.5" y="-27" width="160.8" height="160.8" filterUnits="userSpaceOnUse" color-interpolation-filters="sRGB">
<feFlood flood-opacity="0" result="BackgroundImageFix"/>
<feGaussianBlur in="BackgroundImageFix" stdDeviation="30"/>
<feComposite in2="SourceAlpha" operator="in" result="effect1_backgroundBlur_163_13985"/>
<feBlend mode="normal" in="SourceGraphic" in2="effect1_backgroundBlur_163_13985" result="shape"/>
</filter>
<filter id="filter1_i_163_13985" x="25.4443" y="62.7637" width="17.4267" height="17.4267" filterUnits="userSpaceOnUse" color-interpolation-filters="sRGB">
<feFlood flood-opacity="0" result="BackgroundImageFix"/>
<feBlend mode="normal" in="SourceGraphic" in2="BackgroundImageFix" result="shape"/>
<feColorMatrix in="SourceAlpha" type="matrix" values="0 0 0 0 0 0 0 0 0 0 0 0 0 0 0 0 0 0 127 0" result="hardAlpha"/>
<feOffset dx="1.27725" dy="1.27725"/>
<feGaussianBlur stdDeviation="1.27725"/>
<feComposite in2="hardAlpha" operator="arithmetic" k2="-1" k3="1"/>
<feColorMatrix type="matrix" values="0 0 0 0 0.94902 0 0 0 0 0.94902 0 0 0 0 0.94902 0 0 0 1 0"/>
<feBlend mode="normal" in2="shape" result="effect1_innerShadow_163_13985"/>
</filter>
<filter id="filter2_i_163_13985" x="25.4443" y="62.7637" width="17.4267" height="17.4267" filterUnits="userSpaceOnUse" color-interpolation-filters="sRGB">
<feFlood flood-opacity="0" result="BackgroundImageFix"/>
<feBlend mode="normal" in="SourceGraphic" in2="BackgroundImageFix" result="shape"/>
<feColorMatrix in="SourceAlpha" type="matrix" values="0 0 0 0 0 0 0 0 0 0 0 0 0 0 0 0 0 0 127 0" result="hardAlpha"/>
<feOffset dx="1.27725" dy="1.27725"/>
<feGaussianBlur stdDeviation="1.27725"/>
<feComposite in2="hardAlpha" operator="arithmetic" k2="-1" k3="1"/>
<feColorMatrix type="matrix" values="0 0 0 0 0.94902 0 0 0 0 0.94902 0 0 0 0 0.94902 0 0 0 1 0"/>
<feBlend mode="normal" in2="shape" result="effect1_innerShadow_163_13985"/>
</filter>
<filter id="filter3_b_163_13985" x="50" y="-8" width="150" height="150" filterUnits="userSpaceOnUse" color-interpolation-filters="sRGB">
<feFlood flood-opacity="0" result="BackgroundImageFix"/>
<feGaussianBlur in="BackgroundImageFix" stdDeviation="30"/>
<feComposite in2="SourceAlpha" operator="in" result="effect1_backgroundBlur_163_13985"/>
<feBlend mode="normal" in="SourceGraphic" in2="effect1_backgroundBlur_163_13985" result="shape"/>
</filter>
<filter id="filter4_b_163_13985" x="127" y="-8" width="150" height="150" filterUnits="userSpaceOnUse" color-interpolation-filters="sRGB">
<feFlood flood-opacity="0" result="BackgroundImageFix"/>
<feGaussianBlur in="BackgroundImageFix" stdDeviation="30"/>
<feComposite in2="SourceAlpha" operator="in" result="effect1_backgroundBlur_163_13985"/>
<feBlend mode="normal" in="SourceGraphic" in2="effect1_backgroundBlur_163_13985" result="shape"/>
</filter>
<linearGradient id="paint0_linear_163_13985" x1="43.0628" y1="39.6" x2="86.8506" y2="99.4042" gradientUnits="userSpaceOnUse">
<stop stop-color="#5B4DFF"/>
<stop offset="1" stop-color="#FF9524"/>
</linearGradient>
<linearGradient id="paint1_linear_163_13985" x1="124.357" y1="68.4034" x2="124.637" y2="69.7638" gradientUnits="userSpaceOnUse">
<stop offset="0.1" stop-color="#5B4DFF"/>
<stop offset="0.9" stop-color="#FF9524"/>
</linearGradient>
<linearGradient id="paint2_linear_163_13985" x1="121.13" y1="68.4034" x2="121.834" y2="69.1933" gradientUnits="userSpaceOnUse">
<stop offset="0.1" stop-color="#5B4DFF"/>
<stop offset="0.9" stop-color="#FF9524"/>
</linearGradient>
<linearGradient id="paint3_linear_163_13985" x1="125.32" y1="65.0205" x2="125.621" y2="66.3715" gradientUnits="userSpaceOnUse">
<stop offset="0.1" stop-color="#FF9524"/>
<stop offset="0.9" stop-color="#5B4DFF"/>
</linearGradient>
<linearGradient id="paint4_linear_163_13985" x1="120.505" y1="62.3667" x2="123.24" y2="66.5102" gradientUnits="userSpaceOnUse">
<stop offset="0.1" stop-color="#FF9524"/>
<stop offset="0.9" stop-color="#5B4DFF"/>
</linearGradient>
<linearGradient id="paint5_linear_163_13985" x1="199.351" y1="62.3135" x2="199.513" y2="63.713" gradientUnits="userSpaceOnUse">
<stop offset="0.1" stop-color="#FF9524"/>
<stop offset="0.9" stop-color="#5B4DFF"/>
</linearGradient>
<linearGradient id="paint6_linear_163_13985" x1="199.351" y1="64.6827" x2="199.513" y2="66.0822" gradientUnits="userSpaceOnUse">
<stop offset="0.1" stop-color="#5B4DFF"/>
<stop offset="0.9" stop-color="#FF9524"/>
</linearGradient>
<clipPath id="clip0_163_13985">
<rect x="20" y="16" width="74" height="74" rx="16" fill="white"/>
</clipPath>
</defs>
</svg>
