<svg width="1180" height="160" viewBox="0 0 1180 160" fill="none" xmlns="http://www.w3.org/2000/svg">
<rect x="1" y="1" width="1178" height="158" rx="39" fill="white"/>
<rect x="1" y="1" width="1178" height="158" rx="39" stroke="#D8D8D9" stroke-width="2"/>
<g clip-path="url(#clip0_163_14036)">
<rect x="186.256" y="31.2002" width="97.6" height="97.6" rx="20.6876" fill="#FFDFBD"/>
<g filter="url(#filter0_b_163_14036)">
<path d="M209.6 80.5768C209.6 66.0094 221.409 54.2002 235.976 54.2002C250.544 54.2002 262.353 66.0094 262.353 80.5768C262.353 95.1443 250.544 106.953 235.976 106.953C221.409 106.953 209.6 95.1443 209.6 80.5768Z" fill="url(#paint0_linear_163_14036)"/>
<path fill-rule="evenodd" clip-rule="evenodd" d="M237.528 69.7166C237.528 68.8597 236.833 68.165 235.976 68.165C235.119 68.165 234.424 68.8597 234.424 69.7166V79.026H225.115C224.258 79.026 223.563 79.7207 223.563 80.5776C223.563 81.4345 224.258 82.1291 225.115 82.1291H234.424V91.4386C234.424 92.2955 235.119 92.9901 235.976 92.9901C236.833 92.9901 237.528 92.2955 237.528 91.4386V82.1291H246.837C247.694 82.1291 248.389 81.4345 248.389 80.5776C248.389 79.7207 247.694 79.026 246.837 79.026H237.528V69.7166Z" fill="white"/>
</g>
<path d="M217.491 97.6625C216.528 98.0735 215.726 98.5038 215.063 98.9214" stroke="#211815" stroke-width="4.95434" stroke-miterlimit="10" stroke-linecap="round"/>
<path d="M201.612 98.0236C201.569 98.0211 200.414 95.9695 204.483 94.2327" stroke="#211815" stroke-width="4.95434" stroke-miterlimit="10" stroke-linecap="round"/>
<path d="M200.917 108.91C200.96 108.912 193.878 115.6 187.296 115.2" stroke="#211815" stroke-width="4.95434" stroke-miterlimit="10" stroke-linecap="round"/>
<g filter="url(#filter1_i_163_14036)">
<path d="M216.114 109.483C212.824 114.358 206.205 115.643 201.33 112.353C196.455 109.064 195.17 102.445 198.46 97.5701C201.749 92.6951 208.368 91.4099 213.243 94.6995C218.118 97.989 219.403 104.608 216.114 109.483Z" fill="#B9B2FF" fill-opacity="0.6"/>
</g>
<g filter="url(#filter2_i_163_14036)">
<path fill-rule="evenodd" clip-rule="evenodd" d="M215.415 109.012C212.386 113.501 206.291 114.685 201.802 111.655C197.312 108.626 196.129 102.531 199.158 98.0412C202.187 93.5519 208.282 92.3683 212.772 95.3977C217.261 98.427 218.445 104.522 215.415 109.012ZM201.33 112.353C206.205 115.643 212.824 114.358 216.114 109.483C219.403 104.608 218.118 97.989 213.243 94.6995C208.368 91.4099 201.749 92.6951 198.46 97.5701C195.17 102.445 196.455 109.064 201.33 112.353Z" fill="white"/>
</g>
<path fill-rule="evenodd" clip-rule="evenodd" d="M206.172 97.1557C206.919 98.335 208.48 98.6859 209.659 97.9396L208.307 95.8044C209.659 97.9396 209.659 97.9397 209.659 97.9396L209.68 97.9261L209.733 97.892C209.779 97.8626 209.846 97.8201 209.93 97.7656C210.099 97.6567 210.34 97.4998 210.634 97.305C211.221 96.916 212.025 96.3717 212.893 95.7519C214.537 94.5784 216.719 92.9193 217.899 91.488C218.787 90.4113 218.634 88.8187 217.557 87.9308C216.481 87.0429 214.888 87.1959 214 88.2725C213.305 89.1159 211.665 90.4189 209.957 91.6389C209.149 92.2157 208.395 92.7259 207.842 93.0923C207.566 93.2751 207.342 93.4211 207.188 93.5207C207.111 93.5704 207.051 93.6085 207.012 93.6337L206.968 93.6616L206.956 93.6692C206.956 93.6693 206.956 93.6692 206.956 93.6692C205.777 94.4156 205.426 95.9766 206.172 97.1557Z" fill="#211815"/>
<path d="M217.489 97.6617C217.532 97.6642 216.335 99.7467 212.266 101.484" stroke="#211815" stroke-width="4.95434" stroke-miterlimit="10" stroke-linecap="round"/>
<path d="M196.682 55.8382L195.165 49.8734L196.212 48.1131L200.147 47.1127L201.844 48.1219L202.096 49.1119L200.893 49.4177L200.749 48.8538L199.838 48.3118L197.056 49.0191L196.477 49.9936L197.776 55.1062L198.751 55.6856L201.533 54.9783L202.075 54.0667L201.931 53.5028L203.134 53.197L203.386 54.1869L202.377 55.8844L198.442 56.8848L196.682 55.8382ZM203.895 45.9729L205.06 45.6766L207.335 54.6238L206.17 54.9201L203.895 45.9729ZM208.154 46.2909L207.994 45.6643L208.318 45.1017L208.982 44.9329L209.536 45.2725L209.695 45.899L209.371 46.4616L208.707 46.6305L208.154 46.2909ZM208.695 47.634L209.861 47.3377L211.447 53.5782L210.282 53.8745L208.695 47.634ZM213.901 51.687L212.919 47.8275L213.807 46.3344L216.952 45.5347L218.461 46.4318L218.687 47.3215L217.522 47.6178L217.391 47.104L216.684 46.6835L214.604 47.2124L214.183 47.9196L214.967 51.0023L215.674 51.4228L217.755 50.8939L218.175 50.1867L218.045 49.6729L219.21 49.3766L219.436 50.2663L218.539 51.7751L215.394 52.5748L213.901 51.687ZM219.848 41.9168L221.013 41.6205L222.332 46.8083L223.673 46.4674L224.797 43.5402L226.087 43.2121L224.759 46.7516L227.799 49.4207L226.509 49.7488L223.922 47.4982L222.594 47.8359L223.288 50.5676L222.123 50.8639L219.848 41.9168ZM228.178 41.7734L227.751 40.0943L228.954 39.7884L229.38 41.4676L230.438 46.415L229.611 46.6253L228.178 41.7734ZM229.766 48.4937L229.616 47.9047L229.915 47.4018L230.542 47.2425L231.045 47.5415L231.195 48.1305L230.896 48.6334L230.269 48.7927L229.766 48.4937Z" fill="#262627"/>
</g>
<path d="M347.848 85.3149H366.173V93.0261H347.848V85.3149ZM363.27 87.5526H350.751V90.7883H363.27V87.5526ZM346.154 68.6829H355.559V66.2637H358.522V68.6829H367.776V70.9509H346.154V68.6829ZM357.041 71.8581C362.635 71.8581 365.78 73.1584 365.78 75.6683C365.78 77.9061 363.179 79.2366 358.522 79.4483V81.2022H369.106V83.5307H344.945V81.2022H355.559V79.4483C350.872 79.2366 348.271 77.9061 348.271 75.6683C348.271 73.1584 351.416 71.8581 357.041 71.8581ZM357.041 73.8842C353.351 73.8842 351.416 74.489 351.416 75.6683C351.416 76.8174 353.351 77.4222 357.041 77.4222C360.7 77.4222 362.635 76.8174 362.635 75.6683C362.635 74.489 360.7 73.8842 357.041 73.8842ZM393.092 66.5963H395.904V93.3587H393.092V66.5963ZM387.709 67.1406H390.491V92.0584H387.709V79.2064H384.836C384.594 84.4379 382.387 87.6434 379.091 87.6434C375.613 87.6434 373.375 84.0146 373.375 78.148C373.375 72.3117 375.613 68.6829 379.091 68.6829C382.326 68.6829 384.504 71.7674 384.836 76.7872H387.709V67.1406ZM379.091 71.4952C377.216 71.4952 376.097 73.9144 376.097 78.148C376.097 82.4118 377.216 84.8613 379.091 84.8613C380.996 84.8613 382.145 82.4118 382.145 78.148C382.145 73.9144 380.996 71.4952 379.091 71.4952ZM414.658 75.4264H420.464V66.5661H423.397V93.389H420.464V77.8154H414.658V75.4264ZM407.884 68.8038H410.878V73.2491C410.878 78.1782 413.448 83.0771 417.561 84.952L415.807 87.341C412.783 85.8592 410.575 82.8957 409.396 79.2971C408.217 83.0771 405.949 86.2523 402.925 87.7946L401.08 85.4358C405.223 83.4098 407.884 78.269 407.884 73.2491V68.8038ZM432.414 68.5922H450.679V71.0114H435.377V78.8738H450.951V81.2627H442.968V87.6434H453.672V90.0928H429.42V87.6434H440.034V81.2627H432.414V68.5922ZM483.996 66.5661H486.99V77.2106H491.073V79.66H486.99V93.3587H483.996V66.5661ZM480.005 69.4086C480.005 77.1803 476.678 84.0448 467.939 88.4296L466.276 86.1616C472.868 82.805 476.436 78.027 477.011 71.8278H467.606V69.4086H480.005ZM497.64 67.1104H500.603V73.733H515.905V76.1522H497.64V67.1104ZM494.465 78.9342H518.626V81.3534H494.465V78.9342ZM506.5 83.5005C512.215 83.5005 515.693 85.2544 515.693 88.3691C515.693 91.4838 512.215 93.2982 506.5 93.2982C500.754 93.2982 497.277 91.4838 497.277 88.3691C497.277 85.2544 500.754 83.5005 506.5 83.5005ZM506.5 85.7685C502.539 85.7685 500.271 86.6757 500.271 88.3691C500.271 90.0626 502.539 90.9698 506.5 90.9698C510.462 90.9698 512.699 90.0626 512.699 88.3691C512.699 86.6757 510.462 85.7685 506.5 85.7685ZM540.495 66.6266H543.458V75.1542H547.269V77.6339H543.458V86.6454H540.495V66.6266ZM522.653 69.6808H529.034V66.5963H532.028V69.6808H538.408V72.0395H522.653V69.6808ZM530.516 73.3398C534.356 73.3398 537.017 75.3357 537.017 78.3899C537.017 81.4139 534.356 83.44 530.516 83.44C526.705 83.44 524.075 81.4139 524.075 78.3899C524.075 75.3357 526.705 73.3398 530.516 73.3398ZM530.516 75.6078C528.369 75.6078 526.917 76.6662 526.917 78.3899C526.917 80.0834 528.369 81.1418 530.516 81.1418C532.693 81.1418 534.144 80.0834 534.144 78.3899C534.144 76.6662 532.693 75.6078 530.516 75.6078ZM526.584 85.073H529.548V90.3952H544.608V92.8144H526.584V85.073Z" fill="#58585B"/>
<g filter="url(#filter3_b_163_14036)">
<path d="M556.856 79.9998C556.856 60.6743 572.522 45.0078 591.848 45.0078C611.174 45.0078 626.84 60.6743 626.84 79.9998C626.84 99.3254 611.174 114.992 591.848 114.992C572.522 114.992 556.856 99.3254 556.856 79.9998Z" fill="#E7E5FF"/>
<path fill-rule="evenodd" clip-rule="evenodd" d="M603.766 67.845C603.766 66.3193 602.529 65.0825 601.004 65.0825H579.693C578.167 65.0825 576.93 66.3193 576.93 67.845V89.1559C576.93 90.6816 578.167 91.9185 579.693 91.9185H601.004C602.529 91.9185 603.766 90.6816 603.766 89.1559V67.845ZM579.298 63.5039C577.118 63.5039 575.352 65.2708 575.352 67.4504V89.5506C575.352 91.7302 577.118 93.4971 579.298 93.4971H601.398C603.578 93.4971 605.345 91.7302 605.345 89.5506V67.4504C605.345 65.2708 603.578 63.5039 601.398 63.5039H579.298Z" fill="white"/>
<path fill-rule="evenodd" clip-rule="evenodd" d="M577.719 68.2419C577.719 66.9342 578.779 65.874 580.087 65.874H600.609C601.916 65.874 602.977 66.9342 602.977 68.2419V88.7635C602.977 90.0713 601.916 91.1314 600.609 91.1314H580.087C578.779 91.1314 577.719 90.0713 577.719 88.7635V68.2419ZM588.769 84.4218C588.769 83.768 589.299 83.2379 589.953 83.2379H597.846C598.5 83.2379 599.03 83.768 599.03 84.4218C599.03 85.0757 598.5 85.6058 597.846 85.6058H589.953C589.299 85.6058 588.769 85.0757 588.769 84.4218ZM583.639 85.6058C584.293 85.6058 584.823 85.0757 584.823 84.4218C584.823 83.768 584.293 83.2379 583.639 83.2379C582.985 83.2379 582.455 83.768 582.455 84.4218C582.455 85.0757 582.985 85.6058 583.639 85.6058ZM591.137 76.5281C591.137 75.8743 591.627 75.3442 592.23 75.3442H599.516C600.119 75.3442 600.609 75.8743 600.609 76.5281C600.609 77.182 600.119 77.7121 599.516 77.7121H592.23C591.627 77.7121 591.137 77.182 591.137 76.5281ZM592.253 71.724C592.87 71.1076 592.87 70.1081 592.253 69.4916C591.637 68.8751 590.637 68.8751 590.021 69.4916L584.034 75.479L581.993 73.4381C581.376 72.8216 580.377 72.8216 579.76 73.4381C579.144 74.0545 579.144 75.054 579.76 75.6705L582.359 78.2696C583.284 79.1943 584.783 79.1943 585.708 78.2696L592.253 71.724Z" fill="white"/>
<path fill-rule="evenodd" clip-rule="evenodd" d="M588.77 84.4212C588.77 83.7674 589.3 83.2373 589.954 83.2373H597.847C598.501 83.2373 599.031 83.7674 599.031 84.4212C599.031 85.0751 598.501 85.6052 597.847 85.6052H589.954C589.3 85.6052 588.77 85.0751 588.77 84.4212Z" fill="url(#paint1_linear_163_14036)"/>
<ellipse cx="583.64" cy="84.4212" rx="1.18394" ry="1.18394" fill="url(#paint2_linear_163_14036)"/>
<path fill-rule="evenodd" clip-rule="evenodd" d="M591.138 76.5277C591.138 75.8738 591.627 75.3438 592.231 75.3438H599.516C600.12 75.3438 600.609 75.8738 600.609 76.5277C600.609 77.1816 600.12 77.7116 599.516 77.7116H592.231C591.627 77.7116 591.138 77.1816 591.138 76.5277Z" fill="url(#paint3_linear_163_14036)"/>
<path fill-rule="evenodd" clip-rule="evenodd" d="M592.254 69.4936C592.87 70.1101 592.87 71.1096 592.254 71.7261L585.708 78.2716C584.784 79.1963 583.284 79.1963 582.36 78.2716L579.761 75.6725C579.144 75.0561 579.144 74.0566 579.761 73.4401C580.377 72.8236 581.377 72.8236 581.993 73.4401L584.034 75.481L590.022 69.4936C590.638 68.8771 591.637 68.8771 592.254 69.4936Z" fill="url(#paint4_linear_163_14036)"/>
<path fill-rule="evenodd" clip-rule="evenodd" d="M594.847 90.4985C594.847 89.4632 595.686 88.6239 596.721 88.6239H607.969C609.004 88.6239 609.844 89.4632 609.844 90.4985C609.844 91.5339 609.004 92.3732 607.969 92.3732H596.721C595.686 92.3732 594.847 91.5339 594.847 90.4985Z" fill="#0E00B2"/>
<path fill-rule="evenodd" clip-rule="evenodd" d="M602.345 83C603.381 83 604.22 83.8393 604.22 84.8746V96.1224C604.22 97.1578 603.381 97.9971 602.345 97.9971C601.31 97.9971 600.471 97.1578 600.471 96.1224V84.8746C600.471 83.8393 601.31 83 602.345 83Z" fill="#0E00B2"/>
</g>
<path d="M636.538 82.684H660.791V85.1334H650.146V93.389H647.153V85.1334H636.538V82.684ZM639.714 67.8059H657.858V70.1646H642.647V72.7955H657.253V75.124H642.647V77.8758H658.16V80.2648H639.714V67.8059ZM667.963 68.1083H685.683V70.5275H670.957V76.3941H686.016V78.783H667.963V68.1083ZM664.727 81.928H688.98V84.3774H678.244V93.3285H675.281V84.3774H664.727V81.928ZM700.839 68.2595C704.951 68.2595 707.975 70.9206 707.975 74.6704C707.975 77.9666 705.677 80.3858 702.351 80.9603V85.1334C704.649 85.0125 706.947 84.8613 709.094 84.5589L709.336 86.7362C703.742 87.7038 697.603 87.7643 693.007 87.7341L692.583 85.3149C694.609 85.3149 696.968 85.3149 699.387 85.2544V80.9603C696 80.416 693.672 77.9968 693.672 74.6704C693.672 70.9206 696.696 68.2595 700.839 68.2595ZM700.839 70.7997C698.359 70.7997 696.575 72.3117 696.575 74.6704C696.575 76.9989 698.359 78.5411 700.839 78.5411C703.288 78.5411 705.072 76.9989 705.072 74.6704C705.072 72.3117 703.288 70.7997 700.839 70.7997ZM710.667 66.5963H713.63V77.4222H717.622V79.9019H713.63V93.3587H710.667V66.5963Z" fill="#58585B"/>
<g filter="url(#filter4_b_163_14036)">
<path d="M727.12 79.9998C727.12 60.6743 742.787 45.0078 762.112 45.0078C781.438 45.0078 797.104 60.6743 797.104 79.9998C797.104 99.3254 781.438 114.992 762.112 114.992C742.787 114.992 727.12 99.3254 727.12 79.9998Z" fill="#FFDFBD"/>
<path fill-rule="evenodd" clip-rule="evenodd" d="M745.616 67.4513C745.616 65.2718 747.481 63.5049 749.781 63.5049H771.443C773.744 63.5049 775.609 65.2718 775.609 67.4513V89.5516C775.609 91.7311 773.744 93.498 771.443 93.498H749.781C747.481 93.498 745.616 91.7311 745.616 89.5516V67.4513ZM749.365 87.973C748.214 87.973 747.282 88.8565 747.282 89.9462C747.282 91.036 748.214 91.9195 749.365 91.9195H770.61C772.45 91.9195 773.943 90.506 773.943 88.7623V87.973H749.365ZM746.449 89.9462C746.449 88.4205 747.754 87.1837 749.365 87.1837H773.943C774.403 87.1837 774.776 87.5371 774.776 87.973V88.7623C774.776 90.9419 772.911 92.7088 770.61 92.7088H749.365C747.754 92.7088 746.449 91.4719 746.449 89.9462ZM754.364 74.5561C753.674 74.5561 753.114 75.0861 753.114 75.74C753.114 76.3939 753.674 76.9239 754.364 76.9239H770.193C770.884 76.9239 771.443 76.3939 771.443 75.74C771.443 75.0861 770.884 74.5561 770.193 74.5561H754.364ZM753.114 70.2133C753.114 69.5594 753.674 69.0293 754.364 69.0293H770.193C770.884 69.0293 771.443 69.5594 771.443 70.2133C771.443 70.8671 770.884 71.3972 770.193 71.3972H754.364C753.674 71.3972 753.114 70.8671 753.114 70.2133ZM749.781 65.4783C749.781 65.2603 749.595 65.0836 749.365 65.0836C749.135 65.0836 748.948 65.2603 748.948 65.4783V85.9999C748.948 86.2179 749.135 86.3945 749.365 86.3945C749.595 86.3945 749.781 86.2179 749.781 85.9999V65.4783Z" fill="white"/>
<path d="M753.114 70.2123C753.114 69.5584 753.674 69.0283 754.364 69.0283H770.194C770.884 69.0283 771.443 69.5584 771.443 70.2123C771.443 70.8661 770.884 71.3962 770.194 71.3962H754.364C753.674 71.3962 753.114 70.8661 753.114 70.2123Z" fill="url(#paint5_linear_163_14036)"/>
<path d="M753.114 75.7396C753.114 75.0857 753.674 74.5557 754.364 74.5557H770.194C770.884 74.5557 771.443 75.0857 771.443 75.7396C771.443 76.3935 770.884 76.9235 770.194 76.9235H754.364C753.674 76.9235 753.114 76.3935 753.114 75.7396Z" fill="url(#paint6_linear_163_14036)"/>
<path fill-rule="evenodd" clip-rule="evenodd" d="M765.111 90.4985C765.111 89.4632 765.95 88.6239 766.985 88.6239H778.233C779.269 88.6239 780.108 89.4632 780.108 90.4985C780.108 91.5339 779.269 92.3732 778.233 92.3732H766.985C765.95 92.3732 765.111 91.5339 765.111 90.4985Z" fill="#572D00"/>
<path fill-rule="evenodd" clip-rule="evenodd" d="M772.609 83C773.645 83 774.484 83.8393 774.484 84.8746V96.1224C774.484 97.1578 773.645 97.9971 772.609 97.9971C771.574 97.9971 770.735 97.1578 770.735 96.1224V84.8746C770.735 83.8393 771.574 83 772.609 83Z" fill="#572D00"/>
</g>
<path d="M824.584 66.5661H827.577V76.8779H831.751V79.3576H827.577V93.389H824.584V66.5661ZM807.952 69.1667H820.411V71.5557H810.915V84.317C815.33 84.2867 818.596 84.1355 822.346 83.44L822.648 85.9197C818.566 86.6757 814.998 86.8269 810.099 86.8269H807.952V69.1667ZM853.982 66.5661H856.976V93.389H853.982V66.5661ZM842.763 68.5619C846.755 68.5619 849.627 72.221 849.627 77.9666C849.627 83.7726 846.755 87.4317 842.763 87.4317C838.741 87.4317 835.868 83.7726 835.868 77.9666C835.868 72.221 838.741 68.5619 842.763 68.5619ZM842.763 71.2533C840.374 71.2533 838.741 73.7934 838.741 77.9666C838.741 82.1699 840.374 84.7403 842.763 84.7403C845.122 84.7403 846.785 82.1699 846.785 77.9666C846.785 73.7934 845.122 71.2533 842.763 71.2533ZM870.317 68.5619C873.945 68.5619 876.607 71.6464 877.03 76.5755H882.352V66.5661H885.316V93.389H882.352V78.9645H877.06C876.758 84.196 874.036 87.4317 870.317 87.4317C866.416 87.4317 863.573 83.7726 863.573 77.9666C863.573 72.221 866.416 68.5619 870.317 68.5619ZM870.317 71.2533C868.018 71.2533 866.385 73.7934 866.385 77.9666C866.385 82.1699 868.018 84.7403 870.317 84.7403C872.706 84.7403 874.278 82.1699 874.278 77.9666C874.278 73.7934 872.706 71.2533 870.317 71.2533ZM910.39 66.5661H913.353V93.389H910.39V66.5661ZM892.76 69.0155H905.219V78.8738H895.814V84.5589C900.078 84.5286 903.797 84.3774 908.122 83.6517L908.424 86.0406C903.767 86.8571 899.775 87.0083 895.088 87.0083H892.82V76.4546H902.225V71.4045H892.76V69.0155ZM928.799 68.3502H943.163V70.7694H937.508V71.3138C937.508 74.7309 939.806 77.9666 943.889 79.3576L942.347 81.6861C939.383 80.6579 937.236 78.6016 936.057 76.001C934.908 78.8435 932.64 81.0813 929.525 82.1699L927.922 79.8414C932.125 78.4504 934.545 74.9728 934.545 71.344V70.7694H928.799V68.3502ZM946.066 66.5963H949.03V73.4306H952.84V75.9102H949.03V82.684H946.066V66.5963ZM931.49 84.0448H949.03V93.3587H946.066V86.4338H931.49V84.0448ZM962.854 68.0781H965.818V70.5578C965.818 74.247 968.116 77.6037 972.138 78.9342L970.566 81.2627C967.663 80.2346 965.576 78.2085 964.397 75.5776C963.247 78.5714 960.949 80.8998 957.744 82.0792L956.202 79.66C960.435 78.2085 962.854 74.6402 962.854 70.6787V68.0781ZM975.464 66.5963H978.428V82.3816H975.464V74.4285H969.991V71.9488H975.464V66.5963ZM969.568 83.1074C975.132 83.1074 978.549 85.0125 978.549 88.2179C978.549 91.4838 975.132 93.3285 969.568 93.3285C963.973 93.3285 960.496 91.4838 960.496 88.2179C960.496 85.0125 963.973 83.1074 969.568 83.1074ZM969.568 85.4358C965.697 85.4358 963.52 86.4338 963.52 88.2179C963.52 90.0021 965.697 91.0302 969.568 91.0302C973.348 91.0302 975.616 90.0021 975.616 88.2179C975.616 86.4338 973.348 85.4358 969.568 85.4358ZM990.287 68.5014L989.833 85.3149H987.112L986.598 68.5014H990.287ZM988.503 88.097C989.531 88.097 990.227 88.7925 990.227 89.8206C990.227 90.879 989.531 91.6048 988.503 91.6048C987.444 91.6048 986.719 90.879 986.719 89.8206C986.719 88.7925 987.444 88.097 988.503 88.097Z" fill="#58585B"/>
<defs>
<filter id="filter0_b_163_14036" x="149.6" y="-5.7998" width="172.753" height="172.753" filterUnits="userSpaceOnUse" color-interpolation-filters="sRGB">
<feFlood flood-opacity="0" result="BackgroundImageFix"/>
<feGaussianBlur in="BackgroundImageFix" stdDeviation="30"/>
<feComposite in2="SourceAlpha" operator="in" result="effect1_backgroundBlur_163_14036"/>
<feBlend mode="normal" in="SourceGraphic" in2="effect1_backgroundBlur_163_14036" result="shape"/>
</filter>
<filter id="filter1_i_163_14036" x="196.637" y="92.877" width="22.9508" height="22.9503" filterUnits="userSpaceOnUse" color-interpolation-filters="sRGB">
<feFlood flood-opacity="0" result="BackgroundImageFix"/>
<feBlend mode="normal" in="SourceGraphic" in2="BackgroundImageFix" result="shape"/>
<feColorMatrix in="SourceAlpha" type="matrix" values="0 0 0 0 0 0 0 0 0 0 0 0 0 0 0 0 0 0 127 0" result="hardAlpha"/>
<feOffset dx="1.65145" dy="1.65145"/>
<feGaussianBlur stdDeviation="1.65145"/>
<feComposite in2="hardAlpha" operator="arithmetic" k2="-1" k3="1"/>
<feColorMatrix type="matrix" values="0 0 0 0 0.94902 0 0 0 0 0.94902 0 0 0 0 0.94902 0 0 0 1 0"/>
<feBlend mode="normal" in2="shape" result="effect1_innerShadow_163_14036"/>
</filter>
<filter id="filter2_i_163_14036" x="196.637" y="92.877" width="22.9508" height="22.9503" filterUnits="userSpaceOnUse" color-interpolation-filters="sRGB">
<feFlood flood-opacity="0" result="BackgroundImageFix"/>
<feBlend mode="normal" in="SourceGraphic" in2="BackgroundImageFix" result="shape"/>
<feColorMatrix in="SourceAlpha" type="matrix" values="0 0 0 0 0 0 0 0 0 0 0 0 0 0 0 0 0 0 127 0" result="hardAlpha"/>
<feOffset dx="1.65145" dy="1.65145"/>
<feGaussianBlur stdDeviation="1.65145"/>
<feComposite in2="hardAlpha" operator="arithmetic" k2="-1" k3="1"/>
<feColorMatrix type="matrix" values="0 0 0 0 0.94902 0 0 0 0 0.94902 0 0 0 0 0.94902 0 0 0 1 0"/>
<feBlend mode="normal" in2="shape" result="effect1_innerShadow_163_14036"/>
</filter>
<filter id="filter3_b_163_14036" x="416.888" y="-94.9602" width="349.92" height="349.92" filterUnits="userSpaceOnUse" color-interpolation-filters="sRGB">
<feFlood flood-opacity="0" result="BackgroundImageFix"/>
<feGaussianBlur in="BackgroundImageFix" stdDeviation="69.984"/>
<feComposite in2="SourceAlpha" operator="in" result="effect1_backgroundBlur_163_14036"/>
<feBlend mode="normal" in="SourceGraphic" in2="effect1_backgroundBlur_163_14036" result="shape"/>
</filter>
<filter id="filter4_b_163_14036" x="587.152" y="-94.9602" width="349.92" height="349.92" filterUnits="userSpaceOnUse" color-interpolation-filters="sRGB">
<feFlood flood-opacity="0" result="BackgroundImageFix"/>
<feGaussianBlur in="BackgroundImageFix" stdDeviation="69.984"/>
<feComposite in2="SourceAlpha" operator="in" result="effect1_backgroundBlur_163_14036"/>
<feBlend mode="normal" in="SourceGraphic" in2="effect1_backgroundBlur_163_14036" result="shape"/>
</filter>
<linearGradient id="paint0_linear_163_14036" x1="218.085" y1="62.7338" x2="274.702" y2="140.059" gradientUnits="userSpaceOnUse">
<stop stop-color="#5B4DFF"/>
<stop offset="1" stop-color="#FF9524"/>
</linearGradient>
<linearGradient id="paint1_linear_163_14036" x1="590.349" y1="83.2761" x2="591.002" y2="86.4499" gradientUnits="userSpaceOnUse">
<stop offset="0.1" stop-color="#5B4DFF"/>
<stop offset="0.9" stop-color="#FF9524"/>
</linearGradient>
<linearGradient id="paint2_linear_163_14036" x1="582.82" y1="83.2761" x2="584.463" y2="85.119" gradientUnits="userSpaceOnUse">
<stop offset="0.1" stop-color="#5B4DFF"/>
<stop offset="0.9" stop-color="#FF9524"/>
</linearGradient>
<linearGradient id="paint3_linear_163_14036" x1="592.595" y1="75.3826" x2="593.297" y2="78.5341" gradientUnits="userSpaceOnUse">
<stop offset="0.1" stop-color="#FF9524"/>
<stop offset="0.9" stop-color="#5B4DFF"/>
</linearGradient>
<linearGradient id="paint4_linear_163_14036" x1="581.363" y1="69.1941" x2="587.744" y2="78.8601" gradientUnits="userSpaceOnUse">
<stop offset="0.1" stop-color="#FF9524"/>
<stop offset="0.9" stop-color="#5B4DFF"/>
</linearGradient>
<linearGradient id="paint5_linear_163_14036" x1="755.934" y1="69.0671" x2="756.31" y2="72.3319" gradientUnits="userSpaceOnUse">
<stop offset="0.1" stop-color="#FF9524"/>
<stop offset="0.9" stop-color="#5B4DFF"/>
</linearGradient>
<linearGradient id="paint6_linear_163_14036" x1="755.934" y1="74.5945" x2="756.31" y2="77.8593" gradientUnits="userSpaceOnUse">
<stop offset="0.1" stop-color="#5B4DFF"/>
<stop offset="0.9" stop-color="#FF9524"/>
</linearGradient>
<clipPath id="clip0_163_14036">
<rect x="186.256" y="31.2002" width="97.6" height="97.6" rx="20.6876" fill="white"/>
</clipPath>
</defs>
</svg>
