<svg width="93" height="48" viewBox="0 0 93 48" fill="none" xmlns="http://www.w3.org/2000/svg">
<path fill-rule="evenodd" clip-rule="evenodd" d="M16.528 6.38267H22.6686V6.37891C28.9265 6.37891 34.0025 11.0882 34.0025 16.894V27.4091C34.0025 33.215 28.9265 37.9243 22.6686 37.9243H17.5983C17.559 37.928 17.5191 37.93 17.4786 37.93H11.338V42.7406C11.338 43.0223 11.2166 43.2927 11.0021 43.4917L6.48061 47.6865C6.0313 48.1033 5.30673 48.1033 4.85742 47.6865L0.335978 43.4917C0.121442 43.2927 0 43.0223 0 42.7406V8.51391C0 7.33847 1.02816 6.3846 2.29514 6.3846H16.458C16.4811 6.38332 16.5045 6.38267 16.528 6.38267ZM17.5405 16.894C17.5173 16.8953 17.494 16.896 17.4705 16.896L11.338 16.9035V27.4186H16.4083C16.4476 27.4148 16.4875 27.4129 16.528 27.4129H21.4016C22.1019 27.4129 22.6686 26.8871 22.6686 26.2375V18.0695C22.6686 17.4198 22.1019 16.894 21.4016 16.894H17.5405Z" fill="#5B4DFF"/>
<path d="M89.6066 12.7106C88.728 13.059 90.0398 11.6417 86.5337 11.6417C84.1147 11.6417 82.4498 11.3058 81.5472 10.4854C80.6446 9.66499 80.1953 8.1216 80.1953 5.85894C80.1953 3.59628 80.6486 2.05664 81.5472 1.23249C82.4498 0.412088 84.1106 0 86.5337 0C88.9567 0 90.5974 0.412088 91.4559 1.23249C92.3144 2.05664 92.7436 3.59628 92.7436 5.85894C92.7436 11.2534 90.4891 12.3585 89.6066 12.7106Z" fill="url(#paint0_linear_2993_28582)"/>
<path fill-rule="evenodd" clip-rule="evenodd" d="M89.4126 4.28148C89.5604 4.45807 89.5322 4.71707 89.3495 4.85998L85.6009 7.79271C85.5104 7.86349 85.3939 7.89535 85.2785 7.88089C85.1631 7.86643 85.0589 7.80689 84.9901 7.71616L83.5179 5.77473C83.379 5.59151 83.42 5.33411 83.6095 5.19981C83.799 5.0655 84.0653 5.10515 84.2042 5.28837L85.4125 6.8818L88.8141 4.22051C88.9968 4.0776 89.2647 4.1049 89.4126 4.28148Z" fill="white"/>
<path d="M90.9427 16.9022L81.9038 18.0439C81.3371 18.1152 80.9121 18.5659 80.9121 19.0991V46.9342C80.9121 47.5238 81.4262 47.9969 82.0577 47.9969H91.0965C91.732 47.9969 92.242 47.52 92.242 46.9342V17.9537C92.242 17.3078 91.6268 16.8121 90.9386 16.8985L90.9427 16.9022Z" fill="#5B4DFF"/>
<path d="M61.9316 6.38672H50.5976C44.3397 6.38672 39.2637 11.096 39.2637 16.9018V46.9C39.2637 47.4896 39.8101 47.9928 40.4416 47.9928L49.4926 48.0003C50.1281 48.0003 50.6381 47.5234 50.6381 46.9375V37.9621H61.9276V46.9375C61.9276 47.5271 62.4416 48.0003 63.0731 48.0003H72.112C72.7475 48.0003 73.2575 47.5234 73.2575 46.9375V16.9018C73.2575 11.096 68.1815 6.38672 61.9235 6.38672H61.9316ZM61.9316 27.3907H50.5976V18.0735C50.5976 17.4238 51.1643 16.8981 51.8646 16.8981H60.6687C61.369 16.8981 61.9357 17.4238 61.9357 18.0735V27.3907H61.9316Z" fill="#5B4DFF"/>
<defs>
<linearGradient id="paint0_linear_2993_28582" x1="86.4695" y1="12.7705" x2="86.4695" y2="0.00374544" gradientUnits="userSpaceOnUse">
<stop stop-color="#5656F5"/>
<stop offset="1" stop-color="#F09842"/>
</linearGradient>
</defs>
</svg>
