<svg width="24" height="24" viewBox="0 0 24 24" fill="none" xmlns="http://www.w3.org/2000/svg">
<path fill-rule="evenodd" clip-rule="evenodd" d="M11.293 4.29289C11.4805 4.10536 11.7349 4 12.0001 4C12.2653 4 12.5197 4.10536 12.7072 4.29289C12.8947 4.48043 13.0001 4.73478 13.0001 5C13.0001 5.38669 13.223 5.73873 13.5726 5.90403C14.557 6.36948 15.3961 7.09402 16.0001 8C16.6041 8.90598 16.9501 9.95923 17.0012 11.0469C17.0271 11.5986 17.4953 12.0248 18.047 11.9989C18.5987 11.973 19.0249 11.5048 18.999 10.9531C18.9309 9.50291 18.4695 8.09857 17.6642 6.8906C16.9637 5.83991 16.0261 4.97224 14.9301 4.35572C14.808 3.80059 14.5296 3.28688 14.1214 2.87868C13.5588 2.31607 12.7957 2 12.0001 2C11.2044 2 10.4414 2.31607 9.87877 2.87868C9.47057 3.28688 9.19216 3.80059 9.07008 4.35572C7.97412 4.97224 7.03645 5.83991 6.33599 6.8906C5.53068 8.09857 5.06926 9.50291 5.00119 10.9531C5.00046 10.9687 5.00009 10.9844 5.00009 11V13.9353C4.93762 14.3815 4.7754 14.8082 4.52523 15.1834C4.2647 15.5742 3.91604 15.8984 3.50734 16.1298C3.11214 16.3536 2.91738 16.8156 3.03309 17.2548C3.14881 17.694 3.54593 18 4.00009 18H8C7.99986 18.9882 8.36553 19.9415 9.02653 20.6761C9.68757 21.4108 10.5972 21.8747 11.58 21.9785C12.1292 22.0365 12.6215 21.6382 12.6795 21.089C12.7375 20.5398 12.3392 20.0475 11.79 19.9895C11.2986 19.9376 10.8438 19.7057 10.5133 19.3383C10.1827 18.971 9.9999 18.4941 10 18H11.0001C11.5524 18 12.0001 17.5523 12.0001 17C12.0001 16.4477 11.5524 16 11.0001 16H9H6.37031C6.70049 15.4222 6.91259 14.7832 6.99285 14.1202C6.99767 14.0803 7.00009 14.0402 7.00009 14V11.0244C7.05484 9.94469 7.40028 8.89972 8.00009 8C8.60408 7.09402 9.44321 6.36948 10.4276 5.90403C10.7771 5.73873 11.0001 5.38669 11.0001 5C11.0001 4.73478 11.1054 4.48043 11.293 4.29289Z" fill="#262627"/>
<path d="M15 18C15 18.7956 15.3161 19.5587 15.8787 20.1213C16.4413 20.6839 17.2044 21 18 21C18.7956 21 19.5587 20.6839 20.1213 20.1213C20.6839 19.5587 21 18.7956 21 18C21 17.2044 20.6839 16.4413 20.1213 15.8787C19.5587 15.3161 18.7956 15 18 15C17.2044 15 16.4413 15.3161 15.8787 15.8787C15.3161 16.4413 15 17.2044 15 18Z" fill="#FF334B"/>
</svg>
