<svg width="96" height="24" viewBox="0 0 96 24" fill="none" xmlns="http://www.w3.org/2000/svg">
<path fill-rule="evenodd" clip-rule="evenodd" d="M6 6C5.73478 6 5.48043 6.10536 5.29289 6.29289C5.10536 6.48043 5 6.73478 5 7V19C5 19.2652 5.10536 19.5196 5.29289 19.7071C5.48043 19.8946 5.73478 20 6 20H12.5C13.0523 20 13.5 20.4477 13.5 21C13.5 21.5523 13.0523 22 12.5 22H6C5.20435 22 4.44129 21.6839 3.87868 21.1213C3.31607 20.5587 3 19.7957 3 19V7C3 6.20435 3.31607 5.44129 3.87868 4.87868C4.44129 4.31607 5.20435 4 6 4H18C18.7956 4 19.5587 4.31607 20.1213 4.87868C20.6839 5.44129 21 6.20435 21 7V12C21 12.5523 20.5523 13 20 13C19.4477 13 19 12.5523 19 12V7C19 6.73478 18.8946 6.48043 18.7071 6.29289C18.5196 6.10536 18.2652 6 18 6H6Z" fill="#262627"/>
<path fill-rule="evenodd" clip-rule="evenodd" d="M3.5 9C3.5 8.72386 3.72386 8.5 4 8.5H20C20.2761 8.5 20.5 8.72386 20.5 9C20.5 9.27614 20.2761 9.5 20 9.5H4C3.72386 9.5 3.5 9.27614 3.5 9Z" fill="#262627"/>
<path fill-rule="evenodd" clip-rule="evenodd" d="M16 2C16.5523 2 17 2.44772 17 3V7C17 7.55228 16.5523 8 16 8C15.4477 8 15 7.55228 15 7V3C15 2.44772 15.4477 2 16 2Z" fill="#262627"/>
<path fill-rule="evenodd" clip-rule="evenodd" d="M8 2C8.55228 2 9 2.44772 9 3V7C9 7.55228 8.55228 8 8 8C7.44772 8 7 7.55228 7 7V3C7 2.44772 7.44772 2 8 2Z" fill="#262627"/>
<path fill-rule="evenodd" clip-rule="evenodd" d="M19 15C19.5523 15 20 15.4477 20 16V22C20 22.5523 19.5523 23 19 23C18.4477 23 18 22.5523 18 22V16C18 15.4477 18.4477 15 19 15Z" fill="#262627"/>
<path fill-rule="evenodd" clip-rule="evenodd" d="M18.2929 15.2929C18.6834 14.9024 19.3166 14.9024 19.7071 15.2929L22.7071 18.2929C23.0976 18.6834 23.0976 19.3166 22.7071 19.7071C22.3166 20.0976 21.6834 20.0976 21.2929 19.7071L19 17.4142L16.7071 19.7071C16.3166 20.0976 15.6834 20.0976 15.2929 19.7071C14.9024 19.3166 14.9024 18.6834 15.2929 18.2929L18.2929 15.2929Z" fill="#262627"/>
<path fill-rule="evenodd" clip-rule="evenodd" d="M11.7754 17.7435C11.7302 17.831 11.6693 17.8997 11.5873 17.9384C11.5068 17.9821 11.3992 18 11.2741 18H10.3677C10.2412 18 10.1333 17.9701 10.0585 17.9003L10.0552 17.8972C10.0197 17.8594 10.0025 17.8175 10 17.7733C9.99748 17.7283 10.0103 17.6809 10.0348 17.6333L13.1254 12.3495H9.40201C9.28149 12.3495 9.17728 12.3245 9.10373 12.2634C9.03018 12.2024 9 12.1159 9 12.0159V11.3336C9 11.2336 9.03018 11.1471 9.10373 11.0861C9.17728 11.025 9.28149 11 9.40201 11H14.3029C14.5211 11 14.6988 11.0437 14.8216 11.1422C14.9449 11.241 15 11.3847 15 11.561V11.9547C15 12.0416 14.9851 12.1284 14.9556 12.2147L14.9549 12.2167L14.9562 12.2127L14.9556 12.2147C14.9338 12.2987 14.9048 12.3799 14.8685 12.4582L14.8677 12.4598L11.7754 17.7435Z" fill="#262627"/>
</svg>
