<svg width="24" height="24" viewBox="0 0 24 24" fill="none" xmlns="http://www.w3.org/2000/svg">
<path fill-rule="evenodd" clip-rule="evenodd" d="M16 2C16.5523 2 17 2.44772 17 3V4H18C18.7956 4 19.5587 4.31607 20.1213 4.87868C20.6839 5.44129 21 6.20435 21 7V11V19C21 19.7957 20.6839 20.5587 20.1213 21.1213C19.5587 21.6839 18.7957 22 18 22H6C5.20435 22 4.44129 21.6839 3.87868 21.1213C3.31607 20.5587 3 19.7957 3 19V11V7C3 6.20435 3.31607 5.44129 3.87868 4.87868C4.44129 4.31607 5.20435 4 6 4H7V3C7 2.44772 7.44772 2 8 2C8.55228 2 9 2.44772 9 3V4H15V3C15 2.44772 15.4477 2 16 2ZM19 7V10H5V7C5 6.73478 5.10536 6.48043 5.29289 6.29289C5.48043 6.10536 5.73478 6 6 6H7V7C7 7.55228 7.44772 8 8 8C8.55228 8 9 7.55228 9 7V6H15V7C15 7.55228 15.4477 8 16 8C16.5523 8 17 7.55228 17 7V6H18C18.2652 6 18.5196 6.10536 18.7071 6.29289C18.8946 6.48043 19 6.73478 19 7ZM19 12H5V19C5 19.2652 5.10536 19.5196 5.29289 19.7071C5.48043 19.8946 5.73478 20 6 20H18C18.2652 20 18.5196 19.8946 18.7071 19.7071C18.8946 19.5196 19 19.2652 19 19V12ZM7 13C6.44772 13 6 13.4477 6 14C6 14.5523 6.44772 15 7 15H7.013C7.56528 15 8.013 14.5523 8.013 14C8.013 13.4477 7.56528 13 7.013 13H7ZM9.01001 14C9.01001 13.4477 9.45773 13 10.01 13H10.015C10.5673 13 11.015 13.4477 11.015 14C11.015 14.5523 10.5673 15 10.015 15H10.01C9.45773 15 9.01001 14.5523 9.01001 14ZM13.01 13C12.4577 13 12.01 13.4477 12.01 14C12.01 14.5523 12.4577 15 13.01 15H13.015C13.5673 15 14.015 14.5523 14.015 14C14.015 13.4477 13.5673 13 13.015 13H13.01ZM15.0149 14C15.0149 13.4477 15.4626 13 16.0149 13H16.0199C16.5722 13 17.0199 13.4477 17.0199 14C17.0199 14.5523 16.5722 15 16.0199 15H16.0149C15.4626 15 15.0149 14.5523 15.0149 14ZM13.0149 16C12.4626 16 12.0149 16.4477 12.0149 17C12.0149 17.5523 12.4626 18 13.0149 18H13.0199C13.5722 18 14.0199 17.5523 14.0199 17C14.0199 16.4477 13.5722 16 13.0199 16H13.0149ZM6.01001 17C6.01001 16.4477 6.45773 16 7.01001 16H7.01501C7.56729 16 8.01501 16.4477 8.01501 17C8.01501 17.5523 7.56729 18 7.01501 18H7.01001C6.45773 18 6.01001 17.5523 6.01001 17ZM10.01 16C9.45773 16 9.01001 16.4477 9.01001 17C9.01001 17.5523 9.45773 18 10.01 18H10.015C10.5673 18 11.015 17.5523 11.015 17C11.015 16.4477 10.5673 16 10.015 16H10.01Z" fill="#262627"/>
</svg>
