<svg width="16" height="16" viewBox="0 0 16 16" fill="none" xmlns="http://www.w3.org/2000/svg">
<path fill-rule="evenodd" clip-rule="evenodd" d="M10.6667 1.33325C11.0349 1.33325 11.3333 1.63173 11.3333 1.99992V2.66659H12C12.5304 2.66659 13.0391 2.8773 13.4142 3.25237C13.7893 3.62744 14 4.13615 14 4.66659V7.33325V12.6666C14 13.197 13.7893 13.7057 13.4142 14.0808C13.0391 14.4559 12.5304 14.6666 12 14.6666H4C3.46957 14.6666 2.96086 14.4559 2.58579 14.0808C2.21071 13.7057 2 13.197 2 12.6666V7.33325V4.66659C2 4.13615 2.21071 3.62744 2.58579 3.25237C2.96086 2.8773 3.46957 2.66659 4 2.66659H4.66667V1.99992C4.66667 1.63173 4.96514 1.33325 5.33333 1.33325C5.70152 1.33325 6 1.63173 6 1.99992V2.66659H10V1.99992C10 1.63173 10.2985 1.33325 10.6667 1.33325ZM12.6667 4.66659V6.66659H3.33333V4.66659C3.33333 4.48977 3.40357 4.3202 3.5286 4.19518C3.65362 4.07016 3.82319 3.99992 4 3.99992H4.66667V4.66659C4.66667 5.03478 4.96514 5.33325 5.33333 5.33325C5.70152 5.33325 6 5.03478 6 4.66659V3.99992H10V4.66659C10 5.03478 10.2985 5.33325 10.6667 5.33325C11.0349 5.33325 11.3333 5.03478 11.3333 4.66659V3.99992H12C12.1768 3.99992 12.3464 4.07016 12.4714 4.19518C12.5964 4.32021 12.6667 4.48977 12.6667 4.66659ZM12.6667 7.99992H3.33333V12.6666C3.33333 12.8434 3.40357 13.013 3.5286 13.138C3.65362 13.263 3.82319 13.3333 4 13.3333H12C12.1768 13.3333 12.3464 13.263 12.4714 13.138C12.5964 13.013 12.6667 12.8434 12.6667 12.6666V7.99992ZM4.66667 8.66659C4.29848 8.66659 4 8.96506 4 9.33325C4 9.70144 4.29848 9.99992 4.66667 9.99992H4.67533C5.04352 9.99992 5.342 9.70144 5.342 9.33325C5.342 8.96506 5.04352 8.66659 4.67533 8.66659H4.66667ZM6.00667 9.33325C6.00667 8.96506 6.30515 8.66659 6.67334 8.66659H6.67667C7.04486 8.66659 7.34334 8.96506 7.34334 9.33325C7.34334 9.70144 7.04486 9.99992 6.67667 9.99992H6.67334C6.30515 9.99992 6.00667 9.70144 6.00667 9.33325ZM8.67334 8.66659C8.30515 8.66659 8.00667 8.96506 8.00667 9.33325C8.00667 9.70144 8.30515 9.99992 8.67334 9.99992H8.67667C9.04486 9.99992 9.34334 9.70144 9.34334 9.33325C9.34334 8.96506 9.04486 8.66659 8.67667 8.66659H8.67334ZM10.0099 9.33325C10.0099 8.96506 10.3084 8.66659 10.6766 8.66659H10.6799C11.0481 8.66659 11.3466 8.96506 11.3466 9.33325C11.3466 9.70144 11.0481 9.99992 10.6799 9.99992H10.6766C10.3084 9.99992 10.0099 9.70144 10.0099 9.33325ZM8.6766 10.6666C8.30841 10.6666 8.00993 10.9651 8.00993 11.3333C8.00993 11.7014 8.30841 11.9999 8.6766 11.9999H8.67993C9.04812 11.9999 9.34659 11.7014 9.34659 11.3333C9.34659 10.9651 9.04812 10.6666 8.67993 10.6666H8.6766ZM4.00667 11.3333C4.00667 10.9651 4.30515 10.6666 4.67334 10.6666H4.67667C5.04486 10.6666 5.34334 10.9651 5.34334 11.3333C5.34334 11.7014 5.04486 11.9999 4.67667 11.9999H4.67334C4.30515 11.9999 4.00667 11.7014 4.00667 11.3333ZM6.67334 10.6666C6.30515 10.6666 6.00667 10.9651 6.00667 11.3333C6.00667 11.7014 6.30515 11.9999 6.67334 11.9999H6.67667C7.04486 11.9999 7.34334 11.7014 7.34334 11.3333C7.34334 10.9651 7.04486 10.6666 6.67667 10.6666H6.67334Z" fill="white"/>
</svg>
