<svg width="48" height="48" viewBox="0 0 48 48" fill="none" xmlns="http://www.w3.org/2000/svg">
<path d="M6 12C6 9.23858 8.23858 7 11 7H37C39.7614 7 42 9.23858 42 12V32.1584C42 34.9198 39.7614 37.1584 37 37.1584H17.7679C16.9429 37.1584 16.138 37.4135 15.4636 37.8888L12.0488 40.2954C11.4035 40.7502 10.6963 40.9724 10 41C7.9525 41.0812 6 39.4795 6 37.1584L6 12Z" fill="white"/>
<path d="M2 20C2 18.3431 3.34315 17 5 17V29C3.34315 29 2 27.6569 2 26V20Z" fill="white"/>
<path d="M43 17C44.6569 17 46 18.3431 46 20V26C46 27.6569 44.6569 29 43 29V17Z" fill="white"/>
<path d="M18.7159 16.9931H17.2718C17.1224 16.9931 17.0024 17.114 17.0024 17.2625V19.3882C17.0024 19.5376 17.1233 19.6576 17.2718 19.6576H18.418C18.5827 19.6576 18.7159 19.7908 18.7159 19.9555V22.026C18.7159 22.1906 18.5827 22.3239 18.418 22.3239H17.2718C17.1224 22.3239 17.0024 22.4448 17.0024 22.5933V24.7189C17.0024 24.8684 17.1233 24.9883 17.2718 24.9883H18.7159C20.1876 24.9883 21.3814 23.7946 21.3814 22.323V19.6576C21.3814 18.1859 20.1876 16.9922 18.7159 16.9922V16.9931Z" fill="url(#paint0_linear_2005_24435)"/>
<path d="M16.3517 19.6586C16.5012 19.6586 16.6211 19.5377 16.6211 19.3892V17.2635C16.6211 17.1141 16.5002 16.9941 16.3517 16.9941H12.7829C12.485 16.9941 12.2432 17.2359 12.2432 17.5339V26.2097C12.2432 26.2811 12.2717 26.3496 12.3222 26.4001L13.3855 27.4634C13.4912 27.569 13.6616 27.569 13.7672 27.4634L14.8305 26.4001C14.881 26.3496 14.9095 26.2811 14.9095 26.2097V24.9903H16.3536C16.5031 24.9903 16.623 24.8694 16.623 24.7209V22.5953C16.623 22.4458 16.5021 22.3259 16.3536 22.3259H14.9095V19.6605L16.3517 19.6586Z" fill="url(#paint1_linear_2005_24435)"/>
<path d="M35.0182 18.5959C34.8116 18.6842 35.1201 18.325 34.2955 18.325C33.7267 18.325 33.3351 18.2398 33.1229 18.0319C32.9106 17.8239 32.8049 17.4327 32.8049 16.8592C32.8049 16.2856 32.9115 15.8953 33.1229 15.6864C33.3351 15.4785 33.7257 15.374 34.2955 15.374C34.8654 15.374 35.2512 15.4785 35.4531 15.6864C35.655 15.8953 35.7559 16.2856 35.7559 16.8592C35.7559 18.2265 35.2257 18.5067 35.0182 18.5959Z" fill="url(#paint2_linear_2005_24435)"/>
<path fill-rule="evenodd" clip-rule="evenodd" d="M34.9718 16.4596C35.0066 16.5043 34.9999 16.57 34.957 16.6062L34.0754 17.3496C34.0541 17.3675 34.0267 17.3756 33.9996 17.372C33.9724 17.3683 33.9479 17.3532 33.9317 17.3302L33.5855 16.8381C33.5529 16.7916 33.5625 16.7264 33.6071 16.6924C33.6516 16.6583 33.7143 16.6684 33.7469 16.7148L34.0311 17.1187L34.8311 16.4441C34.874 16.4079 34.937 16.4148 34.9718 16.4596Z" fill="white"/>
<path d="M35.3325 19.6587L33.2069 19.9481C33.0736 19.9662 32.9736 20.0804 32.9736 20.2156V27.2712C32.9736 27.4207 33.0945 27.5406 33.243 27.5406H35.3687C35.5182 27.5406 35.6381 27.4197 35.6381 27.2712V19.9252C35.6381 19.7615 35.4934 19.6359 35.3316 19.6578L35.3325 19.6587Z" fill="#5656F5"/>
<path d="M28.5103 16.9932H25.8449C24.3732 16.9932 23.1794 18.1869 23.1794 19.6585V27.2625C23.1794 27.412 23.308 27.5395 23.4565 27.5395L25.585 27.5414C25.7344 27.5414 25.8544 27.4205 25.8544 27.272V24.9969H28.5093V27.272C28.5093 27.4215 28.6302 27.5414 28.7787 27.5414H30.9044C31.0539 27.5414 31.1738 27.4205 31.1738 27.272V19.6585C31.1738 18.1869 29.9801 16.9932 28.5084 16.9932H28.5103ZM28.5103 22.3173H25.8449V19.9555C25.8449 19.7909 25.9781 19.6576 26.1428 19.6576H28.2133C28.378 19.6576 28.5112 19.7909 28.5112 19.9555V22.3173H28.5103Z" fill="url(#paint3_linear_2005_24435)"/>
<defs>
<linearGradient id="paint0_linear_2005_24435" x1="17.0024" y1="-42.9837" x2="21.3814" y2="-42.9837" gradientUnits="userSpaceOnUse">
<stop stop-color="#9571AA"/>
<stop offset="0.15" stop-color="#7E67C5"/>
<stop offset="0.3" stop-color="#6C5FDA"/>
<stop offset="0.48" stop-color="#5F5AE9"/>
<stop offset="0.69" stop-color="#5857F2"/>
<stop offset="1" stop-color="#5656F5"/>
</linearGradient>
<linearGradient id="paint1_linear_2005_24435" x1="12.2422" y1="-42.9836" x2="16.6211" y2="-42.9836" gradientUnits="userSpaceOnUse">
<stop stop-color="#F09842"/>
<stop offset="0.25" stop-color="#ED9644"/>
<stop offset="0.44" stop-color="#E5934E"/>
<stop offset="0.6" stop-color="#D78D5D"/>
<stop offset="0.74" stop-color="#C48574"/>
<stop offset="0.88" stop-color="#AC7A90"/>
<stop offset="1" stop-color="#916FB0"/>
</linearGradient>
<linearGradient id="paint2_linear_2005_24435" x1="34.2804" y1="18.6111" x2="34.2804" y2="15.375" gradientUnits="userSpaceOnUse">
<stop stop-color="#5656F5"/>
<stop offset="1" stop-color="#F09842"/>
</linearGradient>
<linearGradient id="paint3_linear_2005_24435" x1="23.1909" y1="27.3206" x2="31.3841" y2="18.7627" gradientUnits="userSpaceOnUse">
<stop stop-color="#AEC0CF"/>
<stop offset="0.36" stop-color="#5656F5"/>
</linearGradient>
</defs>
</svg>
