<svg width="48" height="48" viewBox="0 0 48 48" fill="none" xmlns="http://www.w3.org/2000/svg">
<path fillRule="evenodd" clipRule="evenodd" d="M6 10C6 7.23858 8.23858 5 11 5H37C39.7614 5 42 7.23858 42 10V38C42 40.7614 39.7614 43 37 43H11C8.23858 43 6 40.7614 6 38V10ZM10.5 36C9.11929 36 8 37.1193 8 38.5C8 39.8807 9.11929 41 10.5 41H36C38.2091 41 40 39.2091 40 37V36H10.5ZM7 38.5C7 36.567 8.567 35 10.5 35H40C40.5523 35 41 35.4477 41 36V37C41 39.7614 38.7614 42 36 42H10.5C8.567 42 7 40.433 7 38.5ZM16.5 19C15.6716 19 15 19.6716 15 20.5C15 21.3284 15.6716 22 16.5 22H35.5C36.3284 22 37 21.3284 37 20.5C37 19.6716 36.3284 19 35.5 19H16.5ZM15 13.5C15 12.6716 15.6716 12 16.5 12H35.5C36.3284 12 37 12.6716 37 13.5C37 14.3284 36.3284 15 35.5 15H16.5C15.6716 15 15 14.3284 15 13.5ZM11 7.5C11 7.22386 10.7761 7 10.5 7C10.2239 7 10 7.22386 10 7.5V33.5C10 33.7761 10.2239 34 10.5 34C10.7761 34 11 33.7761 11 33.5V7.5Z" fill="#A5A4A7"/>
</svg>
