<svg width="48" height="48" viewBox="0 0 48 48" fill="none" xmlns="http://www.w3.org/2000/svg">
<path fill-rule="evenodd" clip-rule="evenodd" d="M6.88 14.6998C5.71048 15.4308 5 16.7126 5 18.0918V37.9998C5 40.2089 6.79086 41.9998 9 41.9998H39C41.2091 41.9998 43 40.2089 43 37.9998V18.0918C43 16.7126 42.2895 15.4308 41.12 14.6998L26.12 4.60801C25.4715 4.20267 24.7357 4 24 4C23.2643 4 22.5285 4.20267 21.88 4.60801L6.88 14.6998ZM12.5 35.9999C11.6716 35.9999 11 36.6715 11 37.4999C11 38.3283 11.6716 38.9999 12.5 38.9999H35.5C36.3284 38.9999 37 38.3283 37 37.4999C37 36.6715 36.3284 35.9999 35.5 35.9999H12.5Z" fill="white"/>
<path d="M11 37.5C11 36.6716 11.6716 36 12.5 36H35.5C36.3284 36 37 36.6716 37 37.5C37 38.3284 36.3284 39 35.5 39H12.5C11.6716 39 11 38.3284 11 37.5Z" fill="url(#paint0_linear_2005_24431)"/>
<defs>
<linearGradient id="paint0_linear_2005_24431" x1="15" y1="36.0492" x2="15.4267" y2="40.1965" gradientUnits="userSpaceOnUse">
<stop offset="0.1" stop-color="#FF9524"/>
<stop offset="0.9" stop-color="#5B4DFF"/>
</linearGradient>
</defs>
</svg>
