<svg width="22" height="22" viewBox="0 0 22 22" fill="none" xmlns="http://www.w3.org/2000/svg">
<path fill-rule="evenodd" clip-rule="evenodd" d="M9.16683 1.83398C8.2038 1.83398 7.25021 2.02367 6.36048 2.3922C5.47076 2.76074 4.66234 3.3009 3.98138 3.98187C3.30042 4.66283 2.76025 5.47125 2.39171 6.36097C2.02318 7.25069 1.8335 8.20429 1.8335 9.16732C1.8335 10.1303 2.02318 11.0839 2.39171 11.9737C2.76025 12.8634 3.30042 13.6718 3.98138 14.3528C4.66234 15.0337 5.47076 15.5739 6.36048 15.9424C7.25021 16.311 8.2038 16.5007 9.16683 16.5007C10.1299 16.5007 11.0835 16.311 11.9732 15.9424C12.5792 15.6914 13.1474 15.3608 13.6634 14.9603L18.602 19.8988C18.96 20.2568 19.5404 20.2568 19.8983 19.8988C20.2563 19.5409 20.2563 18.9604 19.8983 18.6025L14.9598 13.6639C15.3603 13.1479 15.6909 12.5797 15.9419 11.9737C16.3105 11.0839 16.5002 10.1303 16.5002 9.16732C16.5002 8.20429 16.3105 7.25069 15.9419 6.36097C15.5734 5.47125 15.0332 4.66283 14.3523 3.98187C13.6713 3.30091 12.8629 2.76074 11.9732 2.3922C11.0835 2.02367 10.1299 1.83398 9.16683 1.83398ZM7.06207 4.08598C7.72936 3.80958 8.44456 3.66732 9.16683 3.66732C9.8891 3.66732 10.6043 3.80958 11.2716 4.08598C11.9389 4.36238 12.5452 4.76751 13.0559 5.27823C13.5666 5.78895 13.9718 6.39527 14.2482 7.06256C14.5246 7.72985 14.6668 8.44505 14.6668 9.16732C14.6668 9.88959 14.5246 10.6048 14.2482 11.2721C13.9718 11.9394 13.5666 12.5457 13.0559 13.0564C12.5452 13.5671 11.9389 13.9723 11.2716 14.2487C10.6043 14.5251 9.8891 14.6673 9.16683 14.6673C8.44456 14.6673 7.72936 14.5251 7.06207 14.2487C6.39478 13.9723 5.78846 13.5671 5.27774 13.0564C4.76702 12.5457 4.36189 11.9394 4.08549 11.2721C3.80909 10.6048 3.66683 9.88959 3.66683 9.16732C3.66683 8.44505 3.80909 7.72985 4.08549 7.06256C4.36189 6.39527 4.76702 5.78895 5.27774 5.27823C5.78846 4.76751 6.39478 4.36238 7.06207 4.08598Z" fill="#58585B"/>
</svg>
