<svg width="48" height="48" viewBox="0 0 48 48" fill="none" xmlns="http://www.w3.org/2000/svg">
<path fill-rule="evenodd" clip-rule="evenodd" d="M41 10.5C41 8.567 39.433 7 37.5 7H10.5C8.567 7 7 8.567 7 10.5V37.5C7 39.433 8.567 41 10.5 41H37.5C39.433 41 41 39.433 41 37.5V10.5ZM10 5C7.23858 5 5 7.23858 5 10V38C5 40.7614 7.23858 43 10 43H38C40.7614 43 43 40.7614 43 38V10C43 7.23858 40.7614 5 38 5H10Z" fill="#A5A4A7"/>
<path fill-rule="evenodd" clip-rule="evenodd" d="M8 11C8 9.34315 9.34315 8 11 8H37C38.6569 8 40 9.34315 40 11V37C40 38.6569 38.6569 40 37 40H11C9.34315 40 8 38.6569 8 37V11ZM22 31.5C22 30.6716 22.6716 30 23.5 30H33.5C34.3284 30 35 30.6716 35 31.5C35 32.3284 34.3284 33 33.5 33H23.5C22.6716 33 22 32.3284 22 31.5ZM15.5 33C16.3284 33 17 32.3284 17 31.5C17 30.6716 16.3284 30 15.5 30C14.6716 30 14 30.6716 14 31.5C14 32.3284 14.6716 33 15.5 33ZM25 21.5C25 20.6716 25.6199 20 26.3846 20H35.6154C36.3801 20 37 20.6716 37 21.5C37 22.3284 36.3801 23 35.6154 23H26.3846C25.6199 23 25 22.3284 25 21.5ZM26.4142 15.4142C27.1953 14.6332 27.1953 13.3668 26.4142 12.5858C25.6332 11.8047 24.3668 11.8047 23.5858 12.5858L16 20.1716L13.4142 17.5858C12.6332 16.8047 11.3668 16.8047 10.5858 17.5858C9.80474 18.3668 9.80474 19.6332 10.5858 20.4142L13.8787 23.7071C15.0503 24.8787 16.9497 24.8787 18.1213 23.7071L26.4142 15.4142Z" fill="#A5A4A7"/>
</svg>
