<svg width="22" height="22" viewBox="0 0 22 22" fill="none" xmlns="http://www.w3.org/2000/svg">
<path fill-rule="evenodd" clip-rule="evenodd" d="M17.1483 6.14883C17.5063 5.79085 17.5063 5.21045 17.1483 4.85247C16.7904 4.49449 16.21 4.49449 15.852 4.85247L11.0002 9.70429L6.14834 4.85247C5.79036 4.49449 5.20996 4.49449 4.85198 4.85247C4.494 5.21045 4.494 5.79085 4.85198 6.14883L9.7038 11.0007L4.85198 15.8525C4.494 16.2105 4.494 16.7909 4.85198 17.1488C5.20996 17.5068 5.79036 17.5068 6.14834 17.1488L11.0002 12.297L15.852 17.1488C16.21 17.5068 16.7904 17.5068 17.1483 17.1488C17.5063 16.7909 17.5063 16.2105 17.1483 15.8525L12.2965 11.0007L17.1483 6.14883Z" fill="#58585B"/>
</svg>
